G04*
G04 #@! TF.GenerationSoftware,Altium Limited,Altium Designer,22.7.1 (60)*
G04*
G04 Layer_Color=16711935*
%FSLAX44Y44*%
%MOMM*%
G71*
G04*
G04 #@! TF.SameCoordinates,BBA0BEE0-45CE-4415-A0BC-CE460DC89FB0*
G04*
G04*
G04 #@! TF.FilePolarity,Positive*
G04*
G01*
G75*
%ADD10C,0.2000*%
%ADD15C,0.1270*%
%ADD92C,0.1000*%
%ADD93C,0.0508*%
D10*
X88920Y92750D02*
G03*
X88920Y92750I-1000J0D01*
G01*
X187620Y222140D02*
Y367140D01*
X335620D01*
Y222140D02*
Y367140D01*
D15*
X235400Y109800D02*
X272600D01*
Y42600D02*
Y109800D01*
X235400Y42600D02*
X272600D01*
X235400D02*
Y109800D01*
X77220Y2750D02*
Y75750D01*
X166620D01*
Y2750D02*
Y75750D01*
X77220Y2750D02*
X166620D01*
D92*
X122070Y107650D02*
G03*
X122070Y107650I-5000J0D01*
G01*
X213360Y35560D02*
X365760D01*
X213360Y10160D02*
X365760D01*
X213360D02*
Y35560D01*
X365760Y10160D02*
Y35560D01*
X103970Y261830D02*
X114470D01*
X103970Y256330D02*
X114470D01*
Y261830D01*
X103970Y256330D02*
Y261830D01*
Y274530D02*
X114470D01*
X103970Y269030D02*
X114470D01*
Y274530D01*
X103970Y269030D02*
Y274530D01*
X101570Y143150D02*
X126570D01*
X101570Y98150D02*
X126570D01*
X101570D02*
Y143150D01*
X126570Y98150D02*
Y143150D01*
X114070Y115650D02*
Y125650D01*
X109070Y120650D02*
X119070D01*
X168020Y205640D02*
X355220D01*
X168020D02*
Y377140D01*
X355220D01*
Y205640D02*
Y377140D01*
X342900Y120650D02*
Y146050D01*
X190500Y120650D02*
Y146050D01*
Y120650D02*
X342900D01*
X190500Y146050D02*
X342900D01*
X48344Y364534D02*
Y370034D01*
X58844Y364534D02*
Y370034D01*
X48344D02*
X58844D01*
X48344Y364534D02*
X58844D01*
X325290Y50590D02*
Y56090D01*
X314790Y50590D02*
Y56090D01*
Y50590D02*
X325290D01*
X314790Y56090D02*
X325290D01*
X200600Y50730D02*
Y61030D01*
X205800Y50730D02*
Y61030D01*
X200600Y50730D02*
X205800D01*
X200600Y61030D02*
X205800D01*
X73590Y147380D02*
X83890D01*
X73590Y142180D02*
X83890D01*
X73590D02*
Y147380D01*
X83890Y142180D02*
Y147380D01*
X300820Y152190D02*
Y157690D01*
X311320Y152190D02*
Y157690D01*
X300820D02*
X311320D01*
X300820Y152190D02*
X311320D01*
X35390Y218230D02*
Y223730D01*
X45890Y218230D02*
Y223730D01*
X35390D02*
X45890D01*
X35390Y218230D02*
X45890D01*
X4870Y223350D02*
X10370D01*
X4870Y233850D02*
X10370D01*
X4870Y223350D02*
Y233850D01*
X10370Y223350D02*
Y233850D01*
X35390Y230930D02*
Y236430D01*
X45890Y230930D02*
Y236430D01*
X35390D02*
X45890D01*
X35390Y230930D02*
X45890D01*
X17570Y223350D02*
X23070D01*
X17570Y233850D02*
X23070D01*
X17570Y223350D02*
Y233850D01*
X23070Y223350D02*
Y233850D01*
X20250Y350460D02*
X30550D01*
X20250Y355660D02*
X30550D01*
Y350460D02*
Y355660D01*
X20250Y350460D02*
Y355660D01*
X290760Y205680D02*
X301060D01*
X290760Y210880D02*
X301060D01*
Y205680D02*
Y210880D01*
X290760Y205680D02*
Y210880D01*
X177590Y43010D02*
X183090D01*
X177590Y53510D02*
X183090D01*
X177590Y43010D02*
Y53510D01*
X183090Y43010D02*
Y53510D01*
X177590Y15070D02*
X183090D01*
X177590Y25570D02*
X183090D01*
X177590Y15070D02*
Y25570D01*
X183090Y15070D02*
Y25570D01*
D93*
X61340Y349822D02*
Y357822D01*
X45340Y349822D02*
Y357822D01*
Y349822D02*
X61340D01*
X45340Y357822D02*
X61340D01*
X50800Y353822D02*
X55880D01*
X53340Y351282D02*
Y356362D01*
X312040Y62040D02*
Y70040D01*
X328040Y62040D02*
Y70040D01*
X312040D02*
X328040D01*
X312040Y62040D02*
X328040D01*
X317500Y66040D02*
X322580D01*
X320040Y63500D02*
Y68580D01*
X187580Y75398D02*
X203582D01*
X187580D02*
Y102400D01*
X203582D01*
Y75398D02*
Y102400D01*
X201580Y94400D02*
Y104900D01*
X189580Y94400D02*
X201580D01*
X189580Y104900D02*
X201580D01*
X189580Y94400D02*
Y104900D01*
X201582Y72898D02*
X201582Y83398D01*
X189582Y72898D02*
X201582D01*
X189582Y83398D02*
X201582D01*
X189582Y72898D02*
Y83398D01*
X195580Y86360D02*
Y91440D01*
X193040Y88900D02*
X198120D01*
X76200Y116840D02*
X81280D01*
X78740Y114300D02*
Y119380D01*
X72742Y100838D02*
Y111338D01*
X84742D01*
X72742Y100838D02*
X84742D01*
X84742Y111338D01*
X72740Y122340D02*
Y132840D01*
X84740D01*
X72740Y122340D02*
X84740D01*
Y132840D01*
X86742Y103338D02*
Y130340D01*
X70740D02*
X86742D01*
X70740Y103338D02*
Y130340D01*
Y103338D02*
X86742D01*
M02*
