M48
;Layer_Color=9474304
;FILE_FORMAT=2:4
METRIC,LZ
;TYPE=PLATED
T1F00S00C0.2000
T3F00S00C0.6700
T4F00S00C1.1000
T5F00S00C1.6000
T6F00S00C3.5000
;TYPE=NON_PLATED
T7F00S00C0.7000
T8F00S00C1.0000
%
T01
X10414Y054102
Y060241
Y064602
X114046Y097536
X119816
X14732Y09398
X14605Y09017
X17399Y11811
X208065Y0762
X23622
X24384
X25146
X25908
X2667
X27432
X222504Y159258
X281686Y20828
X27686Y23368
X27178
X28956
X29464
X29972
X3302Y254
Y3048
X3556
X381
X3683Y3302
X3556Y3556
X2921Y3302
X2667
X2413
X2159
X2286Y3048
X254
X2794
X3048
X20701Y2921
X2032Y28194
X171958Y303784
X177038Y309626
X17145Y31496
X171704Y321818
X1397Y329993
X1143Y3302
X095758Y316484
X09525Y29464
X094913Y284956
X094075Y274453
X095504Y268315
Y262545
X072255Y258071
X072371Y252176
X06985Y24511
Y23495
Y22606
X03489Y23368
X03429Y25273
X005842Y251714
X007047Y244745
X007212Y262696
X027239Y282966
X027432Y297942
X03379Y305317
X042245Y306606
Y314438
X03429Y3175
X0381Y3302
X0508Y32766
X061869Y326885
X069745Y31793
Y30293
X069745Y28793
X069745Y27293
X042245Y276581
Y284522
Y291485
Y298664
X01524Y32639
Y33147
Y33782
Y34417
X06731Y350012
Y356362
X069088Y36703
X1016Y3556
X127
Y3048
X119126Y297434
X1143Y2794
X142494Y263652
X145796Y246126
X172974Y25273
X173228Y258826
X1778Y36068
X18542
X19304
X20066
X20828
X10668Y14478
X100505
X09398
X05334Y11176
X05715Y10795
X06096Y10414
X01524Y202184
Y208332
Y21448
T03
X023822Y258402
X023822Y332402
T04
X22606Y02286
X25146
X27686
X30226
X32766
X35306
X3302Y13335
X3048
X2794
X254
X2286
X2032
X13589Y16543
T05
X13589Y36543
T06
X368489Y26508
T07
X09302Y06525
X15082
T08
X231902Y329946
X311658
M30
