G04*
G04 #@! TF.GenerationSoftware,Altium Limited,Altium Designer,22.7.1 (60)*
G04*
G04 Layer_Physical_Order=4*
G04 Layer_Color=16711680*
%FSLAX44Y44*%
%MOMM*%
G71*
G04*
G04 #@! TF.SameCoordinates,685117A2-6A88-48EB-B9DE-98E527D6E63A*
G04*
G04*
G04 #@! TF.FilePolarity,Positive*
G04*
G01*
G75*
%ADD19C,0.0889*%
%ADD36R,0.7500X0.6000*%
%ADD70C,0.2175*%
%ADD75C,1.6000*%
%ADD76R,1.6000X1.6000*%
%ADD77C,0.7000*%
%ADD78O,1.0500X2.1000*%
%ADD80C,1.0000*%
%ADD81C,1.1001*%
%ADD82C,1.6000*%
%ADD83C,0.3000*%
%ADD84C,0.6700*%
%ADD85C,4.0000*%
G36*
X357440Y375204D02*
X363513Y373577D01*
X369322Y371171D01*
X374766Y368027D01*
X379754Y364200D01*
X384200Y359754D01*
X388027Y354766D01*
X391171Y349322D01*
X393577Y343513D01*
X395204Y337440D01*
X396024Y331207D01*
Y328064D01*
X396025Y50064D01*
Y46920D01*
X395204Y40687D01*
X393577Y34614D01*
X391171Y28805D01*
X388027Y23361D01*
X384200Y18373D01*
X379754Y13927D01*
X374766Y10100D01*
X369322Y6956D01*
X363513Y4550D01*
X357440Y2923D01*
X351207Y2103D01*
X46920D01*
X40687Y2923D01*
X34614Y4550D01*
X28805Y6956D01*
X23361Y10100D01*
X18373Y13927D01*
X13927Y18373D01*
X10100Y23361D01*
X6956Y28805D01*
X4550Y34614D01*
X2923Y40687D01*
X2103Y46920D01*
Y50064D01*
X2103Y247829D01*
X3372Y248677D01*
X3424Y248656D01*
X4816D01*
X6103Y249189D01*
X6577Y249664D01*
X25771D01*
X26725Y249853D01*
X27533Y250394D01*
X29520Y252381D01*
X30257Y252179D01*
X30842Y251907D01*
X31323Y250747D01*
X32307Y249763D01*
X33594Y249230D01*
X34986D01*
X36273Y249763D01*
X36747Y250238D01*
X71203D01*
X71677Y249763D01*
X72964Y249230D01*
X74356D01*
X75643Y249763D01*
X76627Y250747D01*
X77160Y252034D01*
Y253426D01*
X76627Y254713D01*
X76070Y255270D01*
X76627Y255827D01*
X77160Y257114D01*
Y258506D01*
X76627Y259793D01*
X75643Y260777D01*
X74356Y261310D01*
X72964D01*
X71677Y260777D01*
X71203Y260302D01*
X31425D01*
X30471Y260113D01*
X30320Y260012D01*
X28858Y260367D01*
X28758Y260465D01*
X28358Y261432D01*
X26853Y262938D01*
X24886Y263752D01*
X22758D01*
X20791Y262938D01*
X19287Y261432D01*
X18472Y259466D01*
Y257338D01*
X19060Y255919D01*
X18350Y254649D01*
X6577D01*
X6103Y255123D01*
X4816Y255656D01*
X3424D01*
X3372Y255635D01*
X2103Y256483D01*
X2103Y328064D01*
Y331207D01*
X2923Y337440D01*
X4550Y343513D01*
X6956Y349322D01*
X10100Y354766D01*
X13927Y359754D01*
X18373Y364200D01*
X23361Y368027D01*
X28805Y371171D01*
X34614Y373577D01*
X40687Y375204D01*
X46920Y376024D01*
X131885D01*
X132052Y374754D01*
X132030Y374749D01*
X129750Y373432D01*
X127888Y371570D01*
X126572Y369290D01*
X125890Y366747D01*
Y364114D01*
X126572Y361570D01*
X127888Y359290D01*
X129750Y357428D01*
X132030Y356112D01*
X134573Y355430D01*
X137206D01*
X139750Y356112D01*
X142030Y357428D01*
X143892Y359290D01*
X145209Y361570D01*
X145890Y364114D01*
Y366747D01*
X145209Y369290D01*
X143892Y371570D01*
X142030Y373432D01*
X139750Y374749D01*
X139728Y374754D01*
X139895Y376024D01*
X351207D01*
X357440Y375204D01*
D02*
G37*
%LPC*%
G36*
X208976Y364180D02*
X207584D01*
X206297Y363647D01*
X205313Y362663D01*
X205157Y362287D01*
X203783D01*
X203627Y362663D01*
X202643Y363647D01*
X201356Y364180D01*
X199964D01*
X198677Y363647D01*
X197693Y362663D01*
X197537Y362287D01*
X196163D01*
X196007Y362663D01*
X195023Y363647D01*
X193736Y364180D01*
X192344D01*
X191057Y363647D01*
X190073Y362663D01*
X189917Y362287D01*
X188543D01*
X188387Y362663D01*
X187403Y363647D01*
X186116Y364180D01*
X184724D01*
X183437Y363647D01*
X182453Y362663D01*
X182297Y362287D01*
X180923D01*
X180767Y362663D01*
X179783Y363647D01*
X178496Y364180D01*
X177104D01*
X175817Y363647D01*
X174833Y362663D01*
X174300Y361376D01*
Y359984D01*
X174833Y358697D01*
X175817Y357713D01*
X177104Y357180D01*
X178496D01*
X179783Y357713D01*
X180767Y358697D01*
X180923Y359073D01*
X182297D01*
X182453Y358697D01*
X183437Y357713D01*
X184724Y357180D01*
X186116D01*
X187403Y357713D01*
X188387Y358697D01*
X188543Y359073D01*
X189917D01*
X190073Y358697D01*
X191057Y357713D01*
X192344Y357180D01*
X193736D01*
X195023Y357713D01*
X196007Y358697D01*
X196163Y359073D01*
X197537D01*
X197693Y358697D01*
X198677Y357713D01*
X199964Y357180D01*
X201356D01*
X202643Y357713D01*
X203627Y358697D01*
X203783Y359073D01*
X205157D01*
X205313Y358697D01*
X206297Y357713D01*
X207584Y357180D01*
X208976D01*
X210263Y357713D01*
X211247Y358697D01*
X211780Y359984D01*
Y361376D01*
X211247Y362663D01*
X210263Y363647D01*
X208976Y364180D01*
D02*
G37*
G36*
X68006Y359100D02*
X66614D01*
X65327Y358567D01*
X64343Y357583D01*
X63810Y356296D01*
Y354904D01*
X64343Y353617D01*
X64706Y353255D01*
X65203Y352425D01*
X64706Y351595D01*
X64343Y351233D01*
X63810Y349946D01*
Y348554D01*
X64343Y347267D01*
X65327Y346283D01*
X66614Y345750D01*
X68006D01*
X69293Y346283D01*
X70277Y347267D01*
X70810Y348554D01*
Y349946D01*
X70277Y351233D01*
X69914Y351595D01*
X69417Y352425D01*
X69914Y353255D01*
X70277Y353617D01*
X70810Y354904D01*
Y356296D01*
X70277Y357583D01*
X69293Y358567D01*
X68006Y359100D01*
D02*
G37*
G36*
X15936Y347670D02*
X14544D01*
X13257Y347137D01*
X12273Y346153D01*
X11740Y344866D01*
Y343474D01*
X12273Y342187D01*
X12636Y341825D01*
X13133Y340995D01*
X12636Y340165D01*
X12273Y339803D01*
X11740Y338516D01*
Y337124D01*
X12273Y335837D01*
X12636Y335475D01*
X13133Y334645D01*
X12636Y333815D01*
X12273Y333453D01*
X11740Y332166D01*
Y330774D01*
X12273Y329487D01*
X12830Y328930D01*
X12273Y328373D01*
X11740Y327086D01*
Y325694D01*
X12273Y324407D01*
X13257Y323423D01*
X14544Y322890D01*
X15936D01*
X17223Y323423D01*
X18207Y324407D01*
X18740Y325694D01*
Y327086D01*
X18359Y328007D01*
X18517Y328411D01*
X19548Y328694D01*
X20077Y328581D01*
X20791Y327867D01*
X22758Y327052D01*
X24886D01*
X26853Y327867D01*
X28358Y329371D01*
X29172Y331338D01*
Y333466D01*
X28358Y335433D01*
X26853Y336937D01*
X24886Y337752D01*
X22758D01*
X20791Y336937D01*
X19504Y335650D01*
X18428Y336370D01*
X18740Y337124D01*
Y338516D01*
X18207Y339803D01*
X17844Y340165D01*
X17347Y340995D01*
X17844Y341825D01*
X18207Y342187D01*
X18740Y343474D01*
Y344866D01*
X18207Y346153D01*
X17223Y347137D01*
X15936Y347670D01*
D02*
G37*
G36*
X69530Y369006D02*
X68138D01*
X66851Y368473D01*
X65867Y367489D01*
X65334Y366202D01*
Y364810D01*
X65867Y363523D01*
X66851Y362539D01*
X68138Y362006D01*
X68809D01*
X70374Y360442D01*
X71182Y359901D01*
X72136Y359712D01*
X106457D01*
X136200Y329968D01*
Y329297D01*
X136733Y328010D01*
X137717Y327026D01*
X139004Y326493D01*
X140396D01*
X141683Y327026D01*
X142667Y328010D01*
X143200Y329297D01*
Y330689D01*
X142667Y331976D01*
X141683Y332960D01*
X140396Y333493D01*
X139725D01*
X109251Y363966D01*
X108443Y364507D01*
X107489Y364696D01*
X73168D01*
X72334Y365531D01*
Y366202D01*
X71801Y367489D01*
X70817Y368473D01*
X69530Y369006D01*
D02*
G37*
G36*
X62926Y331160D02*
X61534D01*
X60247Y330627D01*
X59263Y329643D01*
X58730Y328356D01*
Y326964D01*
X59263Y325677D01*
X60247Y324693D01*
X61534Y324160D01*
X62926D01*
X64213Y324693D01*
X65197Y325677D01*
X65730Y326964D01*
Y328356D01*
X65197Y329643D01*
X64213Y330627D01*
X62926Y331160D01*
D02*
G37*
G36*
X51496D02*
X50104D01*
X48817Y330627D01*
X47833Y329643D01*
X47300Y328356D01*
Y326964D01*
X47833Y325677D01*
X48817Y324693D01*
X50104Y324160D01*
X51496D01*
X52783Y324693D01*
X53767Y325677D01*
X54300Y326964D01*
Y328356D01*
X53767Y329643D01*
X52783Y330627D01*
X51496Y331160D01*
D02*
G37*
G36*
X312580Y336946D02*
X310736D01*
X308956Y336469D01*
X307360Y335547D01*
X306057Y334244D01*
X305135Y332648D01*
X304658Y330868D01*
Y329024D01*
X305135Y327244D01*
X306057Y325648D01*
X307360Y324345D01*
X308956Y323423D01*
X310736Y322946D01*
X312580D01*
X314360Y323423D01*
X315956Y324345D01*
X317259Y325648D01*
X318181Y327244D01*
X318658Y329024D01*
Y330868D01*
X318181Y332648D01*
X317259Y334244D01*
X315956Y335547D01*
X314360Y336469D01*
X312580Y336946D01*
D02*
G37*
G36*
X232824D02*
X230980D01*
X229200Y336469D01*
X227604Y335547D01*
X226301Y334244D01*
X225379Y332648D01*
X224902Y330868D01*
Y329024D01*
X225379Y327244D01*
X226301Y325648D01*
X227604Y324345D01*
X229200Y323423D01*
X230980Y322946D01*
X232824D01*
X234604Y323423D01*
X236200Y324345D01*
X237503Y325648D01*
X238425Y327244D01*
X238902Y329024D01*
Y330868D01*
X238425Y332648D01*
X237503Y334244D01*
X236200Y335547D01*
X234604Y336469D01*
X232824Y336946D01*
D02*
G37*
G36*
X34986Y321000D02*
X33594D01*
X32307Y320467D01*
X31323Y319483D01*
X30790Y318196D01*
Y316804D01*
X31323Y315517D01*
X31798Y315043D01*
Y307257D01*
X31323Y306783D01*
X30790Y305496D01*
Y304104D01*
X31323Y302817D01*
X32307Y301833D01*
X33594Y301300D01*
X34986D01*
X36273Y301833D01*
X37257Y302817D01*
X37790Y304104D01*
Y305496D01*
X37257Y306783D01*
X36782Y307257D01*
Y315043D01*
X37257Y315517D01*
X37790Y316804D01*
Y318196D01*
X37257Y319483D01*
X36273Y320467D01*
X34986Y321000D01*
D02*
G37*
G36*
X119822Y300934D02*
X118430D01*
X117143Y300401D01*
X116159Y299417D01*
X115626Y298130D01*
Y296738D01*
X116159Y295451D01*
X117143Y294467D01*
X118430Y293934D01*
X119822D01*
X121109Y294467D01*
X122093Y295451D01*
X122626Y296738D01*
Y298130D01*
X122093Y299417D01*
X121109Y300401D01*
X119822Y300934D01*
D02*
G37*
G36*
X120720Y276780D02*
X97720D01*
Y270943D01*
X94969D01*
X94120Y271295D01*
X92727D01*
X91441Y270762D01*
X90456Y269778D01*
X89923Y268491D01*
Y267099D01*
X90456Y265812D01*
X90724Y265545D01*
X90456Y265278D01*
X89923Y263991D01*
Y262599D01*
X90456Y261312D01*
X91441Y260328D01*
X92727Y259795D01*
X94120D01*
X94969Y260147D01*
X97720D01*
Y254080D01*
X120720D01*
Y260378D01*
X120901Y260559D01*
X129506D01*
X132435Y257631D01*
X132181Y256285D01*
X131503Y256150D01*
X130481Y255468D01*
X129799Y254447D01*
X129559Y253242D01*
Y249796D01*
X129799Y248591D01*
X130481Y247570D01*
X131503Y246888D01*
X132707Y246648D01*
X132742D01*
Y243567D01*
Y194344D01*
X113344Y174946D01*
X112661Y173925D01*
X112422Y172720D01*
Y94924D01*
X112191Y94693D01*
X111658Y93406D01*
Y92014D01*
X112191Y90727D01*
X113175Y89743D01*
X114461Y89210D01*
X115854D01*
X117140Y89743D01*
X117408Y90010D01*
X117675Y89743D01*
X118961Y89210D01*
X120354D01*
X121640Y89743D01*
X122625Y90727D01*
X123158Y92014D01*
Y93406D01*
X122625Y94693D01*
X122264Y95053D01*
X122164Y95560D01*
Y169989D01*
X141561Y189387D01*
X142244Y190408D01*
X142484Y191613D01*
Y258514D01*
X142443Y258717D01*
Y260095D01*
X142204Y261300D01*
X141521Y262321D01*
X134463Y269379D01*
X133442Y270061D01*
X132237Y270301D01*
X120901D01*
X120720Y270482D01*
Y276780D01*
D02*
G37*
G36*
X370583Y286350D02*
X366394D01*
X362284Y285532D01*
X358414Y283929D01*
X354930Y281601D01*
X353898Y280569D01*
X368489Y265978D01*
X383080Y280569D01*
X382047Y281601D01*
X378564Y283929D01*
X374693Y285532D01*
X370583Y286350D01*
D02*
G37*
G36*
X172146Y323540D02*
X170754D01*
X169467Y323007D01*
X168483Y322023D01*
X167950Y320736D01*
Y319344D01*
X168483Y318057D01*
X169040Y317500D01*
X168483Y316943D01*
X167950Y315656D01*
Y314264D01*
X168483Y312977D01*
X169040Y312420D01*
X168483Y311863D01*
X167950Y310576D01*
Y309184D01*
X168483Y307897D01*
X169040Y307340D01*
X168483Y306783D01*
X167950Y305496D01*
Y304104D01*
X168483Y302817D01*
X169467Y301833D01*
X170754Y301300D01*
X172146D01*
X173433Y301833D01*
X173907Y302308D01*
X185658D01*
X188008Y299958D01*
Y146050D01*
X188197Y145096D01*
X188738Y144288D01*
X193200Y139825D01*
Y129077D01*
X192027Y128591D01*
X186642Y133975D01*
Y243840D01*
X186453Y244794D01*
X185912Y245602D01*
X176220Y255295D01*
Y255966D01*
X175687Y257253D01*
X174703Y258237D01*
X173416Y258770D01*
X172024D01*
X170737Y258237D01*
X169753Y257253D01*
X169220Y255966D01*
Y254574D01*
X169663Y253505D01*
X169279Y253346D01*
X168294Y252361D01*
X167761Y251075D01*
Y249682D01*
X168294Y248396D01*
X169279Y247411D01*
X170565Y246879D01*
X171237D01*
X176578Y241538D01*
Y129540D01*
X176767Y128586D01*
X177308Y127778D01*
X183265Y121821D01*
X183025Y121062D01*
X182687Y120602D01*
X176447D01*
X175973Y121077D01*
X174686Y121610D01*
X173294D01*
X172007Y121077D01*
X171023Y120093D01*
X170490Y118806D01*
Y117414D01*
X171023Y116127D01*
X172007Y115143D01*
X173294Y114610D01*
X174686D01*
X175973Y115143D01*
X176447Y115618D01*
X181848D01*
X195088Y102378D01*
X195896Y101837D01*
X196850Y101648D01*
X315377D01*
X315738Y101108D01*
X332788Y84058D01*
Y46752D01*
X327898Y41862D01*
X318770D01*
X317816Y41673D01*
X317008Y41132D01*
X307346Y31471D01*
X306120Y32178D01*
X303577Y32860D01*
X300944D01*
X298400Y32178D01*
X296120Y30862D01*
X294258Y29000D01*
X292941Y26720D01*
X292260Y24176D01*
Y21544D01*
X292941Y19000D01*
X294258Y16720D01*
X296120Y14858D01*
X298400Y13542D01*
X300944Y12860D01*
X303577D01*
X306120Y13542D01*
X308400Y14858D01*
X310262Y16720D01*
X311579Y19000D01*
X312260Y21544D01*
Y24176D01*
X311579Y26720D01*
X310871Y27946D01*
X319802Y36878D01*
X328930D01*
X329884Y37067D01*
X330692Y37608D01*
X337042Y43958D01*
X337583Y44766D01*
X337772Y45720D01*
Y85090D01*
X337583Y86044D01*
X337042Y86852D01*
X319922Y103973D01*
X319803Y104573D01*
X319262Y105382D01*
X318742Y105902D01*
X317933Y106443D01*
X316979Y106632D01*
X199021D01*
X198911Y106728D01*
X199182Y107595D01*
X199571Y107998D01*
X320278D01*
X341678Y86598D01*
Y40402D01*
X332746Y31471D01*
X331520Y32178D01*
X328977Y32860D01*
X326343D01*
X323800Y32178D01*
X321520Y30862D01*
X319658Y29000D01*
X318342Y26720D01*
X317660Y24176D01*
Y21544D01*
X318342Y19000D01*
X319658Y16720D01*
X321520Y14858D01*
X323800Y13542D01*
X326343Y12860D01*
X328977D01*
X331520Y13542D01*
X333800Y14858D01*
X335662Y16720D01*
X336978Y19000D01*
X337660Y21544D01*
Y24176D01*
X336978Y26720D01*
X336271Y27946D01*
X345932Y37608D01*
X346473Y38416D01*
X346662Y39370D01*
Y87630D01*
X346473Y88584D01*
X345932Y89392D01*
X323072Y112252D01*
X322264Y112793D01*
X321310Y112982D01*
X199857D01*
X199759Y113151D01*
X199992Y113715D01*
X200532Y114348D01*
X326628D01*
X350568Y90408D01*
Y32545D01*
X349200Y32178D01*
X346920Y30862D01*
X345058Y29000D01*
X343741Y26720D01*
X343060Y24176D01*
Y21544D01*
X343741Y19000D01*
X345058Y16720D01*
X346920Y14858D01*
X349200Y13542D01*
X351744Y12860D01*
X354376D01*
X356920Y13542D01*
X359200Y14858D01*
X361062Y16720D01*
X362379Y19000D01*
X363060Y21544D01*
Y24176D01*
X362379Y26720D01*
X361062Y29000D01*
X359200Y30862D01*
X356920Y32178D01*
X355552Y32545D01*
Y91440D01*
X355552Y91440D01*
X355363Y92394D01*
X354822Y93202D01*
X329422Y118602D01*
X328614Y119143D01*
X327660Y119332D01*
X201285D01*
X198441Y122177D01*
X198927Y123350D01*
X213200D01*
Y138486D01*
X214373Y138972D01*
X218617Y134729D01*
X218600Y134667D01*
Y132034D01*
X219282Y129490D01*
X220598Y127210D01*
X222460Y125348D01*
X224740Y124031D01*
X227283Y123350D01*
X229916D01*
X232460Y124031D01*
X234740Y125348D01*
X236602Y127210D01*
X237918Y129490D01*
X238600Y132034D01*
Y133269D01*
X239870Y133795D01*
X242078Y131588D01*
X242886Y131047D01*
X243840Y130858D01*
X244315D01*
X244681Y129490D01*
X245998Y127210D01*
X247860Y125348D01*
X250140Y124031D01*
X252684Y123350D01*
X255317D01*
X257860Y124031D01*
X260140Y125348D01*
X262002Y127210D01*
X263319Y129490D01*
X264000Y132034D01*
Y133269D01*
X265270Y133795D01*
X267478Y131588D01*
X268286Y131047D01*
X269240Y130858D01*
X269715D01*
X270082Y129490D01*
X271398Y127210D01*
X273260Y125348D01*
X275540Y124031D01*
X278083Y123350D01*
X280716D01*
X283260Y124031D01*
X285540Y125348D01*
X287402Y127210D01*
X288718Y129490D01*
X289400Y132034D01*
Y134667D01*
X288718Y137210D01*
X287402Y139490D01*
X285540Y141352D01*
X283260Y142669D01*
X280716Y143350D01*
X278083D01*
X275540Y142669D01*
X273260Y141352D01*
X271398Y139490D01*
X270308Y137603D01*
X268899Y137216D01*
X257381Y148734D01*
X257866Y149908D01*
X284718D01*
X296189Y138436D01*
X295481Y137210D01*
X294800Y134667D01*
Y132034D01*
X295481Y129490D01*
X296798Y127210D01*
X298660Y125348D01*
X300940Y124031D01*
X303484Y123350D01*
X306117D01*
X308660Y124031D01*
X310940Y125348D01*
X312802Y127210D01*
X314118Y129490D01*
X314800Y132034D01*
Y134667D01*
X314118Y137210D01*
X312802Y139490D01*
X310940Y141352D01*
X308660Y142669D01*
X306117Y143350D01*
X303484D01*
X300940Y142669D01*
X299714Y141961D01*
X287512Y154162D01*
X286704Y154703D01*
X285750Y154892D01*
X226271D01*
X225493Y156162D01*
X225750Y156784D01*
Y158176D01*
X225217Y159463D01*
X224742Y159937D01*
Y258652D01*
X226012Y259331D01*
X226302Y259138D01*
X227330Y258933D01*
X326898D01*
X327926Y259138D01*
X328798Y259720D01*
X329380Y260592D01*
X329585Y261620D01*
Y285242D01*
X329380Y286270D01*
X328798Y287142D01*
X327926Y287724D01*
X326898Y287929D01*
X227330D01*
X226302Y287724D01*
X226012Y287531D01*
X224742Y288209D01*
Y295910D01*
X224553Y296864D01*
X224012Y297672D01*
X199882Y321802D01*
X199074Y322343D01*
X198120Y322532D01*
X173907D01*
X173433Y323007D01*
X172146Y323540D01*
D02*
G37*
G36*
X383978Y279671D02*
X369387Y265080D01*
X383978Y250489D01*
X385010Y251521D01*
X387338Y255005D01*
X388941Y258876D01*
X389759Y262985D01*
Y267175D01*
X388941Y271284D01*
X387338Y275155D01*
X385010Y278639D01*
X383978Y279671D01*
D02*
G37*
G36*
X352999D02*
X351967Y278639D01*
X349639Y275155D01*
X348036Y271284D01*
X347219Y267175D01*
Y262985D01*
X348036Y258876D01*
X349639Y255005D01*
X351967Y251521D01*
X352999Y250489D01*
X367591Y265080D01*
X352999Y279671D01*
D02*
G37*
G36*
X368489Y264182D02*
X353898Y249591D01*
X354930Y248558D01*
X358414Y246231D01*
X362284Y244627D01*
X366394Y243810D01*
X370583D01*
X374693Y244627D01*
X378564Y246231D01*
X382047Y248558D01*
X383080Y249591D01*
X368489Y264182D01*
D02*
G37*
G36*
X277556Y237180D02*
X276164D01*
X274877Y236647D01*
X274320Y236090D01*
X273763Y236647D01*
X272476Y237180D01*
X271084D01*
X269797Y236647D01*
X268813Y235663D01*
X268280Y234376D01*
Y232984D01*
X268813Y231697D01*
X269797Y230713D01*
X271084Y230180D01*
X272476D01*
X273763Y230713D01*
X274320Y231270D01*
X274877Y230713D01*
X276164Y230180D01*
X277556D01*
X278843Y230713D01*
X279827Y231697D01*
X280360Y232984D01*
Y234376D01*
X279827Y235663D01*
X278843Y236647D01*
X277556Y237180D01*
D02*
G37*
G36*
X35586D02*
X34194D01*
X32907Y236647D01*
X31923Y235663D01*
X31390Y234376D01*
Y232984D01*
X31923Y231697D01*
X32907Y230713D01*
X34194Y230180D01*
X35586D01*
X36873Y230713D01*
X37857Y231697D01*
X38390Y232984D01*
Y234376D01*
X37857Y235663D01*
X36873Y236647D01*
X35586Y237180D01*
D02*
G37*
G36*
X285176Y214320D02*
X283784D01*
X282497Y213787D01*
X281513Y212803D01*
X281057Y211703D01*
X279957Y211247D01*
X278973Y210263D01*
X278440Y208976D01*
Y207584D01*
X278973Y206297D01*
X279957Y205313D01*
X281244Y204780D01*
X282636D01*
X283923Y205313D01*
X284907Y206297D01*
X285363Y207397D01*
X286463Y207853D01*
X287447Y208837D01*
X287980Y210124D01*
Y211516D01*
X287447Y212803D01*
X286463Y213787D01*
X285176Y214320D01*
D02*
G37*
G36*
X15936Y217980D02*
X14544D01*
X13257Y217447D01*
X12273Y216463D01*
X11740Y215176D01*
Y213784D01*
X12273Y212497D01*
X12535Y212236D01*
X13175Y211406D01*
X12535Y210576D01*
X12273Y210315D01*
X11740Y209028D01*
Y207636D01*
X12273Y206349D01*
X12535Y206088D01*
X13175Y205258D01*
X12535Y204428D01*
X12273Y204167D01*
X11740Y202880D01*
Y201488D01*
X12273Y200201D01*
X13257Y199217D01*
X14544Y198684D01*
X15936D01*
X17223Y199217D01*
X18207Y200201D01*
X18740Y201488D01*
Y202880D01*
X18207Y204167D01*
X17945Y204428D01*
X17305Y205258D01*
X17945Y206088D01*
X18207Y206349D01*
X18740Y207636D01*
Y209028D01*
X18207Y210315D01*
X17945Y210576D01*
X17305Y211406D01*
X17945Y212236D01*
X18207Y212497D01*
X18740Y213784D01*
Y215176D01*
X18207Y216463D01*
X17223Y217447D01*
X15936Y217980D01*
D02*
G37*
G36*
X136877Y172930D02*
X134902D01*
X132995Y172419D01*
X131285Y171432D01*
X129888Y170035D01*
X128901Y168325D01*
X128390Y166417D01*
Y164443D01*
X128901Y162535D01*
X129888Y160825D01*
X131285Y159428D01*
X132995Y158441D01*
X134902Y157929D01*
X136877D01*
X138785Y158441D01*
X140495Y159428D01*
X141892Y160825D01*
X142879Y162535D01*
X143391Y164443D01*
Y166417D01*
X142879Y168325D01*
X141892Y170035D01*
X140495Y171432D01*
X138785Y172419D01*
X136877Y172930D01*
D02*
G37*
G36*
X107376Y148280D02*
X105984D01*
X104697Y147747D01*
X104422Y147472D01*
X103593Y146853D01*
X102763Y147472D01*
X102488Y147747D01*
X101201Y148280D01*
X99809D01*
X98522Y147747D01*
X98072Y147297D01*
X97242Y146903D01*
X96413Y147297D01*
X95963Y147747D01*
X94676Y148280D01*
X93284D01*
X91997Y147747D01*
X91013Y146763D01*
X90480Y145476D01*
Y144084D01*
X91013Y142797D01*
X91997Y141813D01*
X93284Y141280D01*
X94676D01*
X95963Y141813D01*
X96413Y142263D01*
X97242Y142657D01*
X98072Y142263D01*
X98522Y141813D01*
X99809Y141280D01*
X101201D01*
X102488Y141813D01*
X102763Y142088D01*
X103593Y142708D01*
X104422Y142088D01*
X104697Y141813D01*
X105984Y141280D01*
X107376D01*
X108663Y141813D01*
X109647Y142797D01*
X110180Y144084D01*
Y145476D01*
X109647Y146763D01*
X108663Y147747D01*
X107376Y148280D01*
D02*
G37*
G36*
X331516Y143350D02*
X328884D01*
X326340Y142669D01*
X324060Y141352D01*
X322198Y139490D01*
X320882Y137210D01*
X320200Y134667D01*
Y132034D01*
X320882Y129490D01*
X322198Y127210D01*
X324060Y125348D01*
X326340Y124031D01*
X328884Y123350D01*
X331516D01*
X334060Y124031D01*
X336340Y125348D01*
X338202Y127210D01*
X339519Y129490D01*
X340200Y132034D01*
Y134667D01*
X339519Y137210D01*
X338202Y139490D01*
X336340Y141352D01*
X334060Y142669D01*
X331516Y143350D01*
D02*
G37*
G36*
X54036Y115260D02*
X52644D01*
X51357Y114727D01*
X50373Y113743D01*
X49840Y112456D01*
Y111064D01*
X50373Y109777D01*
X51357Y108793D01*
X52644Y108260D01*
X53650D01*
Y107254D01*
X54183Y105967D01*
X55167Y104983D01*
X56454Y104450D01*
X57460D01*
Y103444D01*
X57993Y102157D01*
X58977Y101173D01*
X60264Y100640D01*
X61656D01*
X62943Y101173D01*
X63927Y102157D01*
X64460Y103444D01*
Y104836D01*
X63927Y106123D01*
X62943Y107107D01*
X61656Y107640D01*
X60650D01*
Y108646D01*
X60117Y109933D01*
X59133Y110917D01*
X57846Y111450D01*
X56840D01*
Y112456D01*
X56307Y113743D01*
X55323Y114727D01*
X54036Y115260D01*
D02*
G37*
G36*
X148016Y97480D02*
X146624D01*
X145337Y96947D01*
X144353Y95963D01*
X143820Y94676D01*
Y93284D01*
X143935Y93005D01*
X143083Y92153D01*
X142550Y90866D01*
Y89474D01*
X143083Y88187D01*
X144067Y87203D01*
X145354Y86670D01*
X146746D01*
X148033Y87203D01*
X149017Y88187D01*
X149550Y89474D01*
Y90866D01*
X149435Y91145D01*
X150287Y91997D01*
X150820Y93284D01*
Y94676D01*
X150287Y95963D01*
X149303Y96947D01*
X148016Y97480D01*
D02*
G37*
G36*
X275016Y79700D02*
X273624D01*
X272337Y79167D01*
X271353Y78183D01*
X271197Y77807D01*
X269823D01*
X269667Y78183D01*
X268683Y79167D01*
X267396Y79700D01*
X266004D01*
X264717Y79167D01*
X263733Y78183D01*
X263577Y77807D01*
X262203D01*
X262047Y78183D01*
X261063Y79167D01*
X259776Y79700D01*
X258384D01*
X257097Y79167D01*
X256113Y78183D01*
X255957Y77807D01*
X254583D01*
X254427Y78183D01*
X253443Y79167D01*
X252156Y79700D01*
X250764D01*
X249477Y79167D01*
X248493Y78183D01*
X248337Y77807D01*
X246963D01*
X246807Y78183D01*
X245823Y79167D01*
X244536Y79700D01*
X243144D01*
X241857Y79167D01*
X240873Y78183D01*
X240717Y77807D01*
X239343D01*
X239187Y78183D01*
X238203Y79167D01*
X236916Y79700D01*
X235524D01*
X234237Y79167D01*
X233253Y78183D01*
X232720Y76896D01*
Y75504D01*
X233253Y74217D01*
X234237Y73233D01*
X235524Y72700D01*
X236916D01*
X238203Y73233D01*
X239187Y74217D01*
X239343Y74593D01*
X240717D01*
X240873Y74217D01*
X241857Y73233D01*
X243144Y72700D01*
X244536D01*
X245823Y73233D01*
X246807Y74217D01*
X246963Y74593D01*
X248337D01*
X248493Y74217D01*
X249477Y73233D01*
X250764Y72700D01*
X252156D01*
X253443Y73233D01*
X254427Y74217D01*
X254583Y74593D01*
X255957D01*
X256113Y74217D01*
X257097Y73233D01*
X258384Y72700D01*
X259776D01*
X261063Y73233D01*
X262047Y74217D01*
X262203Y74593D01*
X263577D01*
X263733Y74217D01*
X264717Y73233D01*
X266004Y72700D01*
X267396D01*
X268683Y73233D01*
X269667Y74217D01*
X269823Y74593D01*
X271197D01*
X271353Y74217D01*
X272337Y73233D01*
X273624Y72700D01*
X275016D01*
X276303Y73233D01*
X277287Y74217D01*
X277820Y75504D01*
Y76896D01*
X277287Y78183D01*
X276303Y79167D01*
X275016Y79700D01*
D02*
G37*
G36*
X165120Y82376D02*
X163418Y82152D01*
X161832Y81495D01*
X160978Y80840D01*
X165120Y76698D01*
X169262Y80840D01*
X168408Y81495D01*
X166822Y82152D01*
X165120Y82376D01*
D02*
G37*
G36*
X78720D02*
X77018Y82152D01*
X75432Y81495D01*
X74578Y80840D01*
X78720Y76698D01*
X82862Y80840D01*
X82008Y81495D01*
X80422Y82152D01*
X78720Y82376D01*
D02*
G37*
G36*
X170160Y79942D02*
X165569Y75351D01*
X165120Y75800D01*
X164671Y75351D01*
X160080Y79942D01*
X159425Y79088D01*
X158768Y77502D01*
X158544Y75800D01*
Y65300D01*
X158768Y63598D01*
X159425Y62012D01*
X160080Y61158D01*
X164671Y65749D01*
X165120Y65300D01*
X165569Y65749D01*
X170160Y61158D01*
X170815Y62012D01*
X171472Y63598D01*
X171696Y65300D01*
Y75800D01*
X171472Y77502D01*
X170815Y79088D01*
X170160Y79942D01*
D02*
G37*
G36*
X83760D02*
X79169Y75351D01*
X78720Y75800D01*
X78271Y75351D01*
X73680Y79942D01*
X73025Y79088D01*
X72368Y77502D01*
X72144Y75800D01*
Y65300D01*
X72368Y63598D01*
X73025Y62012D01*
X73680Y61158D01*
X78271Y65749D01*
X78720Y65300D01*
X79169Y65749D01*
X83760Y61158D01*
X84415Y62012D01*
X85072Y63598D01*
X85296Y65300D01*
Y75800D01*
X85072Y77502D01*
X84415Y79088D01*
X83760Y79942D01*
D02*
G37*
G36*
X208761Y79700D02*
X207369D01*
X206082Y79167D01*
X205098Y78183D01*
X204565Y76896D01*
Y75504D01*
X205098Y74217D01*
X206082Y73233D01*
X207369Y72700D01*
X208761D01*
X210048Y73233D01*
X211032Y74217D01*
X211565Y75504D01*
Y76896D01*
X211032Y78183D01*
X210048Y79167D01*
X208761Y79700D01*
D02*
G37*
G36*
X151914Y70750D02*
X149726D01*
X147704Y69913D01*
X146157Y68366D01*
X145320Y66344D01*
Y64156D01*
X146157Y62134D01*
X147704Y60587D01*
X149726Y59750D01*
X151914D01*
X153935Y60587D01*
X155483Y62134D01*
X156320Y64156D01*
Y66344D01*
X155483Y68366D01*
X153935Y69913D01*
X151914Y70750D01*
D02*
G37*
G36*
X94114D02*
X91926D01*
X89904Y69913D01*
X88357Y68366D01*
X87520Y66344D01*
Y64156D01*
X88357Y62134D01*
X89904Y60587D01*
X91926Y59750D01*
X94114D01*
X96136Y60587D01*
X97683Y62134D01*
X98520Y64156D01*
Y66344D01*
X97683Y68366D01*
X96136Y69913D01*
X94114Y70750D01*
D02*
G37*
G36*
X165120Y64402D02*
X160978Y60260D01*
X161832Y59605D01*
X163418Y58948D01*
X165120Y58724D01*
X166822Y58948D01*
X168408Y59605D01*
X169262Y60260D01*
X165120Y64402D01*
D02*
G37*
G36*
X78720D02*
X74578Y60260D01*
X75432Y59605D01*
X77018Y58948D01*
X78720Y58724D01*
X80422Y58948D01*
X82008Y59605D01*
X82862Y60260D01*
X78720Y64402D01*
D02*
G37*
G36*
X104836Y68102D02*
X103444D01*
X102157Y67569D01*
X101173Y66585D01*
X100640Y65299D01*
Y63906D01*
X101173Y62620D01*
X101371Y62422D01*
X101173Y62224D01*
X100640Y60937D01*
Y59545D01*
X101173Y58259D01*
X101430Y58001D01*
X102078Y57172D01*
X101430Y56342D01*
X101173Y56085D01*
X100640Y54798D01*
Y53406D01*
X101173Y52119D01*
X102157Y51135D01*
X103444Y50602D01*
X104836D01*
X106123Y51135D01*
X107107Y52119D01*
X107640Y53406D01*
Y54798D01*
X107107Y56085D01*
X106850Y56342D01*
X106202Y57172D01*
X106850Y58001D01*
X107107Y58259D01*
X107640Y59545D01*
Y60937D01*
X107107Y62224D01*
X106909Y62422D01*
X107107Y62620D01*
X107640Y63906D01*
Y65299D01*
X107107Y66585D01*
X106123Y67569D01*
X104836Y68102D01*
D02*
G37*
G36*
X78720Y40576D02*
X77018Y40352D01*
X75432Y39695D01*
X74578Y39040D01*
X78720Y34898D01*
X82862Y39040D01*
X82008Y39695D01*
X80422Y40352D01*
X78720Y40576D01*
D02*
G37*
G36*
X165120D02*
X163418Y40352D01*
X161832Y39695D01*
X160978Y39040D01*
X165120Y34898D01*
X169262Y39040D01*
X168408Y39695D01*
X166822Y40352D01*
X165120Y40576D01*
D02*
G37*
G36*
X83760Y38142D02*
X79169Y33551D01*
X78720Y34000D01*
X78271Y33551D01*
X73680Y38142D01*
X73025Y37288D01*
X72368Y35702D01*
X72144Y34000D01*
Y23500D01*
X72368Y21798D01*
X73025Y20212D01*
X73680Y19358D01*
X78271Y23949D01*
X78720Y23500D01*
X79169Y23949D01*
X83760Y19358D01*
X84415Y20212D01*
X85072Y21798D01*
X85296Y23500D01*
Y34000D01*
X85072Y35702D01*
X84415Y37288D01*
X83760Y38142D01*
D02*
G37*
G36*
X170160D02*
X165569Y33551D01*
X165120Y34000D01*
X164671Y33551D01*
X160080Y38142D01*
X159425Y37288D01*
X158768Y35702D01*
X158544Y34000D01*
Y23500D01*
X158768Y21798D01*
X159425Y20212D01*
X160080Y19358D01*
X164671Y23949D01*
X165120Y23500D01*
X165569Y23949D01*
X170160Y19358D01*
X170815Y20212D01*
X171472Y21798D01*
X171696Y23500D01*
Y34000D01*
X171472Y35702D01*
X170815Y37288D01*
X170160Y38142D01*
D02*
G37*
G36*
X278080Y32130D02*
X275640D01*
X273282Y31498D01*
X271168Y30278D01*
X270754Y29864D01*
X276860Y23758D01*
X282966Y29864D01*
X282552Y30278D01*
X280438Y31498D01*
X278080Y32130D01*
D02*
G37*
G36*
X165120Y22602D02*
X160978Y18460D01*
X161832Y17805D01*
X163418Y17148D01*
X165120Y16924D01*
X166822Y17148D01*
X168408Y17805D01*
X169262Y18460D01*
X165120Y22602D01*
D02*
G37*
G36*
X78720D02*
X74578Y18460D01*
X75432Y17805D01*
X77018Y17148D01*
X78720Y16924D01*
X80422Y17148D01*
X82008Y17805D01*
X82862Y18460D01*
X78720Y22602D01*
D02*
G37*
G36*
X283864Y28966D02*
X277758Y22860D01*
X283864Y16754D01*
X284278Y17168D01*
X285498Y19282D01*
X286130Y21640D01*
Y24080D01*
X285498Y26438D01*
X284278Y28552D01*
X283864Y28966D01*
D02*
G37*
G36*
X269856D02*
X269442Y28552D01*
X268222Y26438D01*
X267590Y24080D01*
Y21640D01*
X268222Y19282D01*
X269442Y17168D01*
X269856Y16754D01*
X275962Y22860D01*
X269856Y28966D01*
D02*
G37*
G36*
X276860Y21962D02*
X270754Y15856D01*
X271168Y15442D01*
X273282Y14222D01*
X275640Y13590D01*
X278080D01*
X280438Y14222D01*
X282552Y15442D01*
X282966Y15856D01*
X276860Y21962D01*
D02*
G37*
G36*
X252777Y32860D02*
X250144D01*
X247600Y32178D01*
X245320Y30862D01*
X243458Y29000D01*
X242141Y26720D01*
X241460Y24176D01*
Y21544D01*
X242141Y19000D01*
X243458Y16720D01*
X245320Y14858D01*
X247600Y13542D01*
X250144Y12860D01*
X252777D01*
X255320Y13542D01*
X257600Y14858D01*
X259462Y16720D01*
X260779Y19000D01*
X261460Y21544D01*
Y24176D01*
X260779Y26720D01*
X259462Y29000D01*
X257600Y30862D01*
X255320Y32178D01*
X252777Y32860D01*
D02*
G37*
G36*
X236060D02*
X216060D01*
Y12860D01*
X236060D01*
Y32860D01*
D02*
G37*
%LPD*%
G36*
X219758Y294878D02*
Y161177D01*
X219662Y161114D01*
X218392Y161793D01*
Y293370D01*
X218392Y293370D01*
X218203Y294324D01*
X217662Y295132D01*
X197573Y315222D01*
X197991Y316600D01*
X198028Y316607D01*
X219758Y294878D01*
D02*
G37*
G36*
X213408Y292338D02*
Y161637D01*
X212138Y160959D01*
X212042Y161022D01*
Y289560D01*
X211853Y290514D01*
X211312Y291322D01*
X210510Y292125D01*
Y292796D01*
X209977Y294083D01*
X210953Y294792D01*
X213408Y292338D01*
D02*
G37*
G36*
X200708Y278243D02*
Y158750D01*
X200897Y157796D01*
X201438Y156988D01*
X210965Y147460D01*
X210479Y146287D01*
X206488D01*
X199342Y153432D01*
Y277628D01*
X200612Y278306D01*
X200708Y278243D01*
D02*
G37*
G36*
X194358Y300089D02*
Y152400D01*
X194547Y151446D01*
X195088Y150638D01*
X201202Y144523D01*
X200716Y143350D01*
X196725D01*
X192992Y147082D01*
Y299539D01*
X193394Y299928D01*
X194262Y300199D01*
X194358Y300089D01*
D02*
G37*
D19*
X4120Y252156D02*
X25771D01*
X31425Y257810D01*
X72136Y362204D02*
X107489D01*
X68834Y365506D02*
X72136Y362204D01*
X107489D02*
X139700Y329993D01*
X173990Y118110D02*
X182880D01*
X316979Y104140D02*
X317500Y103619D01*
X196850Y104140D02*
X316979D01*
X182880Y118110D02*
X196850Y104140D01*
X317500Y102870D02*
Y103619D01*
X198120Y110490D02*
X321310D01*
X179070Y129540D02*
X198120Y110490D01*
X184150Y132943D02*
Y243840D01*
Y132943D02*
X200253Y116840D01*
X179070Y129540D02*
Y242570D01*
X200253Y116840D02*
X327660D01*
X317500Y102870D02*
X335280Y85090D01*
Y45720D02*
Y85090D01*
X328930Y39370D02*
X335280Y45720D01*
X318770Y39370D02*
X328930D01*
X302260Y22860D02*
X318770Y39370D01*
X171262Y250378D02*
X179070Y242570D01*
X172720Y255270D02*
X184150Y243840D01*
X254000Y148590D02*
X269240Y133350D01*
X344170Y39370D02*
Y87630D01*
X321310Y110490D02*
X344170Y87630D01*
X327660Y116840D02*
X353060Y91440D01*
X327660Y22860D02*
X344170Y39370D01*
X190500Y146050D02*
X203200Y133350D01*
X190500Y146050D02*
Y300990D01*
X285750Y152400D02*
X304800Y133350D01*
X353060Y22860D02*
Y91440D01*
X196850Y152400D02*
X205455Y143794D01*
X196850Y152400D02*
Y302260D01*
X269240Y133350D02*
X279400D01*
X219710Y148590D02*
X254000D01*
X203200Y158750D02*
Y281940D01*
X215900Y146050D02*
X231140D01*
X203200Y158750D02*
X215900Y146050D01*
Y158750D02*
X222250Y152400D01*
X194310Y314960D02*
X215900Y293370D01*
X222250Y152400D02*
X285750D01*
X215900Y158750D02*
Y293370D01*
X209550Y158750D02*
Y289560D01*
Y158750D02*
X219710Y148590D01*
X231140Y146050D02*
X243840Y133350D01*
X254000D01*
X222250Y157480D02*
Y295910D01*
X198120Y320040D02*
X222250Y295910D01*
X205455Y143794D02*
X213076D01*
X214630Y142240D02*
X220629Y136241D01*
X213076Y143794D02*
X214630Y142240D01*
X214630D01*
X220629Y136241D02*
X225709D01*
X228600Y133350D01*
X171450Y320040D02*
X198120D01*
X171450Y314960D02*
X194310D01*
X189230Y309880D02*
X196850Y302260D01*
X171450Y309880D02*
X189230D01*
X186690Y304800D02*
X190500Y300990D01*
X171450Y304800D02*
X186690D01*
X207010Y292100D02*
X209550Y289560D01*
X34290Y252730D02*
X73660D01*
X31425Y257810D02*
X73660D01*
X34290Y304800D02*
Y317500D01*
D36*
X114970Y259080D02*
D03*
X103470D02*
D03*
X114970Y271780D02*
D03*
X103470D02*
D03*
D70*
X139335Y191613D02*
Y258514D01*
X139295Y258555D02*
Y260095D01*
X130810Y263707D02*
X135850Y258668D01*
X132237Y267153D02*
X139295Y260095D01*
X135850Y257775D02*
X135890D01*
X119597Y267153D02*
X132237D01*
X139295Y258555D02*
X139335Y258514D01*
X135850Y257775D02*
Y258668D01*
X119015Y171293D02*
X139335Y191613D01*
X93423Y263295D02*
X99255D01*
X93423Y267795D02*
X99485D01*
X99255Y263295D02*
X103470Y259080D01*
X99485Y267795D02*
X103470Y271780D01*
X135890Y243567D02*
Y249796D01*
X132707D02*
X135890D01*
X132707D02*
Y253242D01*
X135890D01*
Y257775D01*
Y193040D02*
Y243567D01*
X115570Y93122D02*
Y172720D01*
X115158Y92710D02*
X115570Y93122D01*
Y172720D02*
X135890Y193040D01*
X119428Y92710D02*
X119658D01*
X119246Y92892D02*
X119428Y92710D01*
X119015Y94633D02*
X119246Y94403D01*
Y92892D02*
Y94403D01*
X119015Y94633D02*
Y171293D01*
X114970Y271780D02*
X119597Y267153D01*
X119597Y263707D02*
X130810D01*
X114970Y259080D02*
X119597Y263707D01*
D75*
X353060Y22860D02*
D03*
X327660D02*
D03*
X276860D02*
D03*
X251460D02*
D03*
X302260D02*
D03*
X279400Y133350D02*
D03*
X228600D02*
D03*
X254000D02*
D03*
X304800D02*
D03*
X330200D02*
D03*
D76*
X226060Y22860D02*
D03*
X203200Y133350D02*
D03*
D77*
X150820Y65250D02*
D03*
X93020D02*
D03*
D78*
X165120Y28750D02*
D03*
X78720D02*
D03*
X165120Y70550D02*
D03*
X78720D02*
D03*
D80*
X311658Y329946D02*
D03*
X231902D02*
D03*
D81*
X135890Y165430D02*
D03*
D82*
Y365430D02*
D03*
D83*
X7047Y244745D02*
D03*
X7212Y262696D02*
D03*
X4120Y252156D02*
D03*
X34890Y233680D02*
D03*
X143665Y260530D02*
D03*
X95758Y316484D02*
D03*
X104140Y64602D02*
D03*
Y60241D02*
D03*
X93423Y267795D02*
D03*
Y263295D02*
D03*
X104140Y54102D02*
D03*
X15240Y214480D02*
D03*
Y208332D02*
D03*
Y202184D02*
D03*
X95250Y294640D02*
D03*
X381000Y355600D02*
D03*
X393700Y330200D02*
D03*
X381000Y304800D02*
D03*
X393700Y279400D02*
D03*
X355600Y355600D02*
D03*
X368300Y330200D02*
D03*
X355600Y304800D02*
D03*
X330200D02*
D03*
Y254000D02*
D03*
X304800Y304800D02*
D03*
X292100Y330200D02*
D03*
X279400Y304800D02*
D03*
X266700Y330200D02*
D03*
X254000Y304800D02*
D03*
X241300Y330200D02*
D03*
X228600Y304800D02*
D03*
X215900Y330200D02*
D03*
X127000Y355600D02*
D03*
Y304800D02*
D03*
X139700Y279400D02*
D03*
X101600Y355600D02*
D03*
X114300Y330200D02*
D03*
Y279400D02*
D03*
X38100Y330200D02*
D03*
X69850Y234950D02*
D03*
Y245110D02*
D03*
Y226060D02*
D03*
X147320Y245110D02*
D03*
X143510Y248920D02*
D03*
X93684Y285587D02*
D03*
Y275273D02*
D03*
X69745Y287930D02*
D03*
X69745Y272930D02*
D03*
X43180Y278130D02*
D03*
Y283210D02*
D03*
Y292100D02*
D03*
Y298450D02*
D03*
X69745Y302930D02*
D03*
X43180Y313690D02*
D03*
Y307340D02*
D03*
X69745Y317930D02*
D03*
X299720Y233680D02*
D03*
X294640D02*
D03*
X289560D02*
D03*
X281940Y208280D02*
D03*
X284480Y210820D02*
D03*
X276860Y233680D02*
D03*
X271780D02*
D03*
X274320Y76200D02*
D03*
X266700D02*
D03*
X259080D02*
D03*
X251460D02*
D03*
X243840D02*
D03*
X236220D02*
D03*
X208065D02*
D03*
X208280Y360680D02*
D03*
X200660D02*
D03*
X193040D02*
D03*
X185420D02*
D03*
X177800D02*
D03*
X106680Y144780D02*
D03*
X100505D02*
D03*
X93980D02*
D03*
X119126Y297434D02*
D03*
X68834Y365506D02*
D03*
X139700Y329993D02*
D03*
X28194Y282956D02*
D03*
Y297942D02*
D03*
X62230Y327660D02*
D03*
X50800D02*
D03*
X67310Y349250D02*
D03*
Y355600D02*
D03*
X15240Y344170D02*
D03*
Y337820D02*
D03*
Y331470D02*
D03*
Y326390D02*
D03*
X53340Y111760D02*
D03*
X57150Y107950D02*
D03*
X60960Y104140D02*
D03*
X146050Y90170D02*
D03*
X147320Y93980D02*
D03*
X173990Y118110D02*
D03*
X171262Y250378D02*
D03*
X172720Y255270D02*
D03*
X222250Y157480D02*
D03*
X171450Y320040D02*
D03*
Y314960D02*
D03*
X207010Y292100D02*
D03*
X203200Y281940D02*
D03*
X171450Y309880D02*
D03*
Y304800D02*
D03*
X115158Y92710D02*
D03*
X73660Y257810D02*
D03*
X34290Y317500D02*
D03*
X73660Y252730D02*
D03*
X34290D02*
D03*
X119658Y92710D02*
D03*
X34290Y304800D02*
D03*
D84*
X23822Y258402D02*
D03*
X23822Y332402D02*
D03*
D85*
X368489Y265080D02*
D03*
M02*
