G04*
G04 #@! TF.GenerationSoftware,Altium Limited,Altium Designer,22.7.1 (60)*
G04*
G04 Layer_Color=16711935*
%FSLAX44Y44*%
%MOMM*%
G71*
G04*
G04 #@! TF.SameCoordinates,BBA0BEE0-45CE-4415-A0BC-CE460DC89FB0*
G04*
G04*
G04 #@! TF.FilePolarity,Positive*
G04*
G01*
G75*
%ADD10C,0.2000*%
G36*
X167064Y126991D02*
X167147D01*
X167249Y126981D01*
X167360Y126972D01*
X167480Y126954D01*
X167748Y126908D01*
X168034Y126843D01*
X168340Y126750D01*
X168636Y126621D01*
X168645Y126612D01*
X168673Y126602D01*
X168709Y126584D01*
X168765Y126547D01*
X168830Y126510D01*
X168904Y126464D01*
X169079Y126334D01*
X169264Y126186D01*
X169458Y125992D01*
X169653Y125780D01*
X169819Y125530D01*
X169828Y125521D01*
X169837Y125493D01*
X169856Y125456D01*
X169884Y125400D01*
X169911Y125336D01*
X169948Y125262D01*
X169985Y125169D01*
X170022Y125068D01*
X170059Y124948D01*
X170096Y124827D01*
X170161Y124559D01*
X170207Y124263D01*
X170226Y124106D01*
Y123856D01*
X170217Y123792D01*
Y123709D01*
X170207Y123625D01*
X170189Y123514D01*
X170170Y123404D01*
X170124Y123163D01*
X170050Y122886D01*
X169939Y122618D01*
X169874Y122479D01*
X169800Y122340D01*
X169791Y122331D01*
X169782Y122312D01*
X169754Y122275D01*
X169727Y122220D01*
X169680Y122165D01*
X169625Y122091D01*
X169495Y121933D01*
X169329Y121767D01*
X169125Y121582D01*
X168885Y121406D01*
X168617Y121258D01*
X168608D01*
X168580Y121240D01*
X168543Y121222D01*
X168487Y121203D01*
X168414Y121166D01*
X168330Y121138D01*
X168229Y121101D01*
X168118Y121064D01*
X167997Y121037D01*
X167868Y121000D01*
X167729Y120963D01*
X167582Y120935D01*
X167258Y120898D01*
X166916Y120879D01*
X166907D01*
X166879D01*
X166842D01*
X166786D01*
X166712Y120889D01*
X166629D01*
X166537Y120898D01*
X166444Y120907D01*
X166222Y120935D01*
X165982Y120981D01*
X165732Y121037D01*
X165492Y121120D01*
X165483D01*
X165464Y121129D01*
X165427Y121147D01*
X165390Y121166D01*
X165335Y121194D01*
X165270Y121222D01*
X165122Y121295D01*
X164946Y121397D01*
X164762Y121527D01*
X164577Y121674D01*
X164392Y121841D01*
Y121832D01*
X164373Y121813D01*
X164355Y121785D01*
X164327Y121739D01*
X164290Y121693D01*
X164253Y121628D01*
X164170Y121490D01*
X164068Y121323D01*
X163966Y121138D01*
X163883Y120944D01*
X163800Y120759D01*
X163218Y121009D01*
Y121018D01*
X163227Y121037D01*
X163245Y121074D01*
X163264Y121129D01*
X163291Y121194D01*
X163328Y121268D01*
X163365Y121351D01*
X163412Y121443D01*
X163523Y121647D01*
X163652Y121878D01*
X163818Y122128D01*
X164003Y122386D01*
Y122396D01*
X163985Y122414D01*
X163966Y122460D01*
X163939Y122507D01*
X163911Y122581D01*
X163874Y122655D01*
X163846Y122747D01*
X163809Y122849D01*
X163772Y122960D01*
X163735Y123080D01*
X163671Y123348D01*
X163624Y123644D01*
X163615Y123801D01*
X163606Y123958D01*
Y124041D01*
X163615Y124106D01*
Y124180D01*
X163624Y124272D01*
X163643Y124374D01*
X163661Y124485D01*
X163708Y124726D01*
X163782Y124994D01*
X163883Y125271D01*
X163948Y125400D01*
X164022Y125539D01*
X164031Y125548D01*
X164040Y125567D01*
X164068Y125604D01*
X164096Y125650D01*
X164142Y125715D01*
X164198Y125780D01*
X164327Y125937D01*
X164493Y126112D01*
X164697Y126288D01*
X164928Y126464D01*
X165196Y126621D01*
X165205D01*
X165233Y126639D01*
X165270Y126658D01*
X165326Y126676D01*
X165399Y126704D01*
X165483Y126741D01*
X165584Y126778D01*
X165695Y126806D01*
X165816Y126843D01*
X165945Y126880D01*
X166084Y126908D01*
X166241Y126945D01*
X166565Y126981D01*
X166907Y127000D01*
X166916D01*
X166953D01*
X166999D01*
X167064Y126991D01*
D02*
G37*
G36*
X168534Y119456D02*
X168552Y119437D01*
X168561Y119400D01*
X168589Y119354D01*
X168617Y119298D01*
X168654Y119234D01*
X168746Y119076D01*
X168848Y118892D01*
X168978Y118707D01*
X169125Y118512D01*
X169283Y118318D01*
X169292Y118309D01*
X169301Y118300D01*
X169329Y118272D01*
X169357Y118235D01*
X169449Y118152D01*
X169560Y118041D01*
X169690Y117930D01*
X169837Y117810D01*
X169985Y117708D01*
X170142Y117616D01*
Y117107D01*
X163717D01*
Y117893D01*
X168719D01*
X168709Y117902D01*
X168673Y117949D01*
X168617Y118004D01*
X168552Y118097D01*
X168469Y118198D01*
X168377Y118328D01*
X168275Y118476D01*
X168173Y118642D01*
Y118651D01*
X168164Y118660D01*
X168127Y118716D01*
X168081Y118808D01*
X168025Y118919D01*
X167960Y119049D01*
X167896Y119187D01*
X167831Y119326D01*
X167776Y119465D01*
X168534D01*
Y119456D01*
D02*
G37*
%LPC*%
G36*
X166907Y126131D02*
X166888D01*
X166851D01*
X166786D01*
X166703Y126122D01*
X166601Y126112D01*
X166481Y126094D01*
X166343Y126075D01*
X166204Y126057D01*
X165889Y125983D01*
X165732Y125937D01*
X165575Y125872D01*
X165418Y125807D01*
X165270Y125724D01*
X165122Y125632D01*
X164993Y125521D01*
X164984Y125512D01*
X164965Y125493D01*
X164928Y125456D01*
X164891Y125410D01*
X164835Y125345D01*
X164780Y125271D01*
X164725Y125188D01*
X164660Y125086D01*
X164595Y124985D01*
X164540Y124864D01*
X164484Y124735D01*
X164429Y124596D01*
X164392Y124439D01*
X164355Y124282D01*
X164336Y124115D01*
X164327Y123940D01*
Y123856D01*
X164336Y123773D01*
X164345Y123662D01*
X164364Y123524D01*
X164401Y123385D01*
X164438Y123228D01*
X164493Y123080D01*
X164503Y123098D01*
X164540Y123145D01*
X164586Y123228D01*
X164641Y123329D01*
X164697Y123459D01*
X164762Y123598D01*
X164817Y123755D01*
X164863Y123921D01*
X165473Y123709D01*
Y123699D01*
X165464Y123672D01*
X165455Y123635D01*
X165436Y123588D01*
X165418Y123524D01*
X165390Y123450D01*
X165326Y123283D01*
X165233Y123089D01*
X165131Y122886D01*
X165011Y122692D01*
X164863Y122497D01*
X164872Y122488D01*
X164891Y122460D01*
X164937Y122423D01*
X164993Y122377D01*
X165067Y122322D01*
X165150Y122257D01*
X165252Y122192D01*
X165372Y122118D01*
X165511Y122054D01*
X165668Y121989D01*
X165834Y121924D01*
X166010Y121869D01*
X166213Y121813D01*
X166426Y121776D01*
X166657Y121758D01*
X166907Y121749D01*
X166916D01*
X166943D01*
X166980D01*
X167036D01*
X167110Y121758D01*
X167184D01*
X167276Y121767D01*
X167369Y121785D01*
X167582Y121813D01*
X167813Y121859D01*
X168044Y121924D01*
X168266Y122017D01*
X168275D01*
X168293Y122026D01*
X168321Y122044D01*
X168358Y122063D01*
X168469Y122128D01*
X168598Y122211D01*
X168746Y122322D01*
X168894Y122460D01*
X169042Y122618D01*
X169172Y122793D01*
Y122802D01*
X169190Y122812D01*
X169200Y122839D01*
X169227Y122886D01*
X169246Y122932D01*
X169273Y122987D01*
X169338Y123126D01*
X169394Y123293D01*
X169449Y123487D01*
X169486Y123709D01*
X169495Y123940D01*
Y124032D01*
X169486Y124097D01*
X169477Y124180D01*
X169458Y124272D01*
X169440Y124374D01*
X169412Y124485D01*
X169375Y124615D01*
X169338Y124735D01*
X169283Y124864D01*
X169218Y125003D01*
X169144Y125132D01*
X169051Y125262D01*
X168959Y125391D01*
X168839Y125512D01*
X168830Y125521D01*
X168811Y125539D01*
X168774Y125567D01*
X168719Y125604D01*
X168654Y125659D01*
X168571Y125706D01*
X168469Y125761D01*
X168358Y125817D01*
X168229Y125881D01*
X168081Y125937D01*
X167924Y125983D01*
X167748Y126029D01*
X167563Y126075D01*
X167360Y126103D01*
X167138Y126122D01*
X166907Y126131D01*
D02*
G37*
%LPD*%
D10*
X148000Y146223D02*
X182200D01*
X148000Y107777D02*
Y146223D01*
Y107777D02*
X182200D01*
Y146223D01*
M02*
