G04*
G04 #@! TF.GenerationSoftware,Altium Limited,Altium Designer,22.7.1 (60)*
G04*
G04 Layer_Physical_Order=3*
G04 Layer_Color=16440176*
%FSLAX44Y44*%
%MOMM*%
G71*
G04*
G04 #@! TF.SameCoordinates,399D53DA-D0CF-47AF-BF50-1C372DBEC2BB*
G04*
G04*
G04 #@! TF.FilePolarity,Positive*
G04*
G01*
G75*
%ADD72C,0.7620*%
%ADD73C,1.0160*%
%ADD75C,1.6000*%
%ADD76R,1.6000X1.6000*%
%ADD83C,0.3000*%
G36*
X357440Y375204D02*
X363513Y373577D01*
X369322Y371171D01*
X374766Y368027D01*
X379754Y364200D01*
X384200Y359754D01*
X388027Y354766D01*
X391171Y349322D01*
X393577Y343513D01*
X395204Y337440D01*
X395580Y334584D01*
X394416Y333692D01*
X394396Y333700D01*
X393004D01*
X391717Y333167D01*
X390733Y332183D01*
X390200Y330896D01*
Y329504D01*
X390733Y328217D01*
X391717Y327233D01*
X393004Y326700D01*
X394396D01*
X394754Y326848D01*
X396024Y326000D01*
Y283600D01*
X394754Y282752D01*
X394396Y282900D01*
X393004D01*
X391717Y282367D01*
X390733Y281383D01*
X390200Y280096D01*
Y278704D01*
X390733Y277417D01*
X391717Y276433D01*
X393004Y275900D01*
X394396D01*
X394754Y276048D01*
X396024Y275200D01*
Y197394D01*
X394851Y196908D01*
X348550Y243209D01*
Y253036D01*
X349820Y253421D01*
X351400Y251056D01*
X354464Y247991D01*
X358068Y245584D01*
X362071Y243925D01*
X366322Y243080D01*
X370655D01*
X374906Y243925D01*
X378909Y245584D01*
X382513Y247991D01*
X385577Y251056D01*
X387985Y254659D01*
X389643Y258663D01*
X390489Y262913D01*
Y267247D01*
X389643Y271497D01*
X387985Y275501D01*
X385577Y279104D01*
X382513Y282168D01*
X378909Y284576D01*
X374906Y286234D01*
X370655Y287080D01*
X366322D01*
X362071Y286234D01*
X358068Y284576D01*
X354464Y282168D01*
X351400Y279104D01*
X349820Y276739D01*
X348550Y277124D01*
Y334231D01*
X348550Y334231D01*
X348306Y336080D01*
X347593Y337802D01*
X346458Y339281D01*
X346458Y339281D01*
X320009Y365729D01*
X318531Y366864D01*
X316808Y367578D01*
X314960Y367821D01*
X314960Y367821D01*
X177800D01*
X175952Y367578D01*
X174230Y366864D01*
X172750Y365729D01*
X171616Y364250D01*
X170902Y362528D01*
X170659Y360680D01*
X170902Y358832D01*
X171616Y357109D01*
X172750Y355630D01*
X174230Y354496D01*
X175952Y353782D01*
X177800Y353539D01*
X312002D01*
X334268Y331273D01*
Y307342D01*
X333799Y307104D01*
X332998Y306952D01*
X332183Y307767D01*
X330896Y308300D01*
X329504D01*
X328217Y307767D01*
X327233Y306783D01*
X326700Y305496D01*
Y304104D01*
X327233Y302817D01*
X328217Y301833D01*
X329504Y301300D01*
X330896D01*
X332183Y301833D01*
X332998Y302648D01*
X333799Y302496D01*
X334268Y302258D01*
Y256542D01*
X333799Y256304D01*
X332998Y256152D01*
X332183Y256967D01*
X330896Y257500D01*
X329504D01*
X328217Y256967D01*
X327233Y255983D01*
X326700Y254696D01*
Y253304D01*
X327233Y252017D01*
X328217Y251033D01*
X329504Y250500D01*
X330896D01*
X332183Y251033D01*
X332998Y251848D01*
X333799Y251696D01*
X334268Y251458D01*
Y240252D01*
X334268Y240251D01*
X334511Y238403D01*
X335224Y236681D01*
X336359Y235202D01*
X383843Y187718D01*
Y73902D01*
X357722Y47781D01*
X243840D01*
X241992Y47538D01*
X240270Y46824D01*
X238790Y45690D01*
X238790Y45689D01*
X225961Y32860D01*
X216060D01*
Y30001D01*
X196655D01*
X171525Y55131D01*
X171119Y55443D01*
X170807Y55849D01*
X169328Y56984D01*
X168318Y57403D01*
X168318Y58777D01*
X168776Y58967D01*
X170291Y60129D01*
X171453Y61644D01*
X172183Y63407D01*
X172432Y65300D01*
Y75800D01*
X172183Y77693D01*
X171453Y79456D01*
X170291Y80971D01*
X168776Y82133D01*
X167013Y82863D01*
X165120Y83113D01*
X163227Y82863D01*
X161464Y82133D01*
X159949Y80971D01*
X158787Y79456D01*
X158057Y77693D01*
X157807Y75800D01*
Y65300D01*
X158057Y63407D01*
X158787Y61644D01*
X159949Y60129D01*
X161146Y59211D01*
X160760Y57941D01*
X153497D01*
X152584Y58969D01*
X152878Y60149D01*
X153935Y60587D01*
X155483Y62134D01*
X156320Y64156D01*
Y66344D01*
X155483Y68366D01*
X153935Y69913D01*
X151914Y70750D01*
X149726D01*
X147704Y69913D01*
X146157Y68366D01*
X144586Y67890D01*
X144301Y68074D01*
Y75782D01*
X152369Y83850D01*
X152369Y83850D01*
X153504Y85330D01*
X154218Y87052D01*
X154461Y88900D01*
Y93980D01*
X154218Y95828D01*
X153504Y97550D01*
X152369Y99030D01*
X150891Y100164D01*
X149168Y100878D01*
X147320Y101121D01*
X145472Y100878D01*
X143750Y100164D01*
X142270Y99030D01*
X141136Y97550D01*
X140422Y95828D01*
X140179Y93980D01*
Y91858D01*
X132111Y83790D01*
X130976Y82311D01*
X130262Y80588D01*
X130019Y78740D01*
X130019Y78740D01*
Y63948D01*
X130019Y63948D01*
X130262Y62099D01*
X130976Y60377D01*
X131870Y59211D01*
X131421Y57941D01*
X111281D01*
Y60241D01*
X111038Y62089D01*
X110324Y63812D01*
X109190Y65291D01*
X107711Y66425D01*
X106952Y66740D01*
X106123Y67569D01*
X104836Y68102D01*
X103444D01*
X102157Y67569D01*
X101327Y66740D01*
X100569Y66425D01*
X99790Y65827D01*
X98559Y66328D01*
X98485Y66427D01*
X97683Y68366D01*
X96136Y69913D01*
X94114Y70750D01*
X91926D01*
X89904Y69913D01*
X88357Y68366D01*
X87520Y66344D01*
Y64156D01*
X88357Y62134D01*
X89904Y60587D01*
X91926Y59750D01*
X94114D01*
X95742Y60424D01*
X95920Y60399D01*
X96763Y59924D01*
X96999Y59675D01*
Y54102D01*
X96999Y54102D01*
X97242Y52254D01*
X97956Y50532D01*
X99090Y49053D01*
X102392Y45751D01*
X102393Y45750D01*
X103871Y44616D01*
X105594Y43902D01*
X107442Y43659D01*
X107442Y43659D01*
X162799D01*
X164011Y42448D01*
X163556Y41107D01*
X163227Y41063D01*
X161464Y40333D01*
X159949Y39171D01*
X158787Y37656D01*
X158057Y35893D01*
X157807Y34000D01*
Y23500D01*
X158057Y21607D01*
X158787Y19844D01*
X159949Y18329D01*
X161464Y17167D01*
X163227Y16437D01*
X165120Y16187D01*
X167013Y16437D01*
X168776Y17167D01*
X170291Y18329D01*
X171453Y19844D01*
X172183Y21607D01*
X172432Y23500D01*
Y32230D01*
X173703Y32756D01*
X188648Y17811D01*
X188648Y17810D01*
X190127Y16676D01*
X191849Y15962D01*
X193697Y15719D01*
X216060D01*
Y12860D01*
X236060D01*
Y22761D01*
X246798Y33499D01*
X273021D01*
X273188Y32229D01*
X273000Y32178D01*
X270720Y30862D01*
X268858Y29000D01*
X267542Y26720D01*
X266860Y24176D01*
Y21544D01*
X267542Y19000D01*
X268858Y16720D01*
X270720Y14858D01*
X273000Y13542D01*
X275543Y12860D01*
X278176D01*
X280720Y13542D01*
X283000Y14858D01*
X284862Y16720D01*
X286178Y19000D01*
X286860Y21544D01*
Y24176D01*
X286178Y26720D01*
X284862Y29000D01*
X283000Y30862D01*
X280720Y32178D01*
X280532Y32229D01*
X280699Y33499D01*
X298421D01*
X298588Y32229D01*
X298400Y32178D01*
X296120Y30862D01*
X294258Y29000D01*
X292941Y26720D01*
X292260Y24176D01*
Y21544D01*
X292941Y19000D01*
X294258Y16720D01*
X296120Y14858D01*
X298400Y13542D01*
X300944Y12860D01*
X303577D01*
X306120Y13542D01*
X308400Y14858D01*
X310262Y16720D01*
X311579Y19000D01*
X312260Y21544D01*
Y24176D01*
X311579Y26720D01*
X310262Y29000D01*
X308400Y30862D01*
X306120Y32178D01*
X305932Y32229D01*
X306099Y33499D01*
X323821D01*
X323988Y32229D01*
X323800Y32178D01*
X321520Y30862D01*
X319658Y29000D01*
X318342Y26720D01*
X317660Y24176D01*
Y21544D01*
X318342Y19000D01*
X319658Y16720D01*
X321520Y14858D01*
X323800Y13542D01*
X326343Y12860D01*
X328977D01*
X331520Y13542D01*
X333800Y14858D01*
X335662Y16720D01*
X336978Y19000D01*
X337660Y21544D01*
Y24176D01*
X336978Y26720D01*
X335662Y29000D01*
X333800Y30862D01*
X331520Y32178D01*
X331332Y32229D01*
X331499Y33499D01*
X349221D01*
X349388Y32229D01*
X349200Y32178D01*
X346920Y30862D01*
X345058Y29000D01*
X343741Y26720D01*
X343060Y24176D01*
Y21544D01*
X343741Y19000D01*
X345058Y16720D01*
X346920Y14858D01*
X349200Y13542D01*
X351744Y12860D01*
X354376D01*
X356920Y13542D01*
X359200Y14858D01*
X361062Y16720D01*
X362379Y19000D01*
X363060Y21544D01*
Y24176D01*
X362379Y26720D01*
X361062Y29000D01*
X359200Y30862D01*
X356920Y32178D01*
X356732Y32229D01*
X356899Y33499D01*
X360680D01*
X360680Y33499D01*
X362528Y33742D01*
X364250Y34456D01*
X365729Y35591D01*
X394851Y64712D01*
X396025Y64226D01*
Y50064D01*
Y46920D01*
X395204Y40687D01*
X393577Y34614D01*
X391171Y28805D01*
X388027Y23361D01*
X384200Y18373D01*
X379754Y13927D01*
X374766Y10100D01*
X369322Y6956D01*
X363513Y4550D01*
X357440Y2923D01*
X351207Y2103D01*
X46920D01*
X40687Y2923D01*
X34614Y4550D01*
X28805Y6956D01*
X23361Y10100D01*
X18373Y13927D01*
X13927Y18373D01*
X10100Y23361D01*
X6956Y28805D01*
X4550Y34614D01*
X2923Y40687D01*
X2103Y46920D01*
Y50064D01*
X2103Y247760D01*
X3098Y248492D01*
X3896Y248307D01*
X4320Y246968D01*
X4080Y246728D01*
X3547Y245441D01*
Y244049D01*
X4080Y242763D01*
X5065Y241778D01*
X6351Y241245D01*
X7743D01*
X8738Y240581D01*
Y234752D01*
X9189Y232485D01*
X9316Y232295D01*
Y214480D01*
Y202184D01*
Y149860D01*
X9767Y147593D01*
X11051Y145671D01*
X49151Y107571D01*
X56771Y99951D01*
X58693Y98667D01*
X60960Y98216D01*
X63227Y98667D01*
X65149Y99951D01*
X66433Y101873D01*
X66884Y104140D01*
X66433Y106407D01*
X65149Y108329D01*
X57529Y115949D01*
X21164Y152314D01*
Y202184D01*
Y214480D01*
Y227696D01*
X35730D01*
X37997Y228146D01*
X39919Y229431D01*
X41203Y231352D01*
X41654Y233619D01*
X41203Y235886D01*
X39919Y237808D01*
X37997Y239092D01*
X35730Y239543D01*
X20586D01*
Y252577D01*
X21856Y253426D01*
X22758Y253052D01*
X24886D01*
X26853Y253867D01*
X28358Y255371D01*
X29172Y257338D01*
Y259466D01*
X28358Y261432D01*
X26853Y262938D01*
X24886Y263752D01*
X22758D01*
X21856Y263378D01*
X20586Y264227D01*
Y323933D01*
X20713Y324123D01*
X21154Y326342D01*
X21218Y326560D01*
X22240Y327267D01*
X22758Y327052D01*
X24886D01*
X26853Y327867D01*
X28358Y329371D01*
X29172Y331338D01*
Y333466D01*
X28358Y335433D01*
X26853Y336937D01*
X26759Y336976D01*
X27012Y338246D01*
X52897D01*
X68547Y322597D01*
X68249Y321099D01*
X67762Y320897D01*
X66778Y319913D01*
X66245Y318626D01*
Y317234D01*
X66778Y315947D01*
X67762Y314963D01*
X69049Y314430D01*
X70441D01*
X71728Y314963D01*
X72712Y315947D01*
X72914Y316434D01*
X74412Y316732D01*
X92572Y298571D01*
X92612Y298515D01*
X92643Y296983D01*
X92283Y296623D01*
X91750Y295336D01*
Y293944D01*
X92283Y292657D01*
X93267Y291673D01*
X94554Y291140D01*
X95946D01*
X97233Y291673D01*
X98217Y292657D01*
X98603Y292774D01*
X99820Y291961D01*
X102087Y291510D01*
X119126D01*
X121393Y291961D01*
X123315Y293245D01*
X124599Y295167D01*
X125050Y297434D01*
X124599Y299701D01*
X123315Y301623D01*
X121393Y302907D01*
X119126Y303358D01*
X105810D01*
X102260Y306909D01*
X100338Y308193D01*
X99548Y308350D01*
X96184Y311714D01*
X96315Y312329D01*
X96635Y313059D01*
X97741Y313517D01*
X98725Y314501D01*
X99258Y315788D01*
Y317180D01*
X98725Y318467D01*
X97741Y319451D01*
X96454Y319984D01*
X95062D01*
X93775Y319451D01*
X92791Y318467D01*
X92333Y317361D01*
X91603Y317041D01*
X90988Y316910D01*
X59539Y348359D01*
X57618Y349643D01*
X55351Y350094D01*
X15240D01*
X12973Y349643D01*
X11051Y348359D01*
X9767Y346437D01*
X9652Y345860D01*
X9189Y345167D01*
X8738Y342900D01*
Y326390D01*
X8796Y326101D01*
X8738Y325812D01*
Y266751D01*
X7908Y266196D01*
X6515D01*
X5229Y265663D01*
X4245Y264679D01*
X3712Y263392D01*
Y262000D01*
X4245Y260714D01*
X5229Y259729D01*
X6515Y259196D01*
X7908D01*
X8738Y258641D01*
Y253472D01*
X7468Y253219D01*
X7087Y254139D01*
X6103Y255123D01*
X4816Y255656D01*
X3424D01*
X3372Y255635D01*
X2103Y256483D01*
X2103Y328064D01*
Y331207D01*
X2923Y337440D01*
X4550Y343513D01*
X6956Y349322D01*
X10100Y354766D01*
X13927Y359754D01*
X18373Y364200D01*
X23361Y368027D01*
X28805Y371171D01*
X34614Y373577D01*
X40687Y375204D01*
X46920Y376024D01*
X131885D01*
X132052Y374754D01*
X132030Y374749D01*
X129750Y373432D01*
X127888Y371570D01*
X126572Y369290D01*
X125890Y366747D01*
Y364114D01*
X126572Y361570D01*
X127264Y360370D01*
X126531Y359100D01*
X126304D01*
X125017Y358567D01*
X124033Y357583D01*
X123500Y356296D01*
Y354904D01*
X124033Y353617D01*
X125017Y352633D01*
X126304Y352100D01*
X127696D01*
X128983Y352633D01*
X129967Y353617D01*
X130500Y354904D01*
Y355528D01*
X131770Y356262D01*
X132030Y356112D01*
X134573Y355430D01*
X137206D01*
X139750Y356112D01*
X142030Y357428D01*
X143892Y359290D01*
X145209Y361570D01*
X145890Y364114D01*
Y366747D01*
X145209Y369290D01*
X143892Y371570D01*
X142030Y373432D01*
X139750Y374749D01*
X139728Y374754D01*
X139895Y376024D01*
X351207D01*
X357440Y375204D01*
D02*
G37*
%LPC*%
G36*
X69530Y369006D02*
X68138D01*
X66851Y368473D01*
X65867Y367489D01*
X65334Y366202D01*
Y364810D01*
X65867Y363523D01*
X66851Y362539D01*
X68138Y362006D01*
X69530D01*
X70817Y362539D01*
X71801Y363523D01*
X72334Y364810D01*
Y366202D01*
X71801Y367489D01*
X70817Y368473D01*
X69530Y369006D01*
D02*
G37*
G36*
X381696Y359100D02*
X380304D01*
X379017Y358567D01*
X378033Y357583D01*
X377500Y356296D01*
Y354904D01*
X378033Y353617D01*
X379017Y352633D01*
X380304Y352100D01*
X381696D01*
X382983Y352633D01*
X383967Y353617D01*
X384500Y354904D01*
Y356296D01*
X383967Y357583D01*
X382983Y358567D01*
X381696Y359100D01*
D02*
G37*
G36*
X356296D02*
X354904D01*
X353617Y358567D01*
X352633Y357583D01*
X352100Y356296D01*
Y354904D01*
X352633Y353617D01*
X353617Y352633D01*
X354904Y352100D01*
X356296D01*
X357583Y352633D01*
X358567Y353617D01*
X359100Y354904D01*
Y356296D01*
X358567Y357583D01*
X357583Y358567D01*
X356296Y359100D01*
D02*
G37*
G36*
X102296D02*
X100904D01*
X99617Y358567D01*
X98633Y357583D01*
X98100Y356296D01*
Y354904D01*
X98633Y353617D01*
X99617Y352633D01*
X100904Y352100D01*
X102296D01*
X103583Y352633D01*
X104567Y353617D01*
X105100Y354904D01*
Y356296D01*
X104567Y357583D01*
X103583Y358567D01*
X102296Y359100D01*
D02*
G37*
G36*
X368996Y333700D02*
X367604D01*
X366317Y333167D01*
X365333Y332183D01*
X364800Y330896D01*
Y329504D01*
X365333Y328217D01*
X366317Y327233D01*
X367604Y326700D01*
X368996D01*
X370283Y327233D01*
X371267Y328217D01*
X371800Y329504D01*
Y330896D01*
X371267Y332183D01*
X370283Y333167D01*
X368996Y333700D01*
D02*
G37*
G36*
X292796D02*
X291404D01*
X290117Y333167D01*
X289133Y332183D01*
X288600Y330896D01*
Y329504D01*
X289133Y328217D01*
X290117Y327233D01*
X291404Y326700D01*
X292796D01*
X294083Y327233D01*
X295067Y328217D01*
X295600Y329504D01*
Y330896D01*
X295067Y332183D01*
X294083Y333167D01*
X292796Y333700D01*
D02*
G37*
G36*
X267396D02*
X266004D01*
X264717Y333167D01*
X263733Y332183D01*
X263200Y330896D01*
Y329504D01*
X263733Y328217D01*
X264717Y327233D01*
X266004Y326700D01*
X267396D01*
X268683Y327233D01*
X269667Y328217D01*
X270200Y329504D01*
Y330896D01*
X269667Y332183D01*
X268683Y333167D01*
X267396Y333700D01*
D02*
G37*
G36*
X232824Y336946D02*
X230980D01*
X229200Y336469D01*
X227604Y335547D01*
X226301Y334244D01*
X225379Y332648D01*
X224902Y330868D01*
Y329024D01*
X225379Y327244D01*
X226301Y325648D01*
X227604Y324345D01*
X229200Y323423D01*
X230980Y322946D01*
X232824D01*
X234604Y323423D01*
X236200Y324345D01*
X237503Y325648D01*
X238090Y326664D01*
X239139Y327150D01*
X239695Y327076D01*
X240604Y326700D01*
X241996D01*
X243283Y327233D01*
X244267Y328217D01*
X244800Y329504D01*
Y330896D01*
X244267Y332183D01*
X243283Y333167D01*
X241996Y333700D01*
X240604D01*
X239317Y333167D01*
X237904Y333550D01*
X237503Y334244D01*
X236200Y335547D01*
X234604Y336469D01*
X232824Y336946D01*
D02*
G37*
G36*
X216596Y333700D02*
X215204D01*
X213917Y333167D01*
X212933Y332183D01*
X212400Y330896D01*
Y329504D01*
X212933Y328217D01*
X213917Y327233D01*
X215204Y326700D01*
X216596D01*
X217883Y327233D01*
X218867Y328217D01*
X219400Y329504D01*
Y330896D01*
X218867Y332183D01*
X217883Y333167D01*
X216596Y333700D01*
D02*
G37*
G36*
X114996D02*
X113604D01*
X112317Y333167D01*
X111333Y332183D01*
X110800Y330896D01*
Y329504D01*
X111333Y328217D01*
X112317Y327233D01*
X113604Y326700D01*
X114996D01*
X116283Y327233D01*
X117267Y328217D01*
X117800Y329504D01*
Y330896D01*
X117267Y332183D01*
X116283Y333167D01*
X114996Y333700D01*
D02*
G37*
G36*
X38796D02*
X37404D01*
X36117Y333167D01*
X35133Y332183D01*
X34600Y330896D01*
Y329504D01*
X35133Y328217D01*
X36117Y327233D01*
X37404Y326700D01*
X38796D01*
X40083Y327233D01*
X41067Y328217D01*
X41600Y329504D01*
Y330896D01*
X41067Y332183D01*
X40083Y333167D01*
X38796Y333700D01*
D02*
G37*
G36*
X140396Y333493D02*
X139004D01*
X137717Y332960D01*
X136733Y331976D01*
X136200Y330689D01*
Y329297D01*
X136733Y328010D01*
X137717Y327026D01*
X139004Y326493D01*
X140396D01*
X141683Y327026D01*
X142667Y328010D01*
X143200Y329297D01*
Y330689D01*
X142667Y331976D01*
X141683Y332960D01*
X140396Y333493D01*
D02*
G37*
G36*
X312580Y336946D02*
X310736D01*
X308956Y336469D01*
X307360Y335547D01*
X306057Y334244D01*
X305135Y332648D01*
X304658Y330868D01*
Y329024D01*
X305135Y327244D01*
X306057Y325648D01*
X307360Y324345D01*
X308956Y323423D01*
X310736Y322946D01*
X312580D01*
X314360Y323423D01*
X315956Y324345D01*
X317259Y325648D01*
X318181Y327244D01*
X318658Y329024D01*
Y330868D01*
X318181Y332648D01*
X317259Y334244D01*
X315956Y335547D01*
X314360Y336469D01*
X312580Y336946D01*
D02*
G37*
G36*
X34986Y321000D02*
X33594D01*
X32307Y320467D01*
X31323Y319483D01*
X30790Y318196D01*
Y316804D01*
X31323Y315517D01*
X32307Y314533D01*
X33594Y314000D01*
X34986D01*
X36273Y314533D01*
X37257Y315517D01*
X37790Y316804D01*
Y318196D01*
X37257Y319483D01*
X36273Y320467D01*
X34986Y321000D01*
D02*
G37*
G36*
X43876Y317190D02*
X42484D01*
X41197Y316657D01*
X40213Y315673D01*
X39680Y314386D01*
Y312994D01*
X40213Y311707D01*
X40576Y311345D01*
X41073Y310515D01*
X40576Y309685D01*
X40213Y309323D01*
X39680Y308036D01*
Y306644D01*
X40213Y305357D01*
X41197Y304373D01*
X42484Y303840D01*
X43876D01*
X45163Y304373D01*
X46147Y305357D01*
X46680Y306644D01*
Y308036D01*
X46147Y309323D01*
X45784Y309685D01*
X45287Y310515D01*
X45784Y311345D01*
X46147Y311707D01*
X46680Y312994D01*
Y314386D01*
X46147Y315673D01*
X45163Y316657D01*
X43876Y317190D01*
D02*
G37*
G36*
X381696Y308300D02*
X380304D01*
X379017Y307767D01*
X378033Y306783D01*
X377500Y305496D01*
Y304104D01*
X378033Y302817D01*
X379017Y301833D01*
X380304Y301300D01*
X381696D01*
X382983Y301833D01*
X383967Y302817D01*
X384500Y304104D01*
Y305496D01*
X383967Y306783D01*
X382983Y307767D01*
X381696Y308300D01*
D02*
G37*
G36*
X356296D02*
X354904D01*
X353617Y307767D01*
X352633Y306783D01*
X352100Y305496D01*
Y304104D01*
X352633Y302817D01*
X353617Y301833D01*
X354904Y301300D01*
X356296D01*
X357583Y301833D01*
X358567Y302817D01*
X359100Y304104D01*
Y305496D01*
X358567Y306783D01*
X357583Y307767D01*
X356296Y308300D01*
D02*
G37*
G36*
X305496D02*
X304104D01*
X302817Y307767D01*
X301833Y306783D01*
X301300Y305496D01*
Y304104D01*
X301833Y302817D01*
X302817Y301833D01*
X304104Y301300D01*
X305496D01*
X306783Y301833D01*
X307767Y302817D01*
X308300Y304104D01*
Y305496D01*
X307767Y306783D01*
X306783Y307767D01*
X305496Y308300D01*
D02*
G37*
G36*
X280096D02*
X278704D01*
X277417Y307767D01*
X276433Y306783D01*
X275900Y305496D01*
Y304104D01*
X276433Y302817D01*
X277417Y301833D01*
X278704Y301300D01*
X280096D01*
X281383Y301833D01*
X282367Y302817D01*
X282900Y304104D01*
Y305496D01*
X282367Y306783D01*
X281383Y307767D01*
X280096Y308300D01*
D02*
G37*
G36*
X254696D02*
X253304D01*
X252017Y307767D01*
X251033Y306783D01*
X250500Y305496D01*
Y304104D01*
X251033Y302817D01*
X252017Y301833D01*
X253304Y301300D01*
X254696D01*
X255983Y301833D01*
X256967Y302817D01*
X257500Y304104D01*
Y305496D01*
X256967Y306783D01*
X255983Y307767D01*
X254696Y308300D01*
D02*
G37*
G36*
X229296D02*
X227904D01*
X226617Y307767D01*
X225633Y306783D01*
X225100Y305496D01*
Y304104D01*
X225633Y302817D01*
X226617Y301833D01*
X227904Y301300D01*
X229296D01*
X230583Y301833D01*
X231567Y302817D01*
X232100Y304104D01*
Y305496D01*
X231567Y306783D01*
X230583Y307767D01*
X229296Y308300D01*
D02*
G37*
G36*
X172146Y323540D02*
X170754D01*
X169467Y323007D01*
X168483Y322023D01*
X167950Y320736D01*
Y319344D01*
X168483Y318057D01*
X169040Y317500D01*
X168483Y316943D01*
X167950Y315656D01*
Y314264D01*
X168483Y312977D01*
X169040Y312420D01*
X168483Y311863D01*
X167950Y310576D01*
Y309184D01*
X168483Y307897D01*
X169040Y307340D01*
X168483Y306783D01*
X167950Y305496D01*
Y304104D01*
X168483Y302817D01*
X169467Y301833D01*
X170754Y301300D01*
X172146D01*
X173433Y301833D01*
X174417Y302817D01*
X174950Y304104D01*
Y305496D01*
X174417Y306783D01*
X173860Y307340D01*
X174417Y307897D01*
X174950Y309184D01*
Y310576D01*
X174417Y311863D01*
X173860Y312420D01*
X174417Y312977D01*
X174950Y314264D01*
Y315656D01*
X174417Y316943D01*
X173860Y317500D01*
X174417Y318057D01*
X174950Y319344D01*
Y320736D01*
X174417Y322023D01*
X173433Y323007D01*
X172146Y323540D01*
D02*
G37*
G36*
X127696Y308300D02*
X126304D01*
X125017Y307767D01*
X124033Y306783D01*
X123500Y305496D01*
Y304104D01*
X124033Y302817D01*
X125017Y301833D01*
X126304Y301300D01*
X127696D01*
X128983Y301833D01*
X129967Y302817D01*
X130500Y304104D01*
Y305496D01*
X129967Y306783D01*
X128983Y307767D01*
X127696Y308300D01*
D02*
G37*
G36*
X34986D02*
X33594D01*
X32307Y307767D01*
X31323Y306783D01*
X30790Y305496D01*
Y304104D01*
X31323Y302817D01*
X32307Y301833D01*
X33594Y301300D01*
X34986D01*
X36273Y301833D01*
X37257Y302817D01*
X37790Y304104D01*
Y305496D01*
X37257Y306783D01*
X36273Y307767D01*
X34986Y308300D01*
D02*
G37*
G36*
X70441Y306430D02*
X69049D01*
X67762Y305897D01*
X66778Y304913D01*
X66245Y303626D01*
Y302234D01*
X66778Y300947D01*
X67762Y299963D01*
X69049Y299430D01*
X70441D01*
X71728Y299963D01*
X72712Y300947D01*
X73245Y302234D01*
Y303626D01*
X72712Y304913D01*
X71728Y305897D01*
X70441Y306430D01*
D02*
G37*
G36*
X28890Y301442D02*
X27498D01*
X26211Y300909D01*
X25227Y299925D01*
X24694Y298638D01*
Y297246D01*
X25227Y295959D01*
X26211Y294975D01*
X27498Y294442D01*
X28890D01*
X30177Y294975D01*
X31161Y295959D01*
X31694Y297246D01*
Y298638D01*
X31161Y299925D01*
X30177Y300909D01*
X28890Y301442D01*
D02*
G37*
G36*
X207706Y295600D02*
X206314D01*
X205027Y295067D01*
X204043Y294083D01*
X203510Y292796D01*
Y291404D01*
X204043Y290117D01*
X205027Y289133D01*
X206314Y288600D01*
X207706D01*
X208993Y289133D01*
X209977Y290117D01*
X210510Y291404D01*
Y292796D01*
X209977Y294083D01*
X208993Y295067D01*
X207706Y295600D01*
D02*
G37*
G36*
X43876Y301950D02*
X42484D01*
X41197Y301417D01*
X40213Y300433D01*
X39680Y299146D01*
Y297754D01*
X40213Y296467D01*
X40576Y296105D01*
X41073Y295275D01*
X40576Y294445D01*
X40213Y294083D01*
X39680Y292796D01*
Y291404D01*
X40213Y290117D01*
X41197Y289133D01*
X42484Y288600D01*
X43876D01*
X45163Y289133D01*
X46147Y290117D01*
X46680Y291404D01*
Y292796D01*
X46147Y294083D01*
X45784Y294445D01*
X45287Y295275D01*
X45784Y296105D01*
X46147Y296467D01*
X46680Y297754D01*
Y299146D01*
X46147Y300433D01*
X45163Y301417D01*
X43876Y301950D01*
D02*
G37*
G36*
X70441Y291430D02*
X69049D01*
X67762Y290897D01*
X66778Y289913D01*
X66245Y288626D01*
Y287234D01*
X66778Y285947D01*
X67762Y284963D01*
X69049Y284430D01*
X70441D01*
X71728Y284963D01*
X72712Y285947D01*
X73245Y287234D01*
Y288626D01*
X72712Y289913D01*
X71728Y290897D01*
X70441Y291430D01*
D02*
G37*
G36*
X94380Y289087D02*
X92988D01*
X91701Y288554D01*
X90717Y287570D01*
X90184Y286284D01*
Y284891D01*
X90717Y283605D01*
X91701Y282620D01*
X92988Y282087D01*
X94380D01*
X95667Y282620D01*
X96651Y283605D01*
X97184Y284891D01*
Y286284D01*
X96651Y287570D01*
X95667Y288554D01*
X94380Y289087D01*
D02*
G37*
G36*
X28890Y286456D02*
X27498D01*
X26211Y285923D01*
X25227Y284939D01*
X24694Y283652D01*
Y282260D01*
X25227Y280973D01*
X26211Y279989D01*
X27498Y279456D01*
X28890D01*
X30177Y279989D01*
X31161Y280973D01*
X31694Y282260D01*
Y283652D01*
X31161Y284939D01*
X30177Y285923D01*
X28890Y286456D01*
D02*
G37*
G36*
X203896Y285440D02*
X202504D01*
X201217Y284907D01*
X200233Y283923D01*
X199700Y282636D01*
Y281244D01*
X200233Y279957D01*
X201217Y278973D01*
X202504Y278440D01*
X203896D01*
X205183Y278973D01*
X206167Y279957D01*
X206700Y281244D01*
Y282636D01*
X206167Y283923D01*
X205183Y284907D01*
X203896Y285440D01*
D02*
G37*
G36*
X140396Y282900D02*
X139004D01*
X137717Y282367D01*
X136733Y281383D01*
X136200Y280096D01*
Y278704D01*
X136733Y277417D01*
X137717Y276433D01*
X139004Y275900D01*
X140396D01*
X141683Y276433D01*
X142667Y277417D01*
X143200Y278704D01*
Y280096D01*
X142667Y281383D01*
X141683Y282367D01*
X140396Y282900D01*
D02*
G37*
G36*
X114996D02*
X113604D01*
X112317Y282367D01*
X111333Y281383D01*
X110800Y280096D01*
Y278704D01*
X111333Y277417D01*
X112317Y276433D01*
X113604Y275900D01*
X114996D01*
X116283Y276433D01*
X117267Y277417D01*
X117800Y278704D01*
Y280096D01*
X117267Y281383D01*
X116283Y282367D01*
X114996Y282900D01*
D02*
G37*
G36*
X43876Y286710D02*
X42484D01*
X41197Y286177D01*
X40213Y285193D01*
X39680Y283906D01*
Y282514D01*
X40213Y281227D01*
X40770Y280670D01*
X40213Y280113D01*
X39680Y278826D01*
Y277434D01*
X40213Y276147D01*
X41197Y275163D01*
X42484Y274630D01*
X43876D01*
X45163Y275163D01*
X46147Y276147D01*
X46680Y277434D01*
Y278826D01*
X46147Y280113D01*
X45590Y280670D01*
X46147Y281227D01*
X46680Y282514D01*
Y283906D01*
X46147Y285193D01*
X45163Y286177D01*
X43876Y286710D01*
D02*
G37*
G36*
X70441Y276430D02*
X69049D01*
X67762Y275897D01*
X66778Y274913D01*
X66245Y273626D01*
Y272234D01*
X66778Y270947D01*
X67762Y269963D01*
X69049Y269430D01*
X70441D01*
X71728Y269963D01*
X72712Y270947D01*
X73245Y272234D01*
Y273626D01*
X72712Y274913D01*
X71728Y275897D01*
X70441Y276430D01*
D02*
G37*
G36*
X94380Y278773D02*
X92988D01*
X91701Y278240D01*
X90717Y277255D01*
X90184Y275969D01*
Y274577D01*
X90717Y273290D01*
X91701Y272306D01*
X91775Y272275D01*
Y270901D01*
X91441Y270762D01*
X90456Y269778D01*
X89923Y268491D01*
Y267099D01*
X90456Y265812D01*
X90724Y265545D01*
X90456Y265278D01*
X89923Y263991D01*
Y262599D01*
X90456Y261312D01*
X91441Y260328D01*
X92727Y259795D01*
X94120D01*
X95406Y260328D01*
X96390Y261312D01*
X96923Y262599D01*
Y263991D01*
X96390Y265278D01*
X96123Y265545D01*
X96390Y265812D01*
X96923Y267099D01*
Y268491D01*
X96390Y269778D01*
X95406Y270762D01*
X95332Y270793D01*
Y272167D01*
X95667Y272306D01*
X96651Y273290D01*
X97184Y274577D01*
Y275969D01*
X96651Y277255D01*
X95667Y278240D01*
X94380Y278773D01*
D02*
G37*
G36*
X326898Y287929D02*
X227330D01*
X226302Y287724D01*
X225430Y287142D01*
X224848Y286270D01*
X224643Y285242D01*
Y261620D01*
X224848Y260592D01*
X225430Y259720D01*
X226302Y259138D01*
X227330Y258933D01*
X326898D01*
X327926Y259138D01*
X328798Y259720D01*
X329380Y260592D01*
X329585Y261620D01*
Y285242D01*
X329380Y286270D01*
X328798Y287142D01*
X327926Y287724D01*
X326898Y287929D01*
D02*
G37*
G36*
X144361Y264030D02*
X142969D01*
X141683Y263497D01*
X140698Y262513D01*
X140165Y261227D01*
Y259834D01*
X140698Y258548D01*
X141683Y257563D01*
X142969Y257030D01*
X144361D01*
X145648Y257563D01*
X146632Y258548D01*
X147165Y259834D01*
Y261227D01*
X146632Y262513D01*
X145648Y263497D01*
X144361Y264030D01*
D02*
G37*
G36*
X74356Y261310D02*
X72964D01*
X71677Y260777D01*
X70693Y259793D01*
X70160Y258506D01*
Y257114D01*
X70693Y255827D01*
X71250Y255270D01*
X70693Y254713D01*
X70160Y253426D01*
Y252034D01*
X70693Y250747D01*
X71677Y249763D01*
X72964Y249230D01*
X74356D01*
X75643Y249763D01*
X76627Y250747D01*
X77160Y252034D01*
Y253426D01*
X76627Y254713D01*
X76070Y255270D01*
X76627Y255827D01*
X77160Y257114D01*
Y258506D01*
X76627Y259793D01*
X75643Y260777D01*
X74356Y261310D01*
D02*
G37*
G36*
X34986Y256230D02*
X33594D01*
X32307Y255697D01*
X31323Y254713D01*
X30790Y253426D01*
Y252034D01*
X31323Y250747D01*
X32307Y249763D01*
X33594Y249230D01*
X34986D01*
X36273Y249763D01*
X37257Y250747D01*
X37790Y252034D01*
Y253426D01*
X37257Y254713D01*
X36273Y255697D01*
X34986Y256230D01*
D02*
G37*
G36*
X173416Y258770D02*
X172024D01*
X170737Y258237D01*
X169753Y257253D01*
X169220Y255966D01*
Y254574D01*
X169663Y253505D01*
X169279Y253346D01*
X168294Y252361D01*
X167761Y251075D01*
Y249682D01*
X168294Y248396D01*
X169279Y247411D01*
X170565Y246879D01*
X171958D01*
X173244Y247411D01*
X174229Y248396D01*
X174762Y249682D01*
Y251075D01*
X174319Y252144D01*
X174703Y252303D01*
X175687Y253287D01*
X176220Y254574D01*
Y255966D01*
X175687Y257253D01*
X174703Y258237D01*
X173416Y258770D01*
D02*
G37*
G36*
X144206Y252420D02*
X142814D01*
X141527Y251887D01*
X140543Y250903D01*
X140010Y249616D01*
Y248224D01*
X140543Y246937D01*
X141527Y245953D01*
X142814Y245420D01*
X143820D01*
Y244414D01*
X144353Y243127D01*
X145337Y242143D01*
X146624Y241610D01*
X148016D01*
X149303Y242143D01*
X150287Y243127D01*
X150820Y244414D01*
Y245806D01*
X150287Y247093D01*
X149303Y248077D01*
X148016Y248610D01*
X147010D01*
Y249616D01*
X146477Y250903D01*
X145493Y251887D01*
X144206Y252420D01*
D02*
G37*
G36*
X70546Y248610D02*
X69154D01*
X67867Y248077D01*
X66883Y247093D01*
X66350Y245806D01*
Y244414D01*
X66883Y243127D01*
X67867Y242143D01*
X69154Y241610D01*
X70546D01*
X71833Y242143D01*
X72817Y243127D01*
X73350Y244414D01*
Y245806D01*
X72817Y247093D01*
X71833Y248077D01*
X70546Y248610D01*
D02*
G37*
G36*
X300416Y237180D02*
X299024D01*
X297737Y236647D01*
X297180Y236090D01*
X296623Y236647D01*
X295336Y237180D01*
X293944D01*
X292657Y236647D01*
X292100Y236090D01*
X291543Y236647D01*
X290256Y237180D01*
X288864D01*
X287577Y236647D01*
X286593Y235663D01*
X286060Y234376D01*
Y232984D01*
X286593Y231697D01*
X287577Y230713D01*
X288864Y230180D01*
X290256D01*
X291543Y230713D01*
X292100Y231270D01*
X292657Y230713D01*
X293944Y230180D01*
X295336D01*
X296623Y230713D01*
X297180Y231270D01*
X297737Y230713D01*
X299024Y230180D01*
X300416D01*
X301703Y230713D01*
X302687Y231697D01*
X303220Y232984D01*
Y234376D01*
X302687Y235663D01*
X301703Y236647D01*
X300416Y237180D01*
D02*
G37*
G36*
X70546Y238450D02*
X69154D01*
X67867Y237917D01*
X66883Y236933D01*
X66350Y235646D01*
Y234254D01*
X66883Y232967D01*
X67867Y231983D01*
X69154Y231450D01*
X70546D01*
X71833Y231983D01*
X72817Y232967D01*
X73350Y234254D01*
Y235646D01*
X72817Y236933D01*
X71833Y237917D01*
X70546Y238450D01*
D02*
G37*
G36*
Y229560D02*
X69154D01*
X67867Y229027D01*
X66883Y228043D01*
X66350Y226756D01*
Y225364D01*
X66883Y224077D01*
X67867Y223093D01*
X69154Y222560D01*
X70546D01*
X71833Y223093D01*
X72817Y224077D01*
X73350Y225364D01*
Y226756D01*
X72817Y228043D01*
X71833Y229027D01*
X70546Y229560D01*
D02*
G37*
G36*
X136877Y172930D02*
X134902D01*
X132995Y172419D01*
X131285Y171432D01*
X129888Y170035D01*
X128901Y168325D01*
X128390Y166417D01*
Y164443D01*
X128901Y162535D01*
X129888Y160825D01*
X131285Y159428D01*
X132995Y158441D01*
X134902Y157929D01*
X136877D01*
X138785Y158441D01*
X140495Y159428D01*
X141892Y160825D01*
X142879Y162535D01*
X143391Y164443D01*
Y166417D01*
X142879Y168325D01*
X141892Y170035D01*
X140495Y171432D01*
X138785Y172419D01*
X136877Y172930D01*
D02*
G37*
G36*
X222946Y160980D02*
X221554D01*
X220267Y160447D01*
X219283Y159463D01*
X218750Y158176D01*
Y156784D01*
X219283Y155497D01*
X220267Y154513D01*
X221554Y153980D01*
X222946D01*
X224233Y154513D01*
X225217Y155497D01*
X225750Y156784D01*
Y158176D01*
X225217Y159463D01*
X224233Y160447D01*
X222946Y160980D01*
D02*
G37*
G36*
X331516Y143350D02*
X328884D01*
X326340Y142669D01*
X324060Y141352D01*
X322198Y139490D01*
X320882Y137210D01*
X320200Y134667D01*
Y132034D01*
X320882Y129490D01*
X322198Y127210D01*
X324060Y125348D01*
X326340Y124031D01*
X328884Y123350D01*
X331516D01*
X334060Y124031D01*
X336340Y125348D01*
X338202Y127210D01*
X339519Y129490D01*
X340200Y132034D01*
Y134667D01*
X339519Y137210D01*
X338202Y139490D01*
X336340Y141352D01*
X334060Y142669D01*
X331516Y143350D01*
D02*
G37*
G36*
X306117D02*
X303484D01*
X300940Y142669D01*
X298660Y141352D01*
X296798Y139490D01*
X295481Y137210D01*
X294800Y134667D01*
Y132034D01*
X295481Y129490D01*
X296798Y127210D01*
X298660Y125348D01*
X300940Y124031D01*
X303484Y123350D01*
X306117D01*
X308660Y124031D01*
X310940Y125348D01*
X312802Y127210D01*
X314118Y129490D01*
X314800Y132034D01*
Y134667D01*
X314118Y137210D01*
X312802Y139490D01*
X310940Y141352D01*
X308660Y142669D01*
X306117Y143350D01*
D02*
G37*
G36*
X280716D02*
X278083D01*
X275540Y142669D01*
X273260Y141352D01*
X271398Y139490D01*
X270082Y137210D01*
X269400Y134667D01*
Y132034D01*
X270082Y129490D01*
X271398Y127210D01*
X273260Y125348D01*
X275540Y124031D01*
X278083Y123350D01*
X280716D01*
X283260Y124031D01*
X285540Y125348D01*
X287402Y127210D01*
X288718Y129490D01*
X289400Y132034D01*
Y134667D01*
X288718Y137210D01*
X287402Y139490D01*
X285540Y141352D01*
X283260Y142669D01*
X280716Y143350D01*
D02*
G37*
G36*
X255317D02*
X252684D01*
X250140Y142669D01*
X247860Y141352D01*
X245998Y139490D01*
X244681Y137210D01*
X244000Y134667D01*
Y132034D01*
X244681Y129490D01*
X245998Y127210D01*
X247860Y125348D01*
X250140Y124031D01*
X252684Y123350D01*
X255317D01*
X257860Y124031D01*
X260140Y125348D01*
X262002Y127210D01*
X263319Y129490D01*
X264000Y132034D01*
Y134667D01*
X263319Y137210D01*
X262002Y139490D01*
X260140Y141352D01*
X257860Y142669D01*
X255317Y143350D01*
D02*
G37*
G36*
X229916D02*
X227283D01*
X224740Y142669D01*
X222460Y141352D01*
X220598Y139490D01*
X219282Y137210D01*
X218600Y134667D01*
Y132034D01*
X219282Y129490D01*
X220598Y127210D01*
X222460Y125348D01*
X224740Y124031D01*
X227283Y123350D01*
X229916D01*
X232460Y124031D01*
X234740Y125348D01*
X236602Y127210D01*
X237918Y129490D01*
X238600Y132034D01*
Y134667D01*
X237918Y137210D01*
X236602Y139490D01*
X234740Y141352D01*
X232460Y142669D01*
X229916Y143350D01*
D02*
G37*
G36*
X213200D02*
X193200D01*
Y123350D01*
X213200D01*
Y143350D01*
D02*
G37*
G36*
X174686Y121610D02*
X173294D01*
X172007Y121077D01*
X171023Y120093D01*
X170490Y118806D01*
Y117414D01*
X171023Y116127D01*
X172007Y115143D01*
X173294Y114610D01*
X174686D01*
X175973Y115143D01*
X176957Y116127D01*
X177490Y117414D01*
Y118806D01*
X176957Y120093D01*
X175973Y121077D01*
X174686Y121610D01*
D02*
G37*
G36*
X120354Y96210D02*
X118961D01*
X117675Y95677D01*
X117408Y95410D01*
X117140Y95677D01*
X115854Y96210D01*
X114461D01*
X113175Y95677D01*
X112191Y94693D01*
X111658Y93406D01*
Y92014D01*
X112191Y90727D01*
X113175Y89743D01*
X114461Y89210D01*
X115854D01*
X117140Y89743D01*
X117408Y90010D01*
X117675Y89743D01*
X118961Y89210D01*
X120354D01*
X121640Y89743D01*
X122625Y90727D01*
X123158Y92014D01*
Y93406D01*
X122625Y94693D01*
X121640Y95677D01*
X120354Y96210D01*
D02*
G37*
G36*
X78720Y83113D02*
X76827Y82863D01*
X75064Y82133D01*
X73549Y80971D01*
X72387Y79456D01*
X71657Y77693D01*
X71407Y75800D01*
Y65300D01*
X71657Y63407D01*
X72387Y61644D01*
X73549Y60129D01*
X75064Y58967D01*
X76827Y58237D01*
X78720Y57987D01*
X80613Y58237D01*
X82376Y58967D01*
X83891Y60129D01*
X85053Y61644D01*
X85783Y63407D01*
X86033Y65300D01*
Y75800D01*
X85783Y77693D01*
X85053Y79456D01*
X83891Y80971D01*
X82376Y82133D01*
X80613Y82863D01*
X78720Y83113D01*
D02*
G37*
G36*
X252680Y32130D02*
X250240D01*
X247882Y31498D01*
X245768Y30278D01*
X245354Y29864D01*
X251460Y23758D01*
X257566Y29864D01*
X257152Y30278D01*
X255038Y31498D01*
X252680Y32130D01*
D02*
G37*
G36*
X258464Y28966D02*
X252358Y22860D01*
X258464Y16754D01*
X258878Y17168D01*
X260098Y19282D01*
X260730Y21640D01*
Y24080D01*
X260098Y26438D01*
X258878Y28552D01*
X258464Y28966D01*
D02*
G37*
G36*
X244456D02*
X244042Y28552D01*
X242822Y26438D01*
X242190Y24080D01*
Y21640D01*
X242822Y19282D01*
X244042Y17168D01*
X244456Y16754D01*
X250562Y22860D01*
X244456Y28966D01*
D02*
G37*
G36*
X78720Y41313D02*
X76827Y41063D01*
X75064Y40333D01*
X73549Y39171D01*
X72387Y37656D01*
X71657Y35893D01*
X71407Y34000D01*
Y23500D01*
X71657Y21607D01*
X72387Y19844D01*
X73549Y18329D01*
X75064Y17167D01*
X76827Y16437D01*
X78720Y16187D01*
X80613Y16437D01*
X82376Y17167D01*
X83891Y18329D01*
X85053Y19844D01*
X85783Y21607D01*
X86033Y23500D01*
Y34000D01*
X85783Y35893D01*
X85053Y37656D01*
X83891Y39171D01*
X82376Y40333D01*
X80613Y41063D01*
X78720Y41313D01*
D02*
G37*
G36*
X251460Y21962D02*
X245354Y15856D01*
X245768Y15442D01*
X247882Y14222D01*
X250240Y13590D01*
X252680D01*
X255038Y14222D01*
X257152Y15442D01*
X257566Y15856D01*
X251460Y21962D01*
D02*
G37*
%LPD*%
D72*
X14662Y234752D02*
X15240Y234174D01*
X15794Y233619D02*
X35730D01*
X14662Y326390D02*
Y342900D01*
Y234752D02*
Y325812D01*
X15240Y326390D01*
Y234174D02*
X15794Y233619D01*
X15240Y214480D02*
Y234174D01*
Y208332D02*
Y214480D01*
Y202184D02*
Y208332D01*
Y149860D02*
Y202184D01*
Y149860D02*
X53340Y111760D01*
X57150Y107950D01*
X55351Y344170D02*
X96801Y302720D01*
X98071D01*
X102060Y298731D01*
Y297461D02*
X102087Y297434D01*
X102060Y297461D02*
Y298731D01*
X102087Y297434D02*
X119126D01*
X15240Y344170D02*
X55351D01*
X57150Y107950D02*
X60960Y104140D01*
D73*
X104140Y54102D02*
Y60241D01*
X107442Y50800D02*
X147320D01*
X165757D01*
X104140Y54102D02*
X107442Y50800D01*
X208280Y360680D02*
X314960D01*
X200660D02*
X208280D01*
X193040D02*
X200660D01*
X185420D02*
X193040D01*
X177800D02*
X185420D01*
X147320Y88900D02*
Y93980D01*
X137160Y78740D02*
X147320Y88900D01*
X341409Y240251D02*
Y334231D01*
X314960Y360680D02*
X341409Y334231D01*
Y240251D02*
X390984Y190676D01*
Y70944D02*
Y190676D01*
X360680Y40640D02*
X390984Y70944D01*
X243840Y40640D02*
X360680D01*
X226060Y22860D02*
X243840Y40640D01*
X147320Y51816D02*
Y53788D01*
X166476Y50082D02*
X193697Y22860D01*
X137160Y63948D02*
Y78740D01*
Y63948D02*
X147320Y53788D01*
X193697Y22860D02*
X226060D01*
D75*
X251460D02*
D03*
D76*
X226060D02*
D03*
D83*
X34890Y233680D02*
D03*
X104140Y64602D02*
D03*
Y60241D02*
D03*
Y54102D02*
D03*
X15240Y214480D02*
D03*
Y208332D02*
D03*
Y202184D02*
D03*
X281940Y208280D02*
D03*
X284480Y210820D02*
D03*
X276860Y233680D02*
D03*
X271780D02*
D03*
X274320Y76200D02*
D03*
X266700D02*
D03*
X259080D02*
D03*
X251460D02*
D03*
X243840D02*
D03*
X236220D02*
D03*
X208065D02*
D03*
X208280Y360680D02*
D03*
X200660D02*
D03*
X193040D02*
D03*
X185420D02*
D03*
X177800D02*
D03*
X106680Y144780D02*
D03*
X100505D02*
D03*
X93980D02*
D03*
X119126Y297434D02*
D03*
X62230Y327660D02*
D03*
X50800D02*
D03*
X67310Y349250D02*
D03*
Y355600D02*
D03*
X15240Y344170D02*
D03*
Y337820D02*
D03*
Y331470D02*
D03*
Y326390D02*
D03*
X53340Y111760D02*
D03*
X57150Y107950D02*
D03*
X60960Y104140D02*
D03*
X146050Y90170D02*
D03*
X147320Y93980D02*
D03*
M02*
