G04*
G04 #@! TF.GenerationSoftware,Altium Limited,Altium Designer,22.7.1 (60)*
G04*
G04 Layer_Color=32896*
%FSLAX44Y44*%
%MOMM*%
G71*
G04*
G04 #@! TF.SameCoordinates,BBA0BEE0-45CE-4415-A0BC-CE460DC89FB0*
G04*
G04*
G04 #@! TF.FilePolarity,Positive*
G04*
G01*
G75*
%ADD91C,0.0356*%
D91*
X145433Y273214D02*
Y275874D01*
X147368Y274423D01*
Y275149D01*
X147610Y275632D01*
X147852Y275874D01*
X148577Y276116D01*
X149061D01*
X149787Y275874D01*
X150270Y275390D01*
X150512Y274665D01*
Y273939D01*
X150270Y273214D01*
X150028Y272972D01*
X149545Y272730D01*
X145433Y278462D02*
X145675Y277736D01*
X146159Y277495D01*
X146642D01*
X147126Y277736D01*
X147368Y278220D01*
X147610Y279187D01*
X147852Y279913D01*
X148335Y280397D01*
X148819Y280639D01*
X149545D01*
X150028Y280397D01*
X150270Y280155D01*
X150512Y279429D01*
Y278462D01*
X150270Y277736D01*
X150028Y277495D01*
X149545Y277253D01*
X148819D01*
X148335Y277495D01*
X147852Y277978D01*
X147610Y278704D01*
X147368Y279671D01*
X147126Y280155D01*
X146642Y280397D01*
X146159D01*
X145675Y280155D01*
X145433Y279429D01*
Y278462D01*
Y268214D02*
Y270874D01*
X147368Y269423D01*
Y270149D01*
X147610Y270632D01*
X147852Y270874D01*
X148577Y271116D01*
X149061D01*
X149787Y270874D01*
X150270Y270390D01*
X150512Y269665D01*
Y268939D01*
X150270Y268214D01*
X150028Y267972D01*
X149545Y267730D01*
X146159Y275155D02*
X145675Y274913D01*
X145433Y274187D01*
Y273704D01*
X145675Y272978D01*
X146400Y272495D01*
X147610Y272253D01*
X148819D01*
X149787Y272495D01*
X150270Y272978D01*
X150512Y273704D01*
Y273946D01*
X150270Y274671D01*
X149787Y275155D01*
X149061Y275397D01*
X148819D01*
X148094Y275155D01*
X147610Y274671D01*
X147368Y273946D01*
Y273704D01*
X147610Y272978D01*
X148094Y272495D01*
X148819Y272253D01*
X146642Y247972D02*
X146400D01*
X145917Y248214D01*
X145675Y248456D01*
X145433Y248939D01*
Y249907D01*
X145675Y250390D01*
X145917Y250632D01*
X146400Y250874D01*
X146884D01*
X147368Y250632D01*
X148094Y250149D01*
X150512Y247730D01*
Y251116D01*
X145433Y253462D02*
X145675Y252736D01*
X146159Y252495D01*
X146642D01*
X147126Y252736D01*
X147368Y253220D01*
X147610Y254188D01*
X147852Y254913D01*
X148335Y255397D01*
X148819Y255639D01*
X149545D01*
X150028Y255397D01*
X150270Y255155D01*
X150512Y254429D01*
Y253462D01*
X150270Y252736D01*
X150028Y252495D01*
X149545Y252253D01*
X148819D01*
X148335Y252495D01*
X147852Y252978D01*
X147610Y253704D01*
X147368Y254671D01*
X147126Y255155D01*
X146642Y255397D01*
X146159D01*
X145675Y255155D01*
X145433Y254429D01*
Y253462D01*
X146642Y232972D02*
X146400D01*
X145917Y233214D01*
X145675Y233456D01*
X145433Y233939D01*
Y234907D01*
X145675Y235390D01*
X145917Y235632D01*
X146400Y235874D01*
X146884D01*
X147368Y235632D01*
X148094Y235149D01*
X150512Y232730D01*
Y236116D01*
X146642Y237495D02*
X146400D01*
X145917Y237736D01*
X145675Y237978D01*
X145433Y238462D01*
Y239429D01*
X145675Y239913D01*
X145917Y240155D01*
X146400Y240397D01*
X146884D01*
X147368Y240155D01*
X148094Y239671D01*
X150512Y237253D01*
Y240639D01*
X146642Y227972D02*
X146400D01*
X145917Y228214D01*
X145675Y228456D01*
X145433Y228939D01*
Y229907D01*
X145675Y230390D01*
X145917Y230632D01*
X146400Y230874D01*
X146884D01*
X147368Y230632D01*
X148094Y230149D01*
X150512Y227730D01*
Y231116D01*
X145433Y233704D02*
X145675Y232978D01*
X146400Y232495D01*
X147610Y232253D01*
X148335D01*
X149545Y232495D01*
X150270Y232978D01*
X150512Y233704D01*
Y234188D01*
X150270Y234913D01*
X149545Y235397D01*
X148335Y235639D01*
X147610D01*
X146400Y235397D01*
X145675Y234913D01*
X145433Y234188D01*
Y233704D01*
Y280149D02*
X148819Y277730D01*
Y281358D01*
X145433Y280149D02*
X150512D01*
X145433Y283704D02*
X145675Y282978D01*
X146400Y282495D01*
X147610Y282253D01*
X148335D01*
X149545Y282495D01*
X150270Y282978D01*
X150512Y283704D01*
Y284187D01*
X150270Y284913D01*
X149545Y285397D01*
X148335Y285639D01*
X147610D01*
X146400Y285397D01*
X145675Y284913D01*
X145433Y284187D01*
Y283704D01*
X71142Y230472D02*
X70901D01*
X70417Y230714D01*
X70175Y230956D01*
X69933Y231439D01*
Y232407D01*
X70175Y232890D01*
X70417Y233132D01*
X70901Y233374D01*
X71384D01*
X71868Y233132D01*
X72593Y232649D01*
X75012Y230230D01*
Y233616D01*
X70901Y234753D02*
X70659Y235236D01*
X69933Y235962D01*
X75012D01*
X71142Y235472D02*
X70901D01*
X70417Y235714D01*
X70175Y235956D01*
X69933Y236439D01*
Y237407D01*
X70175Y237890D01*
X70417Y238132D01*
X70901Y238374D01*
X71384D01*
X71868Y238132D01*
X72593Y237648D01*
X75012Y235230D01*
Y238616D01*
X69933Y240236D02*
Y242897D01*
X71868Y241446D01*
Y242171D01*
X72110Y242655D01*
X72352Y242897D01*
X73077Y243139D01*
X73561D01*
X74286Y242897D01*
X74770Y242413D01*
X75012Y241687D01*
Y240962D01*
X74770Y240236D01*
X74528Y239994D01*
X74045Y239753D01*
X71142Y240472D02*
X70901D01*
X70417Y240714D01*
X70175Y240955D01*
X69933Y241439D01*
Y242407D01*
X70175Y242890D01*
X70417Y243132D01*
X70901Y243374D01*
X71384D01*
X71868Y243132D01*
X72593Y242648D01*
X75012Y240230D01*
Y243616D01*
X69933Y247655D02*
Y245236D01*
X72110Y244994D01*
X71868Y245236D01*
X71626Y245962D01*
Y246687D01*
X71868Y247413D01*
X72352Y247897D01*
X73077Y248139D01*
X73561D01*
X74286Y247897D01*
X74770Y247413D01*
X75012Y246687D01*
Y245962D01*
X74770Y245236D01*
X74528Y244994D01*
X74045Y244753D01*
X71142Y245472D02*
X70901D01*
X70417Y245714D01*
X70175Y245955D01*
X69933Y246439D01*
Y247407D01*
X70175Y247890D01*
X70417Y248132D01*
X70901Y248374D01*
X71384D01*
X71868Y248132D01*
X72593Y247648D01*
X75012Y245230D01*
Y248616D01*
X69933Y253139D02*
X75012Y250720D01*
X69933Y249753D02*
Y253139D01*
X145433Y290149D02*
X148819Y287730D01*
Y291358D01*
X145433Y290149D02*
X150512D01*
X145433Y294671D02*
X148819Y292253D01*
Y295880D01*
X145433Y294671D02*
X150512D01*
X146642Y242972D02*
X146400D01*
X145917Y243214D01*
X145675Y243456D01*
X145433Y243939D01*
Y244907D01*
X145675Y245390D01*
X145917Y245632D01*
X146400Y245874D01*
X146884D01*
X147368Y245632D01*
X148094Y245149D01*
X150512Y242730D01*
Y246116D01*
X146159Y250155D02*
X145675Y249913D01*
X145433Y249188D01*
Y248704D01*
X145675Y247978D01*
X146400Y247495D01*
X147610Y247253D01*
X148819D01*
X149787Y247495D01*
X150270Y247978D01*
X150512Y248704D01*
Y248946D01*
X150270Y249671D01*
X149787Y250155D01*
X149061Y250397D01*
X148819D01*
X148094Y250155D01*
X147610Y249671D01*
X147368Y248946D01*
Y248704D01*
X147610Y247978D01*
X148094Y247495D01*
X148819Y247253D01*
X146642Y237972D02*
X146400D01*
X145917Y238214D01*
X145675Y238456D01*
X145433Y238939D01*
Y239907D01*
X145675Y240390D01*
X145917Y240632D01*
X146400Y240874D01*
X146884D01*
X147368Y240632D01*
X148094Y240149D01*
X150512Y237730D01*
Y241116D01*
X145433Y244671D02*
X148819Y242253D01*
Y245881D01*
X145433Y244671D02*
X150512D01*
X145433Y295149D02*
X148819Y292730D01*
Y296358D01*
X145433Y295149D02*
X150512D01*
X146159Y300155D02*
X145675Y299913D01*
X145433Y299187D01*
Y298704D01*
X145675Y297978D01*
X146400Y297494D01*
X147610Y297253D01*
X148819D01*
X149787Y297494D01*
X150270Y297978D01*
X150512Y298704D01*
Y298946D01*
X150270Y299671D01*
X149787Y300155D01*
X149061Y300397D01*
X148819D01*
X148094Y300155D01*
X147610Y299671D01*
X147368Y298946D01*
Y298704D01*
X147610Y297978D01*
X148094Y297494D01*
X148819Y297253D01*
X145433Y366116D02*
X150512Y363697D01*
X145433Y362730D02*
Y366116D01*
Y369671D02*
X148819Y367253D01*
Y370881D01*
X145433Y369671D02*
X150512D01*
X145433Y361116D02*
X150512Y358698D01*
X145433Y357730D02*
Y361116D01*
X146642Y362495D02*
X146400D01*
X145917Y362736D01*
X145675Y362978D01*
X145433Y363462D01*
Y364429D01*
X145675Y364913D01*
X145917Y365155D01*
X146400Y365397D01*
X146884D01*
X147368Y365155D01*
X148094Y364671D01*
X150512Y362253D01*
Y365639D01*
X145433Y263214D02*
Y265874D01*
X147368Y264423D01*
Y265149D01*
X147610Y265632D01*
X147852Y265874D01*
X148577Y266116D01*
X149061D01*
X149787Y265874D01*
X150270Y265390D01*
X150512Y264665D01*
Y263939D01*
X150270Y263214D01*
X150028Y262972D01*
X149545Y262730D01*
X145433Y269671D02*
X148819Y267253D01*
Y270880D01*
X145433Y269671D02*
X150512D01*
X145433Y258214D02*
Y260874D01*
X147368Y259423D01*
Y260149D01*
X147610Y260632D01*
X147852Y260874D01*
X148577Y261116D01*
X149061D01*
X149787Y260874D01*
X150270Y260390D01*
X150512Y259665D01*
Y258939D01*
X150270Y258214D01*
X150028Y257972D01*
X149545Y257730D01*
X146642Y262495D02*
X146400D01*
X145917Y262736D01*
X145675Y262978D01*
X145433Y263462D01*
Y264429D01*
X145675Y264913D01*
X145917Y265155D01*
X146400Y265397D01*
X146884D01*
X147368Y265155D01*
X148094Y264671D01*
X150512Y262253D01*
Y265639D01*
X69933Y368616D02*
X75012Y366197D01*
X69933Y365230D02*
Y368616D01*
Y372655D02*
Y370236D01*
X72110Y369994D01*
X71868Y370236D01*
X71626Y370962D01*
Y371687D01*
X71868Y372413D01*
X72352Y372897D01*
X73077Y373139D01*
X73561D01*
X74286Y372897D01*
X74770Y372413D01*
X75012Y371687D01*
Y370962D01*
X74770Y370236D01*
X74528Y369994D01*
X74045Y369753D01*
X69933Y363616D02*
X75012Y361197D01*
X69933Y360230D02*
Y363616D01*
Y365236D02*
Y367897D01*
X71868Y366446D01*
Y367171D01*
X72110Y367655D01*
X72352Y367897D01*
X73077Y368139D01*
X73561D01*
X74286Y367897D01*
X74770Y367413D01*
X75012Y366687D01*
Y365962D01*
X74770Y365236D01*
X74528Y364994D01*
X74045Y364753D01*
X149497Y185148D02*
X152883Y182730D01*
Y186358D01*
X149497Y185148D02*
X154576D01*
X74964Y175230D02*
X74723Y175714D01*
X73997Y176439D01*
X79076D01*
X73997Y180714D02*
Y183374D01*
X75932Y181923D01*
Y182649D01*
X76174Y183132D01*
X76416Y183374D01*
X77141Y183616D01*
X77625D01*
X78351Y183374D01*
X78834Y182890D01*
X79076Y182165D01*
Y181439D01*
X78834Y180714D01*
X78592Y180472D01*
X78109Y180230D01*
X150706Y177972D02*
X150464D01*
X149981Y178214D01*
X149739Y178455D01*
X149497Y178939D01*
Y179907D01*
X149739Y180390D01*
X149981Y180632D01*
X150464Y180874D01*
X150948D01*
X151432Y180632D01*
X152157Y180148D01*
X154576Y177730D01*
Y181116D01*
X70659Y353132D02*
X70175Y352890D01*
X69933Y352165D01*
Y351681D01*
X70175Y350956D01*
X70901Y350472D01*
X72110Y350230D01*
X73319D01*
X74286Y350472D01*
X74770Y350956D01*
X75012Y351681D01*
Y351923D01*
X74770Y352649D01*
X74286Y353132D01*
X73561Y353374D01*
X73319D01*
X72593Y353132D01*
X72110Y352649D01*
X71868Y351923D01*
Y351681D01*
X72110Y350956D01*
X72593Y350472D01*
X73319Y350230D01*
X71626Y357631D02*
X72352Y357389D01*
X72835Y356905D01*
X73077Y356180D01*
Y355938D01*
X72835Y355212D01*
X72352Y354728D01*
X71626Y354487D01*
X71384D01*
X70659Y354728D01*
X70175Y355212D01*
X69933Y355938D01*
Y356180D01*
X70175Y356905D01*
X70659Y357389D01*
X71626Y357631D01*
X72835D01*
X74045Y357389D01*
X74770Y356905D01*
X75012Y356180D01*
Y355696D01*
X74770Y354970D01*
X74286Y354728D01*
X69933Y358616D02*
X75012Y356197D01*
X69933Y355230D02*
Y358616D01*
X70901Y359753D02*
X70659Y360236D01*
X69933Y360962D01*
X75012D01*
X145433Y320632D02*
Y318214D01*
X147610Y317972D01*
X147368Y318214D01*
X147126Y318939D01*
Y319665D01*
X147368Y320391D01*
X147852Y320874D01*
X148577Y321116D01*
X149061D01*
X149787Y320874D01*
X150270Y320391D01*
X150512Y319665D01*
Y318939D01*
X150270Y318214D01*
X150028Y317972D01*
X149545Y317730D01*
X146159Y325155D02*
X145675Y324913D01*
X145433Y324188D01*
Y323704D01*
X145675Y322978D01*
X146400Y322495D01*
X147610Y322253D01*
X148819D01*
X149787Y322495D01*
X150270Y322978D01*
X150512Y323704D01*
Y323946D01*
X150270Y324671D01*
X149787Y325155D01*
X149061Y325397D01*
X148819D01*
X148094Y325155D01*
X147610Y324671D01*
X147368Y323946D01*
Y323704D01*
X147610Y322978D01*
X148094Y322495D01*
X148819Y322253D01*
X145433Y325632D02*
Y323214D01*
X147610Y322972D01*
X147368Y323214D01*
X147126Y323939D01*
Y324665D01*
X147368Y325391D01*
X147852Y325874D01*
X148577Y326116D01*
X149061D01*
X149787Y325874D01*
X150270Y325391D01*
X150512Y324665D01*
Y323939D01*
X150270Y323214D01*
X150028Y322972D01*
X149545Y322730D01*
X145433Y328462D02*
X145675Y327737D01*
X146159Y327495D01*
X146642D01*
X147126Y327737D01*
X147368Y328220D01*
X147610Y329188D01*
X147852Y329913D01*
X148335Y330397D01*
X148819Y330639D01*
X149545D01*
X150028Y330397D01*
X150270Y330155D01*
X150512Y329429D01*
Y328462D01*
X150270Y327737D01*
X150028Y327495D01*
X149545Y327253D01*
X148819D01*
X148335Y327495D01*
X147852Y327978D01*
X147610Y328704D01*
X147368Y329671D01*
X147126Y330155D01*
X146642Y330397D01*
X146159D01*
X145675Y330155D01*
X145433Y329429D01*
Y328462D01*
Y356116D02*
X150512Y353698D01*
X145433Y352730D02*
Y356116D01*
Y358704D02*
X145675Y357978D01*
X146400Y357495D01*
X147610Y357253D01*
X148335D01*
X149545Y357495D01*
X150270Y357978D01*
X150512Y358704D01*
Y359188D01*
X150270Y359913D01*
X149545Y360397D01*
X148335Y360639D01*
X147610D01*
X146400Y360397D01*
X145675Y359913D01*
X145433Y359188D01*
Y358704D01*
Y315632D02*
Y313214D01*
X147610Y312972D01*
X147368Y313214D01*
X147126Y313939D01*
Y314665D01*
X147368Y315390D01*
X147852Y315874D01*
X148577Y316116D01*
X149061D01*
X149787Y315874D01*
X150270Y315390D01*
X150512Y314665D01*
Y313939D01*
X150270Y313214D01*
X150028Y312972D01*
X149545Y312730D01*
X145433Y319671D02*
X148819Y317253D01*
Y320880D01*
X145433Y319671D02*
X150512D01*
X145433Y300148D02*
X148819Y297730D01*
Y301358D01*
X145433Y300148D02*
X150512D01*
X145433Y303462D02*
X145675Y302736D01*
X146159Y302494D01*
X146642D01*
X147126Y302736D01*
X147368Y303220D01*
X147610Y304187D01*
X147852Y304913D01*
X148335Y305397D01*
X148819Y305639D01*
X149545D01*
X150028Y305397D01*
X150270Y305155D01*
X150512Y304429D01*
Y303462D01*
X150270Y302736D01*
X150028Y302494D01*
X149545Y302253D01*
X148819D01*
X148335Y302494D01*
X147852Y302978D01*
X147610Y303704D01*
X147368Y304671D01*
X147126Y305155D01*
X146642Y305397D01*
X146159D01*
X145675Y305155D01*
X145433Y304429D01*
Y303462D01*
Y305632D02*
Y303214D01*
X147610Y302972D01*
X147368Y303214D01*
X147126Y303939D01*
Y304665D01*
X147368Y305390D01*
X147852Y305874D01*
X148577Y306116D01*
X149061D01*
X149787Y305874D01*
X150270Y305390D01*
X150512Y304665D01*
Y303939D01*
X150270Y303214D01*
X150028Y302972D01*
X149545Y302730D01*
X145433Y308704D02*
X145675Y307978D01*
X146400Y307494D01*
X147610Y307253D01*
X148335D01*
X149545Y307494D01*
X150270Y307978D01*
X150512Y308704D01*
Y309187D01*
X150270Y309913D01*
X149545Y310397D01*
X148335Y310639D01*
X147610D01*
X146400Y310397D01*
X145675Y309913D01*
X145433Y309187D01*
Y308704D01*
X146159Y335632D02*
X145675Y335391D01*
X145433Y334665D01*
Y334181D01*
X145675Y333456D01*
X146400Y332972D01*
X147610Y332730D01*
X148819D01*
X149787Y332972D01*
X150270Y333456D01*
X150512Y334181D01*
Y334423D01*
X150270Y335149D01*
X149787Y335632D01*
X149061Y335874D01*
X148819D01*
X148094Y335632D01*
X147610Y335149D01*
X147368Y334423D01*
Y334181D01*
X147610Y333456D01*
X148094Y332972D01*
X148819Y332730D01*
X146642Y337229D02*
X146400D01*
X145917Y337470D01*
X145675Y337712D01*
X145433Y338196D01*
Y339163D01*
X145675Y339647D01*
X145917Y339889D01*
X146400Y340131D01*
X146884D01*
X147368Y339889D01*
X148094Y339405D01*
X150512Y336987D01*
Y340373D01*
X146159Y330632D02*
X145675Y330391D01*
X145433Y329665D01*
Y329181D01*
X145675Y328456D01*
X146400Y327972D01*
X147610Y327730D01*
X148819D01*
X149787Y327972D01*
X150270Y328456D01*
X150512Y329181D01*
Y329423D01*
X150270Y330149D01*
X149787Y330632D01*
X149061Y330874D01*
X148819D01*
X148094Y330632D01*
X147610Y330149D01*
X147368Y329423D01*
Y329181D01*
X147610Y328456D01*
X148094Y327972D01*
X148819Y327730D01*
X145433Y333438D02*
X145675Y332712D01*
X146400Y332229D01*
X147610Y331987D01*
X148335D01*
X149545Y332229D01*
X150270Y332712D01*
X150512Y333438D01*
Y333922D01*
X150270Y334647D01*
X149545Y335131D01*
X148335Y335373D01*
X147610D01*
X146400Y335131D01*
X145675Y334647D01*
X145433Y333922D01*
Y333438D01*
X146159Y345632D02*
X145675Y345390D01*
X145433Y344665D01*
Y344181D01*
X145675Y343456D01*
X146400Y342972D01*
X147610Y342730D01*
X148819D01*
X149787Y342972D01*
X150270Y343456D01*
X150512Y344181D01*
Y344423D01*
X150270Y345149D01*
X149787Y345632D01*
X149061Y345874D01*
X148819D01*
X148094Y345632D01*
X147610Y345149D01*
X147368Y344423D01*
Y344181D01*
X147610Y343456D01*
X148094Y342972D01*
X148819Y342730D01*
X146159Y349889D02*
X145675Y349647D01*
X145433Y348922D01*
Y348438D01*
X145675Y347712D01*
X146400Y347229D01*
X147610Y346987D01*
X148819D01*
X149787Y347229D01*
X150270Y347712D01*
X150512Y348438D01*
Y348680D01*
X150270Y349405D01*
X149787Y349889D01*
X149061Y350131D01*
X148819D01*
X148094Y349889D01*
X147610Y349405D01*
X147368Y348680D01*
Y348438D01*
X147610Y347712D01*
X148094Y347229D01*
X148819Y346987D01*
X146159Y340632D02*
X145675Y340391D01*
X145433Y339665D01*
Y339181D01*
X145675Y338456D01*
X146400Y337972D01*
X147610Y337730D01*
X148819D01*
X149787Y337972D01*
X150270Y338456D01*
X150512Y339181D01*
Y339423D01*
X150270Y340149D01*
X149787Y340632D01*
X149061Y340874D01*
X148819D01*
X148094Y340632D01*
X147610Y340149D01*
X147368Y339423D01*
Y339181D01*
X147610Y338456D01*
X148094Y337972D01*
X148819Y337730D01*
X145433Y344405D02*
X148819Y341987D01*
Y345615D01*
X145433Y344405D02*
X150512D01*
X145433Y310632D02*
Y308214D01*
X147610Y307972D01*
X147368Y308214D01*
X147126Y308939D01*
Y309665D01*
X147368Y310390D01*
X147852Y310874D01*
X148577Y311116D01*
X149061D01*
X149787Y310874D01*
X150270Y310390D01*
X150512Y309665D01*
Y308939D01*
X150270Y308214D01*
X150028Y307972D01*
X149545Y307730D01*
X146642Y312494D02*
X146400D01*
X145917Y312736D01*
X145675Y312978D01*
X145433Y313462D01*
Y314429D01*
X145675Y314913D01*
X145917Y315155D01*
X146400Y315397D01*
X146884D01*
X147368Y315155D01*
X148094Y314671D01*
X150512Y312253D01*
Y315639D01*
X146159Y350632D02*
X145675Y350390D01*
X145433Y349665D01*
Y349181D01*
X145675Y348456D01*
X146400Y347972D01*
X147610Y347730D01*
X148819D01*
X149787Y347972D01*
X150270Y348456D01*
X150512Y349181D01*
Y349423D01*
X150270Y350149D01*
X149787Y350632D01*
X149061Y350874D01*
X148819D01*
X148094Y350632D01*
X147610Y350149D01*
X147368Y349423D01*
Y349181D01*
X147610Y348456D01*
X148094Y347972D01*
X148819Y347730D01*
X145433Y353196D02*
X145675Y352470D01*
X146159Y352229D01*
X146642D01*
X147126Y352470D01*
X147368Y352954D01*
X147610Y353922D01*
X147852Y354647D01*
X148335Y355131D01*
X148819Y355373D01*
X149545D01*
X150028Y355131D01*
X150270Y354889D01*
X150512Y354163D01*
Y353196D01*
X150270Y352470D01*
X150028Y352229D01*
X149545Y351987D01*
X148819D01*
X148335Y352229D01*
X147852Y352712D01*
X147610Y353438D01*
X147368Y354405D01*
X147126Y354889D01*
X146642Y355131D01*
X146159D01*
X145675Y354889D01*
X145433Y354163D01*
Y353196D01*
X69933Y313132D02*
Y310714D01*
X72110Y310472D01*
X71868Y310714D01*
X71626Y311439D01*
Y312165D01*
X71868Y312890D01*
X72352Y313374D01*
X73077Y313616D01*
X73561D01*
X74286Y313374D01*
X74770Y312890D01*
X75012Y312165D01*
Y311439D01*
X74770Y310714D01*
X74528Y310472D01*
X74045Y310230D01*
X69933Y315236D02*
Y317897D01*
X71868Y316446D01*
Y317171D01*
X72110Y317655D01*
X72352Y317897D01*
X73077Y318139D01*
X73561D01*
X74286Y317897D01*
X74770Y317413D01*
X75012Y316688D01*
Y315962D01*
X74770Y315236D01*
X74528Y314995D01*
X74045Y314753D01*
X69933Y318132D02*
Y315714D01*
X72110Y315472D01*
X71868Y315714D01*
X71626Y316439D01*
Y317165D01*
X71868Y317890D01*
X72352Y318374D01*
X73077Y318616D01*
X73561D01*
X74286Y318374D01*
X74770Y317890D01*
X75012Y317165D01*
Y316439D01*
X74770Y315714D01*
X74528Y315472D01*
X74045Y315230D01*
X69933Y322655D02*
Y320236D01*
X72110Y319995D01*
X71868Y320236D01*
X71626Y320962D01*
Y321688D01*
X71868Y322413D01*
X72352Y322897D01*
X73077Y323139D01*
X73561D01*
X74286Y322897D01*
X74770Y322413D01*
X75012Y321688D01*
Y320962D01*
X74770Y320236D01*
X74528Y319995D01*
X74045Y319753D01*
X69933Y328132D02*
Y325714D01*
X72110Y325472D01*
X71868Y325714D01*
X71626Y326439D01*
Y327165D01*
X71868Y327890D01*
X72352Y328374D01*
X73077Y328616D01*
X73561D01*
X74286Y328374D01*
X74770Y327890D01*
X75012Y327165D01*
Y326439D01*
X74770Y325714D01*
X74528Y325472D01*
X74045Y325230D01*
X71626Y332897D02*
X72352Y332655D01*
X72835Y332171D01*
X73077Y331446D01*
Y331204D01*
X72835Y330478D01*
X72352Y329995D01*
X71626Y329753D01*
X71384D01*
X70659Y329995D01*
X70175Y330478D01*
X69933Y331204D01*
Y331446D01*
X70175Y332171D01*
X70659Y332655D01*
X71626Y332897D01*
X72835D01*
X74045Y332655D01*
X74770Y332171D01*
X75012Y331446D01*
Y330962D01*
X74770Y330236D01*
X74286Y329995D01*
X69933Y323132D02*
Y320714D01*
X72110Y320472D01*
X71868Y320714D01*
X71626Y321439D01*
Y322165D01*
X71868Y322890D01*
X72352Y323374D01*
X73077Y323616D01*
X73561D01*
X74286Y323374D01*
X74770Y322890D01*
X75012Y322165D01*
Y321439D01*
X74770Y320714D01*
X74528Y320472D01*
X74045Y320230D01*
X69933Y328139D02*
X75012Y325720D01*
X69933Y324753D02*
Y328139D01*
X70659Y338132D02*
X70175Y337890D01*
X69933Y337165D01*
Y336681D01*
X70175Y335956D01*
X70901Y335472D01*
X72110Y335230D01*
X73319D01*
X74286Y335472D01*
X74770Y335956D01*
X75012Y336681D01*
Y336923D01*
X74770Y337649D01*
X74286Y338132D01*
X73561Y338374D01*
X73319D01*
X72593Y338132D01*
X72110Y337649D01*
X71868Y336923D01*
Y336681D01*
X72110Y335956D01*
X72593Y335472D01*
X73319Y335230D01*
X69933Y339970D02*
Y342631D01*
X71868Y341180D01*
Y341905D01*
X72110Y342389D01*
X72352Y342631D01*
X73077Y342873D01*
X73561D01*
X74286Y342631D01*
X74770Y342147D01*
X75012Y341421D01*
Y340696D01*
X74770Y339970D01*
X74528Y339728D01*
X74045Y339487D01*
X70659Y333132D02*
X70175Y332890D01*
X69933Y332165D01*
Y331681D01*
X70175Y330956D01*
X70901Y330472D01*
X72110Y330230D01*
X73319D01*
X74286Y330472D01*
X74770Y330956D01*
X75012Y331681D01*
Y331923D01*
X74770Y332649D01*
X74286Y333132D01*
X73561Y333374D01*
X73319D01*
X72593Y333132D01*
X72110Y332649D01*
X71868Y331923D01*
Y331681D01*
X72110Y330956D01*
X72593Y330472D01*
X73319Y330230D01*
X70901Y334487D02*
X70659Y334970D01*
X69933Y335696D01*
X75012D01*
X70659Y343132D02*
X70175Y342890D01*
X69933Y342165D01*
Y341681D01*
X70175Y340956D01*
X70901Y340472D01*
X72110Y340230D01*
X73319D01*
X74286Y340472D01*
X74770Y340956D01*
X75012Y341681D01*
Y341923D01*
X74770Y342649D01*
X74286Y343132D01*
X73561Y343374D01*
X73319D01*
X72593Y343132D01*
X72110Y342649D01*
X71868Y341923D01*
Y341681D01*
X72110Y340956D01*
X72593Y340472D01*
X73319Y340230D01*
X69933Y347389D02*
Y344970D01*
X72110Y344728D01*
X71868Y344970D01*
X71626Y345696D01*
Y346421D01*
X71868Y347147D01*
X72352Y347631D01*
X73077Y347873D01*
X73561D01*
X74286Y347631D01*
X74770Y347147D01*
X75012Y346421D01*
Y345696D01*
X74770Y344970D01*
X74528Y344728D01*
X74045Y344487D01*
X70659Y348132D02*
X70175Y347890D01*
X69933Y347165D01*
Y346681D01*
X70175Y345956D01*
X70901Y345472D01*
X72110Y345230D01*
X73319D01*
X74286Y345472D01*
X74770Y345956D01*
X75012Y346681D01*
Y346923D01*
X74770Y347649D01*
X74286Y348132D01*
X73561Y348374D01*
X73319D01*
X72593Y348132D01*
X72110Y347649D01*
X71868Y346923D01*
Y346681D01*
X72110Y345956D01*
X72593Y345472D01*
X73319Y345230D01*
X69933Y352873D02*
X75012Y350454D01*
X69933Y349487D02*
Y352873D01*
Y282649D02*
X73319Y280230D01*
Y283858D01*
X69933Y282649D02*
X75012D01*
X70901Y284753D02*
X70659Y285236D01*
X69933Y285962D01*
X75012D01*
X69933Y287649D02*
X73319Y285230D01*
Y288858D01*
X69933Y287649D02*
X75012D01*
X69933Y290236D02*
Y292897D01*
X71868Y291446D01*
Y292171D01*
X72110Y292655D01*
X72352Y292897D01*
X73077Y293139D01*
X73561D01*
X74286Y292897D01*
X74770Y292413D01*
X75012Y291688D01*
Y290962D01*
X74770Y290236D01*
X74528Y289995D01*
X74045Y289753D01*
X69933Y292649D02*
X73319Y290230D01*
Y293858D01*
X69933Y292649D02*
X75012D01*
X69933Y297655D02*
Y295236D01*
X72110Y294995D01*
X71868Y295236D01*
X71626Y295962D01*
Y296688D01*
X71868Y297413D01*
X72352Y297897D01*
X73077Y298139D01*
X73561D01*
X74286Y297897D01*
X74770Y297413D01*
X75012Y296688D01*
Y295962D01*
X74770Y295236D01*
X74528Y294995D01*
X74045Y294753D01*
X69933Y297649D02*
X73319Y295230D01*
Y298858D01*
X69933Y297649D02*
X75012D01*
X69933Y303139D02*
X75012Y300720D01*
X69933Y299753D02*
Y303139D01*
X71142Y250472D02*
X70901D01*
X70417Y250714D01*
X70175Y250955D01*
X69933Y251439D01*
Y252407D01*
X70175Y252890D01*
X70417Y253132D01*
X70901Y253374D01*
X71384D01*
X71868Y253132D01*
X72593Y252648D01*
X75012Y250230D01*
Y253616D01*
X71626Y257897D02*
X72352Y257655D01*
X72835Y257171D01*
X73077Y256446D01*
Y256204D01*
X72835Y255478D01*
X72352Y254994D01*
X71626Y254753D01*
X71384D01*
X70659Y254994D01*
X70175Y255478D01*
X69933Y256204D01*
Y256446D01*
X70175Y257171D01*
X70659Y257655D01*
X71626Y257897D01*
X72835D01*
X74045Y257655D01*
X74770Y257171D01*
X75012Y256446D01*
Y255962D01*
X74770Y255236D01*
X74286Y254994D01*
X145433Y285149D02*
X148819Y282730D01*
Y286358D01*
X145433Y285149D02*
X150512D01*
X146642Y287494D02*
X146400D01*
X145917Y287736D01*
X145675Y287978D01*
X145433Y288462D01*
Y289429D01*
X145675Y289913D01*
X145917Y290155D01*
X146400Y290397D01*
X146884D01*
X147368Y290155D01*
X148094Y289671D01*
X150512Y287253D01*
Y290639D01*
X69933Y265714D02*
Y268374D01*
X71868Y266923D01*
Y267649D01*
X72110Y268132D01*
X72352Y268374D01*
X73077Y268616D01*
X73561D01*
X74286Y268374D01*
X74770Y267890D01*
X75012Y267165D01*
Y266439D01*
X74770Y265714D01*
X74528Y265472D01*
X74045Y265230D01*
X69933Y272655D02*
Y270236D01*
X72110Y269995D01*
X71868Y270236D01*
X71626Y270962D01*
Y271688D01*
X71868Y272413D01*
X72352Y272897D01*
X73077Y273139D01*
X73561D01*
X74286Y272897D01*
X74770Y272413D01*
X75012Y271688D01*
Y270962D01*
X74770Y270236D01*
X74528Y269995D01*
X74045Y269753D01*
X69933Y260714D02*
Y263374D01*
X71868Y261923D01*
Y262649D01*
X72110Y263132D01*
X72352Y263374D01*
X73077Y263616D01*
X73561D01*
X74286Y263374D01*
X74770Y262890D01*
X75012Y262165D01*
Y261439D01*
X74770Y260714D01*
X74528Y260472D01*
X74045Y260230D01*
X69933Y265236D02*
Y267897D01*
X71868Y266446D01*
Y267171D01*
X72110Y267655D01*
X72352Y267897D01*
X73077Y268139D01*
X73561D01*
X74286Y267897D01*
X74770Y267413D01*
X75012Y266688D01*
Y265962D01*
X74770Y265236D01*
X74528Y264995D01*
X74045Y264753D01*
X69933Y302649D02*
X73319Y300230D01*
Y303858D01*
X69933Y302649D02*
X75012D01*
X71626Y307897D02*
X72352Y307655D01*
X72835Y307171D01*
X73077Y306446D01*
Y306204D01*
X72835Y305478D01*
X72352Y304995D01*
X71626Y304753D01*
X71384D01*
X70659Y304995D01*
X70175Y305478D01*
X69933Y306204D01*
Y306446D01*
X70175Y307171D01*
X70659Y307655D01*
X71626Y307897D01*
X72835D01*
X74045Y307655D01*
X74770Y307171D01*
X75012Y306446D01*
Y305962D01*
X74770Y305236D01*
X74286Y304995D01*
X74345Y379616D02*
X73861Y379132D01*
X73619Y378407D01*
Y377439D01*
X73861Y376714D01*
X74345Y376230D01*
X74829D01*
X75312Y376472D01*
X75554Y376714D01*
X75796Y377197D01*
X76280Y378648D01*
X76521Y379132D01*
X76763Y379374D01*
X77247Y379616D01*
X77972D01*
X78456Y379132D01*
X78698Y378407D01*
Y377439D01*
X78456Y376714D01*
X77972Y376230D01*
X73619Y380752D02*
X78698D01*
X73619Y384138D02*
X78698D01*
X76038Y380752D02*
Y384138D01*
X74829Y385783D02*
X74587D01*
X74103Y386025D01*
X73861Y386267D01*
X73619Y386750D01*
Y387718D01*
X73861Y388202D01*
X74103Y388443D01*
X74587Y388685D01*
X75070D01*
X75554Y388443D01*
X76280Y387960D01*
X78698Y385541D01*
Y388927D01*
X73997Y188132D02*
Y185714D01*
X76174Y185472D01*
X75932Y185714D01*
X75690Y186439D01*
Y187165D01*
X75932Y187890D01*
X76416Y188374D01*
X77141Y188616D01*
X77625D01*
X78351Y188374D01*
X78834Y187890D01*
X79076Y187165D01*
Y186439D01*
X78834Y185714D01*
X78592Y185472D01*
X78109Y185230D01*
X73997Y193616D02*
X79076Y191197D01*
X73997Y190230D02*
Y193616D01*
X149497Y193939D02*
X149739Y193214D01*
X150223Y192972D01*
X150706D01*
X151190Y193214D01*
X151432Y193697D01*
X151674Y194665D01*
X151916Y195390D01*
X152399Y195874D01*
X152883Y196116D01*
X153609D01*
X154092Y195874D01*
X154334Y195632D01*
X154576Y194907D01*
Y193939D01*
X154334Y193214D01*
X154092Y192972D01*
X153609Y192730D01*
X152883D01*
X152399Y192972D01*
X151916Y193456D01*
X151674Y194181D01*
X151432Y195149D01*
X151190Y195632D01*
X150706Y195874D01*
X150223D01*
X149739Y195632D01*
X149497Y194907D01*
Y193939D01*
X150223Y190632D02*
X149739Y190390D01*
X149497Y189665D01*
Y189181D01*
X149739Y188455D01*
X150464Y187972D01*
X151674Y187730D01*
X152883D01*
X153850Y187972D01*
X154334Y188455D01*
X154576Y189181D01*
Y189423D01*
X154334Y190148D01*
X153850Y190632D01*
X153125Y190874D01*
X152883D01*
X152157Y190632D01*
X151674Y190148D01*
X151432Y189423D01*
Y189181D01*
X151674Y188455D01*
X152157Y187972D01*
X152883Y187730D01*
X74345Y172616D02*
X73861Y172132D01*
X73619Y171407D01*
Y170439D01*
X73861Y169714D01*
X74345Y169230D01*
X74829D01*
X75312Y169472D01*
X75554Y169714D01*
X75796Y170197D01*
X76280Y171649D01*
X76521Y172132D01*
X76763Y172374D01*
X77247Y172616D01*
X77972D01*
X78456Y172132D01*
X78698Y171407D01*
Y170439D01*
X78456Y169714D01*
X77972Y169230D01*
X73619Y173753D02*
X78698D01*
X73619Y177139D02*
X78698D01*
X76038Y173753D02*
Y177139D01*
X74587Y178541D02*
X74345Y179025D01*
X73619Y179751D01*
X78698D01*
X146400Y197730D02*
X146159Y198214D01*
X145433Y198939D01*
X150512D01*
X145433Y202906D02*
X145675Y202180D01*
X146400Y201696D01*
X147610Y201455D01*
X148335D01*
X149545Y201696D01*
X150270Y202180D01*
X150512Y202906D01*
Y203389D01*
X150270Y204115D01*
X149545Y204599D01*
X148335Y204841D01*
X147610D01*
X146400Y204599D01*
X145675Y204115D01*
X145433Y203389D01*
Y202906D01*
Y253214D02*
Y255874D01*
X147368Y254423D01*
Y255149D01*
X147610Y255632D01*
X147852Y255874D01*
X148577Y256116D01*
X149061D01*
X149787Y255874D01*
X150270Y255390D01*
X150512Y254665D01*
Y253939D01*
X150270Y253214D01*
X150028Y252972D01*
X149545Y252730D01*
X145433Y258704D02*
X145675Y257978D01*
X146400Y257495D01*
X147610Y257253D01*
X148335D01*
X149545Y257495D01*
X150270Y257978D01*
X150512Y258704D01*
Y259188D01*
X150270Y259913D01*
X149545Y260397D01*
X148335Y260639D01*
X147610D01*
X146400Y260397D01*
X145675Y259913D01*
X145433Y259188D01*
Y258704D01*
X69933Y270714D02*
Y273374D01*
X71868Y271923D01*
Y272649D01*
X72110Y273132D01*
X72352Y273374D01*
X73077Y273616D01*
X73561D01*
X74286Y273374D01*
X74770Y272890D01*
X75012Y272165D01*
Y271439D01*
X74770Y270714D01*
X74528Y270472D01*
X74045Y270230D01*
X69933Y278139D02*
X75012Y275720D01*
X69933Y274753D02*
Y278139D01*
Y275714D02*
Y278374D01*
X71868Y276923D01*
Y277649D01*
X72110Y278132D01*
X72352Y278374D01*
X73077Y278616D01*
X73561D01*
X74286Y278374D01*
X74770Y277890D01*
X75012Y277165D01*
Y276439D01*
X74770Y275714D01*
X74528Y275472D01*
X74045Y275230D01*
X71626Y282897D02*
X72352Y282655D01*
X72835Y282171D01*
X73077Y281446D01*
Y281204D01*
X72835Y280478D01*
X72352Y279995D01*
X71626Y279753D01*
X71384D01*
X70659Y279995D01*
X70175Y280478D01*
X69933Y281204D01*
Y281446D01*
X70175Y282171D01*
X70659Y282655D01*
X71626Y282897D01*
X72835D01*
X74045Y282655D01*
X74770Y282171D01*
X75012Y281446D01*
Y280962D01*
X74770Y280236D01*
X74286Y279995D01*
X69933Y308132D02*
Y305714D01*
X72110Y305472D01*
X71868Y305714D01*
X71626Y306439D01*
Y307165D01*
X71868Y307890D01*
X72352Y308374D01*
X73077Y308616D01*
X73561D01*
X74286Y308374D01*
X74770Y307890D01*
X75012Y307165D01*
Y306439D01*
X74770Y305714D01*
X74528Y305472D01*
X74045Y305230D01*
X70901Y309753D02*
X70659Y310236D01*
X69933Y310962D01*
X75012D01*
X69933Y255714D02*
Y258374D01*
X71868Y256923D01*
Y257649D01*
X72110Y258132D01*
X72352Y258374D01*
X73077Y258616D01*
X73561D01*
X74286Y258374D01*
X74770Y257890D01*
X75012Y257165D01*
Y256439D01*
X74770Y255714D01*
X74528Y255472D01*
X74045Y255230D01*
X70901Y259753D02*
X70659Y260236D01*
X69933Y260962D01*
X75012D01*
X75690Y198374D02*
X76416Y198132D01*
X76899Y197649D01*
X77141Y196923D01*
Y196681D01*
X76899Y195956D01*
X76416Y195472D01*
X75690Y195230D01*
X75448D01*
X74723Y195472D01*
X74239Y195956D01*
X73997Y196681D01*
Y196923D01*
X74239Y197649D01*
X74723Y198132D01*
X75690Y198374D01*
X76899D01*
X78109Y198132D01*
X78834Y197649D01*
X79076Y196923D01*
Y196439D01*
X78834Y195714D01*
X78351Y195472D01*
X70901Y200230D02*
X70659Y200714D01*
X69933Y201439D01*
X75012D01*
X70901Y203955D02*
X70659Y204438D01*
X69933Y205164D01*
X75012D01*
M02*
