G04*
G04 #@! TF.GenerationSoftware,Altium Limited,Altium Designer,22.7.1 (60)*
G04*
G04 Layer_Physical_Order=3*
G04 Layer_Color=16440176*
%FSLAX44Y44*%
%MOMM*%
G71*
G04*
G04 #@! TF.SameCoordinates,3D1FD2B2-7E42-48B0-8169-FE55815119E5*
G04*
G04*
G04 #@! TF.FilePolarity,Positive*
G04*
G01*
G75*
%ADD75C,0.7620*%
%ADD76C,1.0160*%
%ADD78C,1.6000*%
%ADD79R,1.6000X1.6000*%
%ADD86C,0.4500*%
G36*
X357440Y375204D02*
X363513Y373577D01*
X369322Y371171D01*
X374766Y368027D01*
X379754Y364200D01*
X384200Y359754D01*
X388027Y354766D01*
X391171Y349322D01*
X393577Y343513D01*
X395204Y337440D01*
X396024Y331207D01*
Y328064D01*
Y197394D01*
X394851Y196908D01*
X348550Y243209D01*
Y253036D01*
X349820Y253421D01*
X351400Y251056D01*
X354464Y247991D01*
X358068Y245584D01*
X362071Y243925D01*
X366322Y243080D01*
X370655D01*
X374906Y243925D01*
X378909Y245584D01*
X382513Y247991D01*
X385577Y251056D01*
X387985Y254659D01*
X389643Y258663D01*
X390489Y262913D01*
Y267247D01*
X389643Y271497D01*
X387985Y275501D01*
X385577Y279104D01*
X382513Y282168D01*
X378909Y284576D01*
X374906Y286234D01*
X370655Y287080D01*
X366322D01*
X362071Y286234D01*
X358068Y284576D01*
X354464Y282168D01*
X351400Y279104D01*
X349820Y276739D01*
X348550Y277124D01*
Y334231D01*
X348550Y334231D01*
X348306Y336080D01*
X347593Y337802D01*
X346458Y339281D01*
X346458Y339281D01*
X320009Y365729D01*
X318531Y366864D01*
X316808Y367578D01*
X314960Y367821D01*
X314960Y367821D01*
X177800D01*
X175952Y367578D01*
X174230Y366864D01*
X172750Y365729D01*
X171616Y364250D01*
X170902Y362528D01*
X170659Y360680D01*
X170902Y358832D01*
X171616Y357109D01*
X172750Y355630D01*
X174230Y354496D01*
X175952Y353782D01*
X177800Y353539D01*
X312002D01*
X334268Y331273D01*
Y308539D01*
X332998Y308013D01*
X332607Y308403D01*
X331045Y309050D01*
X329355D01*
X327793Y308403D01*
X326597Y307207D01*
X325950Y305645D01*
Y303955D01*
X326597Y302393D01*
X327793Y301197D01*
X329355Y300550D01*
X331045D01*
X332607Y301197D01*
X332998Y301587D01*
X334268Y301061D01*
Y257739D01*
X332998Y257213D01*
X332607Y257603D01*
X331045Y258250D01*
X329355D01*
X327793Y257603D01*
X326597Y256407D01*
X325950Y254845D01*
Y253155D01*
X326597Y251593D01*
X327793Y250397D01*
X329355Y249750D01*
X331045D01*
X332607Y250397D01*
X332998Y250787D01*
X334268Y250261D01*
Y240252D01*
X334268Y240251D01*
X334511Y238403D01*
X335224Y236681D01*
X336359Y235202D01*
X383843Y187718D01*
Y73902D01*
X357722Y47781D01*
X243840D01*
X241992Y47538D01*
X240270Y46824D01*
X238790Y45690D01*
X238790Y45689D01*
X225961Y32860D01*
X216060D01*
Y30001D01*
X196655D01*
X171525Y55131D01*
X171119Y55443D01*
X170807Y55849D01*
X169328Y56984D01*
X168318Y57403D01*
X168318Y58777D01*
X168776Y58967D01*
X170291Y60129D01*
X171453Y61644D01*
X172183Y63407D01*
X172432Y65300D01*
Y75800D01*
X172183Y77693D01*
X171453Y79456D01*
X170291Y80971D01*
X168776Y82133D01*
X167013Y82863D01*
X165120Y83113D01*
X163227Y82863D01*
X161464Y82133D01*
X159949Y80971D01*
X158787Y79456D01*
X158057Y77693D01*
X157807Y75800D01*
Y65300D01*
X158057Y63407D01*
X158787Y61644D01*
X159949Y60129D01*
X161146Y59211D01*
X160760Y57941D01*
X153497D01*
X152584Y58969D01*
X152878Y60149D01*
X153935Y60587D01*
X155483Y62134D01*
X156320Y64156D01*
Y66344D01*
X155483Y68366D01*
X153935Y69913D01*
X151914Y70750D01*
X149726D01*
X147704Y69913D01*
X146157Y68366D01*
X144586Y67890D01*
X144301Y68074D01*
Y75782D01*
X152369Y83850D01*
X152369Y83850D01*
X153504Y85330D01*
X154218Y87052D01*
X154461Y88900D01*
Y93980D01*
X154218Y95828D01*
X153504Y97550D01*
X152369Y99030D01*
X150891Y100164D01*
X149168Y100878D01*
X147320Y101121D01*
X145472Y100878D01*
X143750Y100164D01*
X142270Y99030D01*
X141136Y97550D01*
X140422Y95828D01*
X140179Y93980D01*
Y91858D01*
X132111Y83790D01*
X130976Y82311D01*
X130262Y80588D01*
X130019Y78740D01*
X130019Y78740D01*
Y63948D01*
X130019Y63948D01*
X130262Y62099D01*
X130976Y60377D01*
X131870Y59211D01*
X131421Y57941D01*
X111281D01*
Y60241D01*
X111038Y62089D01*
X110324Y63812D01*
X109190Y65291D01*
X108113Y66117D01*
X107743Y67010D01*
X106547Y68205D01*
X104985Y68852D01*
X103295D01*
X101733Y68205D01*
X100537Y67010D01*
X100167Y66117D01*
X99790Y65827D01*
X98559Y66328D01*
X98485Y66427D01*
X97683Y68366D01*
X96136Y69913D01*
X94114Y70750D01*
X91926D01*
X89904Y69913D01*
X88357Y68366D01*
X87520Y66344D01*
Y64156D01*
X88357Y62134D01*
X89904Y60587D01*
X91926Y59750D01*
X94114D01*
X95742Y60424D01*
X95920Y60399D01*
X96763Y59924D01*
X96999Y59675D01*
Y54102D01*
X96999Y54102D01*
X97242Y52254D01*
X97956Y50532D01*
X99090Y49053D01*
X102392Y45751D01*
X102393Y45750D01*
X103871Y44616D01*
X105594Y43902D01*
X107442Y43659D01*
X107442Y43659D01*
X162799D01*
X164011Y42448D01*
X163556Y41107D01*
X163227Y41063D01*
X161464Y40333D01*
X159949Y39171D01*
X158787Y37656D01*
X158057Y35893D01*
X157807Y34000D01*
Y23500D01*
X158057Y21607D01*
X158787Y19844D01*
X159949Y18329D01*
X161464Y17167D01*
X163227Y16437D01*
X165120Y16187D01*
X167013Y16437D01*
X168776Y17167D01*
X170291Y18329D01*
X171453Y19844D01*
X172183Y21607D01*
X172432Y23500D01*
Y32230D01*
X173703Y32756D01*
X188648Y17811D01*
X188648Y17810D01*
X190127Y16676D01*
X191849Y15962D01*
X193697Y15719D01*
X216060D01*
Y12860D01*
X236060D01*
Y22761D01*
X246798Y33499D01*
X273021D01*
X273188Y32229D01*
X273000Y32178D01*
X270720Y30862D01*
X268858Y29000D01*
X267542Y26720D01*
X266860Y24176D01*
Y21544D01*
X267542Y19000D01*
X268858Y16720D01*
X270720Y14858D01*
X273000Y13542D01*
X275543Y12860D01*
X278176D01*
X280720Y13542D01*
X283000Y14858D01*
X284862Y16720D01*
X286178Y19000D01*
X286860Y21544D01*
Y24176D01*
X286178Y26720D01*
X284862Y29000D01*
X283000Y30862D01*
X280720Y32178D01*
X280532Y32229D01*
X280699Y33499D01*
X298421D01*
X298588Y32229D01*
X298400Y32178D01*
X296120Y30862D01*
X294258Y29000D01*
X292941Y26720D01*
X292260Y24176D01*
Y21544D01*
X292941Y19000D01*
X294258Y16720D01*
X296120Y14858D01*
X298400Y13542D01*
X300944Y12860D01*
X303577D01*
X306120Y13542D01*
X308400Y14858D01*
X310262Y16720D01*
X311579Y19000D01*
X312260Y21544D01*
Y24176D01*
X311579Y26720D01*
X310262Y29000D01*
X308400Y30862D01*
X306120Y32178D01*
X305932Y32229D01*
X306099Y33499D01*
X323821D01*
X323988Y32229D01*
X323800Y32178D01*
X321520Y30862D01*
X319658Y29000D01*
X318342Y26720D01*
X317660Y24176D01*
Y21544D01*
X318342Y19000D01*
X319658Y16720D01*
X321520Y14858D01*
X323800Y13542D01*
X326343Y12860D01*
X328977D01*
X331520Y13542D01*
X333800Y14858D01*
X335662Y16720D01*
X336978Y19000D01*
X337660Y21544D01*
Y24176D01*
X336978Y26720D01*
X335662Y29000D01*
X333800Y30862D01*
X331520Y32178D01*
X331332Y32229D01*
X331499Y33499D01*
X349221D01*
X349388Y32229D01*
X349200Y32178D01*
X346920Y30862D01*
X345058Y29000D01*
X343741Y26720D01*
X343060Y24176D01*
Y21544D01*
X343741Y19000D01*
X345058Y16720D01*
X346920Y14858D01*
X349200Y13542D01*
X351744Y12860D01*
X354376D01*
X356920Y13542D01*
X359200Y14858D01*
X361062Y16720D01*
X362379Y19000D01*
X363060Y21544D01*
Y24176D01*
X362379Y26720D01*
X361062Y29000D01*
X359200Y30862D01*
X356920Y32178D01*
X356732Y32229D01*
X356899Y33499D01*
X360680D01*
X360680Y33499D01*
X362528Y33742D01*
X364250Y34456D01*
X365729Y35591D01*
X394851Y64712D01*
X396025Y64226D01*
Y50064D01*
Y46920D01*
X395204Y40687D01*
X393577Y34614D01*
X391171Y28805D01*
X388027Y23361D01*
X384200Y18373D01*
X379754Y13927D01*
X374766Y10100D01*
X369322Y6956D01*
X363513Y4550D01*
X357440Y2923D01*
X351207Y2103D01*
X46920D01*
X40687Y2923D01*
X34614Y4550D01*
X28805Y6956D01*
X23361Y10100D01*
X18373Y13927D01*
X13927Y18373D01*
X10100Y23361D01*
X6956Y28805D01*
X4550Y34614D01*
X2923Y40687D01*
X2103Y46920D01*
Y50064D01*
X2103Y242258D01*
X3372Y242511D01*
X3444Y242338D01*
X4640Y241142D01*
X6202Y240495D01*
X7893D01*
X8738Y239930D01*
Y234752D01*
X9189Y232485D01*
X9316Y232295D01*
Y214480D01*
Y202184D01*
Y149860D01*
X9767Y147593D01*
X11051Y145671D01*
X49151Y107571D01*
X56771Y99951D01*
X58693Y98667D01*
X60960Y98216D01*
X63227Y98667D01*
X65149Y99951D01*
X66433Y101873D01*
X66884Y104140D01*
X66433Y106407D01*
X65149Y108329D01*
X57529Y115949D01*
X21164Y152314D01*
Y202184D01*
Y214480D01*
Y227696D01*
X35730D01*
X37997Y228146D01*
X39919Y229431D01*
X41203Y231352D01*
X41654Y233619D01*
X41203Y235886D01*
X39919Y237808D01*
X37997Y239092D01*
X35730Y239543D01*
X20586D01*
Y252577D01*
X21856Y253426D01*
X22758Y253052D01*
X24886D01*
X26853Y253867D01*
X28358Y255371D01*
X29172Y257338D01*
Y259466D01*
X28358Y261432D01*
X26853Y262938D01*
X24886Y263752D01*
X22758D01*
X21856Y263378D01*
X20586Y264227D01*
Y323933D01*
X20713Y324123D01*
X21154Y326342D01*
X21218Y326560D01*
X22240Y327267D01*
X22758Y327052D01*
X24886D01*
X26853Y327867D01*
X28358Y329371D01*
X29172Y331338D01*
Y333466D01*
X28358Y335433D01*
X26853Y336937D01*
X26759Y336976D01*
X27012Y338246D01*
X52897D01*
X67973Y323171D01*
X67675Y321673D01*
X67338Y321533D01*
X66142Y320337D01*
X65495Y318775D01*
Y317085D01*
X66142Y315523D01*
X67338Y314327D01*
X68900Y313680D01*
X70590D01*
X72153Y314327D01*
X73348Y315523D01*
X73488Y315860D01*
X74986Y316158D01*
X92042Y299102D01*
X92598Y298505D01*
X92007Y297408D01*
X91647Y297047D01*
X91000Y295485D01*
Y293795D01*
X91647Y292233D01*
X92843Y291037D01*
X94405Y290390D01*
X94197Y289206D01*
X94067D01*
X92505Y288559D01*
X91310Y287363D01*
X90663Y285801D01*
Y284111D01*
X91310Y282549D01*
X92505Y281353D01*
X94067Y280706D01*
X95758D01*
X97320Y281353D01*
X98516Y282549D01*
X99163Y284111D01*
Y285801D01*
X98516Y287363D01*
X97320Y288559D01*
X95758Y289206D01*
X95965Y290390D01*
X96095D01*
X97657Y291037D01*
X98853Y292233D01*
X99239Y292349D01*
X99820Y291961D01*
X102087Y291510D01*
X119126D01*
X121393Y291961D01*
X123315Y293245D01*
X124599Y295167D01*
X125050Y297434D01*
X124599Y299701D01*
X124489Y299865D01*
X125331Y300891D01*
X126155Y300550D01*
X127845D01*
X129407Y301197D01*
X130603Y302393D01*
X131250Y303955D01*
Y305645D01*
X130603Y307207D01*
X129407Y308403D01*
X127845Y309050D01*
X126155D01*
X124593Y308403D01*
X123397Y307207D01*
X122750Y305645D01*
Y303955D01*
X122995Y303364D01*
X121969Y302522D01*
X121393Y302907D01*
X119126Y303358D01*
X105810D01*
X102260Y306909D01*
X100338Y308193D01*
X99548Y308350D01*
X96838Y311061D01*
X97209Y312485D01*
X98165Y312881D01*
X99361Y314077D01*
X100008Y315639D01*
Y317329D01*
X99361Y318891D01*
X98165Y320087D01*
X96603Y320734D01*
X94913D01*
X93351Y320087D01*
X92155Y318891D01*
X91759Y317935D01*
X90335Y317564D01*
X59539Y348359D01*
X57618Y349643D01*
X55351Y350094D01*
X15240D01*
X12973Y349643D01*
X11051Y348359D01*
X9767Y346437D01*
X9652Y345860D01*
X9189Y345167D01*
X8738Y342900D01*
Y326390D01*
X8796Y326101D01*
X8738Y325812D01*
Y267401D01*
X8057Y266946D01*
X6366D01*
X4804Y266299D01*
X3609Y265103D01*
X3372Y264533D01*
X2103Y264786D01*
X2103Y328064D01*
Y331207D01*
X2923Y337440D01*
X4550Y343513D01*
X6956Y349322D01*
X10100Y354766D01*
X13927Y359754D01*
X18373Y364200D01*
X23361Y368027D01*
X28805Y371171D01*
X34614Y373577D01*
X40687Y375204D01*
X46920Y376024D01*
X131885D01*
X132052Y374754D01*
X132030Y374749D01*
X129750Y373432D01*
X127888Y371570D01*
X126572Y369290D01*
X125890Y366747D01*
Y364114D01*
X126572Y361570D01*
X126852Y361084D01*
X126314Y359943D01*
X126109Y359831D01*
X124593Y359203D01*
X123397Y358007D01*
X122750Y356445D01*
Y354755D01*
X123397Y353193D01*
X124593Y351997D01*
X126155Y351350D01*
X127845D01*
X129407Y351997D01*
X130603Y353193D01*
X131250Y354755D01*
Y355095D01*
X131440Y355344D01*
X132520Y355980D01*
X134573Y355430D01*
X137206D01*
X139750Y356112D01*
X142030Y357428D01*
X143892Y359290D01*
X145209Y361570D01*
X145890Y364114D01*
Y366747D01*
X145209Y369290D01*
X143892Y371570D01*
X142030Y373432D01*
X139750Y374749D01*
X139728Y374754D01*
X139895Y376024D01*
X351207D01*
X357440Y375204D01*
D02*
G37*
%LPC*%
G36*
X69933Y371280D02*
X68243D01*
X66681Y370633D01*
X65485Y369437D01*
X64838Y367875D01*
Y366185D01*
X65485Y364623D01*
X66681Y363427D01*
X68243Y362780D01*
X69933D01*
X71495Y363427D01*
X72691Y364623D01*
X73338Y366185D01*
Y367875D01*
X72691Y369437D01*
X71495Y370633D01*
X69933Y371280D01*
D02*
G37*
G36*
X356445Y359850D02*
X354755D01*
X353193Y359203D01*
X351997Y358007D01*
X351350Y356445D01*
Y354755D01*
X351997Y353193D01*
X353193Y351997D01*
X354755Y351350D01*
X356445D01*
X358007Y351997D01*
X359203Y353193D01*
X359850Y354755D01*
Y356445D01*
X359203Y358007D01*
X358007Y359203D01*
X356445Y359850D01*
D02*
G37*
G36*
X102445D02*
X100755D01*
X99193Y359203D01*
X97997Y358007D01*
X97350Y356445D01*
Y354755D01*
X97997Y353193D01*
X99193Y351997D01*
X100755Y351350D01*
X102445D01*
X104007Y351997D01*
X105203Y353193D01*
X105850Y354755D01*
Y356445D01*
X105203Y358007D01*
X104007Y359203D01*
X102445Y359850D01*
D02*
G37*
G36*
X369145Y334450D02*
X367455D01*
X365893Y333803D01*
X364697Y332607D01*
X364050Y331045D01*
Y329355D01*
X364697Y327793D01*
X365893Y326597D01*
X367455Y325950D01*
X369145D01*
X370707Y326597D01*
X371903Y327793D01*
X372550Y329355D01*
Y331045D01*
X371903Y332607D01*
X370707Y333803D01*
X369145Y334450D01*
D02*
G37*
G36*
X292945D02*
X291255D01*
X289693Y333803D01*
X288497Y332607D01*
X287850Y331045D01*
Y329355D01*
X288497Y327793D01*
X289693Y326597D01*
X291255Y325950D01*
X292945D01*
X294507Y326597D01*
X295703Y327793D01*
X296350Y329355D01*
Y331045D01*
X295703Y332607D01*
X294507Y333803D01*
X292945Y334450D01*
D02*
G37*
G36*
X267545D02*
X265855D01*
X264293Y333803D01*
X263097Y332607D01*
X262450Y331045D01*
Y329355D01*
X263097Y327793D01*
X264293Y326597D01*
X265855Y325950D01*
X267545D01*
X269107Y326597D01*
X270303Y327793D01*
X270950Y329355D01*
Y331045D01*
X270303Y332607D01*
X269107Y333803D01*
X267545Y334450D01*
D02*
G37*
G36*
X232824Y336946D02*
X230980D01*
X229200Y336469D01*
X227604Y335547D01*
X226301Y334244D01*
X225379Y332648D01*
X224902Y330868D01*
Y329024D01*
X225379Y327244D01*
X226301Y325648D01*
X227604Y324345D01*
X229200Y323423D01*
X230980Y322946D01*
X232824D01*
X234604Y323423D01*
X236200Y324345D01*
X237503Y325648D01*
X237982Y326477D01*
X238893Y326597D01*
X240455Y325950D01*
X242145D01*
X243707Y326597D01*
X244903Y327793D01*
X245550Y329355D01*
Y331045D01*
X244903Y332607D01*
X243707Y333803D01*
X242145Y334450D01*
X240455D01*
X238893Y333803D01*
X237665Y333965D01*
X237503Y334244D01*
X236200Y335547D01*
X234604Y336469D01*
X232824Y336946D01*
D02*
G37*
G36*
X216745Y334450D02*
X215055D01*
X213493Y333803D01*
X212297Y332607D01*
X211650Y331045D01*
Y329355D01*
X212297Y327793D01*
X213493Y326597D01*
X215055Y325950D01*
X216745D01*
X218307Y326597D01*
X219503Y327793D01*
X220150Y329355D01*
Y331045D01*
X219503Y332607D01*
X218307Y333803D01*
X216745Y334450D01*
D02*
G37*
G36*
X115145D02*
X113455D01*
X111893Y333803D01*
X110697Y332607D01*
X110050Y331045D01*
Y329355D01*
X110697Y327793D01*
X111893Y326597D01*
X113455Y325950D01*
X115145D01*
X116707Y326597D01*
X117903Y327793D01*
X118550Y329355D01*
Y331045D01*
X117903Y332607D01*
X116707Y333803D01*
X115145Y334450D01*
D02*
G37*
G36*
X38945D02*
X37255D01*
X35693Y333803D01*
X34497Y332607D01*
X33850Y331045D01*
Y329355D01*
X34497Y327793D01*
X35693Y326597D01*
X37255Y325950D01*
X38945D01*
X40507Y326597D01*
X41703Y327793D01*
X42350Y329355D01*
Y331045D01*
X41703Y332607D01*
X40507Y333803D01*
X38945Y334450D01*
D02*
G37*
G36*
X140545Y334243D02*
X138855D01*
X137293Y333596D01*
X136097Y332401D01*
X135450Y330839D01*
Y329148D01*
X136097Y327586D01*
X137293Y326390D01*
X138855Y325743D01*
X140545D01*
X142107Y326390D01*
X143303Y327586D01*
X143950Y329148D01*
Y330839D01*
X143303Y332401D01*
X142107Y333596D01*
X140545Y334243D01*
D02*
G37*
G36*
X312580Y336946D02*
X310736D01*
X308956Y336469D01*
X307360Y335547D01*
X306057Y334244D01*
X305135Y332648D01*
X304658Y330868D01*
Y329024D01*
X305135Y327244D01*
X306057Y325648D01*
X307360Y324345D01*
X308956Y323423D01*
X310736Y322946D01*
X312580D01*
X314360Y323423D01*
X315956Y324345D01*
X317259Y325648D01*
X318181Y327244D01*
X318658Y329024D01*
Y330868D01*
X318181Y332648D01*
X317259Y334244D01*
X315956Y335547D01*
X314360Y336469D01*
X312580Y336946D01*
D02*
G37*
G36*
X35135Y321750D02*
X33445D01*
X31883Y321103D01*
X30687Y319907D01*
X30040Y318345D01*
Y316655D01*
X30687Y315093D01*
X31883Y313897D01*
X33445Y313250D01*
X35135D01*
X36697Y313897D01*
X36725Y313925D01*
X37435Y313739D01*
X38052Y313456D01*
X38642Y312031D01*
X39321Y311352D01*
X39696Y310522D01*
X39321Y309692D01*
X38642Y309013D01*
X38386Y308395D01*
X36927Y308191D01*
X36198Y308920D01*
X34636Y309567D01*
X32945D01*
X31383Y308920D01*
X30187Y307725D01*
X29540Y306163D01*
Y304472D01*
X30187Y302910D01*
X30521Y302577D01*
X30596Y302502D01*
X29839Y301545D01*
X29682Y301610D01*
X28277Y302192D01*
X26587D01*
X25025Y301545D01*
X23829Y300349D01*
X23182Y298787D01*
Y297097D01*
X23829Y295535D01*
X25025Y294339D01*
X26587Y293692D01*
X28277D01*
X29839Y294339D01*
X31035Y295535D01*
X31682Y297097D01*
Y298787D01*
X31035Y300349D01*
X30702Y300683D01*
X30627Y300758D01*
X31383Y301714D01*
X31541Y301649D01*
X32945Y301067D01*
X34636D01*
X36198Y301714D01*
X37393Y302910D01*
X37650Y303528D01*
X39108Y303732D01*
X39385Y303455D01*
X39698Y302635D01*
X39385Y301815D01*
X38642Y301072D01*
X37995Y299510D01*
Y297819D01*
X38642Y296257D01*
X39825Y295074D01*
X38642Y293892D01*
X37995Y292330D01*
Y290639D01*
X38642Y289077D01*
X39716Y288003D01*
X38642Y286930D01*
X37995Y285368D01*
Y283677D01*
X38642Y282115D01*
X39385Y281371D01*
X39698Y280551D01*
X39385Y279732D01*
X38642Y278988D01*
X37995Y277426D01*
Y275735D01*
X38642Y274173D01*
X39838Y272978D01*
X41400Y272331D01*
X43090D01*
X44652Y272978D01*
X45848Y274173D01*
X46495Y275735D01*
Y277426D01*
X45848Y278988D01*
X45104Y279732D01*
X44792Y280551D01*
X45104Y281371D01*
X45848Y282115D01*
X46495Y283677D01*
Y285368D01*
X45848Y286930D01*
X44774Y288003D01*
X45848Y289077D01*
X46495Y290639D01*
Y292330D01*
X45848Y293892D01*
X44665Y295074D01*
X45848Y296257D01*
X46495Y297819D01*
Y299510D01*
X45848Y301072D01*
X45104Y301815D01*
X44792Y302635D01*
X45104Y303455D01*
X45848Y304198D01*
X46495Y305760D01*
Y307451D01*
X45848Y309013D01*
X45169Y309692D01*
X44794Y310522D01*
X45169Y311352D01*
X45848Y312031D01*
X46495Y313593D01*
Y315284D01*
X45848Y316846D01*
X44652Y318041D01*
X43090Y318688D01*
X41400D01*
X39838Y318041D01*
X39810Y318014D01*
X39100Y318199D01*
X38483Y318483D01*
X37893Y319907D01*
X36697Y321103D01*
X35135Y321750D01*
D02*
G37*
G36*
X381845Y309050D02*
X380155D01*
X378593Y308403D01*
X377397Y307207D01*
X376750Y305645D01*
Y303955D01*
X377397Y302393D01*
X378593Y301197D01*
X380155Y300550D01*
X381845D01*
X383407Y301197D01*
X384603Y302393D01*
X385250Y303955D01*
Y305645D01*
X384603Y307207D01*
X383407Y308403D01*
X381845Y309050D01*
D02*
G37*
G36*
X356445D02*
X354755D01*
X353193Y308403D01*
X351997Y307207D01*
X351350Y305645D01*
Y303955D01*
X351997Y302393D01*
X353193Y301197D01*
X354755Y300550D01*
X356445D01*
X358007Y301197D01*
X359203Y302393D01*
X359850Y303955D01*
Y305645D01*
X359203Y307207D01*
X358007Y308403D01*
X356445Y309050D01*
D02*
G37*
G36*
X305645D02*
X303955D01*
X302393Y308403D01*
X301197Y307207D01*
X300550Y305645D01*
Y303955D01*
X301197Y302393D01*
X302393Y301197D01*
X303955Y300550D01*
X305645D01*
X307207Y301197D01*
X308403Y302393D01*
X309050Y303955D01*
Y305645D01*
X308403Y307207D01*
X307207Y308403D01*
X305645Y309050D01*
D02*
G37*
G36*
X280245D02*
X278555D01*
X276993Y308403D01*
X275797Y307207D01*
X275150Y305645D01*
Y303955D01*
X275797Y302393D01*
X276993Y301197D01*
X278555Y300550D01*
X280245D01*
X281807Y301197D01*
X283003Y302393D01*
X283650Y303955D01*
Y305645D01*
X283003Y307207D01*
X281807Y308403D01*
X280245Y309050D01*
D02*
G37*
G36*
X254845D02*
X253155D01*
X251593Y308403D01*
X250397Y307207D01*
X249750Y305645D01*
Y303955D01*
X250397Y302393D01*
X251593Y301197D01*
X253155Y300550D01*
X254845D01*
X256407Y301197D01*
X257603Y302393D01*
X258250Y303955D01*
Y305645D01*
X257603Y307207D01*
X256407Y308403D01*
X254845Y309050D01*
D02*
G37*
G36*
X229445D02*
X227755D01*
X226193Y308403D01*
X224997Y307207D01*
X224350Y305645D01*
Y303955D01*
X224997Y302393D01*
X226193Y301197D01*
X227755Y300550D01*
X229445D01*
X231007Y301197D01*
X232203Y302393D01*
X232850Y303955D01*
Y305645D01*
X232203Y307207D01*
X231007Y308403D01*
X229445Y309050D01*
D02*
G37*
G36*
X172549Y326068D02*
X170859D01*
X169297Y325421D01*
X168101Y324225D01*
X167454Y322663D01*
Y320973D01*
X168101Y319411D01*
X168996Y318516D01*
X167847Y317367D01*
X167200Y315805D01*
Y314115D01*
X167847Y312553D01*
X169043Y311357D01*
X170605Y310710D01*
X171615D01*
X172359Y310559D01*
X172788Y309539D01*
Y308781D01*
X171723Y308034D01*
X171113D01*
X169551Y307387D01*
X168355Y306191D01*
X167708Y304629D01*
Y302939D01*
X168355Y301377D01*
X169551Y300181D01*
X171113Y299534D01*
X172803D01*
X174365Y300181D01*
X175561Y301377D01*
X176208Y302939D01*
Y304629D01*
X177273Y305376D01*
X177883D01*
X179445Y306023D01*
X180641Y307219D01*
X181288Y308781D01*
Y310471D01*
X180641Y312033D01*
X179445Y313229D01*
X177883Y313876D01*
X176873D01*
X176129Y314027D01*
X175700Y315047D01*
Y315805D01*
X175053Y317367D01*
X174158Y318262D01*
X175307Y319411D01*
X175954Y320973D01*
Y322663D01*
X175307Y324225D01*
X174111Y325421D01*
X172549Y326068D01*
D02*
G37*
G36*
X70590Y307180D02*
X68900D01*
X67338Y306533D01*
X66142Y305338D01*
X65495Y303775D01*
Y302085D01*
X66142Y300523D01*
X67338Y299327D01*
X68900Y298680D01*
X70590D01*
X72153Y299327D01*
X73348Y300523D01*
X73995Y302085D01*
Y303775D01*
X73348Y305338D01*
X72153Y306533D01*
X70590Y307180D01*
D02*
G37*
G36*
X207855Y296350D02*
X206165D01*
X204603Y295703D01*
X203407Y294507D01*
X202760Y292945D01*
Y291255D01*
X203407Y289693D01*
X204603Y288497D01*
X206165Y287850D01*
X207855D01*
X209417Y288497D01*
X210613Y289693D01*
X211260Y291255D01*
Y292945D01*
X210613Y294507D01*
X209417Y295703D01*
X207855Y296350D01*
D02*
G37*
G36*
X70591Y292180D02*
X68900D01*
X67338Y291533D01*
X66142Y290338D01*
X65495Y288775D01*
Y287085D01*
X66142Y285523D01*
X67338Y284327D01*
X68900Y283680D01*
X70591D01*
X72153Y284327D01*
X73348Y285523D01*
X73995Y287085D01*
Y288775D01*
X73348Y290338D01*
X72153Y291533D01*
X70591Y292180D01*
D02*
G37*
G36*
X28085Y287216D02*
X26394D01*
X24832Y286569D01*
X23637Y285373D01*
X22990Y283811D01*
Y282120D01*
X23637Y280558D01*
X24832Y279363D01*
X26394Y278716D01*
X28085D01*
X29647Y279363D01*
X30842Y280558D01*
X31490Y282120D01*
Y283811D01*
X30842Y285373D01*
X29647Y286569D01*
X28085Y287216D01*
D02*
G37*
G36*
X204045Y286190D02*
X202355D01*
X200793Y285543D01*
X199597Y284347D01*
X198950Y282785D01*
Y281095D01*
X199597Y279533D01*
X200793Y278337D01*
X202355Y277690D01*
X204045D01*
X205607Y278337D01*
X206803Y279533D01*
X207450Y281095D01*
Y282785D01*
X206803Y284347D01*
X205607Y285543D01*
X204045Y286190D01*
D02*
G37*
G36*
X115145Y283650D02*
X113455D01*
X111893Y283003D01*
X110697Y281807D01*
X110050Y280245D01*
Y278555D01*
X110697Y276993D01*
X111893Y275797D01*
X113455Y275150D01*
X115145D01*
X116707Y275797D01*
X117903Y276993D01*
X118550Y278555D01*
Y280245D01*
X117903Y281807D01*
X116707Y283003D01*
X115145Y283650D01*
D02*
G37*
G36*
X70591Y277180D02*
X68900D01*
X67338Y276533D01*
X66142Y275338D01*
X65495Y273776D01*
Y272085D01*
X66142Y270523D01*
X67338Y269327D01*
X68900Y268680D01*
X70591D01*
X72153Y269327D01*
X73348Y270523D01*
X73995Y272085D01*
Y273776D01*
X73348Y275338D01*
X72153Y276533D01*
X70591Y277180D01*
D02*
G37*
G36*
X143339Y267902D02*
X141649D01*
X140087Y267255D01*
X138891Y266059D01*
X138244Y264497D01*
Y262807D01*
X138891Y261245D01*
X140087Y260049D01*
X141649Y259402D01*
X143339D01*
X144901Y260049D01*
X146097Y261245D01*
X146744Y262807D01*
Y264497D01*
X146097Y266059D01*
X144901Y267255D01*
X143339Y267902D01*
D02*
G37*
G36*
X326898Y287929D02*
X227330D01*
X226302Y287724D01*
X225430Y287142D01*
X224848Y286270D01*
X224643Y285242D01*
Y261620D01*
X224848Y260592D01*
X225430Y259720D01*
X226302Y259138D01*
X227330Y258933D01*
X326898D01*
X327926Y259138D01*
X328798Y259720D01*
X329380Y260592D01*
X329585Y261620D01*
Y285242D01*
X329380Y286270D01*
X328798Y287142D01*
X327926Y287724D01*
X326898Y287929D01*
D02*
G37*
G36*
X94921Y278703D02*
X93230D01*
X91668Y278056D01*
X90472Y276861D01*
X89825Y275299D01*
Y273608D01*
X90472Y272046D01*
X91668Y270850D01*
X91426Y269576D01*
X91254Y269160D01*
Y267470D01*
X91901Y265908D01*
X92379Y265430D01*
X91901Y264952D01*
X91254Y263390D01*
Y261700D01*
X91901Y260138D01*
X93097Y258942D01*
X94659Y258295D01*
X96349D01*
X97911Y258942D01*
X99107Y260138D01*
X99754Y261700D01*
Y263390D01*
X99107Y264952D01*
X98629Y265430D01*
X99107Y265908D01*
X99754Y267470D01*
Y269160D01*
X99107Y270722D01*
X97911Y271918D01*
X98153Y273192D01*
X98326Y273608D01*
Y275299D01*
X97678Y276861D01*
X96483Y278056D01*
X94921Y278703D01*
D02*
G37*
G36*
X174073Y263076D02*
X172383D01*
X170821Y262429D01*
X169625Y261233D01*
X168978Y259671D01*
Y257981D01*
X169625Y256419D01*
X170139Y255905D01*
X169371Y255137D01*
X168724Y253575D01*
Y251885D01*
X169371Y250323D01*
X170567Y249127D01*
X172129Y248480D01*
X173819D01*
X175381Y249127D01*
X176577Y250323D01*
X177224Y251885D01*
Y253575D01*
X176577Y255137D01*
X176063Y255651D01*
X176831Y256419D01*
X177478Y257981D01*
Y259671D01*
X176831Y261233D01*
X175635Y262429D01*
X174073Y263076D01*
D02*
G37*
G36*
X35135Y256980D02*
X33445D01*
X31883Y256333D01*
X30687Y255137D01*
X30040Y253575D01*
Y251885D01*
X30687Y250323D01*
X31883Y249127D01*
X33445Y248480D01*
X35135D01*
X36697Y249127D01*
X37893Y250323D01*
X38540Y251885D01*
Y253575D01*
X37893Y255137D01*
X36697Y256333D01*
X35135Y256980D01*
D02*
G37*
G36*
X146641Y250376D02*
X144951D01*
X143389Y249729D01*
X142193Y248533D01*
X141546Y246971D01*
Y245281D01*
X142193Y243719D01*
X143389Y242523D01*
X144951Y241876D01*
X146641D01*
X148203Y242523D01*
X149399Y243719D01*
X150046Y245281D01*
Y246971D01*
X149399Y248533D01*
X148203Y249729D01*
X146641Y250376D01*
D02*
G37*
G36*
X73100Y262321D02*
X71409D01*
X69847Y261674D01*
X68651Y260478D01*
X68004Y258916D01*
Y257226D01*
X68651Y255664D01*
X69250Y255065D01*
X68768Y254583D01*
X68121Y253021D01*
Y251331D01*
X68768Y249769D01*
X67863Y248887D01*
X67443Y248713D01*
X66247Y247517D01*
X65600Y245955D01*
Y244265D01*
X66247Y242703D01*
X67443Y241507D01*
X69005Y240860D01*
X70695D01*
X72257Y241507D01*
X73453Y242703D01*
X74100Y244265D01*
Y245955D01*
X73453Y247517D01*
X74358Y248399D01*
X74778Y248573D01*
X75974Y249769D01*
X76621Y251331D01*
Y253021D01*
X75974Y254583D01*
X75375Y255182D01*
X75857Y255664D01*
X76504Y257226D01*
Y258916D01*
X75857Y260478D01*
X74662Y261674D01*
X73100Y262321D01*
D02*
G37*
G36*
X300565Y237930D02*
X298875D01*
X297313Y237283D01*
X297180Y237150D01*
X297047Y237283D01*
X295485Y237930D01*
X293795D01*
X292233Y237283D01*
X292100Y237150D01*
X291967Y237283D01*
X290405Y237930D01*
X288715D01*
X287153Y237283D01*
X285957Y236087D01*
X285310Y234525D01*
Y232835D01*
X285957Y231273D01*
X287153Y230077D01*
X288715Y229430D01*
X290405D01*
X291967Y230077D01*
X292100Y230210D01*
X292233Y230077D01*
X293795Y229430D01*
X295485D01*
X297047Y230077D01*
X297180Y230210D01*
X297313Y230077D01*
X298875Y229430D01*
X300565D01*
X302127Y230077D01*
X303323Y231273D01*
X303970Y232835D01*
Y234525D01*
X303323Y236087D01*
X302127Y237283D01*
X300565Y237930D01*
D02*
G37*
G36*
X70695Y239200D02*
X69005D01*
X67443Y238553D01*
X66247Y237357D01*
X65600Y235795D01*
Y234105D01*
X66247Y232543D01*
X67443Y231347D01*
X67816Y231192D01*
Y229818D01*
X67443Y229663D01*
X66247Y228467D01*
X65600Y226905D01*
Y225215D01*
X66247Y223653D01*
X67443Y222457D01*
X69005Y221810D01*
X70695D01*
X72257Y222457D01*
X73453Y223653D01*
X74100Y225215D01*
Y226905D01*
X73453Y228467D01*
X72257Y229663D01*
X71884Y229818D01*
Y231192D01*
X72257Y231347D01*
X73453Y232543D01*
X74100Y234105D01*
Y235795D01*
X73453Y237357D01*
X72257Y238553D01*
X70695Y239200D01*
D02*
G37*
G36*
X136877Y172930D02*
X134902D01*
X132995Y172419D01*
X131285Y171432D01*
X129888Y170035D01*
X128901Y168325D01*
X128390Y166417D01*
Y164443D01*
X128901Y162535D01*
X129888Y160825D01*
X131285Y159428D01*
X132995Y158441D01*
X134902Y157929D01*
X136877D01*
X138785Y158441D01*
X140495Y159428D01*
X141892Y160825D01*
X142879Y162535D01*
X143391Y164443D01*
Y166417D01*
X142879Y168325D01*
X141892Y170035D01*
X140495Y171432D01*
X138785Y172419D01*
X136877Y172930D01*
D02*
G37*
G36*
X223349Y163508D02*
X221659D01*
X220097Y162861D01*
X218901Y161665D01*
X218254Y160103D01*
Y158413D01*
X218901Y156851D01*
X220097Y155655D01*
X221659Y155008D01*
X223349D01*
X224911Y155655D01*
X226107Y156851D01*
X226754Y158413D01*
Y160103D01*
X226107Y161665D01*
X224911Y162861D01*
X223349Y163508D01*
D02*
G37*
G36*
X331516Y143350D02*
X328884D01*
X326340Y142669D01*
X324060Y141352D01*
X322198Y139490D01*
X320882Y137210D01*
X320200Y134667D01*
Y132034D01*
X320882Y129490D01*
X322198Y127210D01*
X324060Y125348D01*
X326340Y124031D01*
X328884Y123350D01*
X331516D01*
X334060Y124031D01*
X336340Y125348D01*
X338202Y127210D01*
X339519Y129490D01*
X340200Y132034D01*
Y134667D01*
X339519Y137210D01*
X338202Y139490D01*
X336340Y141352D01*
X334060Y142669D01*
X331516Y143350D01*
D02*
G37*
G36*
X306117D02*
X303484D01*
X300940Y142669D01*
X298660Y141352D01*
X296798Y139490D01*
X295481Y137210D01*
X294800Y134667D01*
Y132034D01*
X295481Y129490D01*
X296798Y127210D01*
X298660Y125348D01*
X300940Y124031D01*
X303484Y123350D01*
X306117D01*
X308660Y124031D01*
X310940Y125348D01*
X312802Y127210D01*
X314118Y129490D01*
X314800Y132034D01*
Y134667D01*
X314118Y137210D01*
X312802Y139490D01*
X310940Y141352D01*
X308660Y142669D01*
X306117Y143350D01*
D02*
G37*
G36*
X280716D02*
X278083D01*
X275540Y142669D01*
X273260Y141352D01*
X271398Y139490D01*
X270082Y137210D01*
X269400Y134667D01*
Y132034D01*
X270082Y129490D01*
X271398Y127210D01*
X273260Y125348D01*
X275540Y124031D01*
X278083Y123350D01*
X280716D01*
X283260Y124031D01*
X285540Y125348D01*
X287402Y127210D01*
X288718Y129490D01*
X289400Y132034D01*
Y134667D01*
X288718Y137210D01*
X287402Y139490D01*
X285540Y141352D01*
X283260Y142669D01*
X280716Y143350D01*
D02*
G37*
G36*
X255317D02*
X252684D01*
X250140Y142669D01*
X247860Y141352D01*
X245998Y139490D01*
X244681Y137210D01*
X244000Y134667D01*
Y132034D01*
X244681Y129490D01*
X245998Y127210D01*
X247860Y125348D01*
X250140Y124031D01*
X252684Y123350D01*
X255317D01*
X257860Y124031D01*
X260140Y125348D01*
X262002Y127210D01*
X263319Y129490D01*
X264000Y132034D01*
Y134667D01*
X263319Y137210D01*
X262002Y139490D01*
X260140Y141352D01*
X257860Y142669D01*
X255317Y143350D01*
D02*
G37*
G36*
X229916D02*
X227283D01*
X224740Y142669D01*
X222460Y141352D01*
X220598Y139490D01*
X219282Y137210D01*
X218600Y134667D01*
Y132034D01*
X219282Y129490D01*
X220598Y127210D01*
X222460Y125348D01*
X224740Y124031D01*
X227283Y123350D01*
X229916D01*
X232460Y124031D01*
X234740Y125348D01*
X236602Y127210D01*
X237918Y129490D01*
X238600Y132034D01*
Y134667D01*
X237918Y137210D01*
X236602Y139490D01*
X234740Y141352D01*
X232460Y142669D01*
X229916Y143350D01*
D02*
G37*
G36*
X213200D02*
X193200D01*
Y123350D01*
X213200D01*
Y143350D01*
D02*
G37*
G36*
X174835Y122360D02*
X173145D01*
X171583Y121713D01*
X170387Y120517D01*
X169740Y118955D01*
Y117265D01*
X170387Y115703D01*
X171583Y114507D01*
X173145Y113860D01*
X174835D01*
X176397Y114507D01*
X177593Y115703D01*
X178240Y117265D01*
Y118955D01*
X177593Y120517D01*
X176397Y121713D01*
X174835Y122360D01*
D02*
G37*
G36*
X120661Y101786D02*
X118971D01*
X117409Y101139D01*
X116931Y100661D01*
X116453Y101139D01*
X114891Y101786D01*
X113201D01*
X111639Y101139D01*
X110443Y99943D01*
X109796Y98381D01*
Y96691D01*
X110443Y95129D01*
X111639Y93933D01*
X113201Y93286D01*
X114891D01*
X116453Y93933D01*
X116931Y94411D01*
X117409Y93933D01*
X118971Y93286D01*
X120661D01*
X122223Y93933D01*
X123419Y95129D01*
X124066Y96691D01*
Y98381D01*
X123419Y99943D01*
X122223Y101139D01*
X120661Y101786D01*
D02*
G37*
G36*
X78720Y83113D02*
X76827Y82863D01*
X75064Y82133D01*
X73549Y80971D01*
X72387Y79456D01*
X71657Y77693D01*
X71407Y75800D01*
Y65300D01*
X71657Y63407D01*
X72387Y61644D01*
X73549Y60129D01*
X75064Y58967D01*
X76827Y58237D01*
X78720Y57987D01*
X80613Y58237D01*
X82376Y58967D01*
X83891Y60129D01*
X85053Y61644D01*
X85783Y63407D01*
X86033Y65300D01*
Y75800D01*
X85783Y77693D01*
X85053Y79456D01*
X83891Y80971D01*
X82376Y82133D01*
X80613Y82863D01*
X78720Y83113D01*
D02*
G37*
G36*
X252680Y32130D02*
X250240D01*
X247882Y31498D01*
X245768Y30278D01*
X245354Y29864D01*
X251460Y23758D01*
X257566Y29864D01*
X257152Y30278D01*
X255038Y31498D01*
X252680Y32130D01*
D02*
G37*
G36*
X258464Y28966D02*
X252358Y22860D01*
X258464Y16754D01*
X258878Y17168D01*
X260098Y19282D01*
X260730Y21640D01*
Y24080D01*
X260098Y26438D01*
X258878Y28552D01*
X258464Y28966D01*
D02*
G37*
G36*
X244456D02*
X244042Y28552D01*
X242822Y26438D01*
X242190Y24080D01*
Y21640D01*
X242822Y19282D01*
X244042Y17168D01*
X244456Y16754D01*
X250562Y22860D01*
X244456Y28966D01*
D02*
G37*
G36*
X78720Y41313D02*
X76827Y41063D01*
X75064Y40333D01*
X73549Y39171D01*
X72387Y37656D01*
X71657Y35893D01*
X71407Y34000D01*
Y23500D01*
X71657Y21607D01*
X72387Y19844D01*
X73549Y18329D01*
X75064Y17167D01*
X76827Y16437D01*
X78720Y16187D01*
X80613Y16437D01*
X82376Y17167D01*
X83891Y18329D01*
X85053Y19844D01*
X85783Y21607D01*
X86033Y23500D01*
Y34000D01*
X85783Y35893D01*
X85053Y37656D01*
X83891Y39171D01*
X82376Y40333D01*
X80613Y41063D01*
X78720Y41313D01*
D02*
G37*
G36*
X251460Y21962D02*
X245354Y15856D01*
X245768Y15442D01*
X247882Y14222D01*
X250240Y13590D01*
X252680D01*
X255038Y14222D01*
X257152Y15442D01*
X257566Y15856D01*
X251460Y21962D01*
D02*
G37*
%LPD*%
D75*
X55351Y344170D02*
X96801Y302720D01*
X14662Y326390D02*
Y342900D01*
X15794Y233619D02*
X35730D01*
X102087Y297434D02*
X119126D01*
X14662Y234752D02*
X15240Y234174D01*
X14662Y234752D02*
Y325812D01*
X15240Y326390D01*
Y234174D02*
X15794Y233619D01*
X15240Y214480D02*
Y234174D01*
Y208332D02*
Y214480D01*
Y202184D02*
Y208332D01*
Y149860D02*
Y202184D01*
Y149860D02*
X53340Y111760D01*
X57150Y107950D01*
X96801Y302720D02*
X98071D01*
X102060Y298731D01*
Y297461D02*
X102087Y297434D01*
X102060Y297461D02*
Y298731D01*
X15240Y344170D02*
X55351D01*
X57150Y107950D02*
X60960Y104140D01*
D76*
X104140Y54102D02*
Y60241D01*
X107442Y50800D02*
X147320D01*
X165757D01*
X104140Y54102D02*
X107442Y50800D01*
X208280Y360680D02*
X314960D01*
X200660D02*
X208280D01*
X193040D02*
X200660D01*
X185420D02*
X193040D01*
X177800D02*
X185420D01*
X147320Y88900D02*
Y93980D01*
X137160Y78740D02*
X147320Y88900D01*
X341409Y240251D02*
Y334231D01*
X314960Y360680D02*
X341409Y334231D01*
Y240251D02*
X390984Y190676D01*
Y70944D02*
Y190676D01*
X360680Y40640D02*
X390984Y70944D01*
X243840Y40640D02*
X360680D01*
X226060Y22860D02*
X243840Y40640D01*
X147320Y51816D02*
Y53788D01*
X166476Y50082D02*
X193697Y22860D01*
X137160Y63948D02*
Y78740D01*
Y63948D02*
X147320Y53788D01*
X193697Y22860D02*
X226060D01*
D78*
X251460D02*
D03*
D79*
X226060D02*
D03*
D86*
X67310Y356362D02*
D03*
Y350012D02*
D03*
X281686Y208280D02*
D03*
X61869Y326885D02*
D03*
X34890Y233680D02*
D03*
X104140Y64602D02*
D03*
Y60241D02*
D03*
Y54102D02*
D03*
X15240Y214480D02*
D03*
Y208332D02*
D03*
Y202184D02*
D03*
X276860Y233680D02*
D03*
X271780D02*
D03*
X274320Y76200D02*
D03*
X266700D02*
D03*
X259080D02*
D03*
X251460D02*
D03*
X243840D02*
D03*
X236220D02*
D03*
X208065D02*
D03*
X208280Y360680D02*
D03*
X200660D02*
D03*
X193040D02*
D03*
X185420D02*
D03*
X177800D02*
D03*
X106680Y144780D02*
D03*
X100505D02*
D03*
X93980D02*
D03*
X119126Y297434D02*
D03*
X50800Y327660D02*
D03*
X15240Y344170D02*
D03*
Y337820D02*
D03*
Y331470D02*
D03*
Y326390D02*
D03*
X53340Y111760D02*
D03*
X57150Y107950D02*
D03*
X60960Y104140D02*
D03*
X146050Y90170D02*
D03*
X147320Y93980D02*
D03*
M02*
