G04*
G04 #@! TF.GenerationSoftware,Altium Limited,Altium Designer,22.7.1 (60)*
G04*
G04 Layer_Color=8388736*
%FSLAX44Y44*%
%MOMM*%
G71*
G04*
G04 #@! TF.SameCoordinates,BBA0BEE0-45CE-4415-A0BC-CE460DC89FB0*
G04*
G04*
G04 #@! TF.FilePolarity,Positive*
G04*
G01*
G75*
%ADD93C,0.0508*%
G36*
X185420Y68580D02*
Y72390D01*
X187960D01*
X188213D01*
X188679Y72197D01*
X189037Y71839D01*
X189230Y71373D01*
Y71120D01*
D01*
Y68580D01*
X185420D01*
D02*
G37*
G36*
X307848Y71628D02*
X310388D01*
Y70358D01*
Y70105D01*
X310195Y69639D01*
X309837Y69281D01*
X309371Y69088D01*
X309118D01*
D01*
X307848D01*
Y71628D01*
D02*
G37*
G36*
X68580Y96520D02*
Y100330D01*
X71120D01*
X71373D01*
X71839Y100137D01*
X72197Y99779D01*
X72390Y99313D01*
Y99060D01*
D01*
Y96520D01*
X68580D01*
D02*
G37*
G36*
X140970D02*
X138430D01*
Y97790D01*
Y98043D01*
X138623Y98509D01*
X138981Y98867D01*
X139447Y99060D01*
X139700D01*
D01*
X140970D01*
Y96520D01*
D02*
G37*
G36*
X65532Y348234D02*
X62992D01*
Y349504D01*
Y349757D01*
X63185Y350223D01*
X63543Y350581D01*
X64009Y350774D01*
X64262D01*
D01*
X65532D01*
Y348234D01*
D02*
G37*
G36*
X59690Y349343D02*
X56997D01*
X56899Y349357D01*
X56673Y349371D01*
X56420Y349399D01*
X56138Y349442D01*
X55856Y349498D01*
X55588Y349583D01*
X55574D01*
X55560Y349597D01*
X55461Y349625D01*
X55334Y349681D01*
X55165Y349766D01*
X54982Y349865D01*
X54784Y349991D01*
X54573Y350146D01*
X54390Y350316D01*
X54361Y350344D01*
X54305Y350400D01*
X54220Y350513D01*
X54122Y350654D01*
X54009Y350837D01*
X53882Y351049D01*
X53769Y351302D01*
X53671Y351570D01*
Y351584D01*
X53657Y351599D01*
X53642Y351641D01*
X53628Y351711D01*
X53614Y351782D01*
X53600Y351866D01*
X53544Y352078D01*
X53501Y352346D01*
X53473Y352656D01*
X53445Y353008D01*
X53431Y353389D01*
Y353403D01*
Y353431D01*
Y353488D01*
Y353544D01*
Y353629D01*
X53445Y353727D01*
X53459Y353967D01*
X53487Y354235D01*
X53530Y354531D01*
X53586Y354841D01*
X53671Y355137D01*
Y355151D01*
X53685Y355165D01*
X53699Y355207D01*
X53713Y355264D01*
X53769Y355419D01*
X53854Y355602D01*
X53952Y355813D01*
X54079Y356039D01*
X54234Y356265D01*
X54418Y356490D01*
X54446Y356518D01*
X54502Y356575D01*
X54615Y356673D01*
X54770Y356800D01*
X54953Y356941D01*
X55179Y357082D01*
X55433Y357209D01*
X55715Y357336D01*
X55729D01*
X55743Y357350D01*
X55799Y357364D01*
X55856Y357378D01*
X55926Y357406D01*
X56011Y357435D01*
X56123Y357463D01*
X56236Y357477D01*
X56518Y357533D01*
X56828Y357590D01*
X57195Y357618D01*
X57590Y357632D01*
X59690D01*
Y349343D01*
D02*
G37*
G36*
X52134Y356250D02*
X50019D01*
Y350936D01*
X51866Y351937D01*
X52374Y350668D01*
X49738Y349287D01*
X48426D01*
Y356250D01*
X46608D01*
Y357632D01*
X52134D01*
Y356250D01*
D02*
G37*
G36*
X323953Y70646D02*
X324108D01*
X324277Y70618D01*
X324460Y70589D01*
X324658Y70547D01*
X324841Y70491D01*
X324869D01*
X324925Y70463D01*
X325010Y70420D01*
X325137Y70378D01*
X325264Y70308D01*
X325405Y70223D01*
X325546Y70138D01*
X325686Y70026D01*
X325701Y70012D01*
X325743Y69969D01*
X325813Y69913D01*
X325884Y69814D01*
X325983Y69715D01*
X326067Y69574D01*
X326152Y69434D01*
X326236Y69264D01*
X326250Y69250D01*
X326264Y69180D01*
X326293Y69095D01*
X326335Y68968D01*
X326377Y68813D01*
X326405Y68630D01*
X326420Y68433D01*
X326434Y68221D01*
Y68193D01*
Y68137D01*
Y68038D01*
X326420Y67925D01*
X326405Y67784D01*
X326377Y67615D01*
X326293Y67291D01*
Y67277D01*
X326264Y67220D01*
X326236Y67136D01*
X326194Y67023D01*
X326138Y66896D01*
X326081Y66755D01*
X325912Y66459D01*
X325898Y66445D01*
X325870Y66389D01*
X325813Y66318D01*
X325743Y66205D01*
X325644Y66093D01*
X325532Y65952D01*
X325419Y65811D01*
X325278Y65656D01*
X325264Y65641D01*
X325207Y65585D01*
X325137Y65500D01*
X325038Y65402D01*
X324911Y65261D01*
X324770Y65120D01*
X324601Y64965D01*
X324432Y64796D01*
X323234Y63654D01*
X326730D01*
Y62230D01*
X321105D01*
Y63358D01*
X323050Y65331D01*
X323079Y65360D01*
X323149Y65430D01*
X323248Y65529D01*
X323375Y65656D01*
X323516Y65811D01*
X323657Y65966D01*
X323812Y66121D01*
X323938Y66276D01*
X323953Y66290D01*
X323995Y66346D01*
X324051Y66417D01*
X324136Y66515D01*
X324206Y66628D01*
X324291Y66741D01*
X324375Y66868D01*
X324446Y66981D01*
X324460Y66995D01*
X324474Y67037D01*
X324502Y67094D01*
X324545Y67178D01*
X324629Y67361D01*
X324686Y67573D01*
Y67587D01*
X324700Y67615D01*
X324714Y67671D01*
X324728Y67742D01*
X324742Y67925D01*
X324756Y68123D01*
Y68137D01*
Y68165D01*
Y68207D01*
X324742Y68264D01*
X324728Y68419D01*
X324672Y68574D01*
Y68588D01*
X324658Y68616D01*
X324615Y68700D01*
X324545Y68813D01*
X324446Y68940D01*
Y68954D01*
X324418Y68968D01*
X324347Y69025D01*
X324235Y69109D01*
X324080Y69180D01*
X324065D01*
X324037Y69194D01*
X323995Y69208D01*
X323938Y69236D01*
X323769Y69264D01*
X323572Y69278D01*
X323487D01*
X323403Y69264D01*
X323276Y69250D01*
X323135Y69222D01*
X322994Y69194D01*
X322825Y69138D01*
X322670Y69067D01*
X322656Y69053D01*
X322599Y69025D01*
X322515Y68983D01*
X322416Y68912D01*
X322289Y68842D01*
X322162Y68743D01*
X322021Y68630D01*
X321880Y68503D01*
X321063Y69546D01*
X321091Y69574D01*
X321161Y69631D01*
X321274Y69730D01*
X321415Y69842D01*
X321598Y69969D01*
X321796Y70096D01*
X322035Y70237D01*
X322275Y70350D01*
X322289D01*
X322303Y70364D01*
X322346Y70378D01*
X322388Y70392D01*
X322529Y70449D01*
X322712Y70505D01*
X322938Y70561D01*
X323177Y70618D01*
X323445Y70646D01*
X323741Y70660D01*
X323840D01*
X323953Y70646D01*
D02*
G37*
G36*
X316481Y70505D02*
X316707Y70491D01*
X316961Y70463D01*
X317242Y70420D01*
X317524Y70364D01*
X317792Y70279D01*
X317806D01*
X317820Y70265D01*
X317919Y70237D01*
X318046Y70181D01*
X318215Y70096D01*
X318398Y69997D01*
X318596Y69871D01*
X318807Y69715D01*
X318990Y69546D01*
X319019Y69518D01*
X319075Y69462D01*
X319160Y69349D01*
X319258Y69208D01*
X319371Y69025D01*
X319498Y68813D01*
X319611Y68560D01*
X319709Y68292D01*
Y68278D01*
X319723Y68264D01*
X319738Y68221D01*
X319752Y68151D01*
X319766Y68080D01*
X319780Y67996D01*
X319836Y67784D01*
X319879Y67516D01*
X319907Y67206D01*
X319935Y66854D01*
X319949Y66473D01*
Y66459D01*
Y66431D01*
Y66375D01*
Y66318D01*
Y66234D01*
X319935Y66135D01*
X319921Y65895D01*
X319893Y65627D01*
X319850Y65331D01*
X319794Y65021D01*
X319709Y64725D01*
Y64711D01*
X319695Y64697D01*
X319681Y64655D01*
X319667Y64598D01*
X319611Y64443D01*
X319526Y64260D01*
X319428Y64049D01*
X319301Y63823D01*
X319146Y63597D01*
X318962Y63372D01*
X318934Y63344D01*
X318878Y63287D01*
X318765Y63189D01*
X318610Y63062D01*
X318427Y62921D01*
X318201Y62780D01*
X317947Y62653D01*
X317665Y62526D01*
X317651D01*
X317637Y62512D01*
X317581Y62498D01*
X317524Y62484D01*
X317454Y62456D01*
X317369Y62427D01*
X317257Y62399D01*
X317144Y62385D01*
X316862Y62329D01*
X316552Y62272D01*
X316185Y62244D01*
X315791Y62230D01*
X313690D01*
Y70519D01*
X316383D01*
X316481Y70505D01*
D02*
G37*
G36*
X121520Y127212D02*
X121825Y127188D01*
X122178Y127164D01*
X122577Y127094D01*
X122953Y127023D01*
X123329Y126906D01*
X123376Y126882D01*
X123493Y126835D01*
X123658Y126765D01*
X123869Y126671D01*
X124128Y126530D01*
X124386Y126366D01*
X124645Y126154D01*
X124880Y125943D01*
X124903Y125919D01*
X124974Y125825D01*
X125068Y125684D01*
X125209Y125520D01*
X125350Y125285D01*
X125491Y125026D01*
X125608Y124721D01*
X125726Y124392D01*
Y124345D01*
X125772Y124228D01*
X125796Y124040D01*
X125843Y123781D01*
X125890Y123499D01*
X125937Y123147D01*
X125961Y122747D01*
X125984Y122348D01*
Y113185D01*
X123376D01*
Y122207D01*
Y122231D01*
Y122324D01*
Y122442D01*
X123353Y122606D01*
Y122794D01*
X123329Y123006D01*
X123259Y123429D01*
Y123452D01*
X123235Y123523D01*
X123212Y123617D01*
X123165Y123734D01*
X123024Y124040D01*
X122836Y124345D01*
X122812Y124369D01*
X122789Y124416D01*
X122718Y124462D01*
X122624Y124557D01*
X122389Y124745D01*
X122084Y124909D01*
X122060D01*
X122013Y124932D01*
X121896Y124956D01*
X121778Y125003D01*
X121614Y125026D01*
X121426Y125073D01*
X121191Y125097D01*
X120721D01*
X120580Y125073D01*
X120204Y125026D01*
X119852Y124956D01*
X119828D01*
X119781Y124932D01*
X119687Y124886D01*
X119593Y124838D01*
X119358Y124674D01*
X119123Y124439D01*
X119100Y124416D01*
X119076Y124369D01*
X119030Y124298D01*
X118959Y124181D01*
X118889Y124040D01*
X118794Y123875D01*
X118677Y123499D01*
Y123476D01*
X118654Y123405D01*
X118630Y123264D01*
X118583Y123100D01*
X118560Y122888D01*
X118536Y122653D01*
X118513Y122395D01*
Y122090D01*
Y113185D01*
X115905D01*
Y121925D01*
Y121949D01*
Y121972D01*
Y122043D01*
Y122136D01*
X115928Y122395D01*
X115952Y122700D01*
X115999Y123076D01*
X116069Y123452D01*
X116163Y123852D01*
X116281Y124251D01*
X116304Y124298D01*
X116351Y124416D01*
X116421Y124604D01*
X116539Y124838D01*
X116680Y125097D01*
X116844Y125379D01*
X117056Y125661D01*
X117291Y125919D01*
X117314Y125943D01*
X117408Y126037D01*
X117549Y126154D01*
X117737Y126295D01*
X117972Y126460D01*
X118254Y126601D01*
X118560Y126765D01*
X118912Y126906D01*
X118959Y126930D01*
X119076Y126953D01*
X119264Y127000D01*
X119523Y127071D01*
X119852Y127141D01*
X120204Y127188D01*
X120604Y127212D01*
X121050Y127235D01*
X121262D01*
X121520Y127212D01*
D02*
G37*
G36*
X113391Y124698D02*
X109866D01*
Y115840D01*
X112944Y117508D01*
X113790Y115393D01*
X109396Y113091D01*
X107212D01*
Y124698D01*
X104181D01*
Y127000D01*
X113391D01*
Y124698D01*
D02*
G37*
%LPC*%
G36*
X58125Y356321D02*
X57336D01*
X57265Y356307D01*
X57167D01*
X57054Y356279D01*
X56800Y356236D01*
X56518Y356152D01*
X56236Y356039D01*
X55954Y355870D01*
X55827Y355757D01*
X55715Y355644D01*
X55700Y355630D01*
X55686Y355616D01*
X55658Y355574D01*
X55616Y355518D01*
X55574Y355433D01*
X55517Y355348D01*
X55461Y355235D01*
X55405Y355109D01*
X55348Y354968D01*
X55306Y354813D01*
X55249Y354643D01*
X55207Y354446D01*
X55165Y354235D01*
X55137Y353995D01*
X55108Y353755D01*
Y353488D01*
Y353473D01*
Y353459D01*
Y353375D01*
Y353248D01*
X55123Y353093D01*
X55137Y352910D01*
X55151Y352712D01*
X55221Y352303D01*
Y352275D01*
X55235Y352219D01*
X55264Y352120D01*
X55306Y351993D01*
X55362Y351852D01*
X55419Y351697D01*
X55503Y351542D01*
X55588Y351401D01*
X55602Y351387D01*
X55630Y351345D01*
X55686Y351274D01*
X55771Y351190D01*
X55870Y351105D01*
X55982Y351021D01*
X56123Y350922D01*
X56279Y350851D01*
X56293Y350837D01*
X56349Y350823D01*
X56448Y350795D01*
X56575Y350753D01*
X56715Y350710D01*
X56899Y350682D01*
X57110Y350668D01*
X57336Y350654D01*
X58125D01*
Y356321D01*
D02*
G37*
G36*
X316044Y69208D02*
X315255D01*
Y63541D01*
X316044D01*
X316115Y63555D01*
X316213D01*
X316326Y63583D01*
X316580Y63626D01*
X316862Y63710D01*
X317144Y63823D01*
X317426Y63992D01*
X317553Y64105D01*
X317665Y64218D01*
X317680Y64232D01*
X317694Y64246D01*
X317722Y64288D01*
X317764Y64345D01*
X317806Y64429D01*
X317863Y64514D01*
X317919Y64626D01*
X317976Y64753D01*
X318032Y64894D01*
X318074Y65049D01*
X318131Y65219D01*
X318173Y65416D01*
X318215Y65627D01*
X318243Y65867D01*
X318272Y66107D01*
Y66375D01*
Y66389D01*
Y66403D01*
Y66487D01*
Y66614D01*
X318257Y66769D01*
X318243Y66953D01*
X318229Y67150D01*
X318159Y67559D01*
Y67587D01*
X318145Y67643D01*
X318116Y67742D01*
X318074Y67869D01*
X318018Y68010D01*
X317961Y68165D01*
X317877Y68320D01*
X317792Y68461D01*
X317778Y68475D01*
X317750Y68517D01*
X317694Y68588D01*
X317609Y68672D01*
X317510Y68757D01*
X317397Y68842D01*
X317257Y68940D01*
X317101Y69011D01*
X317087Y69025D01*
X317031Y69039D01*
X316932Y69067D01*
X316805Y69109D01*
X316665Y69152D01*
X316481Y69180D01*
X316270Y69194D01*
X316044Y69208D01*
D02*
G37*
%LPD*%
D93*
X41148Y348234D02*
X65532D01*
X41148D02*
Y359410D01*
X65532D01*
Y348234D02*
Y359410D01*
X307848Y71628D02*
X332232D01*
Y60452D02*
Y71628D01*
X307848Y60452D02*
X332232D01*
X307848D02*
Y71628D01*
X185420Y68580D02*
X205740D01*
X185420D02*
Y109220D01*
X205740D01*
Y68580D02*
Y109220D01*
X88900Y96520D02*
Y137160D01*
X68580D02*
X88900D01*
X68580Y96520D02*
Y137160D01*
Y96520D02*
X88900D01*
X90170Y144780D02*
X140970D01*
X90170Y96520D02*
X140970D01*
X90170D02*
Y144780D01*
X140970Y96520D02*
Y144780D01*
M02*
