G04*
G04 #@! TF.GenerationSoftware,Altium Limited,Altium Designer,22.7.1 (60)*
G04*
G04 Layer_Color=8388736*
%FSLAX44Y44*%
%MOMM*%
G71*
G04*
G04 #@! TF.SameCoordinates,9A4D97D8-EC90-41B7-81F5-F8116178710B*
G04*
G04*
G04 #@! TF.FilePolarity,Negative*
G04*
G01*
G75*
G04:AMPARAMS|DCode=34|XSize=1.5744mm|YSize=0.5758mm|CornerRadius=0.2879mm|HoleSize=0mm|Usage=FLASHONLY|Rotation=270.000|XOffset=0mm|YOffset=0mm|HoleType=Round|Shape=RoundedRectangle|*
%AMROUNDEDRECTD34*
21,1,1.5744,0.0000,0,0,270.0*
21,1,0.9985,0.5758,0,0,270.0*
1,1,0.5758,0.0000,-0.4993*
1,1,0.5758,0.0000,0.4993*
1,1,0.5758,0.0000,0.4993*
1,1,0.5758,0.0000,-0.4993*
%
%ADD34ROUNDEDRECTD34*%
%ADD35R,0.5758X1.5744*%
G04:AMPARAMS|DCode=40|XSize=1.4732mm|YSize=1.5748mm|CornerRadius=0.4191mm|HoleSize=0mm|Usage=FLASHONLY|Rotation=270.000|XOffset=0mm|YOffset=0mm|HoleType=Round|Shape=RoundedRectangle|*
%AMROUNDEDRECTD40*
21,1,1.4732,0.7366,0,0,270.0*
21,1,0.6350,1.5748,0,0,270.0*
1,1,0.8382,-0.3683,-0.3175*
1,1,0.8382,-0.3683,0.3175*
1,1,0.8382,0.3683,0.3175*
1,1,0.8382,0.3683,-0.3175*
%
%ADD40ROUNDEDRECTD40*%
G04:AMPARAMS|DCode=41|XSize=1.1332mm|YSize=1.5132mm|CornerRadius=0.1714mm|HoleSize=0mm|Usage=FLASHONLY|Rotation=270.000|XOffset=0mm|YOffset=0mm|HoleType=Round|Shape=RoundedRectangle|*
%AMROUNDEDRECTD41*
21,1,1.1332,1.1705,0,0,270.0*
21,1,0.7905,1.5132,0,0,270.0*
1,1,0.3427,-0.5853,-0.3953*
1,1,0.3427,-0.5853,0.3953*
1,1,0.3427,0.5853,0.3953*
1,1,0.3427,0.5853,-0.3953*
%
%ADD41ROUNDEDRECTD41*%
G04:AMPARAMS|DCode=42|XSize=3.4432mm|YSize=1.5132mm|CornerRadius=0.1999mm|HoleSize=0mm|Usage=FLASHONLY|Rotation=270.000|XOffset=0mm|YOffset=0mm|HoleType=Round|Shape=RoundedRectangle|*
%AMROUNDEDRECTD42*
21,1,3.4432,1.1135,0,0,270.0*
21,1,3.0435,1.5132,0,0,270.0*
1,1,0.3997,-0.5568,-1.5218*
1,1,0.3997,-0.5568,1.5218*
1,1,0.3997,0.5568,1.5218*
1,1,0.3997,0.5568,-1.5218*
%
%ADD42ROUNDEDRECTD42*%
%ADD43R,0.8032X1.6532*%
%ADD44R,0.5032X1.6532*%
%ADD45R,2.2032X0.4532*%
%ADD46R,1.6516X0.4016*%
G04:AMPARAMS|DCode=47|XSize=0.762mm|YSize=1.7272mm|CornerRadius=0.2413mm|HoleSize=0mm|Usage=FLASHONLY|Rotation=270.000|XOffset=0mm|YOffset=0mm|HoleType=Round|Shape=RoundedRectangle|*
%AMROUNDEDRECTD47*
21,1,0.7620,1.2446,0,0,270.0*
21,1,0.2794,1.7272,0,0,270.0*
1,1,0.4826,-0.6223,-0.1397*
1,1,0.4826,-0.6223,0.1397*
1,1,0.4826,0.6223,0.1397*
1,1,0.4826,0.6223,-0.1397*
%
%ADD47ROUNDEDRECTD47*%
G04:AMPARAMS|DCode=48|XSize=0.8128mm|YSize=1.7272mm|CornerRadius=0.254mm|HoleSize=0mm|Usage=FLASHONLY|Rotation=270.000|XOffset=0mm|YOffset=0mm|HoleType=Round|Shape=RoundedRectangle|*
%AMROUNDEDRECTD48*
21,1,0.8128,1.2192,0,0,270.0*
21,1,0.3048,1.7272,0,0,270.0*
1,1,0.5080,-0.6096,-0.1524*
1,1,0.5080,-0.6096,0.1524*
1,1,0.5080,0.6096,0.1524*
1,1,0.5080,0.6096,-0.1524*
%
%ADD48ROUNDEDRECTD48*%
%ADD49R,0.9032X1.5032*%
%ADD50R,1.6510X1.8542*%
%ADD51R,1.6510X2.6416*%
%ADD52R,2.0574X1.8542*%
%ADD53R,2.8516X1.3016*%
%ADD54R,0.9532X0.8032*%
%ADD55R,0.8432X0.8032*%
%ADD56R,0.8032X0.8432*%
%ADD57R,0.8032X0.9532*%
%ADD58C,1.8032*%
%ADD59R,1.8032X1.8032*%
%ADD60C,0.9032*%
%ADD61O,1.2532X2.3032*%
%ADD62C,5.1016*%
%ADD63C,1.2032*%
%ADD64C,1.2017*%
%ADD65C,1.7016*%
%ADD66C,0.8732*%
G36*
X120694Y130556D02*
X120783Y130550D01*
X120914Y130524D01*
X120914D01*
X120914Y130524D01*
X120982Y130501D01*
X121040Y130481D01*
X121040Y130481D01*
X121040Y130481D01*
X121153Y130426D01*
X121160Y130422D01*
D01*
X121160Y130422D01*
X121234Y130372D01*
X121270Y130348D01*
X121270Y130348D01*
X121271Y130348D01*
X121321Y130304D01*
X121370Y130260D01*
X121370Y130260D01*
X121371Y130260D01*
X127720Y123909D01*
X127776Y123846D01*
X127808Y123809D01*
X127852Y123743D01*
X127882Y123699D01*
X127882Y123698D01*
D01*
X127941Y123579D01*
X127983Y123456D01*
X127984Y123453D01*
D01*
X127984Y123453D01*
X128010Y123322D01*
X128016Y123224D01*
X128019Y123189D01*
Y123189D01*
Y123189D01*
X128018Y118109D01*
X128013Y118040D01*
X128009Y117977D01*
X128009Y117976D01*
Y117976D01*
X127996Y117912D01*
X127983Y117846D01*
X127983Y117846D01*
X127983Y117846D01*
X127971Y117810D01*
X127940Y117720D01*
X127881Y117600D01*
X127881Y117600D01*
X127881Y117600D01*
X127851Y117555D01*
X127807Y117490D01*
X127807Y117490D01*
X127807Y117490D01*
X127781Y117460D01*
X127719Y117389D01*
X121370Y111040D01*
D01*
D01*
X121370Y111040D01*
X121270Y110953D01*
X121215Y110916D01*
X121159Y110879D01*
X121159Y110879D01*
D01*
X121156Y110877D01*
X121040Y110820D01*
X120914Y110777D01*
X120783Y110751D01*
X120651Y110742D01*
X95250Y110741D01*
X95250D01*
X95250D01*
X95117Y110750D01*
X94986Y110776D01*
X94860Y110819D01*
X94744Y110876D01*
X94741Y110878D01*
D01*
X94741Y110878D01*
X94685Y110915D01*
X94630Y110951D01*
X94530Y111039D01*
Y111039D01*
X94530D01*
X90719Y114850D01*
X90719Y114850D01*
X90719Y114850D01*
X90631Y114950D01*
X90607Y114987D01*
X90557Y115061D01*
X90498Y115180D01*
X90496Y115187D01*
X90456Y115307D01*
X90443Y115372D01*
X90430Y115437D01*
X90421Y115570D01*
Y115570D01*
Y115570D01*
X90422Y125730D01*
X90430Y125863D01*
X90446Y125941D01*
X90456Y125993D01*
X90456Y125993D01*
D01*
X90459Y126000D01*
X90499Y126119D01*
X90558Y126239D01*
D01*
X90558Y126239D01*
X90583Y126276D01*
X90632Y126350D01*
X90720Y126450D01*
X94530Y130260D01*
X94630Y130347D01*
X94741Y130421D01*
X94781Y130441D01*
X94860Y130480D01*
X94986Y130523D01*
X95117Y130549D01*
X95250Y130558D01*
X120651Y130559D01*
X120651D01*
X120651D01*
X120694Y130556D01*
D02*
G37*
D34*
X165100Y118149D02*
D03*
X155600Y135851D02*
D03*
D35*
X174600D02*
D03*
D40*
X195580Y76200D02*
D03*
Y101600D02*
D03*
X78740Y129540D02*
D03*
Y104140D02*
D03*
D41*
X220550Y99100D02*
D03*
Y76200D02*
D03*
Y53300D02*
D03*
D42*
X287450Y76200D02*
D03*
D43*
X154420Y79700D02*
D03*
X146420D02*
D03*
X97420D02*
D03*
X89420D02*
D03*
D44*
X139420D02*
D03*
X134420D02*
D03*
X129420D02*
D03*
X124420D02*
D03*
X104420D02*
D03*
X109420D02*
D03*
X114420D02*
D03*
X119420D02*
D03*
D45*
X56322Y322902D02*
D03*
Y317902D02*
D03*
Y312902D02*
D03*
Y307902D02*
D03*
Y302902D02*
D03*
Y297902D02*
D03*
Y292902D02*
D03*
Y287902D02*
D03*
Y282902D02*
D03*
Y277902D02*
D03*
Y272902D02*
D03*
X16322Y322902D02*
D03*
Y317902D02*
D03*
Y312902D02*
D03*
Y307902D02*
D03*
Y302902D02*
D03*
Y297902D02*
D03*
Y292902D02*
D03*
Y287902D02*
D03*
Y282902D02*
D03*
Y277902D02*
D03*
Y272902D02*
D03*
Y267902D02*
D03*
X56322Y267902D02*
D03*
D46*
X83140Y172930D02*
D03*
X158640Y175430D02*
D03*
X83140Y177930D02*
D03*
X158640Y180430D02*
D03*
X83140Y182930D02*
D03*
X158640Y185430D02*
D03*
X83140Y187930D02*
D03*
X158640Y190430D02*
D03*
X83140Y192930D02*
D03*
X158640Y195430D02*
D03*
X83140Y197930D02*
D03*
X158640Y220430D02*
D03*
X83140Y222930D02*
D03*
X158640Y225430D02*
D03*
X83140Y227930D02*
D03*
X158640Y230430D02*
D03*
X83140Y232930D02*
D03*
X158640Y235430D02*
D03*
X83140Y237930D02*
D03*
X158640Y240430D02*
D03*
X83140Y242930D02*
D03*
X158640Y245430D02*
D03*
X83140Y247930D02*
D03*
X158640Y250430D02*
D03*
X83140Y252930D02*
D03*
X158640Y255430D02*
D03*
X83140Y257930D02*
D03*
X158640Y260430D02*
D03*
X83140Y262930D02*
D03*
X158640Y265430D02*
D03*
X83140Y267930D02*
D03*
X158640Y270430D02*
D03*
X83140Y272930D02*
D03*
X158640Y275430D02*
D03*
X83140Y277930D02*
D03*
X158640Y280430D02*
D03*
X83140Y282930D02*
D03*
X158640Y285430D02*
D03*
X83140Y287930D02*
D03*
X158640Y290430D02*
D03*
X83140Y292930D02*
D03*
X158640Y295430D02*
D03*
X83140Y297930D02*
D03*
X158640Y300430D02*
D03*
X83140Y302930D02*
D03*
X158640Y305430D02*
D03*
X83140Y307930D02*
D03*
X158640Y310430D02*
D03*
X83140Y312930D02*
D03*
X158640Y315430D02*
D03*
X83140Y317930D02*
D03*
X158640Y320430D02*
D03*
X83140Y322930D02*
D03*
X158640Y325430D02*
D03*
X83140Y327930D02*
D03*
X158640Y330430D02*
D03*
X83140Y332930D02*
D03*
X158640Y335430D02*
D03*
X83140Y337930D02*
D03*
X158640Y340430D02*
D03*
X83140Y342930D02*
D03*
X158640Y345430D02*
D03*
X83140Y347930D02*
D03*
Y352930D02*
D03*
X158640Y355430D02*
D03*
X83140Y357930D02*
D03*
X158640Y350430D02*
D03*
D47*
X131826Y135650D02*
D03*
Y105650D02*
D03*
D48*
Y120650D02*
D03*
D49*
X239322Y222902D02*
D03*
X250322D02*
D03*
X261322D02*
D03*
X272322D02*
D03*
X283322D02*
D03*
X294322D02*
D03*
X305322D02*
D03*
X316322D02*
D03*
X327322D02*
D03*
D50*
X341506Y230640D02*
D03*
D51*
Y327640D02*
D03*
X183258D02*
D03*
D52*
X191008Y230640D02*
D03*
D53*
X90890Y368930D02*
D03*
Y161930D02*
D03*
D54*
X47590Y353060D02*
D03*
X59090D02*
D03*
X47590Y365760D02*
D03*
X59090D02*
D03*
X325790Y66040D02*
D03*
X314290D02*
D03*
X325790Y53340D02*
D03*
X314290D02*
D03*
X300320Y154940D02*
D03*
X311820D02*
D03*
X34890Y220980D02*
D03*
X46390D02*
D03*
X34890Y233680D02*
D03*
X46390D02*
D03*
D55*
X203200Y51480D02*
D03*
Y60280D02*
D03*
D56*
X74340Y144780D02*
D03*
X83140D02*
D03*
X29800Y353060D02*
D03*
X21000D02*
D03*
X300310Y208280D02*
D03*
X291510D02*
D03*
D57*
X7620Y222850D02*
D03*
Y234350D02*
D03*
X20320Y222850D02*
D03*
Y234350D02*
D03*
X180340Y42510D02*
D03*
Y54010D02*
D03*
Y14570D02*
D03*
Y26070D02*
D03*
D58*
X353060Y22860D02*
D03*
X327660D02*
D03*
X276860D02*
D03*
X251460D02*
D03*
X302260D02*
D03*
X279400Y133350D02*
D03*
X228600D02*
D03*
X254000D02*
D03*
X304800D02*
D03*
X330200D02*
D03*
D59*
X226060Y22860D02*
D03*
X203200Y133350D02*
D03*
D60*
X150820Y65250D02*
D03*
X93020D02*
D03*
D61*
X165120Y28750D02*
D03*
X78720D02*
D03*
X165120Y70550D02*
D03*
X78720D02*
D03*
D62*
X368489Y265080D02*
D03*
D63*
X311658Y329946D02*
D03*
X231902D02*
D03*
D64*
X135890Y165430D02*
D03*
D65*
Y365430D02*
D03*
D66*
X23822Y258402D02*
D03*
X23822Y332402D02*
D03*
M02*
