G04*
G04 #@! TF.GenerationSoftware,Altium Limited,Altium Designer,22.7.1 (60)*
G04*
G04 Layer_Color=65535*
%FSLAX44Y44*%
%MOMM*%
G71*
G04*
G04 #@! TF.SameCoordinates,9A4D97D8-EC90-41B7-81F5-F8116178710B*
G04*
G04*
G04 #@! TF.FilePolarity,Positive*
G04*
G01*
G75*
%ADD10C,0.2000*%
%ADD11C,0.2540*%
%ADD12C,0.0000*%
%ADD13C,0.2400*%
%ADD14C,0.1270*%
%ADD15C,0.1524*%
%ADD16C,0.2032*%
%ADD17C,0.1254*%
%ADD18C,0.1500*%
%ADD19C,0.0889*%
G36*
X70866Y130810D02*
Y102870D01*
X68834D01*
Y111760D01*
X69850D01*
Y130810D01*
X70866D01*
D02*
G37*
G36*
X87630D02*
Y111760D01*
X88646D01*
Y102870D01*
X86614D01*
Y130810D01*
X87630D01*
D02*
G37*
G36*
X204470Y102870D02*
Y83820D01*
X205486D01*
Y74930D01*
X203454D01*
Y102870D01*
X204470D01*
D02*
G37*
G36*
X187706D02*
Y74930D01*
X185674D01*
Y83820D01*
X186690D01*
Y102870D01*
X187706D01*
D02*
G37*
D10*
X211270Y99100D02*
G03*
X211270Y99100I-1000J0D01*
G01*
X88920Y92750D02*
G03*
X88920Y92750I-1000J0D01*
G01*
X367260Y9410D02*
Y36310D01*
X211860D02*
X367260D01*
X211860Y9410D02*
Y36310D01*
Y9410D02*
X367260D01*
X189000Y119900D02*
X344400D01*
X189000D02*
Y146800D01*
X344400D01*
Y119900D02*
Y146800D01*
X172400Y120500D02*
X179700D01*
Y127000D01*
X150500Y120500D02*
X157800D01*
X150500D02*
Y127000D01*
D11*
X13462Y344582D02*
G03*
X13462Y344582I-1270J0D01*
G01*
X16322Y251402D02*
Y263402D01*
Y251402D02*
X56322D01*
Y327402D02*
Y339402D01*
X16322Y327402D02*
Y339402D01*
X56322D01*
X56322Y251402D02*
Y263402D01*
D12*
X231203Y214795D02*
G03*
X231203Y214795I-2540J0D01*
G01*
D13*
X72090Y172930D02*
G03*
X72090Y172930I-1200J0D01*
G01*
D14*
X235400Y109800D02*
X272600D01*
X235400Y42600D02*
X272600D01*
X235400Y107200D02*
Y109800D01*
Y42600D02*
Y45100D01*
X272600Y42600D02*
Y57500D01*
Y93800D02*
Y109800D01*
X77220Y2750D02*
Y15050D01*
Y2750D02*
X166620D01*
Y15050D01*
Y42450D02*
Y56850D01*
X77220Y42450D02*
Y56850D01*
X106890Y155930D02*
X160890D01*
Y171930D01*
Y198930D02*
Y216930D01*
Y358930D02*
Y374930D01*
X106890D02*
X160890D01*
X83390Y201430D02*
Y219430D01*
D15*
X128270Y139700D02*
Y143510D01*
Y97790D02*
Y101600D01*
X102870Y97790D02*
Y110490D01*
Y130810D02*
Y143510D01*
X128270D01*
X102870Y97790D02*
X128270D01*
X378881Y29207D02*
X375496Y27514D01*
X372110Y24128D01*
Y20743D01*
X373803Y19050D01*
X377188D01*
X378881Y20743D01*
Y22436D01*
X377188Y24128D01*
X372110D01*
X203200Y22862D02*
X196429D01*
X199814Y19476D02*
Y26247D01*
X184150Y151130D02*
X187536D01*
X185843D01*
Y161287D01*
X184150Y159594D01*
X357291Y138427D02*
X353906Y136734D01*
X350520Y133348D01*
Y129963D01*
X352213Y128270D01*
X355598D01*
X357291Y129963D01*
Y131656D01*
X355598Y133348D01*
X350520D01*
D16*
X335620Y244640D02*
Y309640D01*
X335610Y367140D02*
X335620Y344640D01*
X187630Y367267D02*
X335610Y367140D01*
X187620Y349640D02*
X187630Y367267D01*
X187620Y244640D02*
Y309640D01*
X204240Y222140D02*
X226620D01*
D17*
X113390Y265430D02*
X125890D01*
X113390D02*
X117140Y261680D01*
X113390Y265430D02*
X117140Y269180D01*
D18*
X53340Y347980D02*
Y358140D01*
X64770Y347980D02*
Y349250D01*
X41910Y347980D02*
X64770D01*
X41910D02*
Y351790D01*
Y354330D02*
Y358140D01*
X64770D01*
Y356870D02*
Y358140D01*
X40640Y347980D02*
X41910D01*
X40640D02*
Y351790D01*
X41910D01*
X40640Y358140D02*
X41910D01*
X40640Y354330D02*
Y358140D01*
Y354330D02*
X41910D01*
Y360680D02*
Y361950D01*
Y360680D02*
X64770D01*
Y361950D01*
Y369570D02*
Y370840D01*
X41910D02*
X64770D01*
X41910Y369570D02*
Y370840D01*
X53340Y360680D02*
Y370840D01*
X320040Y60960D02*
Y71120D01*
X308610Y69850D02*
Y71120D01*
X331470D01*
Y67310D02*
Y71120D01*
Y60960D02*
Y64770D01*
X308610Y60960D02*
X331470D01*
X308610D02*
Y62230D01*
X331470Y71120D02*
X332740D01*
Y67310D02*
Y71120D01*
X331470Y67310D02*
X332740D01*
X331470Y60960D02*
X332740D01*
Y64770D01*
X331470D02*
X332740D01*
X331470Y57150D02*
Y58420D01*
X308610D02*
X331470D01*
X308610Y57150D02*
Y58420D01*
Y48260D02*
Y49530D01*
Y48260D02*
X331470D01*
Y49530D01*
X320040Y48260D02*
Y58420D01*
X198200Y65880D02*
X200200D01*
X198200Y45880D02*
Y65880D01*
Y45880D02*
X200200D01*
X206200D02*
X208200D01*
Y65880D01*
X206200D02*
X208200D01*
X88740Y147780D02*
Y149780D01*
X68740D02*
X88740D01*
X68740Y147780D02*
Y149780D01*
Y139780D02*
Y141780D01*
Y139780D02*
X88740D01*
Y141780D01*
X294640Y149860D02*
Y151130D01*
Y149860D02*
X317500D01*
Y151130D01*
Y158750D02*
Y160020D01*
X294640D02*
X317500D01*
X294640Y158750D02*
Y160020D01*
X306070Y149860D02*
Y160020D01*
X29210Y215900D02*
Y217170D01*
Y215900D02*
X52070D01*
Y217170D01*
Y224790D02*
Y226060D01*
X29210D02*
X52070D01*
X29210Y224790D02*
Y226060D01*
X40640Y215900D02*
Y226060D01*
X11430Y217170D02*
X12700D01*
Y240030D01*
X11430D02*
X12700D01*
X2540D02*
X3810D01*
X2540Y217170D02*
Y240030D01*
Y217170D02*
X3810D01*
X2540Y228600D02*
X12700D01*
X29210D02*
Y229870D01*
Y228600D02*
X52070D01*
Y229870D01*
Y237490D02*
Y238760D01*
X29210D02*
X52070D01*
X29210Y237490D02*
Y238760D01*
X40640Y228600D02*
Y238760D01*
X24130Y217170D02*
X25400D01*
Y240030D01*
X24130D02*
X25400D01*
X15240D02*
X16510D01*
X15240Y217170D02*
Y240030D01*
Y217170D02*
X16510D01*
X15240Y228600D02*
X25400D01*
X15400Y348060D02*
Y350060D01*
Y348060D02*
X35400D01*
Y350060D01*
Y356060D02*
Y358060D01*
X15400D02*
X35400D01*
X15400Y356060D02*
Y358060D01*
X285910Y203280D02*
Y205280D01*
Y203280D02*
X305910D01*
Y205280D01*
Y211280D02*
Y213280D01*
X285910D02*
X305910D01*
X285910Y211280D02*
Y213280D01*
X184150Y36830D02*
X185420D01*
Y59690D01*
X184150D02*
X185420D01*
X175260D02*
X176530D01*
X175260Y36830D02*
Y59690D01*
Y36830D02*
X176530D01*
X175260Y48260D02*
X185420D01*
X184150Y8890D02*
X185420D01*
Y31750D01*
X184150D02*
X185420D01*
X175260D02*
X176530D01*
X175260Y8890D02*
Y31750D01*
Y8890D02*
X176530D01*
X175260Y20320D02*
X185420D01*
D19*
X128268Y240878D02*
X121496D01*
X120226Y241301D01*
X119803Y241724D01*
X119380Y242570D01*
Y243417D01*
X119803Y244263D01*
X120226Y244687D01*
X121496Y245110D01*
X122343D01*
X126152Y238169D02*
X126575D01*
X127422Y237746D01*
X127845Y237322D01*
X128268Y236476D01*
Y234783D01*
X127845Y233936D01*
X127422Y233513D01*
X126575Y233090D01*
X125729D01*
X124882Y233513D01*
X123612Y234360D01*
X119380Y238592D01*
Y232667D01*
M02*
