G04*
G04 #@! TF.GenerationSoftware,Altium Limited,Altium Designer,22.7.1 (60)*
G04*
G04 Layer_Color=255*
%FSLAX44Y44*%
%MOMM*%
G71*
G04*
G04 #@! TF.SameCoordinates,399D53DA-D0CF-47AF-BF50-1C372DBEC2BB*
G04*
G04*
G04 #@! TF.FilePolarity,Positive*
G04*
G01*
G75*
%ADD36R,0.7500X0.6000*%
%ADD75C,1.6000*%
%ADD76R,1.6000X1.6000*%
%ADD77C,0.7000*%
%ADD78O,1.0500X2.1000*%
%ADD80C,1.0000*%
%ADD81C,1.1001*%
%ADD82C,1.6000*%
%ADD85C,4.0000*%
D36*
X114970Y259080D02*
D03*
X103470D02*
D03*
X114970Y271780D02*
D03*
X103470D02*
D03*
D75*
X353060Y22860D02*
D03*
X327660D02*
D03*
X276860D02*
D03*
X251460D02*
D03*
X302260D02*
D03*
X279400Y133350D02*
D03*
X228600D02*
D03*
X254000D02*
D03*
X304800D02*
D03*
X330200D02*
D03*
D76*
X226060Y22860D02*
D03*
X203200Y133350D02*
D03*
D77*
X150820Y65250D02*
D03*
X93020D02*
D03*
D78*
X165120Y28750D02*
D03*
X78720D02*
D03*
X165120Y70550D02*
D03*
X78720D02*
D03*
D80*
X311658Y329946D02*
D03*
X231902D02*
D03*
D81*
X135890Y165430D02*
D03*
D82*
Y365430D02*
D03*
D85*
X368489Y265080D02*
D03*
M02*
