G04*
G04 #@! TF.GenerationSoftware,Altium Limited,Altium Designer,22.7.1 (60)*
G04*
G04 Layer_Physical_Order=2*
G04 Layer_Color=36540*
%FSLAX44Y44*%
%MOMM*%
G71*
G04*
G04 #@! TF.SameCoordinates,3D1FD2B2-7E42-48B0-8169-FE55815119E5*
G04*
G04*
G04 #@! TF.FilePolarity,Positive*
G04*
G01*
G75*
%ADD78C,1.6000*%
%ADD81O,1.0500X2.1000*%
%ADD86C,0.4500*%
%ADD88C,4.0000*%
G36*
X357440Y375204D02*
X363513Y373577D01*
X369322Y371171D01*
X374766Y368027D01*
X379754Y364200D01*
X384200Y359754D01*
X388027Y354766D01*
X391171Y349322D01*
X393577Y343513D01*
X395204Y337440D01*
X396024Y331207D01*
Y328064D01*
X396025Y50064D01*
Y46920D01*
X395204Y40687D01*
X393577Y34614D01*
X391171Y28805D01*
X388027Y23361D01*
X384200Y18373D01*
X379754Y13927D01*
X374766Y10100D01*
X369322Y6956D01*
X363513Y4550D01*
X357440Y2923D01*
X351207Y2103D01*
X46920D01*
X40687Y2923D01*
X34614Y4550D01*
X28805Y6956D01*
X23361Y10100D01*
X18373Y13927D01*
X13927Y18373D01*
X10100Y23361D01*
X6956Y28805D01*
X4550Y34614D01*
X2923Y40687D01*
X2103Y46920D01*
Y50064D01*
X2103Y247647D01*
X3372Y248173D01*
X3435Y248111D01*
X4997Y247464D01*
X6687D01*
X8249Y248111D01*
X9445Y249307D01*
X10092Y250869D01*
Y252559D01*
X9445Y254121D01*
X8249Y255317D01*
X6687Y255964D01*
X4997D01*
X3435Y255317D01*
X3372Y255255D01*
X2103Y255781D01*
X2103Y328064D01*
Y331207D01*
X2923Y337440D01*
X4550Y343513D01*
X6956Y349322D01*
X10100Y354766D01*
X13927Y359754D01*
X18373Y364200D01*
X23361Y368027D01*
X28805Y371171D01*
X34614Y373577D01*
X40687Y375204D01*
X46920Y376024D01*
X131885D01*
X132052Y374754D01*
X132030Y374749D01*
X129750Y373432D01*
X127888Y371570D01*
X126572Y369290D01*
X125890Y366747D01*
Y364114D01*
X126572Y361570D01*
X127888Y359290D01*
X129750Y357428D01*
X132030Y356112D01*
X134573Y355430D01*
X137206D01*
X139750Y356112D01*
X142030Y357428D01*
X143892Y359290D01*
X145209Y361570D01*
X145890Y364114D01*
Y366747D01*
X145209Y369290D01*
X143892Y371570D01*
X142030Y373432D01*
X139750Y374749D01*
X139728Y374754D01*
X139895Y376024D01*
X351207D01*
X357440Y375204D01*
D02*
G37*
%LPC*%
G36*
X209125Y364930D02*
X207435D01*
X205873Y364283D01*
X205300Y363710D01*
X204470Y363212D01*
X203640Y363710D01*
X203067Y364283D01*
X201505Y364930D01*
X199815D01*
X198253Y364283D01*
X197680Y363710D01*
X196850Y363212D01*
X196020Y363710D01*
X195447Y364283D01*
X193885Y364930D01*
X192195D01*
X190633Y364283D01*
X190060Y363710D01*
X189230Y363212D01*
X188400Y363710D01*
X187827Y364283D01*
X186265Y364930D01*
X184575D01*
X183013Y364283D01*
X182440Y363710D01*
X181610Y363212D01*
X180780Y363710D01*
X180207Y364283D01*
X178645Y364930D01*
X176955D01*
X175393Y364283D01*
X174197Y363087D01*
X173550Y361525D01*
Y359835D01*
X174197Y358273D01*
X175393Y357077D01*
X176955Y356430D01*
X178645D01*
X180207Y357077D01*
X180780Y357650D01*
X181610Y358148D01*
X182440Y357650D01*
X183013Y357077D01*
X184575Y356430D01*
X186265D01*
X187827Y357077D01*
X188400Y357650D01*
X189230Y358148D01*
X190060Y357650D01*
X190633Y357077D01*
X192195Y356430D01*
X193885D01*
X195447Y357077D01*
X196020Y357650D01*
X196850Y358148D01*
X197680Y357650D01*
X198253Y357077D01*
X199815Y356430D01*
X201505D01*
X203067Y357077D01*
X203640Y357650D01*
X204470Y358148D01*
X205300Y357650D01*
X205873Y357077D01*
X207435Y356430D01*
X209125D01*
X210687Y357077D01*
X211883Y358273D01*
X212530Y359835D01*
Y361525D01*
X211883Y363087D01*
X210687Y364283D01*
X209125Y364930D01*
D02*
G37*
G36*
X69933Y371280D02*
X68243D01*
X66681Y370633D01*
X65485Y369437D01*
X64838Y367875D01*
Y366185D01*
X65485Y364623D01*
X66681Y363427D01*
X68243Y362780D01*
X69933D01*
X71495Y363427D01*
X72691Y364623D01*
X73338Y366185D01*
Y367875D01*
X72691Y369437D01*
X71495Y370633D01*
X69933Y371280D01*
D02*
G37*
G36*
X68155Y360612D02*
X66465D01*
X64903Y359965D01*
X63707Y358769D01*
X63060Y357207D01*
Y355517D01*
X63707Y353955D01*
X64475Y353187D01*
X63707Y352419D01*
X63060Y350857D01*
Y349167D01*
X63707Y347605D01*
X64903Y346409D01*
X66465Y345762D01*
X68155D01*
X69717Y346409D01*
X70913Y347605D01*
X71560Y349167D01*
Y350857D01*
X70913Y352419D01*
X70145Y353187D01*
X70913Y353955D01*
X71560Y355517D01*
Y357207D01*
X70913Y358769D01*
X69717Y359965D01*
X68155Y360612D01*
D02*
G37*
G36*
X16085Y348420D02*
X14395D01*
X12833Y347773D01*
X11637Y346577D01*
X10990Y345015D01*
Y343325D01*
X11637Y341763D01*
X12405Y340995D01*
X11637Y340227D01*
X10990Y338665D01*
Y336975D01*
X11637Y335413D01*
X12405Y334645D01*
X11637Y333877D01*
X10990Y332315D01*
Y330625D01*
X11637Y329063D01*
X11770Y328930D01*
X11637Y328797D01*
X10990Y327235D01*
Y325545D01*
X11637Y323983D01*
X12833Y322787D01*
X14395Y322140D01*
X16085D01*
X17647Y322787D01*
X18843Y323983D01*
X19490Y325545D01*
Y327235D01*
X19393Y327469D01*
X20470Y328188D01*
X20791Y327867D01*
X22758Y327052D01*
X24886D01*
X26853Y327867D01*
X28358Y329371D01*
X29172Y331338D01*
Y333466D01*
X28358Y335433D01*
X26853Y336937D01*
X24886Y337752D01*
X22758D01*
X20791Y336937D01*
X20712Y336857D01*
X19490Y337432D01*
Y338665D01*
X18843Y340227D01*
X18075Y340995D01*
X18843Y341763D01*
X19490Y343325D01*
Y345015D01*
X18843Y346577D01*
X17647Y347773D01*
X16085Y348420D01*
D02*
G37*
G36*
X140545Y334243D02*
X138855D01*
X137293Y333596D01*
X136097Y332401D01*
X135450Y330839D01*
Y329148D01*
X136097Y327586D01*
X137293Y326390D01*
X138855Y325743D01*
X140545D01*
X142107Y326390D01*
X143303Y327586D01*
X143950Y329148D01*
Y330839D01*
X143303Y332401D01*
X142107Y333596D01*
X140545Y334243D01*
D02*
G37*
G36*
X51645Y331910D02*
X49955D01*
X48393Y331263D01*
X47197Y330067D01*
X46550Y328505D01*
Y326815D01*
X47197Y325253D01*
X48393Y324057D01*
X49955Y323410D01*
X51645D01*
X53207Y324057D01*
X54403Y325253D01*
X55050Y326815D01*
Y328505D01*
X54403Y330067D01*
X53207Y331263D01*
X51645Y331910D01*
D02*
G37*
G36*
X312580Y336946D02*
X310736D01*
X308956Y336469D01*
X307360Y335547D01*
X306057Y334244D01*
X305135Y332648D01*
X304658Y330868D01*
Y329024D01*
X305135Y327244D01*
X306057Y325648D01*
X307360Y324345D01*
X308956Y323423D01*
X310736Y322946D01*
X312580D01*
X314360Y323423D01*
X315956Y324345D01*
X317259Y325648D01*
X318181Y327244D01*
X318658Y329024D01*
Y330868D01*
X318181Y332648D01*
X317259Y334244D01*
X315956Y335547D01*
X314360Y336469D01*
X312580Y336946D01*
D02*
G37*
G36*
X232824D02*
X230980D01*
X229200Y336469D01*
X227604Y335547D01*
X226301Y334244D01*
X225379Y332648D01*
X224902Y330868D01*
Y329024D01*
X225379Y327244D01*
X226301Y325648D01*
X227604Y324345D01*
X229200Y323423D01*
X230980Y322946D01*
X232824D01*
X234604Y323423D01*
X236200Y324345D01*
X237503Y325648D01*
X238425Y327244D01*
X238902Y329024D01*
Y330868D01*
X238425Y332648D01*
X237503Y334244D01*
X236200Y335547D01*
X234604Y336469D01*
X232824Y336946D01*
D02*
G37*
G36*
X62714Y331135D02*
X61024D01*
X59462Y330488D01*
X58266Y329292D01*
X57619Y327730D01*
Y326039D01*
X58266Y324477D01*
X59462Y323282D01*
X61024Y322635D01*
X62714D01*
X64276Y323282D01*
X65472Y324477D01*
X66119Y326039D01*
Y327730D01*
X65472Y329292D01*
X64276Y330488D01*
X62714Y331135D01*
D02*
G37*
G36*
X35135Y321750D02*
X33445D01*
X31883Y321103D01*
X30687Y319907D01*
X30040Y318345D01*
Y316655D01*
X30687Y315093D01*
X31883Y313897D01*
X33445Y313250D01*
X35135D01*
X36697Y313897D01*
X37893Y315093D01*
X38540Y316655D01*
Y318345D01*
X37893Y319907D01*
X36697Y321103D01*
X35135Y321750D01*
D02*
G37*
G36*
X34636Y309567D02*
X32945D01*
X31383Y308920D01*
X30187Y307725D01*
X29540Y306163D01*
Y304472D01*
X30187Y302910D01*
X31383Y301714D01*
X32945Y301067D01*
X34636D01*
X36198Y301714D01*
X37393Y302910D01*
X38040Y304472D01*
Y306163D01*
X37393Y307725D01*
X36198Y308920D01*
X34636Y309567D01*
D02*
G37*
G36*
X172549Y326068D02*
X170859D01*
X169297Y325421D01*
X168101Y324225D01*
X167454Y322663D01*
Y320973D01*
X168101Y319411D01*
X168996Y318516D01*
X167847Y317367D01*
X167200Y315805D01*
Y314115D01*
X167847Y312553D01*
X169043Y311357D01*
X170605Y310710D01*
X171615D01*
X172359Y310559D01*
X172788Y309539D01*
Y308781D01*
X171723Y308034D01*
X171113D01*
X169551Y307387D01*
X168355Y306191D01*
X167708Y304629D01*
Y302939D01*
X168355Y301377D01*
X169551Y300181D01*
X171113Y299534D01*
X172803D01*
X174365Y300181D01*
X175561Y301377D01*
X176208Y302939D01*
Y304629D01*
X177273Y305376D01*
X177883D01*
X179445Y306023D01*
X180641Y307219D01*
X181288Y308781D01*
Y310471D01*
X180641Y312033D01*
X179445Y313229D01*
X177883Y313876D01*
X176873D01*
X176129Y314027D01*
X175700Y315047D01*
Y315805D01*
X175053Y317367D01*
X174158Y318262D01*
X175307Y319411D01*
X175954Y320973D01*
Y322663D01*
X175307Y324225D01*
X174111Y325421D01*
X172549Y326068D01*
D02*
G37*
G36*
X119971Y301684D02*
X118281D01*
X116719Y301037D01*
X115523Y299841D01*
X114876Y298279D01*
Y296589D01*
X115523Y295027D01*
X116719Y293831D01*
X118281Y293184D01*
X119971D01*
X121533Y293831D01*
X122729Y295027D01*
X123376Y296589D01*
Y298279D01*
X122729Y299841D01*
X121533Y301037D01*
X119971Y301684D01*
D02*
G37*
G36*
X207855Y296350D02*
X206165D01*
X204603Y295703D01*
X203407Y294507D01*
X202760Y292945D01*
Y291255D01*
X203407Y289693D01*
X204603Y288497D01*
X206165Y287850D01*
X207855D01*
X209417Y288497D01*
X210613Y289693D01*
X211260Y291255D01*
Y292945D01*
X210613Y294507D01*
X209417Y295703D01*
X207855Y296350D01*
D02*
G37*
G36*
X204045Y286190D02*
X202355D01*
X200793Y285543D01*
X199597Y284347D01*
X198950Y282785D01*
Y281095D01*
X199597Y279533D01*
X200793Y278337D01*
X202355Y277690D01*
X204045D01*
X205607Y278337D01*
X206803Y279533D01*
X207450Y281095D01*
Y282785D01*
X206803Y284347D01*
X205607Y285543D01*
X204045Y286190D01*
D02*
G37*
G36*
X370583Y286350D02*
X366394D01*
X362284Y285532D01*
X358414Y283929D01*
X354930Y281601D01*
X353898Y280569D01*
X368489Y265978D01*
X383080Y280569D01*
X382047Y281601D01*
X378564Y283929D01*
X374693Y285532D01*
X370583Y286350D01*
D02*
G37*
G36*
X326898Y287929D02*
X227330D01*
X226302Y287724D01*
X225430Y287142D01*
X224848Y286270D01*
X224643Y285242D01*
Y261620D01*
X224848Y260592D01*
X225430Y259720D01*
X226302Y259138D01*
X227330Y258933D01*
X326898D01*
X327926Y259138D01*
X328798Y259720D01*
X329380Y260592D01*
X329585Y261620D01*
Y285242D01*
X329380Y286270D01*
X328798Y287142D01*
X327926Y287724D01*
X326898Y287929D01*
D02*
G37*
G36*
X96349Y272565D02*
X94659D01*
X93097Y271918D01*
X91901Y270722D01*
X91254Y269160D01*
Y267470D01*
X91901Y265908D01*
X92379Y265430D01*
X91901Y264952D01*
X91254Y263390D01*
Y261700D01*
X91901Y260138D01*
X93097Y258942D01*
X94659Y258295D01*
X96349D01*
X97911Y258942D01*
X99107Y260138D01*
X99754Y261700D01*
Y263390D01*
X99107Y264952D01*
X98629Y265430D01*
X99107Y265908D01*
X99754Y267470D01*
Y269160D01*
X99107Y270722D01*
X97911Y271918D01*
X96349Y272565D01*
D02*
G37*
G36*
X24886Y263752D02*
X22758D01*
X20791Y262938D01*
X19287Y261432D01*
X18472Y259466D01*
Y257338D01*
X19287Y255371D01*
X20791Y253867D01*
X22758Y253052D01*
X24886D01*
X26853Y253867D01*
X28358Y255371D01*
X29172Y257338D01*
Y259466D01*
X28358Y261432D01*
X26853Y262938D01*
X24886Y263752D01*
D02*
G37*
G36*
X383978Y279671D02*
X369387Y265080D01*
X383978Y250489D01*
X385010Y251521D01*
X387338Y255005D01*
X388941Y258876D01*
X389759Y262985D01*
Y267175D01*
X388941Y271284D01*
X387338Y275155D01*
X385010Y278639D01*
X383978Y279671D01*
D02*
G37*
G36*
X352999D02*
X351967Y278639D01*
X349639Y275155D01*
X348036Y271284D01*
X347219Y267175D01*
Y262985D01*
X348036Y258876D01*
X349639Y255005D01*
X351967Y251521D01*
X352999Y250489D01*
X367591Y265080D01*
X352999Y279671D01*
D02*
G37*
G36*
X174073Y263076D02*
X172383D01*
X170821Y262429D01*
X169625Y261233D01*
X168978Y259671D01*
Y257981D01*
X169625Y256419D01*
X170139Y255905D01*
X169371Y255137D01*
X168724Y253575D01*
Y251885D01*
X169371Y250323D01*
X170567Y249127D01*
X172129Y248480D01*
X173819D01*
X175381Y249127D01*
X176577Y250323D01*
X177224Y251885D01*
Y253575D01*
X176577Y255137D01*
X176063Y255651D01*
X176831Y256419D01*
X177478Y257981D01*
Y259671D01*
X176831Y261233D01*
X175635Y262429D01*
X174073Y263076D01*
D02*
G37*
G36*
X35135Y256980D02*
X33445D01*
X31883Y256333D01*
X30687Y255137D01*
X30040Y253575D01*
Y251885D01*
X30687Y250323D01*
X31883Y249127D01*
X33445Y248480D01*
X35135D01*
X36697Y249127D01*
X37893Y250323D01*
X38540Y251885D01*
Y253575D01*
X37893Y255137D01*
X36697Y256333D01*
X35135Y256980D01*
D02*
G37*
G36*
X73100Y262321D02*
X71409D01*
X69847Y261674D01*
X68651Y260478D01*
X68004Y258916D01*
Y257226D01*
X68651Y255664D01*
X69250Y255065D01*
X68768Y254583D01*
X68121Y253021D01*
Y251331D01*
X68768Y249769D01*
X69963Y248573D01*
X71526Y247926D01*
X73216D01*
X74778Y248573D01*
X75974Y249769D01*
X76621Y251331D01*
Y253021D01*
X75974Y254583D01*
X75375Y255182D01*
X75857Y255664D01*
X76504Y257226D01*
Y258916D01*
X75857Y260478D01*
X74662Y261674D01*
X73100Y262321D01*
D02*
G37*
G36*
X368489Y264182D02*
X353898Y249591D01*
X354930Y248558D01*
X358414Y246231D01*
X362284Y244627D01*
X366394Y243810D01*
X370583D01*
X374693Y244627D01*
X378564Y246231D01*
X382047Y248558D01*
X383080Y249591D01*
X368489Y264182D01*
D02*
G37*
G36*
X277705Y237930D02*
X276015D01*
X274453Y237283D01*
X274320Y237150D01*
X274187Y237283D01*
X272625Y237930D01*
X270935D01*
X269373Y237283D01*
X268177Y236087D01*
X267530Y234525D01*
Y232835D01*
X268177Y231273D01*
X269373Y230077D01*
X270935Y229430D01*
X272625D01*
X274187Y230077D01*
X274320Y230210D01*
X274453Y230077D01*
X276015Y229430D01*
X277705D01*
X279267Y230077D01*
X280463Y231273D01*
X281110Y232835D01*
Y234525D01*
X280463Y236087D01*
X279267Y237283D01*
X277705Y237930D01*
D02*
G37*
G36*
X35735D02*
X34045D01*
X32483Y237283D01*
X31287Y236087D01*
X30640Y234525D01*
Y232835D01*
X31287Y231273D01*
X32483Y230077D01*
X34045Y229430D01*
X35735D01*
X37297Y230077D01*
X38493Y231273D01*
X39140Y232835D01*
Y234525D01*
X38493Y236087D01*
X37297Y237283D01*
X35735Y237930D01*
D02*
G37*
G36*
X282531Y212530D02*
X280841D01*
X279279Y211883D01*
X278083Y210687D01*
X277436Y209125D01*
Y207435D01*
X278083Y205873D01*
X279279Y204677D01*
X280841Y204030D01*
X282531D01*
X284093Y204677D01*
X285289Y205873D01*
X285936Y207435D01*
Y209125D01*
X285289Y210687D01*
X284093Y211883D01*
X282531Y212530D01*
D02*
G37*
G36*
X16085Y218730D02*
X14395D01*
X12833Y218083D01*
X11637Y216887D01*
X10990Y215325D01*
Y213635D01*
X11637Y212073D01*
X12304Y211406D01*
X11637Y210739D01*
X10990Y209177D01*
Y207487D01*
X11637Y205925D01*
X12304Y205258D01*
X11637Y204591D01*
X10990Y203029D01*
Y201339D01*
X11637Y199777D01*
X12833Y198581D01*
X14395Y197934D01*
X16085D01*
X17647Y198581D01*
X18843Y199777D01*
X19490Y201339D01*
Y203029D01*
X18843Y204591D01*
X18176Y205258D01*
X18843Y205925D01*
X19490Y207487D01*
Y209177D01*
X18843Y210739D01*
X18176Y211406D01*
X18843Y212073D01*
X19490Y213635D01*
Y215325D01*
X18843Y216887D01*
X17647Y218083D01*
X16085Y218730D01*
D02*
G37*
G36*
X136877Y172930D02*
X134902D01*
X132995Y172419D01*
X131285Y171432D01*
X129888Y170035D01*
X128901Y168325D01*
X128390Y166417D01*
Y164443D01*
X128901Y162535D01*
X129888Y160825D01*
X131285Y159428D01*
X132995Y158441D01*
X134902Y157929D01*
X136877D01*
X138785Y158441D01*
X140495Y159428D01*
X141892Y160825D01*
X142879Y162535D01*
X143391Y164443D01*
Y166417D01*
X142879Y168325D01*
X141892Y170035D01*
X140495Y171432D01*
X138785Y172419D01*
X136877Y172930D01*
D02*
G37*
G36*
X223349Y163508D02*
X221659D01*
X220097Y162861D01*
X218901Y161665D01*
X218254Y160103D01*
Y158413D01*
X218901Y156851D01*
X220097Y155655D01*
X221659Y155008D01*
X223349D01*
X224911Y155655D01*
X226107Y156851D01*
X226754Y158413D01*
Y160103D01*
X226107Y161665D01*
X224911Y162861D01*
X223349Y163508D01*
D02*
G37*
G36*
X107525Y149030D02*
X105835D01*
X104273Y148383D01*
X103593Y147703D01*
X102912Y148383D01*
X101350Y149030D01*
X99660D01*
X98098Y148383D01*
X97242Y147528D01*
X96387Y148383D01*
X94825Y149030D01*
X93135D01*
X91573Y148383D01*
X90377Y147187D01*
X89730Y145625D01*
Y143935D01*
X90377Y142373D01*
X91573Y141177D01*
X93135Y140530D01*
X94825D01*
X96387Y141177D01*
X97242Y142032D01*
X98098Y141177D01*
X99660Y140530D01*
X101350D01*
X102912Y141177D01*
X103593Y141857D01*
X104273Y141177D01*
X105835Y140530D01*
X107525D01*
X109087Y141177D01*
X110283Y142373D01*
X110930Y143935D01*
Y145625D01*
X110283Y147187D01*
X109087Y148383D01*
X107525Y149030D01*
D02*
G37*
G36*
X331516Y143350D02*
X328884D01*
X326340Y142669D01*
X324060Y141352D01*
X322198Y139490D01*
X320882Y137210D01*
X320200Y134667D01*
Y132034D01*
X320882Y129490D01*
X322198Y127210D01*
X324060Y125348D01*
X326340Y124031D01*
X328884Y123350D01*
X331516D01*
X334060Y124031D01*
X336340Y125348D01*
X338202Y127210D01*
X339519Y129490D01*
X340200Y132034D01*
Y134667D01*
X339519Y137210D01*
X338202Y139490D01*
X336340Y141352D01*
X334060Y142669D01*
X331516Y143350D01*
D02*
G37*
G36*
X306117D02*
X303484D01*
X300940Y142669D01*
X298660Y141352D01*
X296798Y139490D01*
X295481Y137210D01*
X294800Y134667D01*
Y132034D01*
X295481Y129490D01*
X296798Y127210D01*
X298660Y125348D01*
X300940Y124031D01*
X303484Y123350D01*
X306117D01*
X308660Y124031D01*
X310940Y125348D01*
X312802Y127210D01*
X314118Y129490D01*
X314800Y132034D01*
Y134667D01*
X314118Y137210D01*
X312802Y139490D01*
X310940Y141352D01*
X308660Y142669D01*
X306117Y143350D01*
D02*
G37*
G36*
X280716D02*
X278083D01*
X275540Y142669D01*
X273260Y141352D01*
X271398Y139490D01*
X270082Y137210D01*
X269400Y134667D01*
Y132034D01*
X270082Y129490D01*
X271398Y127210D01*
X273260Y125348D01*
X275540Y124031D01*
X278083Y123350D01*
X280716D01*
X283260Y124031D01*
X285540Y125348D01*
X287402Y127210D01*
X288718Y129490D01*
X289400Y132034D01*
Y134667D01*
X288718Y137210D01*
X287402Y139490D01*
X285540Y141352D01*
X283260Y142669D01*
X280716Y143350D01*
D02*
G37*
G36*
X255317D02*
X252684D01*
X250140Y142669D01*
X247860Y141352D01*
X245998Y139490D01*
X244681Y137210D01*
X244000Y134667D01*
Y132034D01*
X244681Y129490D01*
X245998Y127210D01*
X247860Y125348D01*
X250140Y124031D01*
X252684Y123350D01*
X255317D01*
X257860Y124031D01*
X260140Y125348D01*
X262002Y127210D01*
X263319Y129490D01*
X264000Y132034D01*
Y134667D01*
X263319Y137210D01*
X262002Y139490D01*
X260140Y141352D01*
X257860Y142669D01*
X255317Y143350D01*
D02*
G37*
G36*
X229916D02*
X227283D01*
X224740Y142669D01*
X222460Y141352D01*
X220598Y139490D01*
X219282Y137210D01*
X218600Y134667D01*
Y132034D01*
X219282Y129490D01*
X220598Y127210D01*
X222460Y125348D01*
X224740Y124031D01*
X227283Y123350D01*
X229916D01*
X232460Y124031D01*
X234740Y125348D01*
X236602Y127210D01*
X237918Y129490D01*
X238600Y132034D01*
Y134667D01*
X237918Y137210D01*
X236602Y139490D01*
X234740Y141352D01*
X232460Y142669D01*
X229916Y143350D01*
D02*
G37*
G36*
X213200D02*
X193200D01*
Y123350D01*
X213200D01*
Y143350D01*
D02*
G37*
G36*
X174835Y122360D02*
X173145D01*
X171583Y121713D01*
X170387Y120517D01*
X169740Y118955D01*
Y117265D01*
X170387Y115703D01*
X171583Y114507D01*
X173145Y113860D01*
X174835D01*
X176397Y114507D01*
X177593Y115703D01*
X178240Y117265D01*
Y118955D01*
X177593Y120517D01*
X176397Y121713D01*
X174835Y122360D01*
D02*
G37*
G36*
X120661Y101786D02*
X118971D01*
X117409Y101139D01*
X116931Y100661D01*
X116453Y101139D01*
X114891Y101786D01*
X113201D01*
X111639Y101139D01*
X110443Y99943D01*
X109796Y98381D01*
Y96691D01*
X110443Y95129D01*
X111639Y93933D01*
X113201Y93286D01*
X114891D01*
X116453Y93933D01*
X116931Y94411D01*
X117409Y93933D01*
X118971Y93286D01*
X120661D01*
X122223Y93933D01*
X123419Y95129D01*
X124066Y96691D01*
Y98381D01*
X123419Y99943D01*
X122223Y101139D01*
X120661Y101786D01*
D02*
G37*
G36*
X54185Y116010D02*
X52495D01*
X50933Y115363D01*
X49737Y114167D01*
X49090Y112605D01*
Y110915D01*
X49737Y109353D01*
X50933Y108157D01*
X52495Y107510D01*
X52900D01*
Y107105D01*
X53547Y105543D01*
X54743Y104347D01*
X56305Y103700D01*
X56710D01*
Y103295D01*
X57357Y101733D01*
X58553Y100537D01*
X60115Y99890D01*
X61805D01*
X63367Y100537D01*
X64563Y101733D01*
X65210Y103295D01*
Y104985D01*
X64563Y106547D01*
X63367Y107743D01*
X61805Y108390D01*
X61400D01*
Y108795D01*
X60753Y110357D01*
X59557Y111553D01*
X57995Y112200D01*
X57590D01*
Y112605D01*
X56943Y114167D01*
X55747Y115363D01*
X54185Y116010D01*
D02*
G37*
G36*
X148165Y98230D02*
X146475D01*
X144913Y97583D01*
X143717Y96387D01*
X143070Y94825D01*
Y93200D01*
X142447Y92577D01*
X141800Y91015D01*
Y89325D01*
X142447Y87763D01*
X143643Y86567D01*
X145205Y85920D01*
X146895D01*
X148457Y86567D01*
X149653Y87763D01*
X150300Y89325D01*
Y90950D01*
X150923Y91573D01*
X151570Y93135D01*
Y94825D01*
X150923Y96387D01*
X149727Y97583D01*
X148165Y98230D01*
D02*
G37*
G36*
X275165Y80450D02*
X273475D01*
X271913Y79803D01*
X271340Y79230D01*
X270510Y78732D01*
X269680Y79230D01*
X269107Y79803D01*
X267545Y80450D01*
X265855D01*
X264293Y79803D01*
X263720Y79230D01*
X262890Y78732D01*
X262060Y79230D01*
X261487Y79803D01*
X259925Y80450D01*
X258235D01*
X256673Y79803D01*
X256100Y79230D01*
X255270Y78732D01*
X254440Y79230D01*
X253867Y79803D01*
X252305Y80450D01*
X250615D01*
X249053Y79803D01*
X248480Y79230D01*
X247650Y78732D01*
X246820Y79230D01*
X246247Y79803D01*
X244685Y80450D01*
X242995D01*
X241433Y79803D01*
X240860Y79230D01*
X240030Y78732D01*
X239200Y79230D01*
X238627Y79803D01*
X237065Y80450D01*
X235375D01*
X233813Y79803D01*
X232617Y78607D01*
X231970Y77045D01*
Y75355D01*
X232617Y73793D01*
X233813Y72597D01*
X235375Y71950D01*
X237065D01*
X238627Y72597D01*
X239200Y73170D01*
X240030Y73668D01*
X240860Y73170D01*
X241433Y72597D01*
X242995Y71950D01*
X244685D01*
X246247Y72597D01*
X246820Y73170D01*
X247650Y73668D01*
X248480Y73170D01*
X249053Y72597D01*
X250615Y71950D01*
X252305D01*
X253867Y72597D01*
X254440Y73170D01*
X255270Y73668D01*
X256100Y73170D01*
X256673Y72597D01*
X258235Y71950D01*
X259925D01*
X261487Y72597D01*
X262060Y73170D01*
X262890Y73668D01*
X263720Y73170D01*
X264293Y72597D01*
X265855Y71950D01*
X267545D01*
X269107Y72597D01*
X269680Y73170D01*
X270510Y73668D01*
X271340Y73170D01*
X271913Y72597D01*
X273475Y71950D01*
X275165D01*
X276727Y72597D01*
X277923Y73793D01*
X278570Y75355D01*
Y77045D01*
X277923Y78607D01*
X276727Y79803D01*
X275165Y80450D01*
D02*
G37*
G36*
X165120Y82376D02*
X163418Y82152D01*
X161832Y81495D01*
X160978Y80840D01*
X165120Y76698D01*
X169262Y80840D01*
X168408Y81495D01*
X166822Y82152D01*
X165120Y82376D01*
D02*
G37*
G36*
X78720D02*
X77018Y82152D01*
X75432Y81495D01*
X74578Y80840D01*
X78720Y76698D01*
X82862Y80840D01*
X82008Y81495D01*
X80422Y82152D01*
X78720Y82376D01*
D02*
G37*
G36*
X170160Y79942D02*
X165569Y75351D01*
X165120Y75800D01*
X164671Y75351D01*
X160080Y79942D01*
X159425Y79088D01*
X158768Y77502D01*
X158544Y75800D01*
Y65300D01*
X158768Y63598D01*
X159425Y62012D01*
X160080Y61158D01*
X164671Y65749D01*
X165120Y65300D01*
X165569Y65749D01*
X170160Y61158D01*
X170815Y62012D01*
X171472Y63598D01*
X171696Y65300D01*
Y75800D01*
X171472Y77502D01*
X170815Y79088D01*
X170160Y79942D01*
D02*
G37*
G36*
X83760D02*
X79169Y75351D01*
X78720Y75800D01*
X78271Y75351D01*
X73680Y79942D01*
X73025Y79088D01*
X72368Y77502D01*
X72144Y75800D01*
Y65300D01*
X72368Y63598D01*
X73025Y62012D01*
X73680Y61158D01*
X78271Y65749D01*
X78720Y65300D01*
X79169Y65749D01*
X83760Y61158D01*
X84415Y62012D01*
X85072Y63598D01*
X85296Y65300D01*
Y75800D01*
X85072Y77502D01*
X84415Y79088D01*
X83760Y79942D01*
D02*
G37*
G36*
X208910Y80450D02*
X207220D01*
X205658Y79803D01*
X204462Y78607D01*
X203815Y77045D01*
Y75355D01*
X204462Y73793D01*
X205658Y72597D01*
X207220Y71950D01*
X208910D01*
X210472Y72597D01*
X211668Y73793D01*
X212315Y75355D01*
Y77045D01*
X211668Y78607D01*
X210472Y79803D01*
X208910Y80450D01*
D02*
G37*
G36*
X151914Y70750D02*
X149726D01*
X147704Y69913D01*
X146157Y68366D01*
X145320Y66344D01*
Y64156D01*
X146157Y62134D01*
X147704Y60587D01*
X149726Y59750D01*
X151914D01*
X153935Y60587D01*
X155483Y62134D01*
X156320Y64156D01*
Y66344D01*
X155483Y68366D01*
X153935Y69913D01*
X151914Y70750D01*
D02*
G37*
G36*
X94114D02*
X91926D01*
X89904Y69913D01*
X88357Y68366D01*
X87520Y66344D01*
Y64156D01*
X88357Y62134D01*
X89904Y60587D01*
X91926Y59750D01*
X94114D01*
X96136Y60587D01*
X97683Y62134D01*
X98520Y64156D01*
Y66344D01*
X97683Y68366D01*
X96136Y69913D01*
X94114Y70750D01*
D02*
G37*
G36*
X165120Y64402D02*
X160978Y60260D01*
X161832Y59605D01*
X163418Y58948D01*
X165120Y58724D01*
X166822Y58948D01*
X168408Y59605D01*
X169262Y60260D01*
X165120Y64402D01*
D02*
G37*
G36*
X78720D02*
X74578Y60260D01*
X75432Y59605D01*
X77018Y58948D01*
X78720Y58724D01*
X80422Y58948D01*
X82008Y59605D01*
X82862Y60260D01*
X78720Y64402D01*
D02*
G37*
G36*
X104985Y68852D02*
X103295D01*
X101733Y68205D01*
X100537Y67010D01*
X99890Y65448D01*
Y63757D01*
X100443Y62422D01*
X99890Y61087D01*
Y59396D01*
X100537Y57834D01*
X101199Y57172D01*
X100537Y56509D01*
X99890Y54947D01*
Y53257D01*
X100537Y51695D01*
X101733Y50499D01*
X103295Y49852D01*
X104985D01*
X106547Y50499D01*
X107743Y51695D01*
X108390Y53257D01*
Y54947D01*
X107743Y56509D01*
X107081Y57172D01*
X107743Y57834D01*
X108390Y59396D01*
Y61087D01*
X107837Y62422D01*
X108390Y63757D01*
Y65448D01*
X107743Y67010D01*
X106547Y68205D01*
X104985Y68852D01*
D02*
G37*
G36*
X78720Y40576D02*
X77018Y40352D01*
X75432Y39695D01*
X74578Y39040D01*
X78720Y34898D01*
X82862Y39040D01*
X82008Y39695D01*
X80422Y40352D01*
X78720Y40576D01*
D02*
G37*
G36*
X165120D02*
X163418Y40352D01*
X161832Y39695D01*
X160978Y39040D01*
X165120Y34898D01*
X169262Y39040D01*
X168408Y39695D01*
X166822Y40352D01*
X165120Y40576D01*
D02*
G37*
G36*
X83760Y38142D02*
X79169Y33551D01*
X78720Y34000D01*
X78271Y33551D01*
X73680Y38142D01*
X73025Y37288D01*
X72368Y35702D01*
X72144Y34000D01*
Y23500D01*
X72368Y21798D01*
X73025Y20212D01*
X73680Y19358D01*
X78271Y23949D01*
X78720Y23500D01*
X79169Y23949D01*
X83760Y19358D01*
X84415Y20212D01*
X85072Y21798D01*
X85296Y23500D01*
Y34000D01*
X85072Y35702D01*
X84415Y37288D01*
X83760Y38142D01*
D02*
G37*
G36*
X170160D02*
X165569Y33551D01*
X165120Y34000D01*
X164671Y33551D01*
X160080Y38142D01*
X159425Y37288D01*
X158768Y35702D01*
X158544Y34000D01*
Y23500D01*
X158768Y21798D01*
X159425Y20212D01*
X160080Y19358D01*
X164671Y23949D01*
X165120Y23500D01*
X165569Y23949D01*
X170160Y19358D01*
X170815Y20212D01*
X171472Y21798D01*
X171696Y23500D01*
Y34000D01*
X171472Y35702D01*
X170815Y37288D01*
X170160Y38142D01*
D02*
G37*
G36*
X278080Y32130D02*
X275640D01*
X273282Y31498D01*
X271168Y30278D01*
X270754Y29864D01*
X276860Y23758D01*
X282966Y29864D01*
X282552Y30278D01*
X280438Y31498D01*
X278080Y32130D01*
D02*
G37*
G36*
X165120Y22602D02*
X160978Y18460D01*
X161832Y17805D01*
X163418Y17148D01*
X165120Y16924D01*
X166822Y17148D01*
X168408Y17805D01*
X169262Y18460D01*
X165120Y22602D01*
D02*
G37*
G36*
X78720D02*
X74578Y18460D01*
X75432Y17805D01*
X77018Y17148D01*
X78720Y16924D01*
X80422Y17148D01*
X82008Y17805D01*
X82862Y18460D01*
X78720Y22602D01*
D02*
G37*
G36*
X283864Y28966D02*
X277758Y22860D01*
X283864Y16754D01*
X284278Y17168D01*
X285498Y19282D01*
X286130Y21640D01*
Y24080D01*
X285498Y26438D01*
X284278Y28552D01*
X283864Y28966D01*
D02*
G37*
G36*
X269856D02*
X269442Y28552D01*
X268222Y26438D01*
X267590Y24080D01*
Y21640D01*
X268222Y19282D01*
X269442Y17168D01*
X269856Y16754D01*
X275962Y22860D01*
X269856Y28966D01*
D02*
G37*
G36*
X276860Y21962D02*
X270754Y15856D01*
X271168Y15442D01*
X273282Y14222D01*
X275640Y13590D01*
X278080D01*
X280438Y14222D01*
X282552Y15442D01*
X282966Y15856D01*
X276860Y21962D01*
D02*
G37*
G36*
X354376Y32860D02*
X351744D01*
X349200Y32178D01*
X346920Y30862D01*
X345058Y29000D01*
X343741Y26720D01*
X343060Y24176D01*
Y21544D01*
X343741Y19000D01*
X345058Y16720D01*
X346920Y14858D01*
X349200Y13542D01*
X351744Y12860D01*
X354376D01*
X356920Y13542D01*
X359200Y14858D01*
X361062Y16720D01*
X362379Y19000D01*
X363060Y21544D01*
Y24176D01*
X362379Y26720D01*
X361062Y29000D01*
X359200Y30862D01*
X356920Y32178D01*
X354376Y32860D01*
D02*
G37*
G36*
X328977D02*
X326343D01*
X323800Y32178D01*
X321520Y30862D01*
X319658Y29000D01*
X318342Y26720D01*
X317660Y24176D01*
Y21544D01*
X318342Y19000D01*
X319658Y16720D01*
X321520Y14858D01*
X323800Y13542D01*
X326343Y12860D01*
X328977D01*
X331520Y13542D01*
X333800Y14858D01*
X335662Y16720D01*
X336978Y19000D01*
X337660Y21544D01*
Y24176D01*
X336978Y26720D01*
X335662Y29000D01*
X333800Y30862D01*
X331520Y32178D01*
X328977Y32860D01*
D02*
G37*
G36*
X303577D02*
X300944D01*
X298400Y32178D01*
X296120Y30862D01*
X294258Y29000D01*
X292941Y26720D01*
X292260Y24176D01*
Y21544D01*
X292941Y19000D01*
X294258Y16720D01*
X296120Y14858D01*
X298400Y13542D01*
X300944Y12860D01*
X303577D01*
X306120Y13542D01*
X308400Y14858D01*
X310262Y16720D01*
X311579Y19000D01*
X312260Y21544D01*
Y24176D01*
X311579Y26720D01*
X310262Y29000D01*
X308400Y30862D01*
X306120Y32178D01*
X303577Y32860D01*
D02*
G37*
G36*
X252777D02*
X250144D01*
X247600Y32178D01*
X245320Y30862D01*
X243458Y29000D01*
X242141Y26720D01*
X241460Y24176D01*
Y21544D01*
X242141Y19000D01*
X243458Y16720D01*
X245320Y14858D01*
X247600Y13542D01*
X250144Y12860D01*
X252777D01*
X255320Y13542D01*
X257600Y14858D01*
X259462Y16720D01*
X260779Y19000D01*
X261460Y21544D01*
Y24176D01*
X260779Y26720D01*
X259462Y29000D01*
X257600Y30862D01*
X255320Y32178D01*
X252777Y32860D01*
D02*
G37*
G36*
X236060D02*
X216060D01*
Y12860D01*
X236060D01*
Y32860D01*
D02*
G37*
%LPD*%
D78*
X276860Y22860D02*
D03*
D81*
X165120Y28750D02*
D03*
X78720D02*
D03*
X165120Y70550D02*
D03*
X78720D02*
D03*
D86*
X27432Y297942D02*
D03*
X381000Y304800D02*
D03*
X355600Y355600D02*
D03*
X368300Y330200D02*
D03*
X355600Y304800D02*
D03*
X330200D02*
D03*
Y254000D02*
D03*
X304800Y304800D02*
D03*
X292100Y330200D02*
D03*
X279400Y304800D02*
D03*
X266700Y330200D02*
D03*
X254000Y304800D02*
D03*
X241300Y330200D02*
D03*
X228600Y304800D02*
D03*
X215900Y330200D02*
D03*
X127000Y355600D02*
D03*
Y304800D02*
D03*
X101600Y355600D02*
D03*
X114300Y330200D02*
D03*
Y279400D02*
D03*
X38100Y330200D02*
D03*
X142494Y263652D02*
D03*
X94075Y274453D02*
D03*
X94913Y284956D02*
D03*
X42245Y276581D02*
D03*
Y284522D02*
D03*
Y298664D02*
D03*
Y291485D02*
D03*
Y306606D02*
D03*
Y314438D02*
D03*
X27239Y282966D02*
D03*
X7047Y244745D02*
D03*
X7212Y262696D02*
D03*
X95758Y316484D02*
D03*
X95250Y294640D02*
D03*
X69850Y234950D02*
D03*
Y245110D02*
D03*
Y226060D02*
D03*
X145796Y246126D02*
D03*
X69745Y287930D02*
D03*
X69745Y272930D02*
D03*
X69745Y302930D02*
D03*
Y317930D02*
D03*
X299720Y233680D02*
D03*
X294640D02*
D03*
X289560D02*
D03*
D88*
X368489Y265080D02*
D03*
M02*
