G04*
G04 #@! TF.GenerationSoftware,Altium Limited,Altium Designer,22.7.1 (60)*
G04*
G04 Layer_Color=16711935*
%FSLAX44Y44*%
%MOMM*%
G71*
G04*
G04 #@! TF.SameCoordinates,BBA0BEE0-45CE-4415-A0BC-CE460DC89FB0*
G04*
G04*
G04 #@! TF.FilePolarity,Positive*
G04*
G01*
G75*
%ADD14C,0.0254*%
%ADD91C,0.0356*%
D14*
X137969Y364802D02*
G03*
X137969Y364802I-2079J0D01*
G01*
X137969Y165430D02*
G03*
X137969Y165430I-2079J0D01*
G01*
X153586Y265144D02*
X163866D01*
X148586D02*
X151058D01*
X133643D02*
X146058D01*
X128643D02*
X131115D01*
X113700D02*
X126171D01*
X108700D02*
X111172D01*
X93757D02*
X106229D01*
X88757D02*
X91285D01*
X75949D02*
X86286D01*
X79376Y172902D02*
X87016D01*
X79376Y177901D02*
X87016D01*
X79376Y182901D02*
X87016D01*
X79376Y187845D02*
X87016D01*
X79376Y192844D02*
X87016D01*
X79376Y197844D02*
X87016D01*
X79376Y222731D02*
X87016D01*
X79376Y227730D02*
X87016D01*
X79376Y232730D02*
X87016D01*
X79376Y237730D02*
X87016D01*
X79376Y242673D02*
X87016D01*
X79376Y247673D02*
X87016D01*
X79376Y252673D02*
X87016D01*
X79376Y257673D02*
X87016D01*
X79376Y262616D02*
X87016D01*
X79376Y267616D02*
X87016D01*
X79376Y272616D02*
X87016D01*
X79376Y277559D02*
X87016D01*
X79376Y282559D02*
X87016D01*
X79376Y287559D02*
X87016D01*
X79376Y292559D02*
X87016D01*
X79376Y297502D02*
X87016D01*
X79376Y302502D02*
X87016D01*
X79376Y307502D02*
X87016D01*
X79376Y332388D02*
X87016D01*
X79376Y337388D02*
X87016D01*
X79376Y342388D02*
X87016D01*
X79376Y347387D02*
X87016D01*
X79376Y352331D02*
X87016D01*
X79376Y357331D02*
X87016D01*
X145946Y175430D02*
X163866D01*
X145946Y180373D02*
X163866D01*
X145946Y185373D02*
X163866D01*
X145946Y190373D02*
X163866D01*
X145946Y195372D02*
X163866D01*
X145946Y220259D02*
X163866D01*
X145946Y225259D02*
X163866D01*
X145946Y230258D02*
X163866D01*
X145946Y235202D02*
X163866D01*
X145946Y240202D02*
X163866D01*
X145946Y245201D02*
X163866D01*
X145946Y250145D02*
X163866D01*
X145946Y255145D02*
X163866D01*
X145946Y260144D02*
X163866D01*
X145946Y265144D02*
X163866D01*
X145946Y270088D02*
X163866D01*
X145946Y275088D02*
X163866D01*
X145946Y280087D02*
X163866D01*
X145946Y285087D02*
X163866D01*
X145946Y290031D02*
X163866D01*
X145946Y295030D02*
X163866D01*
X145946Y300030D02*
X163866D01*
X145946Y304974D02*
X163866D01*
X145946Y309973D02*
X163866D01*
X145946Y334916D02*
X163866D01*
X145946Y339860D02*
X163866D01*
X145946Y344859D02*
X163866D01*
X145946Y349859D02*
X163866D01*
X145946Y354859D02*
X163866D01*
X79376Y312501D02*
X87016D01*
X79376Y317445D02*
X87016D01*
X79376Y322445D02*
X87016D01*
X79376Y327444D02*
X87016D01*
X145946Y314973D02*
X163866D01*
X145946Y319973D02*
X163866D01*
X145946Y324917D02*
X163866D01*
X145946Y329916D02*
X163866D01*
X148193Y209080D02*
X154990D01*
X143249D02*
X145721D01*
X133924D02*
X140721D01*
X82522Y160936D02*
Y162958D01*
Y160936D02*
X85106D01*
X82522Y162958D02*
X85106D01*
X80893Y160936D02*
Y162958D01*
Y160936D02*
X82522D01*
X80893Y162958D02*
X82522D01*
X78646Y160936D02*
X80893D01*
X78646Y162958D02*
X80893D01*
X82522Y367274D02*
Y369296D01*
X85106D01*
X82522Y367274D02*
X85106D01*
X80893D02*
Y369296D01*
X82522D01*
X80893Y367274D02*
X82522D01*
X78646Y369296D02*
X80893D01*
X78646Y367274D02*
X80893D01*
X139373Y174643D02*
Y176160D01*
X137969Y174643D02*
X139373D01*
X137969Y176160D02*
X139373D01*
X150047Y174643D02*
Y176160D01*
X139373Y174643D02*
X150047D01*
X139373Y176160D02*
X150047D01*
X155889Y174643D02*
Y176160D01*
X150047Y174643D02*
X155889D01*
X150047Y176160D02*
X155889D01*
X157293Y174643D02*
Y176160D01*
X155889Y174643D02*
X157293D01*
X155889Y176160D02*
X157293D01*
X160496Y174643D02*
Y176160D01*
X157293Y174643D02*
X160496D01*
X157293Y176160D02*
X160496D01*
X161844Y174643D02*
Y176160D01*
X160496Y174643D02*
X161844D01*
X160496Y176160D02*
X161844D01*
X139373Y194586D02*
Y196103D01*
X137969D02*
X139373D01*
X137969Y194586D02*
X139373D01*
X150047D02*
Y196103D01*
X139373D02*
X150047D01*
X139373Y194586D02*
X150047D01*
X155889D02*
Y196103D01*
X150047D02*
X155889D01*
X150047Y194586D02*
X155889D01*
X157293D02*
Y196103D01*
X155889D02*
X157293D01*
X155889Y194586D02*
X157293D01*
X160496D02*
Y196103D01*
X157293D02*
X160496D01*
X157293Y194586D02*
X160496D01*
X161844D02*
Y196103D01*
X160496D02*
X161844D01*
X160496Y194586D02*
X161844D01*
X139373Y189586D02*
Y191103D01*
X137969Y189586D02*
X139373D01*
X137969Y191103D02*
X139373D01*
X150047Y189586D02*
Y191103D01*
X139373Y189586D02*
X150047D01*
X139373Y191103D02*
X150047D01*
X155889Y189586D02*
Y191103D01*
X150047Y189586D02*
X155889D01*
X150047Y191103D02*
X155889D01*
X157293Y189586D02*
Y191103D01*
X155889Y189586D02*
X157293D01*
X155889Y191103D02*
X157293D01*
X160496Y189586D02*
Y191103D01*
X157293Y189586D02*
X160496D01*
X157293Y191103D02*
X160496D01*
X161844Y189586D02*
Y191103D01*
X160496Y189586D02*
X161844D01*
X160496Y191103D02*
X161844D01*
X139373Y184643D02*
Y186103D01*
X137969Y184643D02*
X139373D01*
X137969Y186103D02*
X139373D01*
X150047Y184643D02*
Y186103D01*
X139373Y184643D02*
X150047D01*
X139373Y186103D02*
X150047D01*
X155889Y184643D02*
Y186103D01*
X150047Y184643D02*
X155889D01*
X150047Y186103D02*
X155889D01*
X157293Y184643D02*
Y186103D01*
X155889Y184643D02*
X157293D01*
X155889Y186103D02*
X157293D01*
X160496Y184643D02*
Y186103D01*
X157293Y184643D02*
X160496D01*
X157293Y186103D02*
X160496D01*
X161844Y184643D02*
Y186103D01*
X160496Y184643D02*
X161844D01*
X160496Y186103D02*
X161844D01*
X139373Y179643D02*
Y181160D01*
X137969D02*
X139373D01*
X137969Y179643D02*
X139373D01*
X150047D02*
Y181160D01*
X139373D02*
X150047D01*
X139373Y179643D02*
X150047D01*
X155889D02*
Y181160D01*
X150047D02*
X155889D01*
X150047Y179643D02*
X155889D01*
X157293D02*
Y181160D01*
X155889D02*
X157293D01*
X155889Y179643D02*
X157293D01*
X160496D02*
Y181160D01*
X157293D02*
X160496D01*
X157293Y179643D02*
X160496D01*
X161844D02*
Y181160D01*
X160496D02*
X161844D01*
X160496Y179643D02*
X161844D01*
X139373Y234472D02*
Y235988D01*
X137969D02*
X139373D01*
X137969Y234472D02*
X139373D01*
X150047D02*
Y235988D01*
X139373D02*
X150047D01*
X139373Y234472D02*
X150047D01*
X155889D02*
Y235988D01*
X150047D02*
X155889D01*
X150047Y234472D02*
X155889D01*
X157293D02*
Y235988D01*
X155889D02*
X157293D01*
X155889Y234472D02*
X157293D01*
X160496D02*
Y235988D01*
X157293D02*
X160496D01*
X157293Y234472D02*
X160496D01*
X161844D02*
Y235988D01*
X160496D02*
X161844D01*
X160496Y234472D02*
X161844D01*
X139373Y229472D02*
Y230989D01*
X137969D02*
X139373D01*
X137969Y229472D02*
X139373D01*
X150047D02*
Y230989D01*
X139373D02*
X150047D01*
X139373Y229472D02*
X150047D01*
X155889D02*
Y230989D01*
X150047D02*
X155889D01*
X150047Y229472D02*
X155889D01*
X157293D02*
Y230989D01*
X155889D02*
X157293D01*
X155889Y229472D02*
X157293D01*
X160496D02*
Y230989D01*
X157293D02*
X160496D01*
X157293Y229472D02*
X160496D01*
X161844D02*
Y230989D01*
X160496D02*
X161844D01*
X160496Y229472D02*
X161844D01*
X139373Y224528D02*
Y225989D01*
X137969D02*
X139373D01*
X137969Y224528D02*
X139373D01*
X150047D02*
Y225989D01*
X139373D02*
X150047D01*
X139373Y224528D02*
X150047D01*
X155889D02*
Y225989D01*
X150047D02*
X155889D01*
X150047Y224528D02*
X155889D01*
X157293D02*
Y225989D01*
X155889D02*
X157293D01*
X155889Y224528D02*
X157293D01*
X160496D02*
Y225989D01*
X157293D02*
X160496D01*
X157293Y224528D02*
X160496D01*
X161844D02*
Y225989D01*
X160496D02*
X161844D01*
X160496Y224528D02*
X161844D01*
X139373Y219528D02*
Y220989D01*
X137969Y219528D02*
X139373D01*
X137969Y220989D02*
X139373D01*
X150047Y219528D02*
Y220989D01*
X139373Y219528D02*
X150047D01*
X139373Y220989D02*
X150047D01*
X155889Y219528D02*
Y220989D01*
X150047Y219528D02*
X155889D01*
X150047Y220989D02*
X155889D01*
X157293Y219528D02*
Y220989D01*
X155889Y219528D02*
X157293D01*
X155889Y220989D02*
X157293D01*
X160496Y219528D02*
Y220989D01*
X157293Y219528D02*
X160496D01*
X157293Y220989D02*
X160496D01*
X161844Y219528D02*
Y220989D01*
X160496Y219528D02*
X161844D01*
X160496Y220989D02*
X161844D01*
X139373Y254414D02*
Y255875D01*
X137969D02*
X139373D01*
X137969Y254414D02*
X139373D01*
X150047D02*
Y255875D01*
X139373D02*
X150047D01*
X139373Y254414D02*
X150047D01*
X155889D02*
Y255875D01*
X150047D02*
X155889D01*
X150047Y254414D02*
X155889D01*
X157293D02*
Y255875D01*
X155889D02*
X157293D01*
X155889Y254414D02*
X157293D01*
X160496D02*
Y255875D01*
X157293D02*
X160496D01*
X157293Y254414D02*
X160496D01*
X161844D02*
Y255875D01*
X160496D02*
X161844D01*
X160496Y254414D02*
X161844D01*
X139373Y249415D02*
Y250931D01*
X137969D02*
X139373D01*
X137969Y249415D02*
X139373D01*
X150047D02*
Y250931D01*
X139373D02*
X150047D01*
X139373Y249415D02*
X150047D01*
X155889D02*
Y250931D01*
X150047D02*
X155889D01*
X150047Y249415D02*
X155889D01*
X157293D02*
Y250931D01*
X155889D02*
X157293D01*
X155889Y249415D02*
X157293D01*
X160496D02*
Y250931D01*
X157293D02*
X160496D01*
X157293Y249415D02*
X160496D01*
X161844D02*
Y250931D01*
X160496D02*
X161844D01*
X160496Y249415D02*
X161844D01*
X139373Y244415D02*
Y245932D01*
X137969Y244415D02*
X139373D01*
X137969Y245932D02*
X139373D01*
X150047Y244415D02*
Y245932D01*
X139373Y244415D02*
X150047D01*
X139373Y245932D02*
X150047D01*
X155889Y244415D02*
Y245932D01*
X150047Y244415D02*
X155889D01*
X150047Y245932D02*
X155889D01*
X157293Y244415D02*
Y245932D01*
X155889Y244415D02*
X157293D01*
X155889Y245932D02*
X157293D01*
X160496Y244415D02*
Y245932D01*
X157293Y244415D02*
X160496D01*
X157293Y245932D02*
X160496D01*
X161844Y244415D02*
Y245932D01*
X160496Y244415D02*
X161844D01*
X160496Y245932D02*
X161844D01*
X139373Y239471D02*
Y240932D01*
X137969Y239471D02*
X139373D01*
X137969Y240932D02*
X139373D01*
X150047Y239471D02*
Y240932D01*
X139373Y239471D02*
X150047D01*
X139373Y240932D02*
X150047D01*
X155889Y239471D02*
Y240932D01*
X150047Y239471D02*
X155889D01*
X150047Y240932D02*
X155889D01*
X157293Y239471D02*
Y240932D01*
X155889Y239471D02*
X157293D01*
X155889Y240932D02*
X157293D01*
X160496Y239471D02*
Y240932D01*
X157293Y239471D02*
X160496D01*
X157293Y240932D02*
X160496D01*
X161844Y239471D02*
Y240932D01*
X160496Y239471D02*
X161844D01*
X160496Y240932D02*
X161844D01*
X139373Y274357D02*
Y275818D01*
X137969Y274357D02*
X139373D01*
X137969Y275818D02*
X139373D01*
X150047Y274357D02*
Y275818D01*
X139373Y274357D02*
X150047D01*
X139373Y275818D02*
X150047D01*
X155889Y274357D02*
Y275818D01*
X150047Y274357D02*
X155889D01*
X150047Y275818D02*
X155889D01*
X157293Y274357D02*
Y275818D01*
X155889Y274357D02*
X157293D01*
X155889Y275818D02*
X157293D01*
X160496Y274357D02*
Y275818D01*
X157293Y274357D02*
X160496D01*
X157293Y275818D02*
X160496D01*
X161844Y274357D02*
Y275818D01*
X160496Y274357D02*
X161844D01*
X160496Y275818D02*
X161844D01*
X139373Y269357D02*
Y270874D01*
X137969Y269357D02*
X139373D01*
X137969Y270874D02*
X139373D01*
X150047Y269357D02*
Y270874D01*
X139373Y269357D02*
X150047D01*
X139373Y270874D02*
X150047D01*
X155889Y269357D02*
Y270874D01*
X150047Y269357D02*
X155889D01*
X150047Y270874D02*
X155889D01*
X157293Y269357D02*
Y270874D01*
X155889Y269357D02*
X157293D01*
X155889Y270874D02*
X157293D01*
X160496Y269357D02*
Y270874D01*
X157293Y269357D02*
X160496D01*
X157293Y270874D02*
X160496D01*
X161844Y269357D02*
Y270874D01*
X160496Y269357D02*
X161844D01*
X160496Y270874D02*
X161844D01*
X139373Y264358D02*
Y265874D01*
X137969D02*
X139373D01*
X137969Y264358D02*
X139373D01*
X150047D02*
Y265874D01*
X139373D02*
X150047D01*
X139373Y264358D02*
X150047D01*
X155889D02*
Y265874D01*
X150047D02*
X155889D01*
X150047Y264358D02*
X155889D01*
X157293D02*
Y265874D01*
X155889D02*
X157293D01*
X155889Y264358D02*
X157293D01*
X160496D02*
Y265874D01*
X157293D02*
X160496D01*
X157293Y264358D02*
X160496D01*
X161844D02*
Y265874D01*
X160496D02*
X161844D01*
X160496Y264358D02*
X161844D01*
X139373Y259414D02*
Y260875D01*
X137969Y259414D02*
X139373D01*
X137969Y260875D02*
X139373D01*
X150047Y259414D02*
Y260875D01*
X139373Y259414D02*
X150047D01*
X139373Y260875D02*
X150047D01*
X155889Y259414D02*
Y260875D01*
X150047Y259414D02*
X155889D01*
X150047Y260875D02*
X155889D01*
X157293Y259414D02*
Y260875D01*
X155889Y259414D02*
X157293D01*
X155889Y260875D02*
X157293D01*
X160496Y259414D02*
Y260875D01*
X157293Y259414D02*
X160496D01*
X157293Y260875D02*
X160496D01*
X161844Y259414D02*
Y260875D01*
X160496Y259414D02*
X161844D01*
X160496Y260875D02*
X161844D01*
X139373Y299244D02*
Y300760D01*
X137969Y299244D02*
X139373D01*
X137969Y300760D02*
X139373D01*
X150047Y299244D02*
Y300760D01*
X139373Y299244D02*
X150047D01*
X139373Y300760D02*
X150047D01*
X155889Y299244D02*
Y300760D01*
X150047Y299244D02*
X155889D01*
X150047Y300760D02*
X155889D01*
X157293Y299244D02*
Y300760D01*
X155889Y299244D02*
X157293D01*
X155889Y300760D02*
X157293D01*
X160496Y299244D02*
Y300760D01*
X157293Y299244D02*
X160496D01*
X157293Y300760D02*
X160496D01*
X161844Y299244D02*
Y300760D01*
X160496Y299244D02*
X161844D01*
X160496Y300760D02*
X161844D01*
X139373Y294300D02*
Y295761D01*
X137969D02*
X139373D01*
X137969Y294300D02*
X139373D01*
X150047D02*
Y295761D01*
X139373D02*
X150047D01*
X139373Y294300D02*
X150047D01*
X155889D02*
Y295761D01*
X150047D02*
X155889D01*
X150047Y294300D02*
X155889D01*
X157293D02*
Y295761D01*
X155889D02*
X157293D01*
X155889Y294300D02*
X157293D01*
X160496D02*
Y295761D01*
X157293D02*
X160496D01*
X157293Y294300D02*
X160496D01*
X161844D02*
Y295761D01*
X160496D02*
X161844D01*
X160496Y294300D02*
X161844D01*
X139373Y289300D02*
Y290817D01*
X137969Y289300D02*
X139373D01*
X137969Y290817D02*
X139373D01*
X150047Y289300D02*
Y290817D01*
X139373Y289300D02*
X150047D01*
X139373Y290817D02*
X150047D01*
X155889Y289300D02*
Y290817D01*
X150047Y289300D02*
X155889D01*
X150047Y290817D02*
X155889D01*
X157293Y289300D02*
Y290817D01*
X155889Y289300D02*
X157293D01*
X155889Y290817D02*
X157293D01*
X160496Y289300D02*
Y290817D01*
X157293Y289300D02*
X160496D01*
X157293Y290817D02*
X160496D01*
X161844Y289300D02*
Y290817D01*
X160496Y289300D02*
X161844D01*
X160496Y290817D02*
X161844D01*
X139373Y284301D02*
Y285817D01*
X137969Y284301D02*
X139373D01*
X137969Y285817D02*
X139373D01*
X150047Y284301D02*
Y285817D01*
X139373Y284301D02*
X150047D01*
X139373Y285817D02*
X150047D01*
X155889Y284301D02*
Y285817D01*
X150047Y284301D02*
X155889D01*
X150047Y285817D02*
X155889D01*
X157293Y284301D02*
Y285817D01*
X155889Y284301D02*
X157293D01*
X155889Y285817D02*
X157293D01*
X160496Y284301D02*
Y285817D01*
X157293Y284301D02*
X160496D01*
X157293Y285817D02*
X160496D01*
X161844Y284301D02*
Y285817D01*
X160496Y284301D02*
X161844D01*
X160496Y285817D02*
X161844D01*
X139373Y279301D02*
Y280818D01*
X137969Y279301D02*
X139373D01*
X137969Y280818D02*
X139373D01*
X150047Y279301D02*
Y280818D01*
X139373Y279301D02*
X150047D01*
X139373Y280818D02*
X150047D01*
X155889Y279301D02*
Y280818D01*
X150047Y279301D02*
X155889D01*
X150047Y280818D02*
X155889D01*
X157293Y279301D02*
Y280818D01*
X155889Y279301D02*
X157293D01*
X155889Y280818D02*
X157293D01*
X160496Y279301D02*
Y280818D01*
X157293Y279301D02*
X160496D01*
X157293Y280818D02*
X160496D01*
X161844Y279301D02*
Y280818D01*
X160496Y279301D02*
X161844D01*
X160496Y280818D02*
X161844D01*
X139373Y319186D02*
Y320703D01*
X137969D02*
X139373D01*
X137969Y319186D02*
X139373D01*
X150047D02*
Y320703D01*
X139373D02*
X150047D01*
X139373Y319186D02*
X150047D01*
X155889D02*
Y320703D01*
X150047D02*
X155889D01*
X150047Y319186D02*
X155889D01*
X157293D02*
Y320703D01*
X155889D02*
X157293D01*
X155889Y319186D02*
X157293D01*
X160496D02*
Y320703D01*
X157293D02*
X160496D01*
X157293Y319186D02*
X160496D01*
X161844D02*
Y320703D01*
X160496D02*
X161844D01*
X160496Y319186D02*
X161844D01*
X139373Y314243D02*
Y315703D01*
X137969Y314243D02*
X139373D01*
X137969Y315703D02*
X139373D01*
X150047Y314243D02*
Y315703D01*
X139373Y314243D02*
X150047D01*
X139373Y315703D02*
X150047D01*
X155889Y314243D02*
Y315703D01*
X150047Y314243D02*
X155889D01*
X150047Y315703D02*
X155889D01*
X157293Y314243D02*
Y315703D01*
X155889Y314243D02*
X157293D01*
X155889Y315703D02*
X157293D01*
X160496Y314243D02*
Y315703D01*
X157293Y314243D02*
X160496D01*
X157293Y315703D02*
X160496D01*
X161844Y314243D02*
Y315703D01*
X160496Y314243D02*
X161844D01*
X160496Y315703D02*
X161844D01*
X139373Y309243D02*
Y310704D01*
X137969D02*
X139373D01*
X137969Y309243D02*
X139373D01*
X150047D02*
Y310704D01*
X139373D02*
X150047D01*
X139373Y309243D02*
X150047D01*
X155889D02*
Y310704D01*
X150047D02*
X155889D01*
X150047Y309243D02*
X155889D01*
X157293D02*
Y310704D01*
X155889D02*
X157293D01*
X155889Y309243D02*
X157293D01*
X160496D02*
Y310704D01*
X157293D02*
X160496D01*
X157293Y309243D02*
X160496D01*
X161844D02*
Y310704D01*
X160496D02*
X161844D01*
X160496Y309243D02*
X161844D01*
X139373Y304243D02*
Y305760D01*
X137969Y304243D02*
X139373D01*
X137969Y305760D02*
X139373D01*
X150047Y304243D02*
Y305760D01*
X139373Y304243D02*
X150047D01*
X139373Y305760D02*
X150047D01*
X155889Y304243D02*
Y305760D01*
X150047Y304243D02*
X155889D01*
X150047Y305760D02*
X155889D01*
X157293Y304243D02*
Y305760D01*
X155889Y304243D02*
X157293D01*
X155889Y305760D02*
X157293D01*
X160496Y304243D02*
Y305760D01*
X157293Y304243D02*
X160496D01*
X157293Y305760D02*
X160496D01*
X161844Y304243D02*
Y305760D01*
X160496Y304243D02*
X161844D01*
X160496Y305760D02*
X161844D01*
X139373Y339129D02*
Y340646D01*
X137969Y339129D02*
X139373D01*
X137969Y340646D02*
X139373D01*
X150047Y339129D02*
Y340646D01*
X139373Y339129D02*
X150047D01*
X139373Y340646D02*
X150047D01*
X155889Y339129D02*
Y340646D01*
X150047Y339129D02*
X155889D01*
X150047Y340646D02*
X155889D01*
X157293Y339129D02*
Y340646D01*
X155889Y339129D02*
X157293D01*
X155889Y340646D02*
X157293D01*
X160496Y339129D02*
Y340646D01*
X157293Y339129D02*
X160496D01*
X157293Y340646D02*
X160496D01*
X161844Y339129D02*
Y340646D01*
X160496Y339129D02*
X161844D01*
X160496Y340646D02*
X161844D01*
X139373Y334130D02*
Y335646D01*
X137969Y334130D02*
X139373D01*
X137969Y335646D02*
X139373D01*
X150047Y334130D02*
Y335646D01*
X139373Y334130D02*
X150047D01*
X139373Y335646D02*
X150047D01*
X155889Y334130D02*
Y335646D01*
X150047Y334130D02*
X155889D01*
X150047Y335646D02*
X155889D01*
X157293Y334130D02*
Y335646D01*
X155889Y334130D02*
X157293D01*
X155889Y335646D02*
X157293D01*
X160496Y334130D02*
Y335646D01*
X157293Y334130D02*
X160496D01*
X157293Y335646D02*
X160496D01*
X161844Y334130D02*
Y335646D01*
X160496Y334130D02*
X161844D01*
X160496Y335646D02*
X161844D01*
X139373Y329186D02*
Y330647D01*
X137969D02*
X139373D01*
X137969Y329186D02*
X139373D01*
X150047D02*
Y330647D01*
X139373D02*
X150047D01*
X139373Y329186D02*
X150047D01*
X155889D02*
Y330647D01*
X150047D02*
X155889D01*
X150047Y329186D02*
X155889D01*
X157293D02*
Y330647D01*
X155889D02*
X157293D01*
X155889Y329186D02*
X157293D01*
X160496D02*
Y330647D01*
X157293D02*
X160496D01*
X157293Y329186D02*
X160496D01*
X161844D02*
Y330647D01*
X160496D02*
X161844D01*
X160496Y329186D02*
X161844D01*
X139373Y324186D02*
Y325703D01*
X137969Y324186D02*
X139373D01*
X137969Y325703D02*
X139373D01*
X150047Y324186D02*
Y325703D01*
X139373Y324186D02*
X150047D01*
X139373Y325703D02*
X150047D01*
X155889Y324186D02*
Y325703D01*
X150047Y324186D02*
X155889D01*
X150047Y325703D02*
X155889D01*
X157293Y324186D02*
Y325703D01*
X155889Y324186D02*
X157293D01*
X155889Y325703D02*
X157293D01*
X160496Y324186D02*
Y325703D01*
X157293Y324186D02*
X160496D01*
X157293Y325703D02*
X160496D01*
X161844Y324186D02*
Y325703D01*
X160496Y324186D02*
X161844D01*
X160496Y325703D02*
X161844D01*
X139373Y354072D02*
Y355589D01*
X137969D02*
X139373D01*
X137969Y354072D02*
X139373D01*
X150047D02*
Y355589D01*
X139373D02*
X150047D01*
X139373Y354072D02*
X150047D01*
X155889D02*
Y355589D01*
X150047D02*
X155889D01*
X150047Y354072D02*
X155889D01*
X157293D02*
Y355589D01*
X155889D02*
X157293D01*
X155889Y354072D02*
X157293D01*
X160496D02*
Y355589D01*
X157293D02*
X160496D01*
X157293Y354072D02*
X160496D01*
X161844D02*
Y355589D01*
X160496D02*
X161844D01*
X160496Y354072D02*
X161844D01*
X139373Y349129D02*
Y350589D01*
X137969D02*
X139373D01*
X137969Y349129D02*
X139373D01*
X150047D02*
Y350589D01*
X139373D02*
X150047D01*
X139373Y349129D02*
X150047D01*
X155889D02*
Y350589D01*
X150047D02*
X155889D01*
X150047Y349129D02*
X155889D01*
X157293D02*
Y350589D01*
X155889D02*
X157293D01*
X155889Y349129D02*
X157293D01*
X160496D02*
Y350589D01*
X157293D02*
X160496D01*
X157293Y349129D02*
X160496D01*
X161844D02*
Y350589D01*
X160496D02*
X161844D01*
X160496Y349129D02*
X161844D01*
X139373Y344129D02*
Y345646D01*
X137969Y344129D02*
X139373D01*
X137969Y345646D02*
X139373D01*
X150047Y344129D02*
Y345646D01*
X139373Y344129D02*
X150047D01*
X139373Y345646D02*
X150047D01*
X155889Y344129D02*
Y345646D01*
X150047Y344129D02*
X155889D01*
X150047Y345646D02*
X155889D01*
X157293Y344129D02*
Y345646D01*
X155889Y344129D02*
X157293D01*
X155889Y345646D02*
X157293D01*
X160496Y344129D02*
Y345646D01*
X157293Y344129D02*
X160496D01*
X157293Y345646D02*
X160496D01*
X161844Y344129D02*
Y345646D01*
X160496Y344129D02*
X161844D01*
X160496Y345646D02*
X161844D01*
X84263Y341657D02*
Y343118D01*
X85106D01*
X84263Y341657D02*
X85106D01*
X82016D02*
Y343118D01*
X84263D01*
X82016Y341657D02*
X84263D01*
X81117D02*
Y343118D01*
X82016D01*
X81117Y341657D02*
X82016D01*
X84263Y346601D02*
Y348118D01*
X85106D01*
X84263Y346601D02*
X85106D01*
X82016D02*
Y348118D01*
X84263D01*
X82016Y346601D02*
X84263D01*
X81117D02*
Y348118D01*
X82016D01*
X81117Y346601D02*
X82016D01*
X84263Y351601D02*
Y353117D01*
Y351601D02*
X85106D01*
X84263Y353117D02*
X85106D01*
X82016Y351601D02*
Y353117D01*
Y351601D02*
X84263D01*
X82016Y353117D02*
X84263D01*
X81117Y351601D02*
Y353117D01*
Y351601D02*
X82016D01*
X81117Y353117D02*
X82016D01*
X84263Y356600D02*
Y358061D01*
Y356600D02*
X85106D01*
X84263Y358061D02*
X85106D01*
X82016Y356600D02*
Y358061D01*
Y356600D02*
X84263D01*
X82016Y358061D02*
X84263D01*
X81117Y356600D02*
Y358061D01*
Y356600D02*
X82016D01*
X81117Y358061D02*
X82016D01*
X84263Y321714D02*
Y323175D01*
Y321714D02*
X85106D01*
X84263Y323175D02*
X85106D01*
X82016Y321714D02*
Y323175D01*
Y321714D02*
X84263D01*
X82016Y323175D02*
X84263D01*
X81117Y321714D02*
Y323175D01*
Y321714D02*
X82016D01*
X81117Y323175D02*
X82016D01*
X84263Y326658D02*
Y328175D01*
X85106D01*
X84263Y326658D02*
X85106D01*
X82016D02*
Y328175D01*
X84263D01*
X82016Y326658D02*
X84263D01*
X81117D02*
Y328175D01*
X82016D01*
X81117Y326658D02*
X82016D01*
X84263Y331658D02*
Y333175D01*
X85106D01*
X84263Y331658D02*
X85106D01*
X82016D02*
Y333175D01*
X84263D01*
X82016Y331658D02*
X84263D01*
X81117D02*
Y333175D01*
X82016D01*
X81117Y331658D02*
X82016D01*
X84263Y336658D02*
Y338118D01*
Y336658D02*
X85106D01*
X84263Y338118D02*
X85106D01*
X82016Y336658D02*
Y338118D01*
Y336658D02*
X84263D01*
X82016Y338118D02*
X84263D01*
X81117Y336658D02*
Y338118D01*
Y336658D02*
X82016D01*
X81117Y338118D02*
X82016D01*
X84263Y301772D02*
Y303232D01*
Y301772D02*
X85106D01*
X84263Y303232D02*
X85106D01*
X82016Y301772D02*
Y303232D01*
Y301772D02*
X84263D01*
X82016Y303232D02*
X84263D01*
X81117Y301772D02*
Y303232D01*
Y301772D02*
X82016D01*
X81117Y303232D02*
X82016D01*
X84263Y306715D02*
Y308232D01*
Y306715D02*
X85106D01*
X84263Y308232D02*
X85106D01*
X82016Y306715D02*
Y308232D01*
Y306715D02*
X84263D01*
X82016Y308232D02*
X84263D01*
X81117Y306715D02*
Y308232D01*
Y306715D02*
X82016D01*
X81117Y308232D02*
X82016D01*
X84263Y311715D02*
Y313232D01*
X85106D01*
X84263Y311715D02*
X85106D01*
X82016D02*
Y313232D01*
X84263D01*
X82016Y311715D02*
X84263D01*
X81117D02*
Y313232D01*
X82016D01*
X81117Y311715D02*
X82016D01*
X84263Y316715D02*
Y318231D01*
X85106D01*
X84263Y316715D02*
X85106D01*
X82016D02*
Y318231D01*
X84263D01*
X82016Y316715D02*
X84263D01*
X81117D02*
Y318231D01*
X82016D01*
X81117Y316715D02*
X82016D01*
X84263Y281829D02*
Y283289D01*
X85106D01*
X84263Y281829D02*
X85106D01*
X82016D02*
Y283289D01*
X84263D01*
X82016Y281829D02*
X84263D01*
X81117D02*
Y283289D01*
X82016D01*
X81117Y281829D02*
X82016D01*
X84263Y286829D02*
Y288289D01*
X85106D01*
X84263Y286829D02*
X85106D01*
X82016D02*
Y288289D01*
X84263D01*
X82016Y286829D02*
X84263D01*
X81117D02*
Y288289D01*
X82016D01*
X81117Y286829D02*
X82016D01*
X84263Y291772D02*
Y293289D01*
Y291772D02*
X85106D01*
X84263Y293289D02*
X85106D01*
X82016Y291772D02*
Y293289D01*
Y291772D02*
X84263D01*
X82016Y293289D02*
X84263D01*
X81117Y291772D02*
Y293289D01*
Y291772D02*
X82016D01*
X81117Y293289D02*
X82016D01*
X84263Y296772D02*
Y298289D01*
Y296772D02*
X85106D01*
X84263Y298289D02*
X85106D01*
X82016Y296772D02*
Y298289D01*
Y296772D02*
X84263D01*
X82016Y298289D02*
X84263D01*
X81117Y296772D02*
Y298289D01*
Y296772D02*
X82016D01*
X81117Y298289D02*
X82016D01*
X84263Y256886D02*
Y258403D01*
X85106D01*
X84263Y256886D02*
X85106D01*
X82016D02*
Y258403D01*
X84263D01*
X82016Y256886D02*
X84263D01*
X81117D02*
Y258403D01*
X82016D01*
X81117Y256886D02*
X82016D01*
X84263Y261886D02*
Y263403D01*
Y261886D02*
X85106D01*
X84263Y263403D02*
X85106D01*
X82016Y261886D02*
Y263403D01*
Y261886D02*
X84263D01*
X82016Y263403D02*
X84263D01*
X81117Y261886D02*
Y263403D01*
Y261886D02*
X82016D01*
X81117Y263403D02*
X82016D01*
X84263Y266886D02*
Y268346D01*
Y266886D02*
X85106D01*
X84263Y268346D02*
X85106D01*
X82016Y266886D02*
Y268346D01*
Y266886D02*
X84263D01*
X82016Y268346D02*
X84263D01*
X81117Y266886D02*
Y268346D01*
Y266886D02*
X82016D01*
X81117Y268346D02*
X82016D01*
X84263Y271829D02*
Y273346D01*
X85106D01*
X84263Y271829D02*
X85106D01*
X82016D02*
Y273346D01*
X84263D01*
X82016Y271829D02*
X84263D01*
X81117D02*
Y273346D01*
X82016D01*
X81117Y271829D02*
X82016D01*
X84263Y276829D02*
Y278346D01*
X85106D01*
X84263Y276829D02*
X85106D01*
X82016D02*
Y278346D01*
X84263D01*
X82016Y276829D02*
X84263D01*
X81117D02*
Y278346D01*
X82016D01*
X81117Y276829D02*
X82016D01*
X84263Y236943D02*
Y238460D01*
X85106D01*
X84263Y236943D02*
X85106D01*
X82016D02*
Y238460D01*
X84263D01*
X82016Y236943D02*
X84263D01*
X81117D02*
Y238460D01*
X82016D01*
X81117Y236943D02*
X82016D01*
X84263Y241943D02*
Y243460D01*
Y241943D02*
X85106D01*
X84263Y243460D02*
X85106D01*
X82016Y241943D02*
Y243460D01*
Y241943D02*
X84263D01*
X82016Y243460D02*
X84263D01*
X81117Y241943D02*
Y243460D01*
Y241943D02*
X82016D01*
X81117Y243460D02*
X82016D01*
X84263Y246943D02*
Y248403D01*
Y246943D02*
X85106D01*
X84263Y248403D02*
X85106D01*
X82016Y246943D02*
Y248403D01*
Y246943D02*
X84263D01*
X82016Y248403D02*
X84263D01*
X81117Y246943D02*
Y248403D01*
Y246943D02*
X82016D01*
X81117Y248403D02*
X82016D01*
X84263Y251943D02*
Y253403D01*
Y251943D02*
X85106D01*
X84263Y253403D02*
X85106D01*
X82016Y251943D02*
Y253403D01*
Y251943D02*
X84263D01*
X82016Y253403D02*
X84263D01*
X81117Y251943D02*
Y253403D01*
Y251943D02*
X82016D01*
X81117Y253403D02*
X82016D01*
X84263Y197114D02*
Y198574D01*
Y197114D02*
X85106D01*
X84263Y198574D02*
X85106D01*
X82016Y197114D02*
Y198574D01*
Y197114D02*
X84263D01*
X82016Y198574D02*
X84263D01*
X81117Y197114D02*
Y198574D01*
Y197114D02*
X82016D01*
X81117Y198574D02*
X82016D01*
X84263Y222000D02*
Y223517D01*
Y222000D02*
X85106D01*
X84263Y223517D02*
X85106D01*
X82016Y222000D02*
Y223517D01*
Y222000D02*
X84263D01*
X82016Y223517D02*
X84263D01*
X81117Y222000D02*
Y223517D01*
Y222000D02*
X82016D01*
X81117Y223517D02*
X82016D01*
X84263Y227000D02*
Y228517D01*
Y227000D02*
X85106D01*
X84263Y228517D02*
X85106D01*
X82016Y227000D02*
Y228517D01*
Y227000D02*
X84263D01*
X82016Y228517D02*
X84263D01*
X81117Y227000D02*
Y228517D01*
Y227000D02*
X82016D01*
X81117Y228517D02*
X82016D01*
X84263Y232000D02*
Y233460D01*
Y232000D02*
X85106D01*
X84263Y233460D02*
X85106D01*
X82016Y232000D02*
Y233460D01*
Y232000D02*
X84263D01*
X82016Y233460D02*
X84263D01*
X81117Y232000D02*
Y233460D01*
Y232000D02*
X82016D01*
X81117Y233460D02*
X82016D01*
X84263Y177171D02*
Y178632D01*
Y177171D02*
X85106D01*
X84263Y178632D02*
X85106D01*
X82016Y177171D02*
Y178632D01*
Y177171D02*
X84263D01*
X82016Y178632D02*
X84263D01*
X81117Y177171D02*
Y178632D01*
Y177171D02*
X82016D01*
X81117Y178632D02*
X82016D01*
X84263Y182115D02*
Y183631D01*
X85106D01*
X84263Y182115D02*
X85106D01*
X82016D02*
Y183631D01*
X84263D01*
X82016Y182115D02*
X84263D01*
X81117D02*
Y183631D01*
X82016D01*
X81117Y182115D02*
X82016D01*
X84263Y187114D02*
Y188631D01*
X85106D01*
X84263Y187114D02*
X85106D01*
X82016D02*
Y188631D01*
X84263D01*
X82016Y187114D02*
X84263D01*
X81117D02*
Y188631D01*
X82016D01*
X81117Y187114D02*
X82016D01*
X84263Y192114D02*
Y193575D01*
X85106D01*
X84263Y192114D02*
X85106D01*
X82016D02*
Y193575D01*
X84263D01*
X82016Y192114D02*
X84263D01*
X81117D02*
Y193575D01*
X82016D01*
X81117Y192114D02*
X82016D01*
X84263Y172171D02*
Y173688D01*
Y172171D02*
X85106D01*
X84263Y173688D02*
X85106D01*
X82016Y172171D02*
Y173688D01*
Y172171D02*
X84263D01*
X82016Y173688D02*
X84263D01*
X81117Y172171D02*
Y173688D01*
Y172171D02*
X82016D01*
X81117Y173688D02*
X82016D01*
X95723Y332725D02*
Y335422D01*
Y338455D02*
Y341152D01*
Y338455D02*
X95780Y338287D01*
X96004Y338230D01*
X102015D01*
Y335646D02*
Y338230D01*
X96004Y335646D02*
X102015D01*
X95780Y335590D02*
X96004Y335646D01*
X95723Y335422D02*
X95780Y335590D01*
X93926Y332725D02*
X95723D01*
X93926D02*
Y341152D01*
X95723D01*
X99206Y324860D02*
X99375Y324973D01*
X99487Y325141D01*
Y327894D01*
X99375Y328119D02*
X99487Y327894D01*
X99206Y328175D02*
X99375Y328119D01*
X96735Y328175D02*
X99206D01*
X96566Y328119D02*
X96735Y328175D01*
X96454Y327894D02*
X96566Y328119D01*
X96454Y325141D02*
Y327894D01*
Y325141D02*
X96566Y324973D01*
X96735Y324860D01*
X99206D01*
X96004Y330703D02*
X99993D01*
X101975Y329018D02*
X102015Y328680D01*
X101892Y329331D02*
X101975Y329018D01*
X101770Y329618D02*
X101892Y329331D01*
X101611Y329876D02*
X101770Y329618D01*
X101416Y330103D02*
X101611Y329876D01*
X101188Y330298D02*
X101416Y330103D01*
X100930Y330457D02*
X101188Y330298D01*
X100643Y330580D02*
X100930Y330457D01*
X100330Y330662D02*
X100643Y330580D01*
X99993Y330703D02*
X100330Y330662D01*
X102015Y324355D02*
Y328680D01*
X99993Y322332D02*
X100330Y322373D01*
X100643Y322456D01*
X100930Y322578D01*
X101188Y322737D01*
X101416Y322932D01*
X101611Y323159D01*
X101770Y323418D01*
X101892Y323704D01*
X101975Y324018D01*
X102015Y324355D01*
X96004Y322332D02*
X99993D01*
X93926Y324355D02*
Y328680D01*
X95660Y330670D02*
X96004Y330703D01*
X95339Y330593D02*
X95660Y330670D01*
X95045Y330475D02*
X95339Y330593D01*
X94779Y330317D02*
X95045Y330475D01*
X94545Y330122D02*
X94779Y330317D01*
X94344Y329893D02*
X94545Y330122D01*
X94179Y329632D02*
X94344Y329893D01*
X94053Y329342D02*
X94179Y329632D01*
X93967Y329023D02*
X94053Y329342D01*
X93926Y328680D02*
X93967Y329023D01*
X93926Y324355D02*
X93967Y324011D01*
X94053Y323693D01*
X94179Y323402D01*
X94344Y323141D01*
X94545Y322912D01*
X94779Y322718D01*
X95045Y322560D01*
X95339Y322442D01*
X95660Y322365D01*
X96004Y322332D01*
X98588Y355645D02*
Y359072D01*
X96566Y353567D02*
X96909Y353608D01*
X97228Y353694D01*
X97519Y353820D01*
X97780Y353985D01*
X98009Y354185D01*
X98203Y354420D01*
X98361Y354686D01*
X98479Y354980D01*
X98556Y355301D01*
X98588Y355645D01*
X96004Y353567D02*
X96566D01*
X93926Y355645D02*
X93959Y355295D01*
X94039Y354969D01*
X94161Y354671D01*
X94324Y354402D01*
X94525Y354166D01*
X94761Y353965D01*
X95030Y353802D01*
X95328Y353680D01*
X95654Y353600D01*
X96004Y353567D01*
X95723Y356376D02*
Y361881D01*
Y356376D02*
X95780Y356207D01*
X96004Y356151D01*
X97128D01*
X97296Y356207D01*
X97353Y356376D01*
Y359802D01*
X99019Y361833D02*
X99375Y361881D01*
X98697Y361747D02*
X99019Y361833D01*
X98409Y361623D02*
X98697Y361747D01*
X98155Y361462D02*
X98409Y361623D01*
X97935Y361267D02*
X98155Y361462D01*
X97749Y361037D02*
X97935Y361267D01*
X97598Y360775D02*
X97749Y361037D01*
X97481Y360481D02*
X97598Y360775D01*
X97400Y360156D02*
X97481Y360481D01*
X97353Y359802D02*
X97400Y360156D01*
X99375Y361881D02*
X99993D01*
X101968Y360156D02*
X102015Y359802D01*
X101886Y360481D02*
X101968Y360156D01*
X101770Y360775D02*
X101886Y360481D01*
X101619Y361037D02*
X101770Y360775D01*
X101433Y361267D02*
X101619Y361037D01*
X101213Y361462D02*
X101433Y361267D01*
X100959Y361623D02*
X101213Y361462D01*
X100671Y361747D02*
X100959Y361623D01*
X100349Y361833D02*
X100671Y361747D01*
X99993Y361881D02*
X100349Y361833D01*
X102015Y353567D02*
Y359802D01*
X100218Y353567D02*
X102015D01*
X100218D02*
Y359072D01*
X100161Y359241D02*
X100218Y359072D01*
X99993Y359297D02*
X100161Y359241D01*
X98869Y359297D02*
X99993D01*
X98645Y359241D02*
X98869Y359297D01*
X98588Y359072D02*
X98645Y359241D01*
X93926Y361881D02*
X95723D01*
X93926Y355645D02*
Y361881D01*
X102015Y313007D02*
Y320310D01*
X100948Y311996D02*
X101341Y312052D01*
X101678Y312277D01*
X101903Y312614D01*
X102015Y313007D01*
X93926Y312614D02*
X100948Y311996D01*
X93926Y312614D02*
Y315198D01*
X99937Y314636D01*
X100161Y314748D01*
X100218Y314917D01*
Y320310D01*
X102015D01*
Y345196D02*
Y351544D01*
X99993Y343174D02*
X100330Y343215D01*
X100643Y343297D01*
X100930Y343419D01*
X101188Y343579D01*
X101416Y343773D01*
X101611Y344001D01*
X101770Y344259D01*
X101892Y344546D01*
X101975Y344859D01*
X102015Y345196D01*
X96004Y343174D02*
X99993D01*
X93926Y345196D02*
Y351544D01*
X95723Y345983D02*
Y351544D01*
Y345983D02*
X95780Y345758D01*
X96004Y345702D01*
X97128D01*
X97296Y345758D01*
X97353Y345983D01*
Y350533D01*
X98588D01*
Y345983D02*
Y350533D01*
Y345983D02*
X98645Y345758D01*
X98869Y345702D01*
X99993D01*
X100161Y345758D01*
X100218Y345983D01*
Y351544D01*
X102015D01*
X93926Y345196D02*
X93967Y344853D01*
X94053Y344535D01*
X94179Y344244D01*
X94344Y343983D01*
X94545Y343754D01*
X94779Y343559D01*
X95045Y343402D01*
X95339Y343283D01*
X95660Y343207D01*
X96004Y343174D01*
X93926Y351544D02*
X95723D01*
X129879Y206664D02*
X129965Y208236D01*
X129740Y209460D02*
X129965Y208236D01*
X129280Y210334D02*
X129740Y209460D01*
X128662Y210859D02*
X129280Y210334D01*
X127962Y211034D02*
X128662Y210859D01*
X127259Y210860D02*
X127962Y211034D01*
X126629Y210336D02*
X127259Y210860D01*
X126149Y209462D02*
X126629Y210336D01*
X125896Y208238D02*
X126149Y209462D01*
X125896Y208238D02*
X125947Y206664D01*
X129879D01*
X120441Y205709D02*
Y207787D01*
X123025Y211102D02*
X123700Y211046D01*
X124318Y210821D01*
X124879Y210428D01*
X125273Y209922D01*
X125468Y210399D01*
X125735Y210819D01*
X126063Y211180D01*
X126443Y211477D01*
X126862Y211704D01*
X127312Y211859D01*
X127782Y211937D01*
X128261Y211933D01*
X128739Y211844D01*
X129205Y211664D01*
X129838Y211261D01*
X130299Y210792D01*
X130614Y210266D01*
X130810Y209691D01*
X130913Y209076D01*
X130949Y208431D01*
X130944Y207762D02*
X130949Y208431D01*
X130924Y207080D02*
X130944Y207762D01*
X130916Y206393D02*
X130924Y207080D01*
X130916Y206393D02*
X130946Y205709D01*
X120441D02*
X130946D01*
X124879Y206664D02*
X124910Y207893D01*
X124689Y208872D02*
X124910Y207893D01*
X124282Y209593D02*
X124689Y208872D01*
X123751Y210046D02*
X124282Y209593D01*
X123159Y210224D02*
X123751Y210046D01*
X122570Y210117D02*
X123159Y210224D01*
X122047Y209716D02*
X122570Y210117D01*
X121654Y209013D02*
X122047Y209716D01*
X121453Y207998D02*
X121654Y209013D01*
X121453Y207998D02*
X121509Y206664D01*
X124879D01*
X120441Y207787D02*
X120497Y208967D01*
X120666Y209529D01*
X120947Y210091D01*
X121340Y210540D01*
X121846Y210877D01*
X123025Y211102D01*
X85106Y156217D02*
X149878D01*
X85106D02*
Y374015D01*
X149878D01*
Y368566D02*
Y374015D01*
X137969Y368566D02*
X149878D01*
X137969Y161722D02*
Y368566D01*
Y161722D02*
X149878D01*
Y156217D02*
Y161722D01*
Y365533D02*
Y368566D01*
X137969Y365533D02*
X149878D01*
X137969Y164700D02*
X149878D01*
Y161722D02*
Y164700D01*
X152912Y368566D02*
Y374015D01*
X149878Y368566D02*
X152912D01*
X149878Y374015D02*
X152912D01*
X149878Y365533D02*
X150362Y365586D01*
X150824Y365707D01*
X151259Y365892D01*
X151658Y366136D01*
X152014Y366433D01*
X152321Y366780D01*
X152572Y367171D01*
X152758Y367603D01*
X152874Y368069D01*
X152912Y368566D01*
X149878Y161722D02*
X152912D01*
Y156217D02*
Y161722D01*
X149878Y156217D02*
X152912D01*
X152863Y162207D02*
X152912Y161722D01*
X152742Y162666D02*
X152863Y162207D01*
X152554Y163093D02*
X152742Y162666D01*
X152305Y163483D02*
X152554Y163093D01*
X152002Y163829D02*
X152305Y163483D01*
X151650Y164126D02*
X152002Y163829D01*
X151256Y164367D02*
X151650Y164126D01*
X150825Y164548D02*
X151256Y164367D01*
X150364Y164660D02*
X150825Y164548D01*
X149878Y164700D02*
X150364Y164660D01*
X137969Y206552D02*
X147406D01*
X137969Y211551D02*
X147406D01*
Y206552D02*
Y211551D01*
Y212113D01*
X147350Y212675D02*
X147406Y212113D01*
X147350Y212675D02*
Y213180D01*
X147238Y213686D02*
X147350Y213180D01*
X147182Y214023D02*
X147238Y213686D01*
X147125Y214304D02*
X147182Y214023D01*
X147013Y214473D02*
X147125Y214304D01*
X146901Y214529D02*
X147013Y214473D01*
X137969Y214529D02*
X146901D01*
Y203574D02*
X147013Y203630D01*
X147182Y203967D01*
X147238Y204248D01*
X147275Y204500D01*
X147309Y204735D01*
X147339Y204960D01*
X147364Y205177D01*
X147384Y205391D01*
X147400Y205605D01*
X147410Y205825D01*
X147415Y206053D01*
X147414Y206294D02*
X147415Y206053D01*
X147406Y206552D02*
X147414Y206294D01*
X137969Y203574D02*
X146901D01*
X147406Y206552D02*
X149878D01*
X147406Y211551D02*
X149878D01*
Y206552D02*
Y211551D01*
X146901Y203574D02*
X147375Y203602D01*
X147833Y203711D01*
X148267Y203892D01*
X148667Y204138D01*
X149025Y204441D01*
X149332Y204794D01*
X149580Y205190D01*
X149759Y205619D01*
X149861Y206076D01*
X149878Y206552D01*
X149861Y212027D02*
X149878Y211551D01*
X149759Y212484D02*
X149861Y212027D01*
X149580Y212913D02*
X149759Y212484D01*
X149332Y213308D02*
X149580Y212913D01*
X149025Y213661D02*
X149332Y213308D01*
X148667Y213964D02*
X149025Y213661D01*
X148267Y214210D02*
X148667Y213964D01*
X147833Y214392D02*
X148267Y214210D01*
X147375Y214500D02*
X147833Y214392D01*
X146901Y214529D02*
X147375Y214500D01*
X155608Y176328D02*
X156395Y177171D01*
X155608Y179418D02*
X156395Y178632D01*
Y177171D02*
Y178632D01*
X137969Y179418D02*
X155608D01*
X137969Y176328D02*
X155608D01*
Y226214D02*
X156395Y227000D01*
X155608Y229303D02*
X156395Y228517D01*
Y227000D02*
Y228517D01*
X137969Y229303D02*
X155608D01*
X137969Y226214D02*
X155608D01*
Y300985D02*
X156395Y301772D01*
X155608Y304075D02*
X156395Y303232D01*
Y301772D02*
Y303232D01*
X137969Y300985D02*
X155608D01*
X137969Y304075D02*
X155608D01*
Y251100D02*
X156395Y251943D01*
X155608Y254190D02*
X156395Y253403D01*
Y251943D02*
Y253403D01*
X137969Y251100D02*
X155608D01*
X137969Y254190D02*
X155608D01*
Y325872D02*
X156395Y326658D01*
X155608Y328961D02*
X156395Y328175D01*
Y326658D02*
Y328175D01*
X137969Y328961D02*
X155608D01*
X137969Y325872D02*
X155608D01*
Y186328D02*
X156395Y187114D01*
X155608Y189418D02*
X156395Y188631D01*
Y187114D02*
Y188631D01*
X137969Y189418D02*
X155608D01*
X137969Y186328D02*
X155608D01*
Y310928D02*
X156395Y311715D01*
X155608Y314018D02*
X156395Y313232D01*
Y311715D02*
Y313232D01*
X137969Y314018D02*
X155608D01*
X137969Y310928D02*
X155608D01*
Y246156D02*
X156395Y246943D01*
X155608Y249246D02*
X156395Y248403D01*
Y246943D02*
Y248403D01*
X137969Y246156D02*
X155608D01*
X137969Y249246D02*
X155608D01*
Y290986D02*
X156395Y291772D01*
X155608Y294075D02*
X156395Y293289D01*
Y291772D02*
Y293289D01*
X137969Y290986D02*
X155608D01*
X137969Y294075D02*
X155608D01*
Y285986D02*
X156395Y286829D01*
X155608Y289076D02*
X156395Y288289D01*
Y286829D02*
Y288289D01*
X137969Y289076D02*
X155608D01*
X137969Y285986D02*
X155608D01*
Y320872D02*
X156395Y321714D01*
X155608Y323962D02*
X156395Y323175D01*
Y321714D02*
Y323175D01*
X137969Y323962D02*
X155608D01*
X137969Y320872D02*
X155608D01*
Y181328D02*
X156395Y182115D01*
X155608Y184418D02*
X156395Y183631D01*
Y182115D02*
Y183631D01*
X137969Y181328D02*
X155608D01*
X137969Y184418D02*
X155608D01*
Y191328D02*
X156395Y192114D01*
X155608Y194417D02*
X156395Y193575D01*
Y192114D02*
Y193575D01*
X137969Y191328D02*
X155608D01*
X137969Y194417D02*
X155608D01*
Y276043D02*
X156395Y276829D01*
X155608Y279132D02*
X156395Y278346D01*
Y276829D02*
Y278346D01*
X137969Y279132D02*
X155608D01*
X137969Y276043D02*
X155608D01*
Y350814D02*
X156395Y351601D01*
X155608Y353904D02*
X156395Y353117D01*
Y351601D02*
Y353117D01*
X137969Y353904D02*
X155608D01*
X137969Y350814D02*
X155608D01*
Y236157D02*
X156395Y236943D01*
X155608Y239247D02*
X156395Y238460D01*
Y236943D02*
Y238460D01*
X137969Y236157D02*
X155608D01*
X137969Y239247D02*
X155608D01*
Y305929D02*
X156395Y306715D01*
X155608Y309018D02*
X156395Y308232D01*
Y306715D02*
Y308232D01*
X137969Y305929D02*
X155608D01*
X137969Y309018D02*
X155608D01*
Y241157D02*
X156395Y241943D01*
X155608Y244246D02*
X156395Y243460D01*
Y241943D02*
Y243460D01*
X137969Y244246D02*
X155608D01*
X137969Y241157D02*
X155608D01*
Y271043D02*
X156395Y271829D01*
X155608Y274133D02*
X156395Y273346D01*
Y271829D02*
Y273346D01*
X137969Y271043D02*
X155608D01*
X137969Y274133D02*
X155608D01*
Y345814D02*
X156395Y346601D01*
X155608Y348904D02*
X156395Y348118D01*
Y346601D02*
Y348118D01*
X137969Y345814D02*
X155608D01*
X137969Y348904D02*
X155608D01*
Y315928D02*
X156395Y316715D01*
X155608Y319018D02*
X156395Y318231D01*
Y316715D02*
Y318231D01*
X137969Y319018D02*
X155608D01*
X137969Y315928D02*
X155608D01*
Y256100D02*
X156395Y256886D01*
X155608Y259189D02*
X156395Y258403D01*
Y256886D02*
Y258403D01*
X137969Y256100D02*
X155608D01*
X137969Y259189D02*
X155608D01*
Y219304D02*
X156395Y218517D01*
Y203574D02*
Y218517D01*
X137969Y219304D02*
X155608D01*
X146901Y203574D02*
X156395D01*
X155608Y330871D02*
X156395Y331658D01*
X155608Y333961D02*
X156395Y333175D01*
Y331658D02*
Y333175D01*
X137969Y333961D02*
X155608D01*
X137969Y330871D02*
X155608D01*
Y295985D02*
X156395Y296772D01*
X155608Y299075D02*
X156395Y298289D01*
Y296772D02*
Y298289D01*
X137969Y299075D02*
X155608D01*
X137969Y295985D02*
X155608D01*
Y196271D02*
X156395Y197114D01*
X137969Y199361D02*
X156395D01*
Y197114D02*
Y199361D01*
X137969Y196271D02*
X155608D01*
Y174474D02*
X156395Y173688D01*
Y171385D02*
Y173688D01*
X137969Y171385D02*
X156395D01*
X137969Y174474D02*
X155608D01*
Y355814D02*
X156395Y356600D01*
X137969Y358904D02*
X156395D01*
Y356600D02*
Y358904D01*
X137969Y355814D02*
X155608D01*
Y231157D02*
X156395Y232000D01*
X155608Y234247D02*
X156395Y233460D01*
Y232000D02*
Y233460D01*
X137969Y234247D02*
X155608D01*
X137969Y231157D02*
X155608D01*
Y335871D02*
X156395Y336658D01*
X155608Y338961D02*
X156395Y338118D01*
Y336658D02*
Y338118D01*
X137969Y338961D02*
X155608D01*
X137969Y335871D02*
X155608D01*
Y281042D02*
X156395Y281829D01*
X155608Y284132D02*
X156395Y283289D01*
Y281829D02*
Y283289D01*
X137969Y284132D02*
X155608D01*
X137969Y281042D02*
X155608D01*
Y340815D02*
X156395Y341657D01*
X155608Y343904D02*
X156395Y343118D01*
Y341657D02*
Y343118D01*
X137969Y343904D02*
X155608D01*
X137969Y340815D02*
X155608D01*
Y261099D02*
X156395Y261886D01*
X155608Y264189D02*
X156395Y263403D01*
Y261886D02*
Y263403D01*
X137969Y261099D02*
X155608D01*
X137969Y264189D02*
X155608D01*
Y221214D02*
X156395Y222000D01*
X155608Y224304D02*
X156395Y223517D01*
Y222000D02*
Y223517D01*
X137969Y221214D02*
X155608D01*
X137969Y224304D02*
X155608D01*
Y266043D02*
X156395Y266886D01*
X155608Y269189D02*
X156395Y268346D01*
Y266886D02*
Y268346D01*
X137969Y266043D02*
X155608D01*
X137969Y269189D02*
X155608D01*
X156395Y365533D02*
Y374015D01*
X149878Y365533D02*
X156395D01*
X152912Y374015D02*
X156395D01*
Y156217D02*
Y164700D01*
X149878D02*
X156395D01*
X152912Y156217D02*
X156395D01*
Y199361D02*
Y203574D01*
Y164700D02*
Y171385D01*
Y358904D02*
Y365533D01*
X151507Y305760D02*
Y305929D01*
Y304075D02*
Y304243D01*
Y290817D02*
Y290986D01*
Y289076D02*
Y289300D01*
Y310704D02*
Y310928D01*
Y309018D02*
Y309243D01*
Y285817D02*
Y285986D01*
Y284132D02*
Y284301D01*
Y240932D02*
Y241157D01*
Y239247D02*
Y239471D01*
Y255875D02*
Y256100D01*
Y254190D02*
Y254414D01*
Y320703D02*
Y320872D01*
Y319018D02*
Y319186D01*
Y220989D02*
Y221214D01*
Y219304D02*
Y219528D01*
Y280818D02*
Y281042D01*
Y279132D02*
Y279301D01*
Y235988D02*
Y236157D01*
Y234247D02*
Y234472D01*
Y330647D02*
Y330871D01*
Y328961D02*
Y329186D01*
Y275818D02*
Y276043D01*
Y274133D02*
Y274357D01*
Y355589D02*
Y355814D01*
Y353904D02*
Y354072D01*
Y260875D02*
Y261099D01*
Y259189D02*
Y259414D01*
Y186103D02*
Y186328D01*
Y184418D02*
Y184643D01*
Y350589D02*
Y350814D01*
Y348904D02*
Y349129D01*
Y295761D02*
Y295985D01*
Y294075D02*
Y294300D01*
Y191103D02*
Y191328D01*
Y189418D02*
Y189586D01*
Y335646D02*
Y335871D01*
Y333961D02*
Y334130D01*
Y325703D02*
Y325872D01*
Y323962D02*
Y324186D01*
Y270874D02*
Y271043D01*
Y269189D02*
Y269357D01*
Y225989D02*
Y226214D01*
Y224304D02*
Y224528D01*
Y230989D02*
Y231157D01*
Y229303D02*
Y229472D01*
Y265874D02*
Y266043D01*
Y264189D02*
Y264358D01*
Y250931D02*
Y251100D01*
Y249246D02*
Y249415D01*
Y340646D02*
Y340815D01*
Y338961D02*
Y339129D01*
Y245932D02*
Y246156D01*
Y244246D02*
Y244415D01*
Y300760D02*
Y300985D01*
Y299075D02*
Y299244D01*
Y176160D02*
Y176328D01*
Y174474D02*
Y174643D01*
Y345646D02*
Y345814D01*
Y343904D02*
Y344129D01*
Y181160D02*
Y181328D01*
Y179418D02*
Y179643D01*
Y196103D02*
Y196271D01*
Y194417D02*
Y194586D01*
Y315703D02*
Y315928D01*
Y314018D02*
Y314243D01*
X153473Y255875D02*
Y256100D01*
Y254190D02*
Y254414D01*
Y235988D02*
Y236157D01*
Y234247D02*
Y234472D01*
Y220989D02*
Y221214D01*
Y219304D02*
Y219528D01*
Y191103D02*
Y191328D01*
Y189418D02*
Y189586D01*
Y270874D02*
Y271043D01*
Y269189D02*
Y269357D01*
Y300760D02*
Y300985D01*
Y299075D02*
Y299244D01*
Y181160D02*
Y181328D01*
Y179418D02*
Y179643D01*
Y295761D02*
Y295985D01*
Y294075D02*
Y294300D01*
Y265874D02*
Y266043D01*
Y264189D02*
Y264358D01*
Y275818D02*
Y276043D01*
Y274133D02*
Y274357D01*
Y245932D02*
Y246156D01*
Y244246D02*
Y244415D01*
Y355589D02*
Y355814D01*
Y353904D02*
Y354072D01*
Y290817D02*
Y290986D01*
Y289076D02*
Y289300D01*
Y285817D02*
Y285986D01*
Y284132D02*
Y284301D01*
Y305760D02*
Y305929D01*
Y304075D02*
Y304243D01*
Y230989D02*
Y231157D01*
Y229303D02*
Y229472D01*
Y176160D02*
Y176328D01*
Y174474D02*
Y174643D01*
Y260875D02*
Y261099D01*
Y259189D02*
Y259414D01*
Y320703D02*
Y320872D01*
Y319018D02*
Y319186D01*
Y240932D02*
Y241157D01*
Y239247D02*
Y239471D01*
Y225989D02*
Y226214D01*
Y224304D02*
Y224528D01*
Y325703D02*
Y325872D01*
Y323962D02*
Y324186D01*
Y340646D02*
Y340815D01*
Y338961D02*
Y339129D01*
Y335646D02*
Y335871D01*
Y333961D02*
Y334130D01*
Y250931D02*
Y251100D01*
Y249246D02*
Y249415D01*
Y315703D02*
Y315928D01*
Y314018D02*
Y314243D01*
Y280818D02*
Y281042D01*
Y279132D02*
Y279301D01*
Y186103D02*
Y186328D01*
Y184418D02*
Y184643D01*
Y196103D02*
Y196271D01*
Y194417D02*
Y194586D01*
Y310704D02*
Y310928D01*
Y309018D02*
Y309243D01*
Y330647D02*
Y330871D01*
Y328961D02*
Y329186D01*
Y345646D02*
Y345814D01*
Y343904D02*
Y344129D01*
Y350589D02*
Y350814D01*
Y348904D02*
Y349129D01*
X153979Y335646D02*
Y335871D01*
Y333961D02*
Y334130D01*
Y196103D02*
Y196271D01*
Y194417D02*
Y194586D01*
Y230989D02*
Y231157D01*
Y229303D02*
Y229472D01*
Y235988D02*
Y236157D01*
Y234247D02*
Y234472D01*
Y225989D02*
Y226214D01*
Y224304D02*
Y224528D01*
Y220989D02*
Y221214D01*
Y219304D02*
Y219528D01*
Y265874D02*
Y266043D01*
Y264189D02*
Y264358D01*
Y245932D02*
Y246156D01*
Y244246D02*
Y244415D01*
Y355589D02*
Y355814D01*
Y353904D02*
Y354072D01*
Y340646D02*
Y340815D01*
Y338961D02*
Y339129D01*
Y260875D02*
Y261099D01*
Y259189D02*
Y259414D01*
Y186103D02*
Y186328D01*
Y184418D02*
Y184643D01*
Y280818D02*
Y281042D01*
Y279132D02*
Y279301D01*
Y315703D02*
Y315928D01*
Y314018D02*
Y314243D01*
Y176160D02*
Y176328D01*
Y174474D02*
Y174643D01*
Y191103D02*
Y191328D01*
Y189418D02*
Y189586D01*
Y325703D02*
Y325872D01*
Y323962D02*
Y324186D01*
Y250931D02*
Y251100D01*
Y249246D02*
Y249415D01*
Y310704D02*
Y310928D01*
Y309018D02*
Y309243D01*
Y350589D02*
Y350814D01*
Y348904D02*
Y349129D01*
Y305760D02*
Y305929D01*
Y304075D02*
Y304243D01*
Y181160D02*
Y181328D01*
Y179418D02*
Y179643D01*
Y330647D02*
Y330871D01*
Y328961D02*
Y329186D01*
Y320703D02*
Y320872D01*
Y319018D02*
Y319186D01*
Y270874D02*
Y271043D01*
Y269189D02*
Y269357D01*
Y285817D02*
Y285986D01*
Y284132D02*
Y284301D01*
Y240932D02*
Y241157D01*
Y239247D02*
Y239471D01*
Y255875D02*
Y256100D01*
Y254190D02*
Y254414D01*
Y295761D02*
Y295985D01*
Y294075D02*
Y294300D01*
Y345646D02*
Y345814D01*
Y343904D02*
Y344129D01*
Y300760D02*
Y300985D01*
Y299075D02*
Y299244D01*
Y275818D02*
Y276043D01*
Y274133D02*
Y274357D01*
Y290817D02*
Y290986D01*
Y289076D02*
Y289300D01*
X135890Y163351D02*
Y167509D01*
Y362724D02*
Y366881D01*
X133811Y165430D02*
X137969D01*
X133811Y364802D02*
X137969D01*
X118475Y156217D02*
Y374015D01*
X125104Y156217D02*
Y374015D01*
D91*
X123311Y255430D02*
X128390D01*
X123311D02*
X128390Y258816D01*
X123311D02*
X128390D01*
X124520Y263846D02*
X124037Y263605D01*
X123553Y263121D01*
X123311Y262637D01*
Y261670D01*
X123553Y261186D01*
X124037Y260702D01*
X124520Y260461D01*
X125246Y260219D01*
X126455D01*
X127181Y260461D01*
X127664Y260702D01*
X128148Y261186D01*
X128390Y261670D01*
Y262637D01*
X128148Y263121D01*
X127664Y263605D01*
X127181Y263846D01*
X126455D01*
Y262637D02*
Y263846D01*
X123311Y265007D02*
X128390D01*
X123311D02*
Y268151D01*
X125730Y265007D02*
Y266942D01*
X123311Y268732D02*
X128390D01*
X123311D02*
Y271876D01*
X125730Y268732D02*
Y270667D01*
X126213Y272456D02*
Y276810D01*
X124037Y281211D02*
X123553Y280970D01*
X123311Y280244D01*
Y279760D01*
X123553Y279035D01*
X124278Y278551D01*
X125488Y278309D01*
X126697D01*
X127664Y278551D01*
X128148Y279035D01*
X128390Y279760D01*
Y280002D01*
X128148Y280728D01*
X127664Y281211D01*
X126939Y281453D01*
X126697D01*
X125971Y281211D01*
X125488Y280728D01*
X125246Y280002D01*
Y279760D01*
X125488Y279035D01*
X125971Y278551D01*
X126697Y278309D01*
X123311Y285952D02*
X128390Y283533D01*
X123311Y282566D02*
Y285952D01*
X125971Y287089D02*
Y289265D01*
X125730Y289991D01*
X125488Y290233D01*
X125004Y290474D01*
X124278D01*
X123795Y290233D01*
X123553Y289991D01*
X123311Y289265D01*
Y287089D01*
X128390D01*
X130083Y291611D02*
Y295481D01*
X123311Y296134D02*
X128390D01*
X123311D02*
Y298311D01*
X123553Y299036D01*
X123795Y299278D01*
X124278Y299520D01*
X124762D01*
X125246Y299278D01*
X125488Y299036D01*
X125730Y298311D01*
Y296134D02*
Y298311D01*
X125971Y299036D01*
X126213Y299278D01*
X126697Y299520D01*
X127423D01*
X127906Y299278D01*
X128148Y299036D01*
X128390Y298311D01*
Y296134D01*
M02*
