G04*
G04 #@! TF.GenerationSoftware,Altium Limited,Altium Designer,22.7.1 (60)*
G04*
G04 Layer_Color=32768*
%FSLAX44Y44*%
%MOMM*%
G71*
G04*
G04 #@! TF.SameCoordinates,BBA0BEE0-45CE-4415-A0BC-CE460DC89FB0*
G04*
G04*
G04 #@! TF.FilePolarity,Positive*
G04*
G01*
G75*
%ADD92C,0.1000*%
%ADD94C,0.0500*%
D92*
X109220Y256330D02*
Y261830D01*
X106470Y259080D02*
X111970D01*
X96970Y264580D02*
X121470D01*
X96970Y253580D02*
X121470D01*
Y264580D01*
X96970Y253580D02*
Y264580D01*
X109220Y269030D02*
Y274530D01*
X106470Y271780D02*
X111970D01*
X96970Y277280D02*
X121470D01*
X96970Y266280D02*
X121470D01*
Y277280D01*
X96970Y266280D02*
Y277280D01*
X41344Y361784D02*
Y372784D01*
X65844Y361784D02*
Y372784D01*
X41344D02*
X65844D01*
X41344Y361784D02*
X65844D01*
X50844Y367284D02*
X56344D01*
X53594Y364534D02*
Y370034D01*
X332290Y47840D02*
Y58840D01*
X307790Y47840D02*
Y58840D01*
Y47840D02*
X332290D01*
X307790Y58840D02*
X332290D01*
X317290Y53340D02*
X322790D01*
X320040Y50590D02*
Y56090D01*
X200600Y55880D02*
X205800D01*
X203200Y53280D02*
Y58480D01*
X78740Y142180D02*
Y147380D01*
X76140Y144780D02*
X81340D01*
X293820Y149440D02*
Y160440D01*
X318320Y149440D02*
Y160440D01*
X293820D02*
X318320D01*
X293820Y149440D02*
X318320D01*
X303320Y154940D02*
X308820D01*
X306070Y152190D02*
Y157690D01*
X28390Y215480D02*
Y226480D01*
X52890Y215480D02*
Y226480D01*
X28390D02*
X52890D01*
X28390Y215480D02*
X52890D01*
X37890Y220980D02*
X43390D01*
X40640Y218230D02*
Y223730D01*
X2120Y216350D02*
X13120D01*
X2120Y240850D02*
X13120D01*
X2120Y216350D02*
Y240850D01*
X13120Y216350D02*
Y240850D01*
X7620Y225850D02*
Y231350D01*
X4870Y228600D02*
X10370D01*
X28390Y228180D02*
Y239180D01*
X52890Y228180D02*
Y239180D01*
X28390D02*
X52890D01*
X28390Y228180D02*
X52890D01*
X37890Y233680D02*
X43390D01*
X40640Y230930D02*
Y236430D01*
X14820Y216350D02*
X25820D01*
X14820Y240850D02*
X25820D01*
X14820Y216350D02*
Y240850D01*
X25820Y216350D02*
Y240850D01*
X20320Y225850D02*
Y231350D01*
X17570Y228600D02*
X23070D01*
X25400Y350460D02*
Y355660D01*
X22800Y353060D02*
X28000D01*
X295910Y205680D02*
Y210880D01*
X293310Y208280D02*
X298510D01*
X174840Y36010D02*
X185840D01*
X174840Y60510D02*
X185840D01*
X174840Y36010D02*
Y60510D01*
X185840Y36010D02*
Y60510D01*
X180340Y45510D02*
Y51010D01*
X177590Y48260D02*
X183090D01*
X174840Y8070D02*
X185840D01*
X174840Y32570D02*
X185840D01*
X174840Y8070D02*
Y32570D01*
X185840Y8070D02*
Y32570D01*
X180340Y17570D02*
Y23070D01*
X177590Y20320D02*
X183090D01*
D94*
X209860Y38310D02*
X369260D01*
Y7410D02*
Y38310D01*
X209860Y7410D02*
X369260D01*
X209860D02*
Y38310D01*
X289560Y17860D02*
Y27860D01*
X284560Y22860D02*
X294560D01*
X232900Y112300D02*
X275100D01*
X232900Y106300D02*
Y112300D01*
X211500Y106300D02*
X232900D01*
X211500Y46100D02*
Y106300D01*
Y46100D02*
X232900D01*
Y40100D02*
Y46100D01*
Y40100D02*
X275100D01*
Y57500D01*
X296500D01*
Y94900D01*
X275100D02*
X296500D01*
X275100D02*
Y112300D01*
X70970Y250D02*
Y89450D01*
X172870D01*
Y250D02*
Y89450D01*
X70970Y250D02*
X172870D01*
X261700Y133350D02*
X271700D01*
X266700Y128350D02*
Y138350D01*
X187000Y117900D02*
Y148800D01*
Y117900D02*
X346400D01*
Y148800D01*
X187000D02*
X346400D01*
X198200Y46380D02*
Y65380D01*
X208200Y46380D02*
Y65380D01*
X198200Y46380D02*
X208200D01*
X198200Y65380D02*
X208200D01*
X69240Y149780D02*
X88240D01*
X69240Y139780D02*
X88240D01*
X69240D02*
Y149780D01*
X88240Y139780D02*
Y149780D01*
X15900Y348060D02*
X34900D01*
X15900Y358060D02*
X34900D01*
Y348060D02*
Y358060D01*
X15900Y348060D02*
Y358060D01*
X286410Y203280D02*
X305410D01*
X286410Y213280D02*
X305410D01*
Y203280D02*
Y213280D01*
X286410Y203280D02*
Y213280D01*
M02*
