G04*
G04 #@! TF.GenerationSoftware,Altium Limited,Altium Designer,22.7.1 (60)*
G04*
G04 Layer_Physical_Order=1*
G04 Layer_Color=255*
%FSLAX44Y44*%
%MOMM*%
G71*
G04*
G04 #@! TF.SameCoordinates,BBA0BEE0-45CE-4415-A0BC-CE460DC89FB0*
G04*
G04*
G04 #@! TF.FilePolarity,Positive*
G04*
G01*
G75*
%ADD11C,0.2540*%
%ADD15C,0.1270*%
%ADD16C,0.1524*%
%ADD20C,0.0889*%
G04:AMPARAMS|DCode=21|XSize=0.762mm|YSize=0.5588mm|CornerRadius=0.1397mm|HoleSize=0mm|Usage=FLASHONLY|Rotation=270.000|XOffset=0mm|YOffset=0mm|HoleType=Round|Shape=RoundedRectangle|*
%AMROUNDEDRECTD21*
21,1,0.7620,0.2794,0,0,270.0*
21,1,0.4826,0.5588,0,0,270.0*
1,1,0.2794,-0.1397,-0.2413*
1,1,0.2794,-0.1397,0.2413*
1,1,0.2794,0.1397,0.2413*
1,1,0.2794,0.1397,-0.2413*
%
%ADD21ROUNDEDRECTD21*%
G04:AMPARAMS|DCode=22|XSize=1.27mm|YSize=1.3716mm|CornerRadius=0.3175mm|HoleSize=0mm|Usage=FLASHONLY|Rotation=270.000|XOffset=0mm|YOffset=0mm|HoleType=Round|Shape=RoundedRectangle|*
%AMROUNDEDRECTD22*
21,1,1.2700,0.7366,0,0,270.0*
21,1,0.6350,1.3716,0,0,270.0*
1,1,0.6350,-0.3683,-0.3175*
1,1,0.6350,-0.3683,0.3175*
1,1,0.6350,0.3683,0.3175*
1,1,0.6350,0.3683,-0.3175*
%
%ADD22ROUNDEDRECTD22*%
G04:AMPARAMS|DCode=23|XSize=0.93mm|YSize=1.31mm|CornerRadius=0.0698mm|HoleSize=0mm|Usage=FLASHONLY|Rotation=270.000|XOffset=0mm|YOffset=0mm|HoleType=Round|Shape=RoundedRectangle|*
%AMROUNDEDRECTD23*
21,1,0.9300,1.1705,0,0,270.0*
21,1,0.7905,1.3100,0,0,270.0*
1,1,0.1395,-0.5853,-0.3953*
1,1,0.1395,-0.5853,0.3953*
1,1,0.1395,0.5853,0.3953*
1,1,0.1395,0.5853,-0.3953*
%
%ADD23ROUNDEDRECTD23*%
G04:AMPARAMS|DCode=24|XSize=3.24mm|YSize=1.31mm|CornerRadius=0.0983mm|HoleSize=0mm|Usage=FLASHONLY|Rotation=270.000|XOffset=0mm|YOffset=0mm|HoleType=Round|Shape=RoundedRectangle|*
%AMROUNDEDRECTD24*
21,1,3.2400,1.1135,0,0,270.0*
21,1,3.0435,1.3100,0,0,270.0*
1,1,0.1965,-0.5568,-1.5218*
1,1,0.1965,-0.5568,1.5218*
1,1,0.1965,0.5568,1.5218*
1,1,0.1965,0.5568,-1.5218*
%
%ADD24ROUNDEDRECTD24*%
%ADD25R,0.6000X1.4500*%
%ADD26R,0.3000X1.4500*%
%ADD27R,2.0000X0.2500*%
%ADD28R,1.5500X0.3000*%
G04:AMPARAMS|DCode=29|XSize=0.5588mm|YSize=1.524mm|CornerRadius=0.1397mm|HoleSize=0mm|Usage=FLASHONLY|Rotation=270.000|XOffset=0mm|YOffset=0mm|HoleType=Round|Shape=RoundedRectangle|*
%AMROUNDEDRECTD29*
21,1,0.5588,1.2446,0,0,270.0*
21,1,0.2794,1.5240,0,0,270.0*
1,1,0.2794,-0.6223,-0.1397*
1,1,0.2794,-0.6223,0.1397*
1,1,0.2794,0.6223,0.1397*
1,1,0.2794,0.6223,-0.1397*
%
%ADD29ROUNDEDRECTD29*%
G04:AMPARAMS|DCode=30|XSize=0.6096mm|YSize=1.524mm|CornerRadius=0.1524mm|HoleSize=0mm|Usage=FLASHONLY|Rotation=270.000|XOffset=0mm|YOffset=0mm|HoleType=Round|Shape=RoundedRectangle|*
%AMROUNDEDRECTD30*
21,1,0.6096,1.2192,0,0,270.0*
21,1,0.3048,1.5240,0,0,270.0*
1,1,0.3048,-0.6096,-0.1524*
1,1,0.3048,-0.6096,0.1524*
1,1,0.3048,0.6096,0.1524*
1,1,0.3048,0.6096,-0.1524*
%
%ADD30ROUNDEDRECTD30*%
%ADD31R,0.7000X1.3000*%
%ADD32R,1.4478X1.6510*%
%ADD33R,1.4478X2.4384*%
%ADD34R,1.8542X1.6510*%
%ADD35R,2.7500X1.2000*%
G04:AMPARAMS|DCode=36|XSize=1.5744mm|YSize=0.5758mm|CornerRadius=0.2879mm|HoleSize=0mm|Usage=FLASHONLY|Rotation=270.000|XOffset=0mm|YOffset=0mm|HoleType=Round|Shape=RoundedRectangle|*
%AMROUNDEDRECTD36*
21,1,1.5744,0.0000,0,0,270.0*
21,1,0.9985,0.5758,0,0,270.0*
1,1,0.5758,0.0000,-0.4993*
1,1,0.5758,0.0000,0.4993*
1,1,0.5758,0.0000,0.4993*
1,1,0.5758,0.0000,-0.4993*
%
%ADD36ROUNDEDRECTD36*%
%ADD37R,0.5758X1.5744*%
%ADD38R,0.7500X0.6000*%
%ADD39R,0.6400X0.6000*%
%ADD40R,0.6000X0.6400*%
%ADD41R,0.6000X0.7500*%
%ADD70C,0.3810*%
%ADD71C,0.8890*%
%ADD72C,0.2175*%
%ADD73C,0.3513*%
%ADD74C,0.5080*%
%ADD75C,0.7620*%
%ADD76C,1.0160*%
%ADD77C,0.1574*%
%ADD78C,1.6000*%
%ADD79R,1.6000X1.6000*%
%ADD80C,0.7000*%
%ADD81O,1.0500X2.1000*%
%ADD82C,5.0000*%
%ADD83C,1.0000*%
%ADD84C,1.1001*%
%ADD85C,1.6000*%
%ADD86C,0.4500*%
%ADD87C,0.6700*%
G36*
X357440Y375204D02*
X363513Y373577D01*
X369322Y371171D01*
X374766Y368027D01*
X379754Y364200D01*
X384200Y359754D01*
X388027Y354766D01*
X391171Y349322D01*
X393577Y343513D01*
X395204Y337440D01*
X396024Y331207D01*
Y328064D01*
Y267157D01*
X394759Y267147D01*
X394112Y271231D01*
X392834Y275164D01*
X390957Y278848D01*
X388526Y282194D01*
X387513Y283207D01*
X369387Y265080D01*
X387513Y246953D01*
X388526Y247966D01*
X390957Y251311D01*
X392834Y254996D01*
X394112Y258928D01*
X394759Y263012D01*
X396024Y263002D01*
X396025Y50064D01*
Y46920D01*
X395204Y40687D01*
X393577Y34614D01*
X391171Y28805D01*
X388027Y23361D01*
X384200Y18373D01*
X379754Y13927D01*
X374766Y10100D01*
X369322Y6956D01*
X363513Y4550D01*
X357440Y2923D01*
X351207Y2103D01*
X46920D01*
X40687Y2923D01*
X34614Y4550D01*
X28805Y6956D01*
X23361Y10100D01*
X18373Y13927D01*
X13927Y18373D01*
X10100Y23361D01*
X6956Y28805D01*
X4550Y34614D01*
X2923Y40687D01*
X2103Y46920D01*
Y50064D01*
X2103Y216044D01*
X3373Y217100D01*
X6074D01*
X10611Y212563D01*
Y202184D01*
X10963Y200413D01*
X11967Y198911D01*
X13469Y197907D01*
X15240Y197555D01*
X17011Y197907D01*
X18513Y198911D01*
X19517Y200413D01*
X19869Y202184D01*
Y214480D01*
X19869Y214480D01*
X19869Y214480D01*
Y215103D01*
X21171Y216405D01*
X21440Y216351D01*
X29140D01*
Y215980D01*
X52140D01*
Y215980D01*
X53134Y216392D01*
X65548Y203978D01*
X66356Y203437D01*
X67310Y203248D01*
X123190D01*
X124144Y203437D01*
X124952Y203978D01*
X141462Y220488D01*
X142003Y221296D01*
X142192Y222250D01*
Y231378D01*
X143752Y232938D01*
X148890D01*
Y226930D01*
Y216930D01*
X156989D01*
X157431Y216635D01*
X158897Y216343D01*
X164780D01*
X164994Y216201D01*
X166460Y215909D01*
X171968D01*
X172317Y215287D01*
X172432Y214639D01*
X156723Y198930D01*
X148890D01*
Y191930D01*
Y181930D01*
Y171930D01*
X152266D01*
Y144484D01*
X152082Y144361D01*
X151004Y142748D01*
X150625Y140844D01*
Y130859D01*
X151004Y128955D01*
X152082Y127341D01*
X152695Y126932D01*
X152819Y125668D01*
X151135Y123984D01*
X140951D01*
X140463Y124715D01*
X139297Y125493D01*
X137922Y125767D01*
X127307D01*
X122093Y130982D01*
X122093Y130982D01*
X122092Y130983D01*
X121681Y131258D01*
X121431Y131424D01*
X121431Y131424D01*
X121431Y131425D01*
X121020Y131506D01*
X120651Y131580D01*
X120651Y131580D01*
X120651Y131580D01*
X95250Y131579D01*
X94469Y131424D01*
X93808Y130982D01*
X93808Y130982D01*
X89998Y127172D01*
X89778Y126843D01*
X89556Y126510D01*
X89556Y126510D01*
X89556Y126510D01*
X89485Y126153D01*
X89401Y125730D01*
X89400Y120839D01*
X81153Y112591D01*
X75057D01*
X73038Y112190D01*
X71326Y111046D01*
X70670Y110064D01*
X63414D01*
X57529Y115949D01*
X55607Y117233D01*
X53340Y117684D01*
X51073Y117233D01*
X49151Y115949D01*
X47867Y114027D01*
X47416Y111760D01*
X47867Y109493D01*
X49151Y107571D01*
X56771Y99951D01*
X58693Y98667D01*
X60960Y98216D01*
X70670D01*
X71326Y97234D01*
X73038Y96090D01*
X75057Y95689D01*
X82423D01*
X84442Y96090D01*
X86154Y97234D01*
X87298Y98946D01*
X87699Y100965D01*
Y106045D01*
X92890Y111236D01*
X93808Y110317D01*
X93808Y110317D01*
X94221Y110042D01*
X94469Y109875D01*
X95250Y109720D01*
X120651Y109721D01*
X121431Y109876D01*
X122092Y110318D01*
X122092Y110319D01*
X127307Y115533D01*
X137922D01*
X139297Y115807D01*
X140463Y116585D01*
X140951Y117316D01*
X152516D01*
X153792Y117570D01*
X154874Y118293D01*
X158855Y122274D01*
X160125Y121748D01*
Y113156D01*
X160504Y111252D01*
X161582Y109639D01*
X163196Y108560D01*
X165100Y108181D01*
X167004Y108560D01*
X168618Y109639D01*
X169696Y111252D01*
X170075Y113156D01*
Y114219D01*
X171345Y114745D01*
X171583Y114507D01*
X173145Y113860D01*
X174835D01*
X176397Y114507D01*
X177593Y115703D01*
X178240Y117265D01*
Y118955D01*
X177593Y120517D01*
X176397Y121713D01*
X174835Y122360D01*
X173145D01*
X171583Y121713D01*
X171345Y121475D01*
X170075Y122001D01*
Y123141D01*
X169776Y124646D01*
X170526Y125915D01*
X172991D01*
X173313Y125980D01*
X179479D01*
Y145723D01*
X169721D01*
Y132584D01*
X161116D01*
X160575Y133028D01*
Y140844D01*
X160196Y142748D01*
X159118Y144361D01*
X158934Y144484D01*
Y171930D01*
X168390D01*
Y177454D01*
X177474D01*
X178940Y177745D01*
X180183Y178576D01*
X189547Y187940D01*
X220980D01*
X222446Y188231D01*
X223688Y189062D01*
X231457Y196830D01*
X313690D01*
X315156Y197121D01*
X316398Y197952D01*
X329122Y210676D01*
X329953Y211918D01*
X330244Y213384D01*
Y214402D01*
X332822D01*
Y219918D01*
X332997Y221115D01*
X334092Y221115D01*
X340871D01*
Y230640D01*
Y240165D01*
X332997D01*
Y232600D01*
X332822Y231402D01*
X331727Y231402D01*
X323092D01*
X321822Y231402D01*
Y231402D01*
X321822D01*
Y231402D01*
X318409D01*
Y239141D01*
X318117Y240607D01*
X317287Y241850D01*
X301473Y257663D01*
X301731Y258616D01*
X301955Y258933D01*
X326898D01*
X327926Y259138D01*
X328798Y259720D01*
X329380Y260592D01*
X329585Y261620D01*
Y285242D01*
X329380Y286270D01*
X328798Y287142D01*
X327926Y287724D01*
X326898Y287929D01*
X227330D01*
X226302Y287724D01*
X225430Y287142D01*
X224848Y286270D01*
X224643Y285242D01*
Y261620D01*
X224848Y260592D01*
X225044Y260298D01*
X224365Y259028D01*
X183824D01*
X182358Y258737D01*
X181116Y257906D01*
X178232Y255023D01*
X176862Y255246D01*
X176799Y255364D01*
X176747Y256335D01*
X176831Y256419D01*
X177478Y257981D01*
Y259671D01*
X176831Y261233D01*
X175635Y262429D01*
X174073Y263076D01*
X172383D01*
X170821Y262429D01*
X169660Y261268D01*
X169470Y261276D01*
X168390Y261571D01*
Y271930D01*
Y281930D01*
Y291132D01*
X193278D01*
X199829Y284580D01*
X199597Y284347D01*
X198950Y282785D01*
Y281095D01*
X199597Y279533D01*
X200793Y278337D01*
X202355Y277690D01*
X204045D01*
X205607Y278337D01*
X206803Y279533D01*
X207450Y281095D01*
Y282785D01*
X206803Y284347D01*
X205607Y285543D01*
X205308Y285667D01*
X205255Y285936D01*
X204715Y286744D01*
X204148Y287311D01*
X204868Y288387D01*
X206165Y287850D01*
X207855D01*
X209417Y288497D01*
X210613Y289693D01*
X211260Y291255D01*
Y292945D01*
X210613Y294507D01*
X209417Y295703D01*
X207855Y296350D01*
X206285D01*
X202422Y300212D01*
X201614Y300753D01*
X200660Y300942D01*
X176756D01*
X175907Y302212D01*
X176208Y302939D01*
Y304629D01*
X177273Y305376D01*
X177883D01*
X179445Y306023D01*
X180641Y307219D01*
X181288Y308781D01*
Y310471D01*
X180641Y312033D01*
X179766Y312908D01*
X180220Y314178D01*
X182623D01*
Y327005D01*
X174749D01*
Y326443D01*
X173479Y325683D01*
X172549Y326068D01*
X170859D01*
X169660Y325572D01*
X168390Y326174D01*
Y331930D01*
Y341930D01*
Y354464D01*
X169977Y356051D01*
X208280D01*
X210051Y356403D01*
X211553Y357407D01*
X212557Y358909D01*
X212909Y360680D01*
X212557Y362451D01*
X211553Y363953D01*
X210051Y364957D01*
X208280Y365309D01*
X168060D01*
X168060Y365309D01*
X166289Y364957D01*
X164787Y363953D01*
X164787Y363953D01*
X160893Y360059D01*
X158640D01*
X156869Y359707D01*
X155706Y358930D01*
X148890D01*
Y351930D01*
Y341930D01*
Y331930D01*
Y321930D01*
Y311930D01*
Y303471D01*
X147620Y302945D01*
X142192Y308372D01*
Y326475D01*
X143303Y327586D01*
X143950Y329148D01*
Y330839D01*
X143303Y332401D01*
X142107Y333596D01*
X140545Y334243D01*
X138855D01*
X137293Y333596D01*
X136097Y332401D01*
X135450Y330839D01*
Y329148D01*
X136097Y327586D01*
X137208Y326475D01*
Y307340D01*
X137397Y306386D01*
X137938Y305578D01*
X148792Y294723D01*
X148890Y294658D01*
Y281930D01*
Y270706D01*
X147620Y270180D01*
X140170Y277629D01*
X140057Y277705D01*
X122731Y295031D01*
X123376Y296589D01*
Y298279D01*
X122729Y299841D01*
X121533Y301037D01*
X119971Y301684D01*
X118281D01*
X116719Y301037D01*
X115523Y299841D01*
X114876Y298279D01*
Y296589D01*
X115523Y295027D01*
X116719Y293831D01*
X116724Y293829D01*
X116836Y293264D01*
X117447Y292350D01*
X136151Y273647D01*
X136264Y273571D01*
X143960Y265875D01*
Y264450D01*
X144174Y263372D01*
X144785Y262459D01*
X146810Y260434D01*
X146324Y259260D01*
X136050D01*
X134584Y258969D01*
X133342Y258138D01*
X126832Y251628D01*
X126001Y250386D01*
X125710Y248920D01*
Y227647D01*
X117794Y219730D01*
X92890D01*
Y229430D01*
Y239430D01*
Y249430D01*
Y257653D01*
X94160Y258501D01*
X94659Y258295D01*
X96349D01*
X97911Y258942D01*
X99107Y260138D01*
X99754Y261700D01*
Y263390D01*
X99107Y264952D01*
X98629Y265430D01*
X99107Y265908D01*
X99754Y267470D01*
Y269160D01*
X99107Y270722D01*
X97911Y271918D01*
X96349Y272565D01*
X94659D01*
X93430Y272056D01*
X92459Y272503D01*
X92160Y272778D01*
Y274430D01*
X92890D01*
Y286430D01*
X92160D01*
Y287295D01*
X83140D01*
Y288565D01*
X92160D01*
Y289430D01*
X92890D01*
Y301430D01*
X92160D01*
Y302295D01*
X83140D01*
Y303565D01*
X92160D01*
Y304430D01*
X92890D01*
Y316430D01*
X92160D01*
Y317295D01*
X74120D01*
Y316430D01*
X73390D01*
Y314919D01*
X68322D01*
Y316152D01*
X67592D01*
Y317267D01*
X45052D01*
Y316152D01*
X44322D01*
Y304652D01*
X45052D01*
Y303537D01*
X56322D01*
Y302267D01*
X45052D01*
Y301152D01*
X44322D01*
Y289652D01*
X45052D01*
Y288537D01*
X56322D01*
Y287267D01*
X45052D01*
Y286152D01*
X44322D01*
Y274652D01*
X45052D01*
Y273537D01*
X56322D01*
Y272267D01*
X45052D01*
Y271152D01*
X44322D01*
Y264652D01*
X54424D01*
X54856Y264363D01*
X56322Y264072D01*
X60735D01*
Y261259D01*
X60735Y261256D01*
Y254886D01*
X60735Y254883D01*
Y234146D01*
X59465Y233620D01*
X57642Y235442D01*
X56834Y235983D01*
X55880Y236172D01*
X52140D01*
Y238680D01*
X48882D01*
Y255870D01*
X48693Y256824D01*
X48152Y257632D01*
X40592Y265192D01*
Y308610D01*
X40403Y309564D01*
X39862Y310372D01*
X37341Y312894D01*
X37416Y314615D01*
X37893Y315093D01*
X38540Y316655D01*
Y318345D01*
X37893Y319907D01*
X36697Y321103D01*
X35135Y321750D01*
X33445D01*
X31883Y321103D01*
X30772Y319992D01*
X28322D01*
Y326152D01*
X26032D01*
X25780Y327422D01*
X26853Y327867D01*
X28358Y329371D01*
X29172Y331338D01*
Y333466D01*
X28358Y335433D01*
X26853Y336937D01*
X24886Y337752D01*
X22758D01*
X20791Y336937D01*
X20712Y336857D01*
X19490Y337432D01*
Y338665D01*
X19291Y339146D01*
Y342844D01*
X19490Y343325D01*
Y345004D01*
X22346Y347860D01*
X26000D01*
Y348590D01*
X29165D01*
Y353060D01*
Y357530D01*
X26000D01*
Y358260D01*
X16000D01*
Y354606D01*
X11389Y349995D01*
X10385Y348493D01*
X10033Y346722D01*
X10033Y346722D01*
Y326152D01*
X4322D01*
Y319652D01*
Y309916D01*
X3747Y309532D01*
X3276Y309061D01*
X2103Y309547D01*
Y328064D01*
Y331207D01*
X2923Y337440D01*
X4550Y343513D01*
X6956Y349322D01*
X10100Y354766D01*
X13927Y359754D01*
X18373Y364200D01*
X23361Y368027D01*
X28805Y371171D01*
X34614Y373577D01*
X40687Y375204D01*
X46920Y376024D01*
X75140D01*
Y361430D01*
X73390D01*
Y349430D01*
Y339430D01*
Y329430D01*
Y319430D01*
X74120D01*
Y318565D01*
X92160D01*
Y319430D01*
X92890D01*
Y329430D01*
Y339430D01*
Y349430D01*
Y360930D01*
X106640D01*
Y376024D01*
X131885D01*
X132052Y374754D01*
X132030Y374749D01*
X129750Y373432D01*
X127888Y371570D01*
X126572Y369290D01*
X125890Y366747D01*
Y364114D01*
X126572Y361570D01*
X127888Y359290D01*
X129750Y357428D01*
X132030Y356112D01*
X134573Y355430D01*
X137206D01*
X139750Y356112D01*
X142030Y357428D01*
X143892Y359290D01*
X145209Y361570D01*
X145890Y364114D01*
Y366747D01*
X145209Y369290D01*
X143892Y371570D01*
X142030Y373432D01*
X139750Y374749D01*
X139728Y374754D01*
X139895Y376024D01*
X351207D01*
X357440Y375204D01*
D02*
G37*
G36*
X29146Y267793D02*
Y262440D01*
X27876Y261914D01*
X26853Y262938D01*
X24886Y263752D01*
X22758D01*
X20791Y262938D01*
X19287Y261432D01*
X18472Y259466D01*
Y257338D01*
X19287Y255371D01*
X20791Y253867D01*
X22758Y253052D01*
X24886D01*
X26853Y253867D01*
X27937Y254951D01*
X29304Y254590D01*
X29336Y254428D01*
X29876Y253619D01*
X30040Y253455D01*
Y252005D01*
X18710Y240675D01*
X18326Y240100D01*
X15320D01*
Y227479D01*
X12620D01*
Y240100D01*
X5395D01*
X5000Y240494D01*
Y247464D01*
X6687D01*
X8249Y248111D01*
X9445Y249307D01*
X10092Y250869D01*
Y252559D01*
X9445Y254121D01*
X8249Y255317D01*
X6687Y255964D01*
X5000D01*
Y264133D01*
X5052Y265382D01*
X15687D01*
Y267902D01*
X16322D01*
Y268537D01*
X27592D01*
Y268561D01*
X27876Y268669D01*
X29146Y267793D01*
D02*
G37*
G36*
X148890Y242922D02*
X142640D01*
X141686Y242733D01*
X140878Y242192D01*
X134640Y235955D01*
X133370Y236481D01*
Y247334D01*
X137637Y251600D01*
X148890D01*
Y242922D01*
D02*
G37*
G36*
X301492Y235382D02*
Y232300D01*
X300594Y231402D01*
X299822Y231402D01*
X298854Y230672D01*
X298552Y230672D01*
X294957D01*
Y222902D01*
X293687D01*
Y230672D01*
X289790Y230672D01*
X288822Y231402D01*
X288584Y231402D01*
X282232D01*
X282198Y231418D01*
X281289Y232672D01*
X281489Y233680D01*
X281137Y235451D01*
X280133Y236953D01*
X278631Y237957D01*
X276860Y238309D01*
X276860Y238309D01*
X271780D01*
X270009Y237957D01*
X268507Y236953D01*
X267503Y235451D01*
X267151Y233680D01*
Y232536D01*
X266822Y231402D01*
X263572D01*
Y231748D01*
X263281Y233214D01*
X262450Y234457D01*
X255438Y241468D01*
X254196Y242299D01*
X252730Y242590D01*
X213360D01*
X211894Y242299D01*
X210652Y241468D01*
X202722Y233539D01*
X201549Y234025D01*
Y240165D01*
X191643D01*
Y230640D01*
X190373D01*
Y240165D01*
X186281D01*
X185795Y241338D01*
X191096Y246639D01*
X290235D01*
X301492Y235382D01*
D02*
G37*
G36*
X127000Y123189D02*
X126999Y118109D01*
X120650Y111760D01*
X95250Y111759D01*
X91439Y115570D01*
X91440Y125730D01*
X95250Y129540D01*
X120651Y129541D01*
X127000Y123189D01*
D02*
G37*
%LPC*%
G36*
X65094Y372284D02*
X42094D01*
Y362284D01*
X44256D01*
Y359685D01*
X42998Y359435D01*
X41874Y358684D01*
X41123Y357560D01*
X40859Y356235D01*
Y351409D01*
X41123Y350084D01*
X41874Y348960D01*
X42998Y348209D01*
X44323Y347946D01*
X47117D01*
X48442Y348209D01*
X49566Y348960D01*
X50317Y350084D01*
X50581Y351409D01*
Y351650D01*
X50670Y351784D01*
X50924Y353060D01*
Y362284D01*
X65094D01*
Y363218D01*
X66364Y363744D01*
X66681Y363427D01*
X68243Y362780D01*
X69933D01*
X71495Y363427D01*
X72691Y364623D01*
X73338Y366185D01*
Y367875D01*
X72691Y369437D01*
X71495Y370633D01*
X69933Y371280D01*
X68243D01*
X66681Y370633D01*
X66364Y370316D01*
X65094Y370842D01*
Y372284D01*
D02*
G37*
G36*
X68155Y360612D02*
X66465D01*
X64903Y359965D01*
X64096Y359159D01*
X63682Y359435D01*
X62357Y359698D01*
X59563D01*
X58238Y359435D01*
X57114Y358684D01*
X56363Y357560D01*
X56139Y356435D01*
X55412Y355346D01*
X55108Y353822D01*
X55412Y352298D01*
X56139Y351209D01*
X56363Y350084D01*
X57114Y348960D01*
X58238Y348209D01*
X59563Y347946D01*
X62357D01*
X63474Y348168D01*
X63707Y347605D01*
X64903Y346409D01*
X66465Y345762D01*
X68155D01*
X69717Y346409D01*
X70913Y347605D01*
X71560Y349167D01*
Y350857D01*
X70913Y352419D01*
X70145Y353187D01*
X70913Y353955D01*
X71560Y355517D01*
Y357207D01*
X70913Y358769D01*
X69717Y359965D01*
X68155Y360612D01*
D02*
G37*
G36*
X34070Y357530D02*
X30435D01*
Y353695D01*
X34070D01*
Y357530D01*
D02*
G37*
G36*
Y352425D02*
X30435D01*
Y348590D01*
X34070D01*
Y352425D01*
D02*
G37*
G36*
X350015Y341102D02*
X342141D01*
Y328275D01*
X350015D01*
Y341102D01*
D02*
G37*
G36*
X191767D02*
X183893D01*
Y328275D01*
X191767D01*
Y341102D01*
D02*
G37*
G36*
X340871D02*
X332997D01*
Y328275D01*
X340871D01*
Y341102D01*
D02*
G37*
G36*
X182623D02*
X174749D01*
Y328275D01*
X182623D01*
Y341102D01*
D02*
G37*
G36*
X312580Y336946D02*
X310736D01*
X308956Y336469D01*
X307360Y335547D01*
X306057Y334244D01*
X305135Y332648D01*
X304658Y330868D01*
Y329024D01*
X305135Y327244D01*
X306057Y325648D01*
X307360Y324345D01*
X308956Y323423D01*
X310736Y322946D01*
X312580D01*
X314360Y323423D01*
X315956Y324345D01*
X317259Y325648D01*
X318181Y327244D01*
X318658Y329024D01*
Y330868D01*
X318181Y332648D01*
X317259Y334244D01*
X315956Y335547D01*
X314360Y336469D01*
X312580Y336946D01*
D02*
G37*
G36*
X232824D02*
X230980D01*
X229200Y336469D01*
X227604Y335547D01*
X226301Y334244D01*
X225379Y332648D01*
X224902Y330868D01*
Y329024D01*
X225379Y327244D01*
X226301Y325648D01*
X227604Y324345D01*
X229200Y323423D01*
X230980Y322946D01*
X232824D01*
X234604Y323423D01*
X236200Y324345D01*
X237503Y325648D01*
X238425Y327244D01*
X238902Y329024D01*
Y330868D01*
X238425Y332648D01*
X237503Y334244D01*
X236200Y335547D01*
X234604Y336469D01*
X232824Y336946D01*
D02*
G37*
G36*
X51645Y331910D02*
X49955D01*
X48393Y331263D01*
X47197Y330067D01*
X46550Y328505D01*
Y326815D01*
X45450Y326152D01*
X44322D01*
Y319652D01*
X45052D01*
Y318537D01*
X67592D01*
Y319652D01*
X68322D01*
Y326152D01*
X66119D01*
Y327730D01*
X65472Y329292D01*
X64276Y330488D01*
X62714Y331135D01*
X61024D01*
X59462Y330488D01*
X58266Y329292D01*
X57619Y327730D01*
Y326883D01*
X55050D01*
Y328505D01*
X54403Y330067D01*
X53207Y331263D01*
X51645Y331910D01*
D02*
G37*
G36*
X350015Y327005D02*
X342141D01*
Y314178D01*
X350015D01*
Y327005D01*
D02*
G37*
G36*
X340871D02*
X332997D01*
Y314178D01*
X340871D01*
Y327005D01*
D02*
G37*
G36*
X191767D02*
X183893D01*
Y314178D01*
X191767D01*
Y327005D01*
D02*
G37*
G36*
X370556Y291350D02*
X366421D01*
X362337Y290703D01*
X358404Y289425D01*
X354720Y287548D01*
X351375Y285117D01*
X350362Y284105D01*
X368489Y265978D01*
X386615Y284105D01*
X385602Y285117D01*
X382257Y287548D01*
X378573Y289425D01*
X374640Y290703D01*
X370556Y291350D01*
D02*
G37*
G36*
X349464Y283207D02*
X348451Y282194D01*
X346021Y278848D01*
X344143Y275164D01*
X342865Y271231D01*
X342219Y267147D01*
Y263012D01*
X342865Y258928D01*
X344143Y254996D01*
X346021Y251311D01*
X348451Y247966D01*
X349464Y246953D01*
X367591Y265080D01*
X349464Y283207D01*
D02*
G37*
G36*
X368489Y264182D02*
X350362Y246055D01*
X351375Y245042D01*
X354720Y242612D01*
X358404Y240735D01*
X362337Y239457D01*
X366421Y238810D01*
X370556D01*
X374640Y239457D01*
X378573Y240735D01*
X382257Y242612D01*
X385602Y245042D01*
X386615Y246055D01*
X368489Y264182D01*
D02*
G37*
G36*
X350015Y240165D02*
X342141D01*
Y231275D01*
X350015D01*
Y240165D01*
D02*
G37*
G36*
Y230005D02*
X342141D01*
Y221115D01*
X350015D01*
Y230005D01*
D02*
G37*
G36*
X136877Y172930D02*
X134902D01*
X132995Y172419D01*
X131285Y171432D01*
X129888Y170035D01*
X128901Y168325D01*
X128390Y166417D01*
Y164443D01*
X128901Y162535D01*
X129888Y160825D01*
X131285Y159428D01*
X132995Y158441D01*
X134902Y157929D01*
X136877D01*
X138785Y158441D01*
X140495Y159428D01*
X141892Y160825D01*
X142879Y162535D01*
X143391Y164443D01*
Y166417D01*
X142879Y168325D01*
X141892Y170035D01*
X140495Y171432D01*
X138785Y172419D01*
X136877Y172930D01*
D02*
G37*
G36*
X92890Y201430D02*
X73390D01*
Y189430D01*
Y179430D01*
Y169430D01*
X75140D01*
Y153930D01*
X106640D01*
Y169930D01*
X92890D01*
Y174430D01*
Y184430D01*
Y194430D01*
Y201430D01*
D02*
G37*
G36*
X73705Y149250D02*
X70070D01*
Y145415D01*
X73705D01*
Y149250D01*
D02*
G37*
G36*
Y144145D02*
X70070D01*
Y140310D01*
X73705D01*
Y144145D01*
D02*
G37*
G36*
X88140Y149980D02*
X78140D01*
Y149250D01*
X74975D01*
Y144780D01*
Y140310D01*
X78140D01*
Y139580D01*
X88140D01*
Y140799D01*
X92486D01*
X93135Y140530D01*
X94825D01*
X95473Y140799D01*
X99011D01*
X99660Y140530D01*
X101350D01*
X101999Y140799D01*
X105187D01*
X105835Y140530D01*
X107525D01*
X108174Y140799D01*
X116221D01*
X122140Y134880D01*
Y134253D01*
X122403Y132928D01*
X123154Y131804D01*
X124278Y131053D01*
X125603Y130789D01*
X138049D01*
X139374Y131053D01*
X140498Y131804D01*
X141249Y132928D01*
X141512Y134253D01*
Y137047D01*
X141249Y138372D01*
X140498Y139496D01*
X139374Y140247D01*
X138049Y140511D01*
X127770D01*
X120685Y147595D01*
X119394Y148458D01*
X117870Y148762D01*
X108174D01*
X107525Y149030D01*
X105835D01*
X105187Y148762D01*
X101999D01*
X101350Y149030D01*
X99660D01*
X99011Y148762D01*
X95473D01*
X94825Y149030D01*
X93135D01*
X92486Y148762D01*
X88140D01*
Y149980D01*
D02*
G37*
G36*
X82423Y137247D02*
X79375D01*
Y130175D01*
X86955D01*
Y132715D01*
X86610Y134449D01*
X85628Y135920D01*
X84157Y136902D01*
X82423Y137247D01*
D02*
G37*
G36*
X78105D02*
X75057D01*
X73323Y136902D01*
X71852Y135920D01*
X70870Y134449D01*
X70525Y132715D01*
Y130175D01*
X78105D01*
Y137247D01*
D02*
G37*
G36*
X223349Y163508D02*
X221659D01*
X220097Y162861D01*
X218901Y161665D01*
X218254Y160103D01*
Y158413D01*
X218901Y156851D01*
X220097Y155655D01*
X221659Y155008D01*
X223349D01*
X224101Y155319D01*
X224290Y155193D01*
X225244Y155003D01*
X294570D01*
Y149940D01*
X312633D01*
Y148425D01*
X312823Y147471D01*
X313363Y146662D01*
X321589Y138436D01*
X320882Y137210D01*
X320200Y134667D01*
Y132034D01*
X320882Y129490D01*
X322198Y127210D01*
X324060Y125348D01*
X326340Y124031D01*
X328884Y123350D01*
X331516D01*
X334060Y124031D01*
X336340Y125348D01*
X338202Y127210D01*
X339519Y129490D01*
X340200Y132034D01*
Y134667D01*
X339519Y137210D01*
X338202Y139490D01*
X336340Y141352D01*
X334060Y142669D01*
X331516Y143350D01*
X328884D01*
X326340Y142669D01*
X325114Y141961D01*
X317618Y149457D01*
Y152385D01*
X317570Y152625D01*
Y159940D01*
X298005D01*
X297764Y159988D01*
X226754D01*
Y160103D01*
X226107Y161665D01*
X224911Y162861D01*
X223349Y163508D01*
D02*
G37*
G36*
X306117Y143350D02*
X303484D01*
X300940Y142669D01*
X298660Y141352D01*
X296798Y139490D01*
X295481Y137210D01*
X294800Y134667D01*
Y132034D01*
X295481Y129490D01*
X296798Y127210D01*
X298660Y125348D01*
X300940Y124031D01*
X303484Y123350D01*
X306117D01*
X308660Y124031D01*
X310940Y125348D01*
X312802Y127210D01*
X314118Y129490D01*
X314800Y132034D01*
Y134667D01*
X314118Y137210D01*
X312802Y139490D01*
X310940Y141352D01*
X308660Y142669D01*
X306117Y143350D01*
D02*
G37*
G36*
X280716D02*
X278083D01*
X275540Y142669D01*
X273260Y141352D01*
X271398Y139490D01*
X270082Y137210D01*
X269400Y134667D01*
Y132034D01*
X270082Y129490D01*
X271398Y127210D01*
X273260Y125348D01*
X275540Y124031D01*
X278083Y123350D01*
X280716D01*
X283260Y124031D01*
X285540Y125348D01*
X287402Y127210D01*
X288718Y129490D01*
X289400Y132034D01*
Y134667D01*
X288718Y137210D01*
X287402Y139490D01*
X285540Y141352D01*
X283260Y142669D01*
X280716Y143350D01*
D02*
G37*
G36*
X255317D02*
X252684D01*
X250140Y142669D01*
X247860Y141352D01*
X245998Y139490D01*
X244681Y137210D01*
X244000Y134667D01*
Y132034D01*
X244681Y129490D01*
X245998Y127210D01*
X247860Y125348D01*
X250140Y124031D01*
X252684Y123350D01*
X255317D01*
X257860Y124031D01*
X260140Y125348D01*
X262002Y127210D01*
X263319Y129490D01*
X264000Y132034D01*
Y134667D01*
X263319Y137210D01*
X262002Y139490D01*
X260140Y141352D01*
X257860Y142669D01*
X255317Y143350D01*
D02*
G37*
G36*
X229916D02*
X227283D01*
X224740Y142669D01*
X222460Y141352D01*
X220598Y139490D01*
X219282Y137210D01*
X218600Y134667D01*
Y132034D01*
X219282Y129490D01*
X220598Y127210D01*
X222460Y125348D01*
X224740Y124031D01*
X227283Y123350D01*
X229916D01*
X232460Y124031D01*
X234740Y125348D01*
X236602Y127210D01*
X237918Y129490D01*
X238600Y132034D01*
Y134667D01*
X237918Y137210D01*
X236602Y139490D01*
X234740Y141352D01*
X232460Y142669D01*
X229916Y143350D01*
D02*
G37*
G36*
X213200D02*
X193200D01*
Y123350D01*
X213200D01*
Y143350D01*
D02*
G37*
G36*
X86955Y128905D02*
X79375D01*
Y121833D01*
X82423D01*
X84157Y122178D01*
X85628Y123160D01*
X86610Y124631D01*
X86955Y126365D01*
Y128905D01*
D02*
G37*
G36*
X78105D02*
X70525D01*
Y126365D01*
X70870Y124631D01*
X71852Y123160D01*
X73323Y122178D01*
X75057Y121833D01*
X78105D01*
Y128905D01*
D02*
G37*
G36*
X138049Y109766D02*
X132461D01*
Y106285D01*
X140768D01*
Y107047D01*
X140561Y108088D01*
X139972Y108970D01*
X139090Y109559D01*
X138049Y109766D01*
D02*
G37*
G36*
X131191D02*
X125603D01*
X124562Y109559D01*
X123680Y108970D01*
X123091Y108088D01*
X122884Y107047D01*
Y106285D01*
X131191D01*
Y109766D01*
D02*
G37*
G36*
X199263Y109307D02*
X196215D01*
Y102235D01*
X203795D01*
Y104775D01*
X203450Y106509D01*
X202468Y107980D01*
X200997Y108962D01*
X199263Y109307D01*
D02*
G37*
G36*
X194945D02*
X191897D01*
X190163Y108962D01*
X188692Y107980D01*
X187710Y106509D01*
X187365Y104775D01*
Y102235D01*
X194945D01*
Y109307D01*
D02*
G37*
G36*
X140768Y105015D02*
X132461D01*
Y101534D01*
X138049D01*
X139090Y101741D01*
X139972Y102330D01*
X140561Y103212D01*
X140768Y104253D01*
Y105015D01*
D02*
G37*
G36*
X131191D02*
X122884D01*
Y104253D01*
X123091Y103212D01*
X123680Y102330D01*
X124562Y101741D01*
X125603Y101534D01*
X131191D01*
Y105015D01*
D02*
G37*
G36*
X120661Y101786D02*
X118971D01*
X117409Y101139D01*
X116931Y100661D01*
X116453Y101139D01*
X114891Y101786D01*
X113201D01*
X111639Y101139D01*
X110443Y99943D01*
X109796Y98381D01*
Y96691D01*
X110443Y95129D01*
X111550Y94022D01*
X111582Y93860D01*
X112060Y93145D01*
Y92127D01*
X112049Y92071D01*
Y89869D01*
X111924Y89682D01*
X111778Y88950D01*
X92420D01*
Y88220D01*
X90055D01*
Y79700D01*
X88785D01*
Y88220D01*
X85150D01*
Y80217D01*
X83880Y79786D01*
X83760Y79942D01*
X79169Y75351D01*
X78720Y75800D01*
X78271Y75351D01*
X73680Y79942D01*
X73025Y79088D01*
X72368Y77502D01*
X72144Y75800D01*
Y65300D01*
X72368Y63598D01*
X73025Y62012D01*
X73680Y61158D01*
X78271Y65749D01*
X78720Y65300D01*
X79169Y65749D01*
X83760Y61158D01*
X84415Y62012D01*
X85072Y63598D01*
X85296Y65300D01*
Y71180D01*
X89646D01*
X89902Y69926D01*
X89902Y69910D01*
X88357Y68366D01*
X87520Y66344D01*
Y64156D01*
X88357Y62134D01*
X89904Y60587D01*
X91926Y59750D01*
X94114D01*
X96136Y60587D01*
X97683Y62134D01*
X97998Y62895D01*
X99295Y63185D01*
X100159Y62441D01*
Y61735D01*
X99890Y61087D01*
Y59396D01*
X100159Y58748D01*
Y55595D01*
X99890Y54947D01*
Y53257D01*
X100537Y51695D01*
X101733Y50499D01*
X103295Y49852D01*
X104985D01*
X106547Y50499D01*
X107743Y51695D01*
X108390Y53257D01*
Y54947D01*
X108122Y55595D01*
Y58748D01*
X108390Y59396D01*
Y61087D01*
X108122Y61735D01*
Y63088D01*
X108150Y63115D01*
X109563Y63442D01*
X109998Y63008D01*
X110806Y62467D01*
X111760Y62278D01*
X133588D01*
X146765Y49101D01*
X147573Y48560D01*
X148527Y48371D01*
X158106D01*
X164678Y41799D01*
X164223Y40458D01*
X163418Y40352D01*
X161832Y39695D01*
X160978Y39040D01*
X165569Y34449D01*
X164671Y33551D01*
X160080Y38142D01*
X159425Y37288D01*
X158768Y35702D01*
X158544Y34000D01*
Y23500D01*
X158768Y21798D01*
X159425Y20212D01*
X160080Y19358D01*
X164671Y23949D01*
X165120Y23500D01*
X165569Y23949D01*
X170160Y19358D01*
X170815Y20212D01*
X171472Y21798D01*
X171696Y23500D01*
Y30280D01*
X172870Y30766D01*
X175340Y28295D01*
X175340Y20320D01*
X176070Y19352D01*
X176070Y19050D01*
Y15205D01*
X180340D01*
X184610D01*
X184610Y19352D01*
X185340Y20320D01*
X185340Y20558D01*
Y31820D01*
X178865D01*
X175538Y35147D01*
Y36440D01*
X175876Y37108D01*
X176727Y37490D01*
X179705D01*
Y42510D01*
X180340D01*
Y43145D01*
X184610D01*
X184610Y47292D01*
X185340Y48260D01*
X185340Y48498D01*
Y59760D01*
X175340D01*
Y56502D01*
X154686D01*
X152549Y58639D01*
X152847Y60137D01*
X153935Y60587D01*
X155483Y62134D01*
X156320Y64156D01*
Y66344D01*
X155483Y68366D01*
X153938Y69910D01*
X153938Y69926D01*
X154194Y71180D01*
X158544D01*
Y65300D01*
X158768Y63598D01*
X159425Y62012D01*
X160080Y61158D01*
X164671Y65749D01*
X165120Y65300D01*
X165569Y65749D01*
X170160Y61158D01*
X170815Y62012D01*
X171472Y63598D01*
X171696Y65300D01*
Y75800D01*
X171472Y77502D01*
X170815Y79088D01*
X170160Y79942D01*
X165569Y75351D01*
X165120Y75800D01*
X164671Y75351D01*
X160080Y79942D01*
X159960Y79786D01*
X158690Y80217D01*
Y88220D01*
X155055D01*
Y79700D01*
X153785D01*
Y88220D01*
X151420D01*
Y88950D01*
X150401D01*
Y91051D01*
X150923Y91573D01*
X151570Y93135D01*
Y94825D01*
X150923Y96387D01*
X149727Y97583D01*
X148165Y98230D01*
X146475D01*
X144913Y97583D01*
X143717Y96387D01*
X143364Y95535D01*
X142742Y94604D01*
X142438Y93080D01*
Y92557D01*
X141800Y91015D01*
Y89325D01*
X141550Y88950D01*
X130810D01*
X130805Y88974D01*
X130123Y89995D01*
X128965Y91153D01*
X127943Y91835D01*
X126739Y92075D01*
X122313D01*
X121954Y93032D01*
X121912Y93309D01*
X122280Y93860D01*
X122312Y94022D01*
X123419Y95129D01*
X124066Y96691D01*
Y98381D01*
X123419Y99943D01*
X122223Y101139D01*
X120661Y101786D01*
D02*
G37*
G36*
X226402Y105059D02*
X221185D01*
Y99735D01*
X228409D01*
Y103053D01*
X228256Y103820D01*
X227821Y104471D01*
X227170Y104906D01*
X226402Y105059D01*
D02*
G37*
G36*
X219915D02*
X214697D01*
X213930Y104906D01*
X213279Y104471D01*
X212844Y103820D01*
X212691Y103053D01*
Y99735D01*
X219915D01*
Y105059D01*
D02*
G37*
G36*
X203795Y100965D02*
X196215D01*
Y93893D01*
X199263D01*
X200997Y94238D01*
X202468Y95220D01*
X203450Y96691D01*
X203795Y98425D01*
Y100965D01*
D02*
G37*
G36*
X194945D02*
X187365D01*
Y98425D01*
X187710Y96691D01*
X188692Y95220D01*
X190163Y94238D01*
X191897Y93893D01*
X194945D01*
Y100965D01*
D02*
G37*
G36*
X228409Y98465D02*
X221185D01*
Y93141D01*
X226402D01*
X227170Y93294D01*
X227821Y93729D01*
X228256Y94380D01*
X228409Y95147D01*
Y98465D01*
D02*
G37*
G36*
X219915D02*
X212691D01*
Y95147D01*
X212844Y94380D01*
X213279Y93729D01*
X213930Y93294D01*
X214697Y93141D01*
X219915D01*
Y98465D01*
D02*
G37*
G36*
X293018Y94458D02*
X281882D01*
X280719Y94227D01*
X279732Y93568D01*
X279073Y92581D01*
X278842Y91418D01*
Y82771D01*
X227064D01*
X226402Y82903D01*
X214697D01*
X214036Y82771D01*
X203218D01*
X202994Y83106D01*
X201282Y84250D01*
X199263Y84651D01*
X191897D01*
X189878Y84250D01*
X188166Y83106D01*
X187022Y81394D01*
X186621Y79375D01*
Y73025D01*
X187022Y71006D01*
X188166Y69294D01*
X189878Y68150D01*
X191897Y67749D01*
X199263D01*
X201282Y68150D01*
X202994Y69294D01*
X203218Y69629D01*
X214036D01*
X214697Y69497D01*
X226402D01*
X227064Y69629D01*
X278839D01*
Y60338D01*
X251361Y32860D01*
X250144D01*
X247600Y32178D01*
X245320Y30862D01*
X243458Y29000D01*
X242141Y26720D01*
X241460Y24176D01*
Y21544D01*
X242141Y19000D01*
X243458Y16720D01*
X245320Y14858D01*
X247600Y13542D01*
X250144Y12860D01*
X252777D01*
X255320Y13542D01*
X257600Y14858D01*
X259462Y16720D01*
X260779Y19000D01*
X261460Y21544D01*
Y22761D01*
X291029Y52330D01*
X292164Y53809D01*
X292878Y55532D01*
X293121Y57380D01*
X293121Y57380D01*
Y57962D01*
X294181Y58173D01*
X295168Y58832D01*
X295827Y59819D01*
X296058Y60982D01*
Y71571D01*
X301463D01*
X307560Y65474D01*
Y63627D01*
X307823Y62302D01*
X308574Y61178D01*
X309698Y60427D01*
X311023Y60163D01*
X313817D01*
X315142Y60427D01*
X316266Y61178D01*
X317017Y62302D01*
X317040Y62417D01*
X317563Y62767D01*
X318567Y64269D01*
X318919Y66040D01*
X318567Y67811D01*
X317563Y69313D01*
X317040Y69663D01*
X317017Y69778D01*
X316266Y70902D01*
X315142Y71653D01*
X314307Y71819D01*
X306653Y79473D01*
X305151Y80477D01*
X303380Y80829D01*
X303380Y80829D01*
X296058D01*
Y91418D01*
X295827Y92581D01*
X295168Y93568D01*
X294181Y94227D01*
X293018Y94458D01*
D02*
G37*
G36*
X165120Y82376D02*
X163418Y82152D01*
X161832Y81495D01*
X160978Y80840D01*
X165120Y76698D01*
X169262Y80840D01*
X168408Y81495D01*
X166822Y82152D01*
X165120Y82376D01*
D02*
G37*
G36*
X78720D02*
X77018Y82152D01*
X75432Y81495D01*
X74578Y80840D01*
X78720Y76698D01*
X82862Y80840D01*
X82008Y81495D01*
X80422Y82152D01*
X78720Y82376D01*
D02*
G37*
G36*
X165120Y64402D02*
X160978Y60260D01*
X161832Y59605D01*
X163418Y58948D01*
X165120Y58724D01*
X166822Y58948D01*
X168408Y59605D01*
X169262Y60260D01*
X165120Y64402D01*
D02*
G37*
G36*
X78720D02*
X74578Y60260D01*
X75432Y59605D01*
X77018Y58948D01*
X78720Y58724D01*
X80422Y58948D01*
X82008Y59605D01*
X82862Y60260D01*
X78720Y64402D01*
D02*
G37*
G36*
X329057Y71916D02*
X326263D01*
X324938Y71653D01*
X323814Y70902D01*
X323063Y69778D01*
X322799Y68453D01*
Y63627D01*
X323063Y62302D01*
X323103Y62241D01*
Y59238D01*
X322205Y58340D01*
X320040Y58340D01*
X319072Y57610D01*
X318770Y57610D01*
X314925D01*
Y53340D01*
Y49070D01*
X319072Y49070D01*
X320040Y48340D01*
X320278Y48340D01*
X331540D01*
Y58340D01*
X328477D01*
Y60163D01*
X329057D01*
X330382Y60427D01*
X331506Y61178D01*
X332257Y62302D01*
X332520Y63627D01*
Y68453D01*
X332257Y69778D01*
X331506Y70902D01*
X330382Y71653D01*
X329057Y71916D01*
D02*
G37*
G36*
X313655Y57610D02*
X309270D01*
Y53975D01*
X313655D01*
Y57610D01*
D02*
G37*
G36*
Y52705D02*
X309270D01*
Y49070D01*
X313655D01*
Y52705D01*
D02*
G37*
G36*
X207670Y50845D02*
X203835D01*
Y47210D01*
X207670D01*
Y50845D01*
D02*
G37*
G36*
X202565D02*
X198730D01*
Y47210D01*
X202565D01*
Y50845D01*
D02*
G37*
G36*
X184610Y41875D02*
X180975D01*
Y37490D01*
X184610D01*
Y41875D01*
D02*
G37*
G36*
X78720Y40576D02*
X77018Y40352D01*
X75432Y39695D01*
X74578Y39040D01*
X78720Y34898D01*
X82862Y39040D01*
X82008Y39695D01*
X80422Y40352D01*
X78720Y40576D01*
D02*
G37*
G36*
X83760Y38142D02*
X79169Y33551D01*
X78720Y34000D01*
X78271Y33551D01*
X73680Y38142D01*
X73025Y37288D01*
X72368Y35702D01*
X72144Y34000D01*
Y23500D01*
X72368Y21798D01*
X73025Y20212D01*
X73680Y19358D01*
X78271Y23949D01*
X78720Y23500D01*
X79169Y23949D01*
X83760Y19358D01*
X84415Y20212D01*
X85072Y21798D01*
X85296Y23500D01*
Y34000D01*
X85072Y35702D01*
X84415Y37288D01*
X83760Y38142D01*
D02*
G37*
G36*
X278080Y32130D02*
X275640D01*
X273282Y31498D01*
X271168Y30278D01*
X270754Y29864D01*
X276860Y23758D01*
X282966Y29864D01*
X282552Y30278D01*
X280438Y31498D01*
X278080Y32130D01*
D02*
G37*
G36*
X165120Y22602D02*
X160978Y18460D01*
X161832Y17805D01*
X163418Y17148D01*
X165120Y16924D01*
X166822Y17148D01*
X168408Y17805D01*
X169262Y18460D01*
X165120Y22602D01*
D02*
G37*
G36*
X78720D02*
X74578Y18460D01*
X75432Y17805D01*
X77018Y17148D01*
X78720Y16924D01*
X80422Y17148D01*
X82008Y17805D01*
X82862Y18460D01*
X78720Y22602D01*
D02*
G37*
G36*
X283864Y28966D02*
X277758Y22860D01*
X283864Y16754D01*
X284278Y17168D01*
X285498Y19282D01*
X286130Y21640D01*
Y24080D01*
X285498Y26438D01*
X284278Y28552D01*
X283864Y28966D01*
D02*
G37*
G36*
X269856D02*
X269442Y28552D01*
X268222Y26438D01*
X267590Y24080D01*
Y21640D01*
X268222Y19282D01*
X269442Y17168D01*
X269856Y16754D01*
X275962Y22860D01*
X269856Y28966D01*
D02*
G37*
G36*
X276860Y21962D02*
X270754Y15856D01*
X271168Y15442D01*
X273282Y14222D01*
X275640Y13590D01*
X278080D01*
X280438Y14222D01*
X282552Y15442D01*
X282966Y15856D01*
X276860Y21962D01*
D02*
G37*
G36*
X354376Y32860D02*
X351744D01*
X349200Y32178D01*
X346920Y30862D01*
X345058Y29000D01*
X343741Y26720D01*
X343060Y24176D01*
Y21544D01*
X343741Y19000D01*
X345058Y16720D01*
X346920Y14858D01*
X349200Y13542D01*
X351744Y12860D01*
X354376D01*
X356920Y13542D01*
X359200Y14858D01*
X361062Y16720D01*
X362379Y19000D01*
X363060Y21544D01*
Y24176D01*
X362379Y26720D01*
X361062Y29000D01*
X359200Y30862D01*
X356920Y32178D01*
X354376Y32860D01*
D02*
G37*
G36*
X328977D02*
X326343D01*
X323800Y32178D01*
X321520Y30862D01*
X319658Y29000D01*
X318342Y26720D01*
X317660Y24176D01*
Y21544D01*
X318342Y19000D01*
X319658Y16720D01*
X321520Y14858D01*
X323800Y13542D01*
X326343Y12860D01*
X328977D01*
X331520Y13542D01*
X333800Y14858D01*
X335662Y16720D01*
X336978Y19000D01*
X337660Y21544D01*
Y24176D01*
X336978Y26720D01*
X335662Y29000D01*
X333800Y30862D01*
X331520Y32178D01*
X328977Y32860D01*
D02*
G37*
G36*
X303577D02*
X300944D01*
X298400Y32178D01*
X296120Y30862D01*
X294258Y29000D01*
X292941Y26720D01*
X292260Y24176D01*
Y21544D01*
X292941Y19000D01*
X294258Y16720D01*
X296120Y14858D01*
X298400Y13542D01*
X300944Y12860D01*
X303577D01*
X306120Y13542D01*
X308400Y14858D01*
X310262Y16720D01*
X311579Y19000D01*
X312260Y21544D01*
Y24176D01*
X311579Y26720D01*
X310262Y29000D01*
X308400Y30862D01*
X306120Y32178D01*
X303577Y32860D01*
D02*
G37*
G36*
X208400Y65280D02*
X198000D01*
Y55280D01*
X198730D01*
Y52115D01*
X207670D01*
Y55280D01*
X208400D01*
Y55651D01*
X211647D01*
X211917Y55381D01*
X211947Y55228D01*
Y49348D01*
X212157Y48295D01*
X212753Y47403D01*
X213645Y46807D01*
X214697Y46597D01*
X218194D01*
X218919Y45872D01*
Y32860D01*
X216060D01*
Y12860D01*
X236060D01*
Y32860D01*
X233201D01*
Y48830D01*
X233201Y48830D01*
X232958Y50678D01*
X232244Y52401D01*
X231110Y53879D01*
X229153Y55836D01*
Y57252D01*
X228944Y58305D01*
X228347Y59197D01*
X227455Y59794D01*
X226402Y60003D01*
X223909D01*
X223438Y60198D01*
X221590Y60441D01*
X221590Y60441D01*
X220550D01*
X219956Y60363D01*
X219813Y60577D01*
X219813Y60577D01*
X216837Y63553D01*
X215336Y64557D01*
X213564Y64909D01*
X213564Y64909D01*
X208400D01*
Y65280D01*
D02*
G37*
G36*
X184610Y13935D02*
X180975D01*
Y9550D01*
X184610D01*
Y13935D01*
D02*
G37*
G36*
X179705D02*
X176070D01*
Y9550D01*
X179705D01*
Y13935D01*
D02*
G37*
G36*
X27592Y267267D02*
X16957D01*
Y265382D01*
X27592D01*
Y267267D01*
D02*
G37*
%LPD*%
D11*
X155600Y175200D02*
X155830Y175430D01*
X155600Y135851D02*
Y175200D01*
X155830Y175430D02*
X158640D01*
X172991Y129250D02*
X174600Y130859D01*
Y135851D01*
X131826Y120650D02*
X152516D01*
X161116Y129250D01*
X172991D01*
X47590Y353060D02*
Y365760D01*
D15*
X325790Y53340D02*
Y66040D01*
D16*
X27412Y297922D02*
X27432Y297942D01*
X16342Y297922D02*
X27412D01*
X16322Y297902D02*
X16342Y297922D01*
X138142Y275638D02*
X138179D01*
X119438Y294342D02*
X138142Y275638D01*
X138179D02*
X146776Y267041D01*
X119126Y297434D02*
X119438Y297122D01*
Y294342D02*
Y297122D01*
X146776Y264450D02*
Y267041D01*
X126132Y250331D02*
X134639Y258838D01*
X146776Y264450D02*
X150058Y261168D01*
X134639Y258838D02*
X137680D01*
X142494Y263652D01*
X132948Y247509D02*
X137462Y252022D01*
X149239D01*
X44671Y272772D02*
X45456Y273557D01*
X44671Y265968D02*
Y272772D01*
X42571Y276451D02*
Y276581D01*
X61157Y253474D02*
X61158Y253474D01*
X61157Y262668D02*
X61158Y262668D01*
Y264494D01*
X67972Y256297D02*
X67973Y256297D01*
X61158Y221043D02*
Y253474D01*
X61157Y253474D02*
Y262668D01*
X67973Y223866D02*
Y256297D01*
Y259845D02*
Y269836D01*
X67972Y256297D02*
Y259845D01*
X54910Y264494D02*
X61158D01*
X67972Y259845D02*
X67973Y259845D01*
X16322Y282902D02*
X16354Y282934D01*
X27208D02*
X27239Y282966D01*
X16354Y282934D02*
X27208D01*
X150058Y261168D02*
X157902D01*
X158640Y260430D01*
X61158Y221043D02*
X69708Y212492D01*
X126132Y227472D02*
Y250331D01*
X117969Y219308D02*
X126132Y227472D01*
X67973Y223866D02*
X72531Y219308D01*
X117969D01*
X67312Y270497D02*
X67973Y269836D01*
X67312Y270497D02*
X69745Y272930D01*
X132948Y224648D02*
Y247509D01*
X120792Y212492D02*
X132948Y224648D01*
X69708Y212492D02*
X120792D01*
X44671Y265968D02*
X45638Y265001D01*
X54404D02*
X54910Y264494D01*
X45638Y265001D02*
X54404D01*
D20*
X223481Y159258D02*
X225244Y157495D01*
X297764D01*
X222504Y159258D02*
X223481D01*
X297764Y157495D02*
X300320Y154940D01*
X31639Y255382D02*
Y300417D01*
Y255382D02*
X34290Y252730D01*
X29959Y302097D02*
X31639Y300417D01*
X33790Y264660D02*
X40640Y257810D01*
X33790Y264660D02*
Y305317D01*
X4562Y251714D02*
Y252022D01*
X2508Y249352D02*
X4562Y251406D01*
Y251714D01*
X2508Y254076D02*
X4562Y252022D01*
X2508Y239462D02*
Y249352D01*
Y254076D02*
Y304768D01*
X4562Y251714D02*
X5842D01*
X159444Y309626D02*
X177038D01*
X158640Y310430D02*
X159444Y309626D01*
X159696Y304374D02*
X171368D01*
X158640Y305430D02*
X159696Y304374D01*
X171368D02*
X171958Y303784D01*
X200660Y298450D02*
X207010Y292100D01*
X166466Y298450D02*
X200660D01*
X165946Y298971D02*
Y299374D01*
X164890Y300430D02*
X165946Y299374D01*
X158640Y300430D02*
X164890D01*
X165946Y298971D02*
X166466Y298450D01*
X164890Y295430D02*
X165946Y294374D01*
Y294145D02*
X166466Y293624D01*
X194310D02*
X202952Y284982D01*
X158640Y295430D02*
X164890D01*
X165946Y294145D02*
Y294374D01*
X166466Y293624D02*
X194310D01*
X202952Y282188D02*
Y284982D01*
Y282188D02*
X203200Y281940D01*
X158640Y320430D02*
X159696Y321485D01*
X171371D01*
X171704Y321818D01*
X109420Y67110D02*
X111760Y64770D01*
X134620D01*
X109420Y67110D02*
Y79700D01*
X134620Y64770D02*
X148527Y50863D01*
X172190Y252730D02*
X172974D01*
X165732Y246273D02*
X172190Y252730D01*
X164890Y250430D02*
X173228Y258768D01*
X159482Y246273D02*
X165732D01*
X158640Y250430D02*
X164890D01*
X158640Y245430D02*
X159482Y246273D01*
X173228Y258768D02*
Y258826D01*
X82999Y258071D02*
X83140Y257930D01*
X72255Y258071D02*
X82999D01*
X82386Y252176D02*
X83140Y252930D01*
X72371Y252176D02*
X82386D01*
X38100Y264160D02*
Y308610D01*
Y264160D02*
X46390Y255870D01*
X34290Y312420D02*
X38100Y308610D01*
X5064Y237656D02*
X7620Y235100D01*
X2508Y239462D02*
X4315Y237656D01*
X7620Y234350D02*
Y235100D01*
X4315Y237656D02*
X5064D01*
X2508Y304768D02*
X5509Y307769D01*
X27940Y227851D02*
Y237490D01*
X43180Y227330D02*
X45717Y224793D01*
X17127Y302097D02*
X29959D01*
X55880Y233680D02*
X58420Y231140D01*
Y219710D02*
Y231140D01*
X46390Y233680D02*
X55880D01*
X59598Y367030D02*
X69088D01*
X59344Y367284D02*
X59598Y367030D01*
X139700Y307340D02*
X150555Y296485D01*
X139700Y307340D02*
Y329993D01*
X157584Y296485D02*
X158640Y295430D01*
X150555Y296485D02*
X157584D01*
X27940Y237490D02*
X40640Y250190D01*
Y257810D01*
X46390Y233680D02*
Y255870D01*
X28461Y227330D02*
X43180D01*
X165139Y118110D02*
X173990D01*
X165100Y118149D02*
X165139Y118110D01*
X158640Y315430D02*
X159110Y314960D01*
X171450D01*
X315126Y148425D02*
Y152385D01*
X311820Y154940D02*
X312570D01*
X315126Y148425D02*
X330200Y133350D01*
X312570Y154940D02*
X315126Y152385D01*
X148527Y50863D02*
X159139D01*
X173046Y34114D02*
X180340Y26820D01*
X173046Y34114D02*
Y36956D01*
X159139Y50863D02*
X173046Y36956D01*
X180340Y26070D02*
Y26820D01*
X139420Y68243D02*
X153653Y54010D01*
X139420Y68243D02*
Y79700D01*
X153653Y54010D02*
X180340D01*
X20320Y234350D02*
X20473Y234503D01*
Y238913D01*
X34290Y252730D01*
X16322Y302902D02*
X17127Y302097D01*
X16189Y307769D02*
X16322Y307902D01*
X5509Y307769D02*
X16189D01*
X27940Y227851D02*
X28461Y227330D01*
X45717Y221653D02*
X46390Y220980D01*
X45717Y221653D02*
Y224793D01*
X16724Y317500D02*
X34290D01*
X16322Y317902D02*
X16724Y317500D01*
X16322Y312902D02*
X16804Y312420D01*
X34290D01*
X52070Y220980D02*
X67310Y205740D01*
X46390Y220980D02*
X52070D01*
X67310Y205740D02*
X123190D01*
X139700Y222250D01*
Y232410D01*
X142720Y235430D01*
X158640D01*
X58420Y219710D02*
X68580Y209550D01*
X121920D01*
X135890Y223520D01*
Y233680D01*
X142640Y240430D02*
X158640D01*
X135890Y233680D02*
X142640Y240430D01*
D21*
X45720Y353822D02*
D03*
X60960D02*
D03*
X312420Y66040D02*
D03*
X327660D02*
D03*
D22*
X195580Y76200D02*
D03*
Y101600D02*
D03*
X78740Y129540D02*
D03*
Y104140D02*
D03*
D23*
X220550Y99100D02*
D03*
Y76200D02*
D03*
Y53300D02*
D03*
D24*
X287450Y76200D02*
D03*
D25*
X154420Y79700D02*
D03*
X146420D02*
D03*
X97420D02*
D03*
X89420D02*
D03*
D26*
X139420D02*
D03*
X134420D02*
D03*
X129420D02*
D03*
X124420D02*
D03*
X104420D02*
D03*
X109420D02*
D03*
X114420D02*
D03*
X119420D02*
D03*
D27*
X56322Y322902D02*
D03*
Y317902D02*
D03*
Y312902D02*
D03*
Y307902D02*
D03*
Y302902D02*
D03*
Y297902D02*
D03*
Y292902D02*
D03*
Y287902D02*
D03*
Y282902D02*
D03*
Y277902D02*
D03*
Y272902D02*
D03*
X16322Y322902D02*
D03*
Y317902D02*
D03*
Y312902D02*
D03*
Y307902D02*
D03*
Y302902D02*
D03*
Y297902D02*
D03*
Y292902D02*
D03*
Y287902D02*
D03*
Y282902D02*
D03*
Y277902D02*
D03*
Y272902D02*
D03*
Y267902D02*
D03*
X56322Y267902D02*
D03*
D28*
X83140Y172930D02*
D03*
X158640Y175430D02*
D03*
X83140Y177930D02*
D03*
X158640Y180430D02*
D03*
X83140Y182930D02*
D03*
X158640Y185430D02*
D03*
X83140Y187930D02*
D03*
X158640Y190430D02*
D03*
X83140Y192930D02*
D03*
X158640Y195430D02*
D03*
X83140Y197930D02*
D03*
X158640Y220430D02*
D03*
X83140Y222930D02*
D03*
X158640Y225430D02*
D03*
X83140Y227930D02*
D03*
X158640Y230430D02*
D03*
X83140Y232930D02*
D03*
X158640Y235430D02*
D03*
X83140Y237930D02*
D03*
X158640Y240430D02*
D03*
X83140Y242930D02*
D03*
X158640Y245430D02*
D03*
X83140Y247930D02*
D03*
X158640Y250430D02*
D03*
X83140Y252930D02*
D03*
X158640Y255430D02*
D03*
X83140Y257930D02*
D03*
X158640Y260430D02*
D03*
X83140Y262930D02*
D03*
X158640Y265430D02*
D03*
X83140Y267930D02*
D03*
X158640Y270430D02*
D03*
X83140Y272930D02*
D03*
X158640Y275430D02*
D03*
X83140Y277930D02*
D03*
X158640Y280430D02*
D03*
X83140Y282930D02*
D03*
X158640Y285430D02*
D03*
X83140Y287930D02*
D03*
X158640Y290430D02*
D03*
X83140Y292930D02*
D03*
X158640Y295430D02*
D03*
X83140Y297930D02*
D03*
X158640Y300430D02*
D03*
X83140Y302930D02*
D03*
X158640Y305430D02*
D03*
X83140Y307930D02*
D03*
X158640Y310430D02*
D03*
X83140Y312930D02*
D03*
X158640Y315430D02*
D03*
X83140Y317930D02*
D03*
X158640Y320430D02*
D03*
X83140Y322930D02*
D03*
X158640Y325430D02*
D03*
X83140Y327930D02*
D03*
X158640Y330430D02*
D03*
X83140Y332930D02*
D03*
X158640Y335430D02*
D03*
X83140Y337930D02*
D03*
X158640Y340430D02*
D03*
X83140Y342930D02*
D03*
X158640Y345430D02*
D03*
X83140Y347930D02*
D03*
Y352930D02*
D03*
X158640Y355430D02*
D03*
X83140Y357930D02*
D03*
X158640Y350430D02*
D03*
D29*
X131826Y135650D02*
D03*
Y105650D02*
D03*
D30*
Y120650D02*
D03*
D31*
X239322Y222902D02*
D03*
X250322D02*
D03*
X261322D02*
D03*
X272322D02*
D03*
X283322D02*
D03*
X294322D02*
D03*
X305322D02*
D03*
X316322D02*
D03*
X327322D02*
D03*
D32*
X341506Y230640D02*
D03*
D33*
Y327640D02*
D03*
X183258D02*
D03*
D34*
X191008Y230640D02*
D03*
D35*
X90890Y368930D02*
D03*
Y161930D02*
D03*
D36*
X165100Y118149D02*
D03*
X155600Y135851D02*
D03*
D37*
X174600D02*
D03*
D38*
X47844Y367284D02*
D03*
X59344D02*
D03*
X325790Y53340D02*
D03*
X314290D02*
D03*
X300320Y154940D02*
D03*
X311820D02*
D03*
X34890Y220980D02*
D03*
X46390D02*
D03*
X34890Y233680D02*
D03*
X46390D02*
D03*
D39*
X203200Y51480D02*
D03*
Y60280D02*
D03*
D40*
X74340Y144780D02*
D03*
X83140D02*
D03*
X29800Y353060D02*
D03*
X21000D02*
D03*
X300310Y208280D02*
D03*
X291510D02*
D03*
D41*
X7620Y222850D02*
D03*
Y234350D02*
D03*
X20320Y222850D02*
D03*
Y234350D02*
D03*
X180340Y42510D02*
D03*
Y54010D02*
D03*
Y14570D02*
D03*
Y26070D02*
D03*
D70*
X64595Y352727D02*
X67310Y350012D01*
X59090Y353822D02*
X60185Y352727D01*
X65865Y354917D02*
X67310Y356362D01*
X60185Y352727D02*
X64595D01*
X59090Y353822D02*
X60185Y354917D01*
X65865D01*
X55723Y273557D02*
X56350Y272930D01*
X42571Y276581D02*
Y276768D01*
X42245Y277094D02*
X42571Y276768D01*
X45456Y273557D02*
X55723D01*
X42245Y276581D02*
X42432D01*
X45456Y273557D01*
X94075Y274640D02*
X94913Y275477D01*
X83545Y273335D02*
X92771D01*
X93889Y274453D02*
X94075D01*
Y274640D01*
X94913Y275477D02*
Y284956D01*
X92771Y273335D02*
X93889Y274453D01*
X91746Y287525D02*
X92597Y286675D01*
X93007D02*
X94726Y284956D01*
X92597Y286675D02*
X93007D01*
X94726Y284956D02*
X94913D01*
X61214Y322902D02*
X61869Y323557D01*
X51455Y322902D02*
X61214D01*
X61869Y323557D02*
Y326885D01*
X42245Y277094D02*
Y284522D01*
X42432D02*
X45156Y287247D01*
X42245Y284522D02*
X42432D01*
X45156Y287247D02*
X55667D01*
X56350Y287930D02*
X69745D01*
X83140D01*
X43528Y300309D02*
X45466Y302247D01*
X43528Y300025D02*
Y300309D01*
X42354Y298851D02*
X43528Y300025D01*
X42486Y291974D02*
Y298532D01*
X42354Y298664D02*
X42486Y298532D01*
X42354Y298664D02*
Y298851D01*
X42486Y291974D02*
X42789Y291671D01*
Y291298D02*
Y291671D01*
X43528Y290495D02*
Y290559D01*
Y290495D02*
X45466Y288557D01*
X42789Y291298D02*
X43528Y290559D01*
X56350Y302930D02*
X83140D01*
X45466Y302247D02*
X55667D01*
X43528Y305495D02*
Y305517D01*
X42626Y306419D02*
Y306792D01*
X42431Y306987D02*
X42626Y306792D01*
Y306419D02*
X43528Y305517D01*
X42431Y306987D02*
Y314306D01*
X43528Y305495D02*
X45466Y303557D01*
X42299Y314438D02*
X42431Y314306D01*
X42299Y314438D02*
X42486D01*
X45295Y317247D02*
X55667D01*
X42486Y314438D02*
X45295Y317247D01*
X88985Y317525D02*
X94717D01*
X95758Y316484D01*
Y307347D02*
Y316484D01*
X91746Y303335D02*
X95758Y307347D01*
X98515Y70227D02*
Y78605D01*
Y70227D02*
X104140Y64602D01*
Y54102D02*
Y64602D01*
X97420Y79700D02*
X98515Y78605D01*
X95250Y291839D02*
Y299021D01*
X91746Y288335D02*
X95250Y291839D01*
X91746Y302525D02*
X95250Y299021D01*
X146420Y79700D02*
Y93080D01*
X56322Y302902D02*
X56350Y302930D01*
X55667Y302247D02*
X56322Y302902D01*
X56350Y317930D02*
X69745D01*
X83140D01*
X55667Y317247D02*
X56350Y317930D01*
X69745Y272930D02*
X83140D01*
X56350D02*
X69745D01*
X83545Y303335D02*
X91746D01*
X83140Y302930D02*
X83545Y303335D01*
X83140Y272930D02*
X83545Y273335D01*
X48882Y272902D02*
X56322D01*
X55667Y287247D02*
X56322Y287902D01*
X83140Y287930D02*
X83545Y288335D01*
X91746D01*
X56322Y272902D02*
X56350Y272930D01*
X56322Y287902D02*
X56350Y287930D01*
X127000Y135650D02*
X131826D01*
X83140Y144780D02*
X117870D01*
X127000Y135650D01*
X50800Y323557D02*
X51455Y322902D01*
X50800Y323557D02*
Y327660D01*
X146420Y93080D02*
X147320Y93980D01*
D71*
X195580Y76200D02*
X220550D01*
X287450D01*
D72*
X118643Y88842D02*
Y90644D01*
X119371Y95064D02*
Y97091D01*
X119008Y85862D02*
Y88477D01*
X118643Y90644D02*
X118654Y90655D01*
X119371Y97091D02*
X119816Y97536D01*
X114491Y95064D02*
Y97091D01*
X115197Y92071D02*
X115208Y92082D01*
X115197Y88842D02*
Y92071D01*
X115208Y92082D02*
Y94347D01*
X114046Y97536D02*
X114491Y97091D01*
Y95064D02*
X115208Y94347D01*
X118654Y94347D02*
X119371Y95064D01*
X118654Y90655D02*
Y94347D01*
X119008Y85862D02*
X119420Y85450D01*
X118643Y88842D02*
X119008Y88477D01*
X114832D02*
X115197Y88842D01*
X114832Y79288D02*
Y88477D01*
X95311Y268123D02*
X95504Y268315D01*
X83333Y262737D02*
X95312D01*
X83140Y267930D02*
X83333Y268123D01*
X95311D01*
X83140Y262930D02*
X83333Y262737D01*
X95312D02*
X95504Y262545D01*
X122897Y72427D02*
X124008Y73538D01*
X122897Y71631D02*
Y72427D01*
X117113Y70461D02*
X121727D01*
X124008Y73538D02*
Y79288D01*
X115943Y71631D02*
X117113Y70461D01*
X121727D02*
X122897Y71631D01*
X115943D02*
Y72427D01*
X114832Y73538D02*
X115943Y72427D01*
X114832Y73538D02*
Y79288D01*
X127897Y86973D02*
X129420Y85450D01*
X126739Y88927D02*
X127897Y87769D01*
X129420Y79700D02*
Y85450D01*
X120943Y87769D02*
X122101Y88927D01*
X126739D01*
X127897Y86973D02*
Y87769D01*
X119420Y85450D02*
X120943Y86973D01*
Y87769D01*
X114420Y79700D02*
X114832Y79288D01*
X124008D02*
X124420Y79700D01*
X119420D02*
Y85450D01*
D73*
X171450Y232745D02*
Y242824D01*
X183824Y255198D01*
X298522D01*
X129540Y248920D02*
X136050Y255430D01*
X158640D01*
X229870Y200660D02*
X313690D01*
X220980Y191770D02*
X229870Y200660D01*
X64565Y254886D02*
X64565Y254885D01*
X64565Y254886D02*
Y261256D01*
X64565Y261257D02*
Y267395D01*
X64565Y261256D02*
X64565Y261257D01*
Y222455D02*
Y254885D01*
X291821Y250469D02*
X305322Y236968D01*
X189509Y250469D02*
X291821D01*
X179091Y240051D02*
X189509Y250469D01*
X298522Y255198D02*
X314579Y239141D01*
X294640Y233680D02*
X299720D01*
X289560D02*
X294640D01*
Y226220D02*
Y233680D01*
Y223220D02*
Y226220D01*
X299720Y231300D01*
X294322Y225902D02*
X294640Y226220D01*
X299720Y231300D02*
Y233680D01*
X294322Y222902D02*
X294640Y223220D01*
X289560Y230664D02*
X294322Y225902D01*
Y222902D02*
Y225902D01*
X289560Y230664D02*
Y233680D01*
X187960Y191770D02*
X220980D01*
X201375Y219739D02*
X202925Y221289D01*
X204470Y212090D02*
X224428Y232048D01*
X185420Y198120D02*
X214630D01*
X209550Y204470D02*
X225263Y220183D01*
X202925Y221289D02*
Y228325D01*
X180672Y204470D02*
X209550D01*
X175300Y212090D02*
X204470D01*
X214630Y198120D02*
X227330Y210820D01*
X166460Y219739D02*
X201375D01*
X313690Y200660D02*
X326414Y213384D01*
X274240Y210820D02*
X283322Y219902D01*
X224428Y232048D02*
X244202D01*
X248579Y227671D01*
X213360Y238760D02*
X252730D01*
X294322Y219902D02*
X299067Y215157D01*
Y209523D02*
Y215157D01*
X227330Y210820D02*
X274240D01*
X177474Y181284D02*
X187960Y191770D01*
X166623Y181284D02*
X177474D01*
X299067Y209523D02*
X300310Y208280D01*
X294322Y219902D02*
Y222902D01*
X173328Y186028D02*
X185420Y198120D01*
X158897Y190687D02*
X166888D01*
X158640Y190430D02*
X158897Y190687D01*
X166888D02*
X180672Y204470D01*
X166025Y180687D02*
X166623Y181284D01*
X158640Y180430D02*
X158897Y180687D01*
X166025D01*
X166366Y186028D02*
X173328D01*
X237579Y220183D02*
X239322Y221927D01*
Y222902D01*
X225263Y220183D02*
X237579D01*
X158640Y195430D02*
X175300Y212090D01*
X158640Y185430D02*
X158897Y185687D01*
X166025D02*
X166366Y186028D01*
X158897Y185687D02*
X166025D01*
X326414Y221994D02*
X327322Y222902D01*
X326414Y213384D02*
Y221994D01*
X202925Y228325D02*
X213360Y238760D01*
X252730D02*
X259742Y231748D01*
Y224482D02*
Y231748D01*
Y224482D02*
X261322Y222902D01*
X166025Y220173D02*
X166460Y219739D01*
X158897Y220173D02*
X166025D01*
X158640Y220430D02*
X158897Y220173D01*
X179091Y229891D02*
Y240051D01*
X305322Y222902D02*
Y236968D01*
X314579Y224645D02*
Y239141D01*
X283322Y219902D02*
Y222902D01*
X248579Y224645D02*
Y227671D01*
Y224645D02*
X250322Y222902D01*
X174887Y225687D02*
X179091Y229891D01*
X158897Y225687D02*
X174887D01*
X314579Y224645D02*
X316322Y222902D01*
X158897Y230687D02*
X169392D01*
X171450Y232745D01*
X158640Y225430D02*
X158897Y225687D01*
X158640Y230430D02*
X158897Y230687D01*
X64565Y222455D02*
X71120Y215900D01*
X119380D01*
X129540Y226060D02*
Y248920D01*
X119380Y215900D02*
X129540Y226060D01*
X64059Y267902D02*
X64565Y267395D01*
X56322Y267902D02*
X64059D01*
D74*
X281686Y208280D02*
X291510D01*
X14662Y323850D02*
Y346722D01*
X15240Y208332D02*
Y214480D01*
Y202184D02*
Y208332D01*
X200660Y360680D02*
X208280D01*
X193040D02*
X200660D01*
X185420D02*
X193040D01*
X177800D02*
X185420D01*
X168060D02*
X177800D01*
X276393Y229973D02*
Y233213D01*
X272322Y222902D02*
Y225902D01*
X276393Y229973D01*
Y233213D02*
X276860Y233680D01*
X271780D02*
X276860D01*
X271780Y223444D02*
X272322Y222902D01*
X271780Y223444D02*
Y233680D01*
X162810Y355430D02*
X168060Y360680D01*
X158640Y355430D02*
X162810D01*
X14662Y346722D02*
X21000Y353060D01*
X15240Y214480D02*
Y217020D01*
X7620Y222100D02*
X15240Y214480D01*
X7620Y222100D02*
Y222850D01*
X15240Y217020D02*
X20320Y222100D01*
Y222850D01*
X21440Y220980D02*
X34890D01*
X20320Y222100D02*
X21440Y220980D01*
X7620Y222850D02*
X20320D01*
X79248Y104140D02*
X95758Y120650D01*
X78740Y104140D02*
X79248D01*
X95758Y120650D02*
X131826D01*
X313540Y66040D02*
X314290D01*
X303380Y76200D02*
X313540Y66040D01*
X287450Y76200D02*
X303380D01*
X216540Y55410D02*
Y57304D01*
X213564Y60280D02*
X216540Y57304D01*
X203200Y60280D02*
X213564D01*
X218650Y53300D02*
X220550D01*
X216540Y55410D02*
X218650Y53300D01*
D75*
X57150Y107950D02*
X60960Y104140D01*
X53340Y111760D02*
X57150Y107950D01*
X60960Y104140D02*
X78740D01*
D76*
X285980Y74730D02*
X287450Y76200D01*
X251460Y22860D02*
X285980Y57380D01*
Y74730D01*
X220550Y53300D02*
X221590D01*
X226060Y22860D02*
Y48830D01*
X221590Y53300D02*
X226060Y48830D01*
D77*
X56322Y282902D02*
X57118Y282106D01*
X56322Y277902D02*
X58063Y279643D01*
X57118Y282106D02*
X82316D01*
X83140Y282930D01*
X58063Y279643D02*
X81427D01*
X83140Y277930D01*
X83031Y307930D02*
X83140D01*
X81346Y309615D02*
X83031Y307930D01*
X82288Y312078D02*
X83140Y312930D01*
X56322Y307902D02*
X58035Y309615D01*
X57146Y312078D02*
X82288D01*
X56322Y312902D02*
X57146Y312078D01*
X58035Y309615D02*
X81346D01*
X57146Y297078D02*
X82288D01*
X83140Y297930D01*
X56322Y297902D02*
X57146Y297078D01*
X81455Y294615D02*
X83140Y292930D01*
X58035Y294615D02*
X81455D01*
X56322Y292902D02*
X58035Y294615D01*
D78*
X353060Y22860D02*
D03*
X327660D02*
D03*
X276860D02*
D03*
X251460D02*
D03*
X302260D02*
D03*
X279400Y133350D02*
D03*
X228600D02*
D03*
X254000D02*
D03*
X304800D02*
D03*
X330200D02*
D03*
D79*
X226060Y22860D02*
D03*
X203200Y133350D02*
D03*
D80*
X150820Y65250D02*
D03*
X93020D02*
D03*
D81*
X165120Y28750D02*
D03*
X78720D02*
D03*
X165120Y70550D02*
D03*
X78720D02*
D03*
D82*
X368489Y265080D02*
D03*
D83*
X311658Y329946D02*
D03*
X231902D02*
D03*
D84*
X135890Y165430D02*
D03*
D85*
Y365430D02*
D03*
D86*
X67310Y356362D02*
D03*
Y350012D02*
D03*
X222504Y159258D02*
D03*
X27432Y297942D02*
D03*
X5842Y251714D02*
D03*
X177038Y309626D02*
D03*
X171958Y303784D02*
D03*
X171704Y321818D02*
D03*
X381000Y304800D02*
D03*
X355600Y355600D02*
D03*
X368300Y330200D02*
D03*
X355600Y304800D02*
D03*
X330200D02*
D03*
Y254000D02*
D03*
X304800Y304800D02*
D03*
X292100Y330200D02*
D03*
X279400Y304800D02*
D03*
X266700Y330200D02*
D03*
X254000Y304800D02*
D03*
X241300Y330200D02*
D03*
X228600Y304800D02*
D03*
X215900Y330200D02*
D03*
X127000Y355600D02*
D03*
Y304800D02*
D03*
X101600Y355600D02*
D03*
X114300Y330200D02*
D03*
Y279400D02*
D03*
X38100Y330200D02*
D03*
X114046Y97536D02*
D03*
X119816D02*
D03*
X95504Y268315D02*
D03*
Y262545D02*
D03*
X172974Y252730D02*
D03*
X173228Y258826D02*
D03*
X142494Y263652D02*
D03*
X281686Y208280D02*
D03*
X72255Y258071D02*
D03*
X72371Y252176D02*
D03*
X94075Y274453D02*
D03*
X94913Y284956D02*
D03*
X61869Y326885D02*
D03*
X42245Y276581D02*
D03*
Y284522D02*
D03*
Y298664D02*
D03*
Y291485D02*
D03*
Y306606D02*
D03*
Y314438D02*
D03*
X33790Y305317D02*
D03*
X27239Y282966D02*
D03*
X7047Y244745D02*
D03*
X7212Y262696D02*
D03*
X34890Y233680D02*
D03*
X95758Y316484D02*
D03*
X104140Y64602D02*
D03*
Y60241D02*
D03*
Y54102D02*
D03*
X15240Y214480D02*
D03*
Y208332D02*
D03*
Y202184D02*
D03*
X95250Y294640D02*
D03*
X69850Y234950D02*
D03*
Y245110D02*
D03*
Y226060D02*
D03*
X145796Y246126D02*
D03*
X69745Y287930D02*
D03*
X69745Y272930D02*
D03*
X69745Y302930D02*
D03*
Y317930D02*
D03*
X299720Y233680D02*
D03*
X294640D02*
D03*
X289560D02*
D03*
X276860D02*
D03*
X271780D02*
D03*
X274320Y76200D02*
D03*
X266700D02*
D03*
X259080D02*
D03*
X251460D02*
D03*
X243840D02*
D03*
X236220D02*
D03*
X208065D02*
D03*
X208280Y360680D02*
D03*
X200660D02*
D03*
X193040D02*
D03*
X185420D02*
D03*
X177800D02*
D03*
X106680Y144780D02*
D03*
X100505D02*
D03*
X93980D02*
D03*
X119126Y297434D02*
D03*
X69088Y367030D02*
D03*
X139700Y329993D02*
D03*
X50800Y327660D02*
D03*
X15240Y344170D02*
D03*
Y337820D02*
D03*
Y331470D02*
D03*
Y326390D02*
D03*
X53340Y111760D02*
D03*
X57150Y107950D02*
D03*
X60960Y104140D02*
D03*
X146050Y90170D02*
D03*
X147320Y93980D02*
D03*
X173990Y118110D02*
D03*
X171450Y314960D02*
D03*
X207010Y292100D02*
D03*
X203200Y281940D02*
D03*
X34290Y317500D02*
D03*
Y252730D02*
D03*
D87*
X23822Y258402D02*
D03*
X23822Y332402D02*
D03*
M02*
